<svg version="1.2" xmlns="http://www.w3.org/2000/svg" viewBox="0 0 1000 800" width="1000" height="800">
	<title>19212782_Curious analyst investigating question mark with magnifier-ai</title>
	<style>
		.s0 { fill: #dce6ff } 
		.s1 { fill: #d4e8ff } 
		.s2 { fill: #eef7ff } 
		.s3 { fill: #cfddf9 } 
		.s4 { fill: #7689d6 } 
		.s5 { fill: #fcb4b4 } 
		.s6 { fill: #1d3f70 } 
		.s7 { fill: #f99370 } 
		.s8 { fill: #23659b } 
		.s9 { fill: #e8c0a6 } 
		.s10 { fill: #395b96 } 
		.s11 { fill: #e57d61 } 
		.s12 { fill: #c16256 } 
		.s13 { fill: #9358e0 } 
		.s14 { fill: #7640cc } 
		.s15 { fill: #f4d4be } 
		.s16 { fill: #3a72aa } 
		.s17 { fill: #10325b } 
		.s18 { fill: #eb5648 } 
		.s19 { fill: #ce3932 } 
		.s20 { opacity: .4;fill: #ffffff } 
		.s21 { fill: #9ab1e8 } 
		.s22 { fill: #abc1ef } 
		.s23 { fill: #677cc1 } 
		.s24 { fill: #f49f9f } 
		.s25 { fill: #f9c0c0 } 
	</style>
	<g id="_Artboards_">
	</g>
	<g id="321353356351 1">
		<g id="&lt;Group&gt;">
			<g id="6">
				<path id="&lt;Compound Path&gt;" class="s0" d="m142.9 617.1c-1.7-5.4-3.4-11.1-5-16.8l4-1.2c1.6 5.6 3.3 11.3 5 16.7zm712.1-7.1l-4.1-0.5c0.7-5.8 1.3-11.6 1.9-17.4l4.1 0.5c-0.6 5.7-1.2 11.6-1.9 17.4zm-721.7-26.6c-1.5-5.6-2.9-11.4-4.2-17l4-1.1c1.4 5.7 2.8 11.4 4.2 17zm725.3-8.3l-4.1-0.4c0.5-5.8 1-11.7 1.5-17.4l4.1 0.4c-0.4 5.7-0.9 11.6-1.5 17.4zm-733.3-25.9c-1.2-5.7-2.3-11.5-3.4-17.2l4.1-0.8c1 5.7 2.2 11.4 3.4 17.1zm735.9-9.1l-4.1-0.2c0.4-5.9 0.7-11.7 0.9-17.5l4.2 0.2c-0.3 5.8-0.6 11.7-1 17.5zm-742.3-25.4c-0.9-5.8-1.8-11.6-2.5-17.3l4.1-0.6c0.7 5.6 1.6 11.4 2.5 17.2zm743.9-9.6l-4.2-0.2c0.2-5.8 0.3-11.7 0.4-17.4h4.1c0 5.8-0.1 11.7-0.3 17.6zm-748.5-25.2c-0.6-5.8-1.2-11.7-1.6-17.5l4.1-0.3c0.5 5.7 1 11.5 1.6 17.3zm744.7-9.9c0-5.8-0.1-11.7-0.3-17.4l4.2-0.1c0.1 5.7 0.2 11.6 0.3 17.5zm-747.4-25.1c-0.3-5.9-0.5-11.8-0.6-17.6l4.2-0.1c0.1 5.7 0.2 11.6 0.5 17.4zm746.4-9.7c-0.2-5.8-0.6-11.7-1-17.4l4.1-0.3c0.4 5.7 0.8 11.6 1.1 17.5zm-742.8-25.3l-4.1-0.1c0.1-5.9 0.3-11.8 0.6-17.6l4.2 0.3c-0.4 5.7-0.6 11.5-0.7 17.4zm740.3-9.5c-0.6-5.9-1.2-11.7-1.9-17.4l4.2-0.5c0.6 5.7 1.3 11.6 1.8 17.4zm-738.3-25.2l-4.1-0.5c0.5-5.8 1.2-11.7 2-17.4l4.1 0.6c-0.7 5.6-1.4 11.5-2 17.3zm734.1-9.4c-0.8-5.8-1.8-11.5-2.8-17.1l4.1-0.8c1 5.6 2 11.4 2.8 17.3zm-491.1-0.6c-5.8-1-10-3.7-15.7-8.5l2.6-3.4c5.1 4.2 8.7 6.7 13.5 7.5zm14.4-10.3l-3.7-2c1.9-3.9 3.6-9.3 5-16.1l4.1 1c-1.5 7.2-3.3 12.8-5.4 17.1zm-42.3-10.6c-3.3-3.8-6.8-8.3-10.8-13.5l3.3-2.7c3.9 5.2 7.4 9.5 10.6 13.3zm-210.3-3.5l-4-0.9c1-5.8 2.3-11.6 3.6-17.2l4 1.1c-1.3 5.5-2.5 11.2-3.6 17zm723.2-9.2c-1.2-5.7-2.6-11.4-3.9-16.9l4-1.1c1.4 5.5 2.7 11.3 4 17.1zm-462.5-11.4l-4.1-0.5c0.6-5.2 1.2-10.9 1.8-17.4l4.1 0.4c-0.5 6.5-1.1 12.3-1.8 17.5zm-71.4-3.5c-3.4-4.8-6.9-9.8-9.9-14.2l3.3-2.5c3.1 4.3 6.6 9.3 9.9 14.1zm304.1-0.4c-3.3 0-6.4-1-9.5-3l2.2-3.6c4.6 3 9.1 3 13.9 0.6l1.8 3.9c-2.9 1.4-5.7 2.1-8.4 2.1zm-485.4-9.3l-3.9-1.3c1.6-5.6 3.4-11.3 5.3-16.7l3.9 1.5c-1.9 5.4-3.6 10.9-5.3 16.5zm507.3-4.2l-3-2.9c3.1-3.6 6.5-8 10.3-13.5l3.4 2.6c-3.9 5.6-7.4 10.1-10.7 13.8zm-43.2-3c-2.7-4.3-5.3-9.4-8.1-15.6l3.7-1.8c2.7 6 5.3 10.9 7.9 15.1zm242.5-2c-1.6-5.6-3.4-11.1-5.3-16.4l3.9-1.5c1.9 5.3 3.7 11 5.4 16.7zm-545.1-9.6c-3.8-5.4-6.9-9.9-9.9-14l3.3-2.7c3 4.2 6.2 8.7 10 14.1zm94.2-3.2l-4.2-0.3c0.4-5.1 0.7-10.8 1-17.5l4.2 0.2c-0.4 6.7-0.7 12.5-1 17.6zm-244.2-10.7l-3.8-1.8q3.4-8.1 7.3-15.9l3.6 2q-3.8 7.7-7.1 15.7zm515.9 0l-3.5-2.4c3-4.7 6-9.7 9.1-14.7l3.5 2.4c-3.1 5-6.1 10-9.1 14.7zm-78.2-6.4c-1.9-5-3.8-10.4-5.9-16.5l3.9-1.5c2.1 6.1 4 11.5 5.9 16.4zm245.9-2.8c-2.2-5.4-4.6-10.7-7-15.7l3.7-1.9c2.5 5 4.9 10.4 7.1 15.9zm-553.9-4.7c-3.7-4.9-7.2-9.3-10.7-13.3l3.1-2.9c3.5 4.1 7.1 8.5 10.9 13.5zm116.2-10.5l-4.1-0.3c0.3-5.8 0.5-11.6 0.8-17.5l4.2 0.2c-0.3 5.9-0.6 11.8-0.9 17.6zm288.1-5.1l-3.4-2.4c3.4-5.5 6.5-10.2 9.4-14.5l3.4 2.5c-2.9 4.2-5.9 9-9.4 14.4zm-518.7-1.2l-3.5-2.3c3.2-5.4 6.6-10.2 10-14.4l3.2 2.8c-3.3 4-6.6 8.7-9.7 13.9zm410.8-8.9c-1.9-5.8-3.8-11.6-5.3-16.6l3.9-1.4c1.6 5 3.4 10.8 5.3 16.6zm-318.5-0.3c-4.3-4.3-8.5-8.1-12.4-11.3l2.5-3.5c4.1 3.3 8.4 7.3 12.8 11.7zm560.9-0.2c-3-5-6.1-9.9-9.3-14.3l3.3-2.6c3.3 4.5 6.5 9.5 9.5 14.7zm-631.8-16.4l-2.6-3.5c5-3.9 10.2-6.8 15.4-8.5l1.2 4.2c-4.7 1.5-9.5 4.1-14 7.8zm516.8-1.4l-3.2-2.7c3.9-5 7.6-9.4 11.3-13.2l2.9 3c-3.6 3.8-7.2 8-11 12.9zm-305.7-1.7l-4.2-0.2c0.4-6.3 0.8-12.1 1.1-17.6l4.2 0.3c-0.4 5.5-0.7 11.2-1.1 17.5zm-166.3-0.9c-5.2-2.7-10.3-4.4-15.2-5.1l0.6-4.3c5.3 0.8 10.8 2.6 16.4 5.5zm567.1-7c-4-4.3-8.1-8.1-12.3-11.2l2.5-3.6c4.3 3.4 8.6 7.3 12.8 11.8zm-233-5.5c-2.1-6.4-3.8-11.7-5.4-16.5l3.9-1.5c1.6 4.9 3.3 10.2 5.4 16.7zm161.4-9l-2.4-3.5c5.1-3.8 10.3-6.5 15.3-8.3l1.3 4.2c-4.6 1.6-9.4 4.1-14.2 7.6zm45.3-5.3c-5.1-2.3-10.3-3.7-15.5-4.2l0.4-4.3c5.6 0.5 11.2 2.1 16.7 4.5zm-372-7.3l-4.2-0.4c0.6-6.1 1.1-12 1.7-17.5l4.1 0.5c-0.5 5.4-1.1 11.3-1.6 17.4zm154.4-11.6c-2-5.8-3.9-11.2-5.8-16.4l3.9-1.5c1.9 5.2 3.8 10.6 5.8 16.5zm-150.6-23.2l-4.1-0.7c0.8-6.1 1.7-11.9 2.7-17.4l4.1 0.8c-1 5.4-1.9 11.2-2.7 17.3zm138.7-9.5c-2.2-5.6-4.5-11-6.7-15.9l3.8-1.9c2.2 5.1 4.5 10.5 6.7 16.2zm-132.5-24.8l-4-1.1c1.5-6.1 3.1-11.8 4.8-17l3.9 1.4c-1.7 5.1-3.2 10.7-4.7 16.7zm118.5-6.8c-2.8-5.4-5.6-10.5-8.3-15l3.5-2.4c2.8 4.7 5.6 9.9 8.4 15.4zm-107.5-25.9l-3.7-1.9c2.7-5.8 5.7-10.9 9-15.2l3.2 2.7c-3 4.1-5.9 8.9-8.5 14.4zm89.7-3.3c-3.6-4.7-7.4-9-11.1-12.5l2.8-3.2c3.9 3.7 7.8 8.1 11.6 13zm-69.6-22.4l-2.3-3.6c4.9-3.3 10.4-5.5 16.1-6.4l0.7 4.3c-5.2 0.8-10.1 2.8-14.5 5.7zm45.3 0c-4.8-2.7-9.8-4.6-14.9-5.5l0.7-4.3c5.5 1 11 3.1 16.2 6z"/>
				<path id="&lt;Path&gt;" class="s1" d="m222.1 640.6c0 0-101.2-260-28.4-317.9 48.7-38.7 100.2 46.6 161.8 1.5 54.8-40.2 37.4-162.5 124.7-179.4 98.3-19 119.9 209 200.6 177.9 97.8-37.8 195.2 38.9 111 318.4z"/>
				<path id="&lt;Path&gt;" class="s2" d="m881.4 551c-34.5-5.4-28.9 42.9-78 42.9-44.9 0-59.3-183.9-92-131.4-167.5 269.7-70.2-114.6-203.4-119.5-60.3-2.2-100.4 65-115.2 184.1-21.5 107.7-71.3-82.1-122.5-64.4-32.5 11.2-28.8 131.2-73.7 131.2-49.1 0-43.5-48.3-78-42.9-37.1 5.7-48.2 91.3-48.2 91.3h859.2c0 0-11.1-85.6-48.2-91.3z"/>
				<path id="&lt;Path&gt;" class="s0" d="m850.8 603.3c-31.7-2.3-26.5 18.3-71.7 18.3-41.3 0-40.2-46.2-67.8-56-50.9-18.1-92.9 73.5-112.7 27.5-37.4-122-146.8-183.1-197.2 0-19.8 46-66-36.1-112.7-27.5-28.8 5.2-26.5 56-67.8 56-45.2 0-40-20.6-71.7-18.3-34.2 2.4-44.4 39-44.4 39h790.4c0 0-10.2-36.6-44.4-39z"/>
				<path id="&lt;Path&gt;" class="s3" d="m71.1 642.3c0 0-6 26.6 18.9 33.3 34.2 9.1 234.7 33.1 186 51.4-27.5 10.3 14 24.2 147.9 29.4 133.9 5.1 363.7-15 286.4-44.9-77.2-29.8 237.6-7.2 218.4-69.2z"/>
			</g>
			<g id="5">
				<path id="&lt;Path&gt;" class="s4" d="m482.5 435.8c4.5 38.4-52.4 46-58.2 7.9-4.5-38.4 52.4-46 58.2-7.9z"/>
				<path id="&lt;Path&gt;" class="s4" d="m337.4 197.6c-21.1-69.7 34.5-135.8 106.7-129.2 95.1 10.4 112.2 133.6 56.6 196.9-26.5 27.3-51 74.6-49.6 108.6 0.2 20.2-16.3 18.6-22.4 0.6-21.2-83.2 24.9-105.3 44.5-170.7 15.3-105.7-101.4-89.2-121.1-6.6-2.2 7.1-12.6 7.9-14.7 0.4z"/>
			</g>
			<g id="4">
				<path id="&lt;Path&gt;" class="s5" d="m600.6 300.4c-3.2 19.4-32.1 15-29.5-4.5 3.3-19.3 32.2-14.9 29.5 4.5z"/>
				<path id="&lt;Path&gt;" class="s5" d="m563.8 163.4c-0.3-37.1 36.3-61.4 70.6-47.9 44.9 18.7 35.7 81.3-0.5 104.3-16.9 9.5-35.6 29.1-39.7 45.9-2.9 9.9-10.7 6.8-11.1-2.9 1.6-43.6 27.2-47.9 46.2-77 22.5-49.4-36.8-58.1-58.2-20.5-2.1 3.1-7.3 2-7.3-1.9z"/>
			</g>
			<g id="3">
				<path id="&lt;Path&gt;" class="s5" d="m365.2 446.3c5.7 13.2-13.8 22-19.9 9.1-5.7-13.2 13.7-22 19.9-9.1z"/>
				<path id="&lt;Path&gt;" class="s5" d="m287.9 377c-15-22.6-2.2-52.1 24.2-57.5 35-6.5 54.3 35.6 41.3 64.1-6.6 12.6-10.2 32.1-6.1 44 2.2 7.2-3.8 8.4-7.9 2.7-16.4-27.4-2.4-40.3-2.4-65.7-5.9-39.3-45.7-20.9-43.9 10.7 0 2.7-3.6 4.1-5.2 1.7z"/>
			</g>
			<g id="2">
				<path id="&lt;Path&gt;" class="s6" d="m684.4 338.9c-23.6-4.5-19.2-20.5-42-12.5 0 0-20.5-16.4-23.1 22.5-2 31.3 13.3 46.4 37.2 59.3 28.3 15.2 72.8-1.4 71-36.8-1.3-24.6-20-28.1-43.1-32.5z"/>
				<path id="&lt;Path&gt;" class="s7" d="m624.7 387.5c-33.3 22.8-57.8 14.5-83.2-14.4-3.3-5.7-11.6-2.5-9.1 3.8 0.4 1.1 1.2 2.4 1.7 3.4 23.4 42.9 64.8 53.9 104.5 24.1 11.1-9.1-2.8-26-13.9-16.9z"/>
				<path id="&lt;Path&gt;" class="s8" d="m635.1 381.8c0 0-9.2 0.6-13.7 4.2-4.5 3.6-17.4 9.9-26.9 11.2-9.5 1.3-25.3-3.6-31.1-8.4-5.9-4.7-10.1-9.5-14-6.9 0 0-3 4.2-10.8 5.9 0 0-3.9 10.7 11.4 23.8 15 12.8 47.7 27.7 84.9 8.9z"/>
				<path id="&lt;Path&gt;" class="s7" d="m634.5 376.9l0.6 4.9c2.6 8.2 13.4 1.8 15.2-1.4 0 0-0.9-4.7-1.1-6.9z"/>
				<path id="&lt;Path&gt;" class="s7" d="m733.8 685.4l22.8-28c-1.1-1.7-9-5.8-11.2-8.1-1.7-1.2-19.9-19.7-21.8-21.6l-13.1 16.1 22.8 14.2c2.7 1.7 3.8 5.1 2.7 8.1-2.3 6.7-8 11.9-6.7 18.5 0.7 1.9 3.2 2.4 4.5 0.8z"/>
				<path id="&lt;Path&gt;" class="s6" d="m754.6 654.4c0.9 0.8 1.6 1.9 2 3l-23 28.2c-1.1 1.4-3.2 1.3-4.2-0.2-2.1-3.6-3.5-10.9 6.4-24.4 0 0 5-3.4 9.6-11.7 0 0 5.8 1.5 9.2 5.1z"/>
				<path id="&lt;Path&gt;" class="s9" d="m727.9 676.7c1.3 0.3 2.2-1.5 6.5-0.2 0.4 0.1 0.8-0.1 0.9-0.5-0.2-2.8-10.1-1-7.4 0.7z"/>
				<path id="&lt;Path&gt;" class="s9" d="m729.6 671.5c0.2 0.1 0.4 0.2 0.7 0.1 0-0.1 3.5-1.5 7.1 0 0.9 0.4 1.5-1 0.6-1.4-4.3-1.7-8.2-0.1-8.3 0-0.6 0.2-0.6 1-0.1 1.3z"/>
				<path id="&lt;Path&gt;" class="s9" d="m732.7 665.6c1 0.4 3.6-1.2 8.3 0.4 0.9 0.4 1.4-1 0.5-1.4-4.8-1.5-10.5-0.9-8.8 1z"/>
				<path id="&lt;Path&gt;" class="s10" d="m729.4 685.3l25.2-30.9c0.9 0.8 1.6 1.9 2 3l-23 28.2c-1.1 1.4-3.3 1.3-4.2-0.3z"/>
				<path id="&lt;Path&gt;" class="s7" d="m621.3 691l36.1-0.4c0.6-1.9-1.3-10.6-1-13.8 0-1.4 0.3-8.8 0.5-10.1l-2.7-20.4-15.9 0.2 3.6 26.6c0.5 3.2-1.4 6.2-4.4 7.2-6.7 2.6-14.2 1.5-18.5 6.7-1.1 1.8 0.2 4 2.3 4z"/>
				<path id="&lt;Path&gt;" class="s6" d="m658.4 687.1c-0.1 1.3-0.4 2.4-1 3.5l-36.4 0.4c-1.8 0-3.1-1.7-2.5-3.4 1.3-3.9 6-9.6 22.8-10.7 0 0 5.7 1.7 15.1-0.1 0 0 2.6 5.4 2 10.3z"/>
				<path id="&lt;Path&gt;" class="s9" d="m629.2 686.2c0.5 0 0.8-0.5 0.6-1-1.6-3.9-4.6-5-4.7-5.1-0.9-0.3-1.4 1.1-0.5 1.4 0.1 0 2.5 1 3.9 4.3 0.1 0.3 0.4 0.4 0.7 0.4z"/>
				<path id="&lt;Path&gt;" class="s9" d="m634.9 685.5c0.5 0 0.8-0.5 0.7-1-1.4-4.9-7.8-8.5-6-5.1 0 0.1 3.4 1.8 4.6 5.6 0.1 0.3 0.4 0.5 0.7 0.5z"/>
				<path id="&lt;Path&gt;" class="s9" d="m641.4 684.6c0.5 0 0.9-0.5 0.7-1-1.6-4.4-5.1-6.7-5.3-6.8-0.7-0.5-1.6 0.7-0.8 1.2 0.1 0.1 3.3 2.2 4.7 6.1 0.1 0.3 0.4 0.5 0.7 0.5z"/>
				<path id="&lt;Path&gt;" class="s10" d="m618.5 687.6l39.9-0.5c-0.1 1.3-0.4 2.4-1 3.5l-36.4 0.4c-1.8 0-3.1-1.7-2.5-3.4z"/>
				<path id="&lt;Path&gt;" class="s11" d="m648.8 358q0 0.4-0.1 0.8c-0.3-0.2-0.2 9.3 0.6 16.2-6 3.6-13.3 3.2-14.7 3.1-1.1-8.6-1.3-16.6-0.6-21.7 1.6-8.7 15.1-7.2 14.8 1.6z"/>
				<path id="&lt;Path&gt;" class="s7" d="m658.6 352.8c-1.2 6.7-3.6 14.3-8.9 18.6-2.2 1.8-4.8 2.9-7.6 3.4-15.6 4.2-34-14.5-21.5-27.5 4.6-4 5.6-11.3 9.2-15.3 5.3-7.4 16.6-6.9 22.6-0.7 5.5 5.6 7.3 13.3 6.2 21.5z"/>
				<path id="&lt;Path&gt;" class="s12" d="m633 348.3c-0.6-1.2 1.3-2.1 1.8-0.9 0.6 1.2-1.2 2.1-1.8 0.9z"/>
				<path id="&lt;Path&gt;" class="s12" d="m624.5 346.7c-0.6-1.1 1.2-2 1.8-0.9 0.6 1.2-1.3 2.1-1.8 0.9z"/>
				<path id="&lt;Path&gt;" class="s13" d="m640.2 671.6c12.3 2.4 21.1-4.9 21.1-4.9-0.7-2.5-1.4-5-2-7.5-22.6-86 1-131.2 1-131.2 5 44.4 16.9 88 59.8 126.4q2.7 2.4 5.6 4.8c9.6-2.2 18.6-18.1 18.6-18.1q-2.2-2.7-4.3-5.3c-47.5-61.1-23.5-126.5-45.2-166.9-11.5-21.5-57.1-8.1-74.5 12-29.2 91.6 4.6 161.6 19.9 190.7z"/>
				<path id="&lt;Path&gt;" class="s12" d="m627 355.6c0.6 0 2 0.3 2-0.6-0.1-0.2-0.3-0.3-0.5-0.2-1.3 0.3-3.1-0.3-3.4-0.9-0.1-0.2 0.2-0.4 0.5-0.6 2.1-1 5-7 3-5.7 0 0.1-1.5 4.1-3.4 5.1-2.2 1.4 0.1 2.6 1.8 2.9z"/>
				<path id="&lt;Path&gt;" class="s14" d="m730.7 650.7l1.4-1.3c-0.4-0.4-37.7-40.2-48.2-75.4-10.6-35.2-9.4-93.2-9.4-93.8h-1.9c-0.1 0.6-1.2 58.8 9.4 94.4 10.7 35.6 48.3 75.7 48.7 76.1z"/>
				<path id="&lt;Path&gt;" class="s11" d="m658.6 352.8c-1.2 6.7-3.6 14.3-8.9 18.6 2.9-3.6 4.9-11.7 4.9-11.7l-1.3-3.7c-23.3-7.8-21-26.6-21-26.6 15-10.4 29.6 8.1 26.3 23.4z"/>
				<path id="&lt;Path&gt;" class="s6" d="m634.8 327.8c0 0-2.1 18.5 18.6 26.3l7.6-4c7.5-14.2-5.4-35.5-26.2-22.3z"/>
				<path id="&lt;Path&gt;" class="s6" d="m659.3 322.5c-5.1 17.5-25.5 11.9-21-5.8 5.1-17.5 25.5-11.9 21 5.8z"/>
				<path id="&lt;Path&gt;" class="s7" d="m662.8 356.3c-1.6 7.6-11.2 5.4-9.4-2.2 1.7-7.5 11.2-5.4 9.4 2.2z"/>
				<path id="&lt;Path&gt;" class="s12" d="m660.3 357.8c1.6-1.6 1-5 0.2-5.6-1.5-1.2-4.2-0.6-4 0.2 0.5 0.8 2-0.8 3.5 0.4 1.5 1.1-0.6 4.4 0.3 5z"/>
				<path id="&lt;Path&gt;" class="s12" d="m656.7 357.2c0.8 0 1.2-2.9 4.2-3.1 0.2 0 0.4-0.2 0.3-0.4-2.1-1.7-5.9 3.7-4.5 3.5z"/>
				<path id="&lt;Path&gt;" class="s15" d="m658.6 359.7c0 1.2-1.8 1.1-1.8 0 0-1.1 1.8-1.1 1.8 0z"/>
				<path id="&lt;Path&gt;" class="s14" d="m661.3 666.7c0 0-8.8 7.3-21.1 4.9 0 0-1.4-2.2-3.5-6.4 0 0 14.7 1.4 22.6-6q0.9 3.7 2 7.5z"/>
				<path id="&lt;Path&gt;" class="s14" d="m659.3 659.2q0.3 1.3 0.7 2.6h-4.4c-15.4-46-18.1-121.9 4.7-133.8 0 0-23.6 45.2-1 131.2z"/>
				<path id="&lt;Path&gt;" class="s14" d="m644.9 669c-12.1-27.5-20.1-54.4-24-79.9-3-20.4-3.4-39.9-1-58.1 4-31 14.7-47.4 14.8-47.6l1.4 0.9c-0.1 0.2-10.6 16.4-14.6 47.1-3.6 28.3-2.2 75 24.9 136.9z"/>
				<path id="&lt;Path&gt;" class="s16" d="m616.5 436.4c3.2 9.4 8 19.2 2 37.7-0.6 5 1.8 6.8 1.8 6.8 23.1 7.7 56 0.7 75.7-8.7 11.4-9.3-4.1-26.8-5-32.8-9.6-64-30.7-61.2-41.1-61.2-3.4 3.9-12 10.5-14.9 3.6-7.1 3-10.5 18.9-14.5 25.1-4 6.5-5.8 11.6-6.2 16.2-0.4 4.9 0.7 9.1 2.2 13.3z"/>
				<path id="&lt;Path&gt;" class="s12" d="m628.4 358.5c-0.7 0-1.1-0.2-1.2-0.3-0.2-0.1-0.3-0.3-0.2-0.6 0.1-0.2 0.4-0.3 0.6-0.2 0.1 0 1.5 0.6 2.9-0.8 0.2-0.2 0.5-0.2 0.7 0 0.2 0.2 0.2 0.5 0 0.7-1 0.9-2 1.2-2.8 1.2z"/>
				<path id="&lt;Path&gt;" class="s12" d="m637.9 344.7q-0.1 0-0.2-0.1l-4.3-1.7c-0.2-0.1-0.4-0.4-0.3-0.6 0.1-0.3 0.4-0.4 0.7-0.3l4.3 1.8c0.2 0.1 0.4 0.4 0.3 0.6-0.1 0.2-0.3 0.3-0.5 0.3z"/>
				<path id="&lt;Path&gt;" class="s12" d="m629.3 342.4h-3.9c-0.3 0-0.5-0.2-0.5-0.5 0-0.2 0.2-0.4 0.5-0.4h3.9c0.3 0 0.5 0.2 0.5 0.4 0 0.3-0.2 0.5-0.5 0.5z"/>
				<path id="&lt;Path&gt;" class="s7" d="m675.6 391.3c3.8 17.2 6.6 36.2-0.6 53.2-12.4 24.7-44.5 25.4-68 19.7-3.7-0.7-8.2-2-7.1-6.8 1.6-5.3 7.8-2.9 11.9-3.3 43.4-1.4 50.4-15.3 38.1-55.3-4.9-16.8 20.7-24.3 25.7-7.5z"/>
				<path id="&lt;Path&gt;" class="s17" d="m605.7 464.1c0 0 2.7-3.9-0.1-10.2 0 0 1.6-0.7 3 0.1 0 0 3 4.8-0.1 10.8 0 0-1.3 0.4-2.8-0.7z"/>
				<path id="&lt;Path&gt;" class="s8" d="m644.8 392.3c-0.5 4.3 1.7 9.6 4.8 16.5 3.2 6.9 5.6 15.4 2.8 22.4-2.9 7-8 13.4-17.2 15-8.4 1.5-17.1 3.3-18.1 7.7 0 0 1.2 6.7-1.8 12 0 0 3.4 10.9 31.8 7.3 28.5-3.5 41.8-34.3 43.4-47.6 2.5-20.5-8.8-39.8-24.1-45.9-15.3-6.1-21 6-21.6 12.6z"/>
				<path id="&lt;Path&gt;" class="s14" d="m720.1 654.4q2.7 2.4 5.6 4.8c9.6-2.2 18.6-18.1 18.6-18.1q-2.2-2.7-4.3-5.3c0 0-7.9 14.7-19.9 18.6z"/>
				<path id="&lt;Path&gt;" class="s18" d="m613.4 502.7l10.3-7-114.3-169.3-10.3 6.9z"/>
				<path id="&lt;Path&gt;" class="s19" d="m613.4 502.7l10.3-7-59.8-88.6-10.4 7z"/>
				<path id="&lt;Path&gt;" class="s20" d="m523.6 225.5c23.4 34.2 14.8 80.9-19.4 104.3-34.1 23.5-80.8 14.8-104.3-19.3-23.4-34.1-14.8-80.8 19.4-104.3 34.1-23.5 80.8-14.8 104.3 19.3z"/>
				<path id="&lt;Path&gt;" class="s20" d="m380.5 267.7c0 7.9 1.1 15.8 3.4 23.5l5.7-2.6 5.7-2.7 122.6-57.6 11.4-5.4q-0.3-0.4-0.6-0.9c-4.4-6.4-9.6-12-15.3-16.7l-6.3 2.9-6.5 3.1-107.3 50.4-6.5 3.1z"/>
				<path id="&lt;Path&gt;" class="s20" d="m388 302q2.8 6.2 6.8 12c4.5 6.6 9.9 12.4 15.8 17.2l6.4-3 6.5-3 106.7-50.2 6.5-3 6.3-3c0.2-12.5-2.5-24.8-8-36.1l-11.3 5.3-124.5 58.5-5.6 2.7z"/>
				<path id="&lt;Compound Path&gt;" fill-rule="evenodd" class="s19" d="m415.7 201.1c58.9-41.3 139.9 12.3 125.9 81.7-8.9 59.4-86.5 87.1-131 48.4-41.4-32.3-39.7-100.4 5.1-130.1zm-22.4 60.6c-2.6 24.4 9.7 50.2 30.2 63.5 57.2 38.5 130.5-24.2 100.2-87-29.8-62.3-124.4-45.2-130.4 23.5z"/>
				<path id="&lt;Path&gt;" class="s7" d="m591 447.3l3.5 5.1c-3.3 1-6.8 1-6.8 1-2.9-0.3-7.8-0.3-7.8-0.3-5.4 2.9 4.9 3.2 6.4 3.9q0 0 0 0c0 0 0.3 0.2-4.1-0.2-6 3.2 2.8 3.6 4.5 3.8q0 0 0 0l-1.5 0.4c-5.8 3.7 1.5 3.6 3.2 3.3q0 0 0 0c0 0-0.5 0.6-0.5 0.6-2.7 2.6 1.7 3.1 3.2 2.6 1.2 0.2 7.2-1.2 14-4.6 2.3-1 0.9-7.8-1.1-9.2-1.9-1.3-4.6-3-5.6-3.5-1.2-0.5-4.1-3.6-7.4-2.9z"/>
				<path id="&lt;Path&gt;" class="s7" d="m530.1 377.2c-4.8 2.6-7.5-3.8-1.5-3.5l-0.1 0.1c2.6-1.4 4.1 2.1 1.6 3.4z"/>
				<path id="&lt;Path&gt;" class="s7" d="m527.5 374.6c-5.9 1.9-6.2-5.7-1.1-3.8-0.1 0 0.5 0 0.4 0 2.9-0.9 3.2 3.1 0.7 3.8z"/>
				<path id="&lt;Path&gt;" class="s7" d="m524.7 371.9h-2c-3 0-1.9-4.1 0.6-4 0 0 2 0 2 0 3 0 1.9 4.1-0.6 4z"/>
				<path id="&lt;Path&gt;" class="s7" d="m522.7 369.2h-2.1c-2.9 0-1.8-4.1 0.6-4 0 0 2.1 0 2.1 0 2.9 0 1.8 4.1-0.6 4z"/>
				<path id="&lt;Path&gt;" class="s7" d="m541.5 373.1c0 0 0.8-9.4-8.6-11.9-5.1-1.4-4.2 2.4-1 3.5 3.3 1 7.8 6.6 7.8 6.6z"/>
			</g>
			<g id="1">
				<path id="&lt;Path&gt;" class="s21" d="m553.5 690.9l-227.2 0.1c0 0-1.9-12.3 10.1-40.9 7.3-17.6 47.2-38.8 47.9 4 10.5-46.5 70-57.5 52.2 16.3 0.1-0.4 12.8-27.7 35.3-18.8 22.6 8.9 19.5 28.6 33.9 27.6 14.5-0.9 42.1-18.7 47.8 11.7z"/>
				<path id="&lt;Path&gt;" class="s22" d="m528.2 691h-187c0 0 1.2-39.7 19.4-53.2 17.8-13.1 38.5 5.4 44.8 30.5 8.2 20.4 26.7-11.3 39.7-12.3 2.3-0.5 4.6-0.5 6.9 0 11.8 2.9 11 24.9 28.1 24.9 18.7 0 18.3-10.2 31.4-10.5 15.2-0.3 16.7 20.6 16.7 20.6z"/>
				<path id="&lt;Path&gt;" class="s13" d="m346.7 572c-3.4-3.6-42.2 25.3-45.5 31.5-0.7-6.4-2.2-13.9-4.9-22.1 5.4-0.3 42.1-38.3 38.5-42-4-3.1-37.6 32.7-39.4 39.2-2.3-6.4-5.4-13.2-9.5-20.3 4.6 0.8 35.7-46 31.2-48.5-4.5-2.6-32.8 41.4-32.1 46.9-3-4.9-6.4-10-10.4-15.2 5.3-2.3 30.4-47.6 26-50.3-4.7-1.9-27.6 41-27.9 47.9-3.4-4.3-7.5-8.8-11.6-13.1 4.9-3.4 22.6-51.5 17.9-53.6-4.9-1-20.8 43.9-20.3 51.1q-6.4-6.8-11.9-13c4.9-3.9 22.4-51.1 17.7-53.3-4.8-1-20.4 42.8-20.2 50.4q-6.6-7.5-12-14.1c4.9-3.6 22.5-51.3 17.9-53.5-4.9-1-20.5 42.9-20.3 50.5-3.9-5-7.4-9.6-10.4-13.8 4.8-2.1 23.3-52.2 18.5-54-5-1.1-21 44.4-20.4 51.4-4-5.8-7.2-10.7-9.6-14.9 4.5-2.6 17.4-54.5 12.4-55.8-4.9-0.5-15.5 44.3-14.6 52-7.9-13.2-4.2-17.6-10.2-35.5-10.6-36.1-18.4-33.8-7.6 2.3 5.4 18.6 8.3 21.6 14 33-5.7-6.4-41.9-30.1-44.9-26.5-3.1 4.1 44.2 34.8 48 32.1 2.4 4 5.4 8.7 9.1 14.1-6.1-5.2-47.9-22.4-50.2-18.2-2.3 4.7 49.8 25.6 53.2 22.4q4.4 6.1 10 13.2c-7.3-3.8-50.8-12.1-52.2-7.6-0.7 5.1 50.6 14.5 55.6 11.8q5.1 6.3 11.3 13.3c-6.9-3-53.4-5.7-54.3-0.9-0.1 5.2 53.2 7.6 57.1 4q5.5 6.3 11.9 13c-7.8-1.7-52.8 2.8-52.9 7.7 1.1 5 51-0.5 56-4.4 4.1 4.3 7.9 8.6 11.2 12.8-5.3-2.9-56.1 2-56 7.1 0.3 5.1 55.7-0.9 57.4-5.3 3.8 4.9 7 9.7 9.8 14.4-5.8-2.7-55.6 2.1-55.5 7.2 0.6 5.1 53.5-0.7 56.9-4.9 3.9 7 6.9 13.7 9.1 20-5.1-3.3-56-2.5-56.3 2.6 0.3 5.1 53.4 3.5 57.1-0.3 2.6 8 4 15.2 4.6 21.3-6.1-3.3-54.3-6.1-55.2-1.2 0.3 5.1 49.4 7.3 55.5 4.5 1.3 18.4-3.1 30.2-3.2 30.4l3 1.1c0.2-0.5 4.9-12.8 3.4-32.2 5.4 0.5 48.1-30.4 45.2-34.7z"/>
				<path id="&lt;Path&gt;" class="s23" d="m340 601.9c2-2.2 24.6 14.5 26.5 18 0.4-3.7 1.2-8 2.8-12.7-3.2-0.2-24.5-22.2-22.5-24.3 2.4-1.8 21.9 18.9 23 22.6 1.3-3.7 3.1-7.6 5.4-11.7-2.6 0.4-20.8-26.6-18.2-28.1 2.6-1.5 19.2 23.9 18.8 27.1q2.5-4.3 5.9-8.8c-3-1.4-17.7-27.5-15.2-29.1 2.7-1.1 16.2 23.7 16.3 27.7 2-2.5 4.4-5.2 6.7-7.7-2.8-1.9-13.2-29.7-10.5-30.9 2.8-0.7 12.1 25.3 11.9 29.5q3.7-4 6.9-7.6c-2.9-2.2-13.1-29.5-10.5-30.8 2.8-0.6 12 24.7 11.9 29.2q3.8-4.4 6.9-8.3c-2.9-2.1-13.2-29.7-10.5-30.9 2.8-0.6 12 24.8 11.9 29.2q3.4-4.4 6-8c-2.8-1.3-13.7-30.2-10.9-31.3 2.9-0.7 12.3 25.7 12 29.7 2.3-3.3 4.1-6.2 5.5-8.6-2.6-1.5-10.3-31.6-7.4-32.3 2.9-0.3 9.1 25.6 8.6 30.1 4.6-7.7 2.5-10.2 5.9-20.6 6-21 10.5-19.7 4.4 1.3-3.1 10.8-4.8 12.5-8 19.1 3.2-3.7 24.2-17.5 25.9-15.4 1.8 2.3-25.5 20.3-27.7 18.7-1.4 2.3-3.1 5.1-5.3 8.2 3.6-3 27.7-13.1 29.1-10.7 1.3 2.7-28.8 15-30.8 13.1q-2.5 3.6-5.8 7.7c4.3-2.2 29.5-7.2 30.3-4.5 0.4 2.9-29.3 8.5-32.2 6.9q-2.9 3.7-6.5 7.8c4-1.8 30.9-3.5 31.4-0.7 0.1 3-30.7 4.6-33 2.5q-3.2 3.6-6.9 7.6c4.5-1 30.6 1.5 30.7 4.3-0.6 2.9-29.6-0.2-32.5-2.4-2.3 2.5-4.5 5-6.4 7.4 3-1.7 32.5 1 32.5 4-0.2 3-32.3-0.4-33.3-2.9q-3.3 4.3-5.7 8.3c3.4-1.5 32.3 1.1 32.3 4.1-0.4 2.9-31.1-0.3-33-2.7-2.3 4.1-4 8-5.3 11.6 3-1.9 32.5-1.6 32.7 1.3-0.2 3-31 2.3-33.1 0-1.5 4.7-2.3 8.8-2.7 12.4 3.6-1.9 31.5-3.7 32-0.8-0.1 2.9-28.6 4.3-32.1 2.7-0.7 10.7 1.9 17.5 1.9 17.6l-1.7 0.7c-0.1-0.3-2.9-7.5-2.1-18.7-3.1 0.3-27.9-17.5-26.3-19.9z"/>
				<path id="&lt;Path&gt;" class="s24" d="m332.4 690.8c0 0 32.8-49.7 100.2-53.7 0 0-38.1 46.5-100.2 53.7z"/>
				<path id="&lt;Path&gt;" class="s25" d="m333.2 690.7c0 0 9.6-48.6 79.1-86 0 0-16.8 52.3-79.1 86z"/>
				<path id="&lt;Path&gt;" class="s24" d="m333.2 690.7c0 0-2.9-59.5 49.3-102.4 0 0-3.4 60.1-49.3 102.4z"/>
				<path id="&lt;Path&gt;" class="s25" d="m333.2 690.7c0 0-18.4-60.4 19-117.4 0 0 21.4 79.7-19 117.4z"/>
				<path id="&lt;Path&gt;" class="s24" d="m333.2 690.7c0 0-31.4-66.2-12.9-116.3 0 0 28.8 62.1 12.9 116.3z"/>
				<path id="&lt;Path&gt;" class="s24" d="m333.6 690.8c0 0-74.1 5.4-112.3-31.9 0 0 69.2-4.8 112.3 31.9z"/>
				<path id="&lt;Path&gt;" class="s25" d="m333.6 690.8c0 0-62.7-7.9-99.5-65.3 0 0 81.5 13 99.5 65.3z"/>
				<path id="&lt;Path&gt;" class="s24" d="m333.6 690.8c0 0-56.4-26.3-74.3-91.5 0 0 54.3 32.3 74.3 91.5z"/>
				<path id="&lt;Path&gt;" class="s25" d="m333.6 690.8c0 0-40.5-28.6-46.3-107.4 0 0 40.8 36.7 46.3 107.4z"/>
			</g>
		</g>
	</g>
</svg>