<svg version="1.2" xmlns="http://www.w3.org/2000/svg" viewBox="0 0 840 844" width="840" height="844">
	<title>1587349_218038-P0NP5N-630-ai</title>
	<defs>
		<clipPath clipPathUnits="userSpaceOnUse" id="cp1">
			<path d="m-88 0v1000h1000v-1000z"/>
		</clipPath>
	</defs>
	<style>
		tspan { white-space:pre } 
		.s0 { opacity: .1;fill: #e89f2b } 
		.s1 { fill: #e89f2b } 
		.s2 { fill: #d18c2b } 
		.s3 { fill: #dc432b } 
		.s4 { fill: #f1efe8 } 
		.s5 { fill: #000000 } 
		.s6 { fill: #d9d9d9 } 
		.s7 { fill: #ffffff } 
		.s8 { fill: #5a9eaa } 
		.s9 { fill: #488c93 } 
		.s10 { fill: #bc2f20 } 
		.s11 { fill: #7db4b7 } 
		.s12 { fill: #f4b251 } 
	</style>
	<g id="OBJECTS">
		<g id="&lt;Clip Group&gt;" clip-path="url(#cp1)">
			<g id="&lt;Group&gt;">
				<path id="&lt;Path&gt;" class="s0" d="m351.5 100.5l-245.9 626.3c0 0 145.8 68.7 612.8 5.3l-244.1-633.6c0 0-12.6 4.7-60.8 6-45 1.2-62-4-62-4z"/>
				<g id="&lt;Group&gt;">
					<g id="&lt;Group&gt;" style="opacity: .7">
						<g id="&lt;Group&gt;">
							<path id="&lt;Path&gt;" class="s1" d="m732.7 734.7c0 11.9-144.4 21.5-322.6 21.5-178.2 0-322.6-9.6-322.6-21.5 0-11.9 144.4-21.5 322.6-21.5 178.2 0 322.6 9.6 322.6 21.5z"/>
						</g>
					</g>
					<g id="&lt;Group&gt;">
						<g id="&lt;Group&gt;">
							<g id="&lt;Group&gt;">
								<path id="&lt;Path&gt;" class="s1" d="m573.8 737c-10.6 0-19.1-8.5-19.1-19 0-10.6 8.5-19.1 19-19.1 10.6-0.1 19.1 8.5 19.2 19 0 10.6-8.6 19.1-19.1 19.1z"/>
							</g>
						</g>
						<g id="&lt;Group&gt;">
							<g id="&lt;Group&gt;">
								<path id="&lt;Path&gt;" class="s1" d="m573.7 605c-10.6 0-19.1-8.6-19.1-19.1 0-10.6 8.5-19.1 19.1-19.1 10.5 0 19.1 8.5 19.1 19.1 0 10.5-8.6 19.1-19.1 19.1z"/>
							</g>
						</g>
						<g id="&lt;Group&gt;">
							<g id="&lt;Group&gt;">
								<g id="&lt;Group&gt;">
									<path id="&lt;Path&gt;" class="s2" d="m688.5 652.4c6.3 0.9 12.9 1.7 18.4 5.3 2.9 2 5.5 4.5 7.3 7.6 1.6 2.6 1.7 4.7 4.4 6.3 1.4 0.9 2.8 0 3.4-1.4 2.6-6.5-7.2-14.7-12.1-17.6-6.6-3.9-14.8-5.9-21.6-1.7-0.5 0.4-0.5 1.4 0.2 1.5z"/>
								</g>
							</g>
							<g id="&lt;Group&gt;">
								<g id="&lt;Group&gt;">
									<g id="&lt;Group&gt;">
										<g id="&lt;Group&gt;">
											<path id="&lt;Path&gt;" class="s3" d=""/>
										</g>
									</g>
								</g>
								<g id="&lt;Group&gt;">
									<g id="&lt;Group&gt;">
										<g id="&lt;Group&gt;">
											<g id="&lt;Group&gt;">
												<path id="&lt;Path&gt;" class="s3" d="m710.6 676.2c6.3 16 31.1 6.3 24.9-9.7-6.3-16-31.2-6.3-24.9 9.7z"/>
											</g>
										</g>
									</g>
								</g>
							</g>
						</g>
						<g id="&lt;Group&gt;">
							<g id="&lt;Group&gt;">
								<path id="&lt;Path&gt;" class="s3" d="m385.2 740.7c-24.1 1.9-48.4 3-72.5 2.4-24.2-0.6-48.3-5.7-72.4-5.9-2.5 0-2.9 3.5-0.6 4.2 22.7 7.2 49.4 7.1 73 7.5 24.5 0.5 48.7-1 73-4.5 2.1-0.3 1.6-3.8-0.5-3.7z"/>
							</g>
						</g>
						<g id="&lt;Group&gt;">
							<g id="&lt;Group&gt;">
								<path id="&lt;Path&gt;" class="s3" d="m132 723.9c29.8 1.8 59.5 2 89.3 1.5 27-0.4 57 1.8 83.3-3.8 2.1-0.5 1.4-3.2-0.4-3.4-14.9-1.6-29.8 0.8-44.6 1.1q-20.8 0.5-41.5 0.7c-28.7 0.2-57.4-0.2-86.1-0.2-2.6 0-2.6 3.9 0 4.1z"/>
							</g>
						</g>
						<g id="&lt;Group&gt;">
							<g id="&lt;Group&gt;">
								<g id="&lt;Group&gt;">
									<path id="&lt;Path&gt;" class="s4" d="m401.1 609.9l-0.1 83.3-10.9-0.1-18.5-41.6 21.9-41.6z"/>
								</g>
							</g>
						</g>
						<g id="&lt;Group&gt;">
							<g id="&lt;Group&gt;">
								<g id="&lt;Group&gt;">
									<path id="&lt;Path&gt;" class="s3" d="m312.8 710.9l0.1-158.1c0-8.7 7.1-15.8 15.8-15.8l131.3 0.1c8.7 0 15.8 7.1 15.8 15.8l-0.2 158.2c0 8.7-7.1 15.8-15.8 15.7l-131.3-0.1c-8.7 0-15.7-7.1-15.7-15.8z"/>
								</g>
							</g>
						</g>
						<g id="&lt;Group&gt;">
							<g id="&lt;Group&gt;">
								<g id="&lt;Group&gt;">
									<g id="&lt;Group&gt;">
										<path id="&lt;Path&gt;" class="s1" d="m317.7 654.9l46.4-96.6c1.4-2.8 4.7-3.9 7.5-2.6l11.8 5.7c2.8 1.3 4 4.7 2.7 7.5l-46.5 96.5c-1.3 2.8-4.6 4-7.4 2.7l-11.9-5.7c-2.7-1.3-3.9-4.7-2.6-7.5z"/>
									</g>
								</g>
							</g>
							<g id="&lt;Group&gt;">
								<g id="&lt;Group&gt;">
									<g id="&lt;Group&gt;">
										<g id="&lt;Group&gt;">
											<g id="&lt;Group&gt;">
												<path id="&lt;Path&gt;" class="s5" d=""/>
											</g>
										</g>
									</g>
									<g id="&lt;Group&gt;">
										<g id="&lt;Group&gt;">
											<g id="&lt;Group&gt;">
												<g id="&lt;Group&gt;">
													<path id="&lt;Path&gt;" class="s5" d="m363.2 570.4c-4.2 8.6 9.3 15.1 13.4 6.4 4.2-8.6-9.3-15.1-13.4-6.4z"/>
												</g>
											</g>
										</g>
									</g>
								</g>
								<g id="&lt;Group&gt;">
									<g id="&lt;Group&gt;">
										<g id="&lt;Group&gt;">
											<g id="&lt;Group&gt;">
												<path id="&lt;Path&gt;" class="s5" d=""/>
											</g>
										</g>
									</g>
									<g id="&lt;Group&gt;">
										<g id="&lt;Group&gt;">
											<g id="&lt;Group&gt;">
												<g id="&lt;Group&gt;">
													<path id="&lt;Path&gt;" class="s5" d="m349.9 598.1c-4.2 8.6 9.3 15.1 13.4 6.4 4.2-8.6-9.3-15.1-13.4-6.4z"/>
												</g>
											</g>
										</g>
									</g>
								</g>
								<g id="&lt;Group&gt;">
									<g id="&lt;Group&gt;">
										<g id="&lt;Group&gt;">
											<g id="&lt;Group&gt;">
												<path id="&lt;Path&gt;" class="s5" d=""/>
											</g>
										</g>
									</g>
									<g id="&lt;Group&gt;">
										<g id="&lt;Group&gt;">
											<g id="&lt;Group&gt;">
												<g id="&lt;Group&gt;">
													<path id="&lt;Path&gt;" class="s5" d="m337.4 624c-4.2 8.7 9.3 15.2 13.4 6.5 4.2-8.7-9.2-15.1-13.4-6.5z"/>
												</g>
											</g>
										</g>
									</g>
								</g>
								<g id="&lt;Group&gt;">
									<g id="&lt;Group&gt;">
										<g id="&lt;Group&gt;">
											<g id="&lt;Group&gt;">
												<path id="&lt;Path&gt;" class="s5" d=""/>
											</g>
										</g>
									</g>
									<g id="&lt;Group&gt;">
										<g id="&lt;Group&gt;">
											<g id="&lt;Group&gt;">
												<g id="&lt;Group&gt;">
													<path id="&lt;Path&gt;" class="s5" d="m326.5 646.6c-4.1 8.7 9.3 15.2 13.5 6.5 4.1-8.7-9.3-15.1-13.5-6.5z"/>
												</g>
											</g>
										</g>
									</g>
								</g>
							</g>
						</g>
						<g id="&lt;Group&gt;">
							<g id="&lt;Group&gt;">
								<g id="&lt;Group&gt;">
									<g id="&lt;Group&gt;">
										<path id="&lt;Compound Path&gt;" fill-rule="evenodd" class="s1" d="m420.5 714q-0.8-0.1-1.7-0.2l-4 12.3q-1.3-0.2-2.6-0.5l1.3-12.9q-0.8-0.3-1.6-0.5l-6.4 11.2q-1.3-0.5-2.5-1.1l4-12.3q-0.7-0.5-1.4-0.9l-8.7 9.6q-1.1-0.7-2.2-1.6l6.5-11.2q-0.6-0.5-1.3-1.1l-10.4 7.6q-1-1-1.9-2l8.7-9.6q-0.5-0.7-1-1.4l-11.8 5.3q-0.7-1.2-1.4-2.4l10.5-7.6q-0.3-0.7-0.6-1.5l-12.7 2.7q-0.5-1.3-0.9-2.6l11.9-5.2q-0.2-0.9-0.4-1.7h-12.9q-0.2-1.3-0.3-2.7l12.7-2.7q0-0.4 0-0.8 0-0.4 0-0.8l-12.7-2.7q0.1-1.4 0.3-2.7h13q0.1-0.8 0.3-1.7l-11.8-5.2q0.4-1.3 0.8-2.6l12.7 2.7q0.3-0.8 0.7-1.5l-10.5-7.6q0.6-1.2 1.4-2.4l11.8 5.3q0.5-0.7 1-1.4l-8.7-9.6q0.9-1 1.8-2l10.5 7.6q0.6-0.6 1.2-1.1l-6.4-11.2q1-0.9 2.2-1.6l8.6 9.6q0.7-0.4 1.5-0.8l-4-12.3q1.2-0.6 2.4-1.1l6.5 11.2q0.8-0.3 1.6-0.5l-1.3-12.9q1.3-0.3 2.6-0.6l4 12.4q0.8-0.2 1.7-0.2l1.3-12.9q0.7 0 1.4 0 0.7 0 1.3 0l1.4 12.9q0.8 0.1 1.6 0.2l4-12.4q1.4 0.3 2.7 0.6l-1.4 12.9q0.8 0.2 1.6 0.5l6.5-11.2q1.3 0.5 2.5 1.1l-4 12.3q0.7 0.4 1.4 0.9l8.7-9.7q1.1 0.8 2.2 1.6l-6.5 11.2q0.6 0.6 1.2 1.2l10.5-7.7q0.9 1 1.8 2.1l-8.7 9.6q0.6 0.7 1 1.3l11.9-5.2q0.7 1.1 1.3 2.3l-10.5 7.6q0.4 0.8 0.7 1.6l12.7-2.7q0.4 1.2 0.8 2.6l-11.8 5.2q0.2 0.8 0.3 1.7l13-0.1q0.2 1.4 0.3 2.8l-12.7 2.6q0 0.4 0 0.9 0 0.4 0 0.8l12.7 2.7q-0.1 1.4-0.3 2.7h-13q-0.1 0.8-0.3 1.6l11.8 5.3q-0.4 1.3-0.8 2.6l-12.7-2.7q-0.3 0.7-0.7 1.5l10.5 7.6q-0.7 1.2-1.4 2.4l-11.8-5.3q-0.5 0.7-1 1.3l8.7 9.7q-0.9 1-1.9 2l-10.4-7.7q-0.6 0.6-1.3 1.2l6.5 11.2q-1.1 0.8-2.2 1.6l-8.6-9.7q-0.8 0.5-1.5 0.9l4 12.3q-1.2 0.6-2.5 1.1l-6.4-11.2q-0.8 0.3-1.6 0.5l1.3 12.9q-1.3 0.3-2.6 0.5l-4-12.3q-0.9 0.1-1.7 0.2l-1.3 12.9q-0.7 0-1.4 0-0.7 0-1.4 0zm2.8-38.8c-2.8-0.1-5 2.2-5 5 0 2.8 2.2 5.1 5 5.1 2.8 0 5.1-2.3 5.1-5.1 0-2.8-2.3-5-5.1-5zm-10.2-18.5l6.8 11.9q1.6-0.5 3.5-0.5c5.7 0 10.5 3.9 11.8 9.3h13.6c-1.4-12.8-12.2-22.8-25.4-22.8-3.7 0-7.2 0.8-10.3 2.1zm-5 44.1l6.9-11.8c-2.4-2.2-3.8-5.3-3.8-8.8 0-3.5 1.4-6.6 3.8-8.8l-6.8-11.8c-6.3 4.6-10.5 12.1-10.5 20.6 0 8.5 4.1 16 10.4 20.6zm15.2 5c13.2 0 24.1-9.9 25.5-22.7h-13.6c-1.3 5.3-6.1 9.3-11.9 9.3q-1.8 0-3.4-0.5l-6.9 11.8c3.2 1.4 6.7 2.1 10.3 2.1z"/>
									</g>
								</g>
							</g>
							<g id="&lt;Group&gt;">
								<g id="&lt;Group&gt;">
									<g id="&lt;Group&gt;">
										<path id="&lt;Compound Path&gt;" fill-rule="evenodd" class="s1" d="m423.2 712.4c-17.7 0-32.1-14.4-32.1-32.2 0-17.7 14.4-32.1 32.2-32.1 17.7 0 32.1 14.4 32.1 32.2 0 17.7-14.4 32.1-32.2 32.1zm5.2-32.2c0-2.8-2.3-5-5.1-5-2.8 0-5.1 2.2-5.1 5 0 2.8 2.3 5.1 5.1 5.1 2.8 0 5.1-2.3 5.1-5.1zm-8.5-11.6q1.6-0.5 3.4-0.5c5.8 0 10.6 4 11.8 9.3h13.7c-1.4-12.8-12.3-22.8-25.5-22.8-3.6 0-7.1 0.8-10.2 2.2zm-11.8 32.2l6.8-11.8c-2.3-2.2-3.8-5.3-3.7-8.8 0-3.5 1.4-6.6 3.8-8.8l-6.9-11.8c-6.3 4.6-10.4 12.1-10.4 20.6 0 8.5 4.1 16 10.4 20.6zm4.9 2.9c3.2 1.4 6.6 2.1 10.3 2.1 13.2 0 24-9.9 25.5-22.7h-13.7c-1.3 5.3-6.1 9.3-11.8 9.3q-1.8 0-3.5-0.5z"/>
									</g>
								</g>
							</g>
							<g id="&lt;Group&gt;">
								<g id="&lt;Group&gt;">
									<g id="&lt;Group&gt;">
										<path id="&lt;Compound Path&gt;" fill-rule="evenodd" class="s6" d="m423.2 709.7c-16.3 0-29.5-13.2-29.5-29.5 0-16.3 13.3-29.5 29.6-29.5 16.3 0 29.5 13.3 29.5 29.6-0.1 16.3-13.3 29.5-29.6 29.4zm0-1c15.7 0 28.5-12.7 28.5-28.4 0-15.8-12.7-28.5-28.4-28.6-15.8 0-28.5 12.8-28.5 28.5-0.1 15.7 12.7 28.5 28.4 28.5z"/>
									</g>
								</g>
							</g>
							<g id="&lt;Group&gt;" style="mix-blend-mode: multiply">
								<g id="&lt;Group&gt;">
									<g id="&lt;Group&gt;">
										<path id="&lt;Compound Path&gt;" class="s7" d="m418.2 680.2c0-2.8 2.3-5 5.1-5 2.8 0 5.1 2.2 5.1 5 0 2.8-2.3 5.1-5.1 5.1-2.8 0-5.1-2.3-5.1-5.1zm5.1-25.6c13.2 0 24.1 10 25.5 22.8h-13.7c-1.2-5.3-6-9.3-11.8-9.3q-1.8 0-3.4 0.5l-6.8-11.8c3.1-1.4 6.6-2.2 10.2-2.2zm-25.6 25.6c0-8.5 4.1-16 10.5-20.6l6.8 11.8c-2.4 2.2-3.8 5.3-3.8 8.8 0 3.5 1.4 6.6 3.7 8.8l-6.8 11.8c-6.3-4.6-10.4-12.1-10.4-20.6zm15.3 23.5l6.8-11.8q1.7 0.5 3.5 0.5c5.7 0 10.6-4 11.8-9.3h13.7c-1.5 12.8-12.3 22.8-25.5 22.7-3.7 0-7.1-0.7-10.3-2.1z"/>
									</g>
								</g>
							</g>
						</g>
						<g id="&lt;Group&gt;">
							<g id="&lt;Group&gt;">
								<g id="&lt;Group&gt;">
									<g id="&lt;Group&gt;">
										<path id="&lt;Path&gt;" class="s4" d="m403.6 653.3c0 0 0 0 0 0 0-0.1 0-0.1 0 0z"/>
									</g>
								</g>
							</g>
						</g>
						<g id="&lt;Group&gt;">
							<g id="&lt;Group&gt;">
								<g id="&lt;Group&gt;">
									<g id="&lt;Group&gt;">
										<path id="&lt;Path&gt;" class="s4" d="m403.6 656c0 0 0 0 0 0 0-0.1 0-0.1 0 0z"/>
									</g>
								</g>
							</g>
						</g>
						<g id="&lt;Group&gt;">
							<g id="&lt;Group&gt;">
								<g id="&lt;Group&gt;">
									<g id="&lt;Group&gt;">
										<g id="&lt;Group&gt;">
											<g id="&lt;Group&gt;">
												<path id="&lt;Path&gt;" class="s1" d="m701.3 646.4c0-20.8-22.8-37.7-50.9-37.7v75.5c28.1 0 50.9-16.9 50.9-37.8z"/>
											</g>
										</g>
									</g>
								</g>
							</g>
						</g>
						<g id="&lt;Group&gt;">
							<g id="&lt;Group&gt;">
								<g id="&lt;Group&gt;">
									<path id="&lt;Path&gt;" class="s3" d="m488.2 707.1v-101.3c0-10.8 8.8-19.6 19.6-19.6l144.4-0.1c10.9 0 19.7 8.8 19.7 19.6v101.3c0 10.8-8.7 19.6-19.6 19.6l-144.4 0.1c-10.9 0-19.7-8.8-19.7-19.6z"/>
								</g>
							</g>
						</g>
						<g id="&lt;Group&gt;">
							<g id="&lt;Group&gt;">
								<g id="&lt;Group&gt;">
									<path id="&lt;Path&gt;" class="s8" d="m481.7 564l5.7-2.7c1.3-0.6 1.8-2.2 1.2-3.5l-13.1-27.5c-0.7-1.3-2.3-1.9-3.6-1.2l-5.6 2.7c-1.3 0.6-1.9 2.2-1.3 3.5l13.2 27.4c0.6 1.4 2.2 1.9 3.5 1.3z"/>
								</g>
							</g>
						</g>
						<g id="&lt;Group&gt;">
							<g id="&lt;Group&gt;">
								<g id="&lt;Group&gt;">
									<path id="&lt;Path&gt;" class="s9" d="m498.6 481.8l7.5 2.2c1.8 0.5 2.8 2.4 2.3 4.1l-16.3 55.8c-0.5 1.7-2.4 2.8-4.2 2.2l-7.5-2.2c-1.7-0.5-2.8-2.3-2.2-4.1l16.3-55.7c0.5-1.8 2.4-2.8 4.1-2.3z"/>
								</g>
							</g>
						</g>
						<g id="&lt;Group&gt;">
							<g id="&lt;Group&gt;">
								<g id="&lt;Group&gt;">
									<path id="&lt;Path&gt;" class="s9" d="m463.7 444.5l4.5-6.4c1.1-1.5 3.2-1.8 4.7-0.8l27.1 19.4c1.6 1.1 1.9 3.2 0.8 4.7l-4.5 6.3c-1.1 1.5-3.2 1.9-4.7 0.8l-27.2-19.4c-1.5-1-1.8-3.1-0.7-4.6z"/>
								</g>
							</g>
						</g>
						<g id="&lt;Group&gt;">
							<g id="&lt;Group&gt;">
								<g id="&lt;Group&gt;">
									<path id="&lt;Path&gt;" class="s3" d="m509.6 474.8c0.5-4.5-2.8-8.6-7.3-9-4.5-0.5-8.5 2.8-9 7.3-0.4 4.5 2.8 8.5 7.3 9 4.5 0.5 8.6-2.8 9-7.3z"/>
								</g>
							</g>
						</g>
						<g id="&lt;Group&gt;">
							<g id="&lt;Group&gt;">
								<g id="&lt;Group&gt;">
									<path id="&lt;Path&gt;" class="s8" d="m499.9 734.1l-0.3 6.3c-0.1 1.4-1.3 2.6-2.8 2.5l-30.4-1.5c-1.4-0.1-2.6-1.3-2.5-2.8l0.3-6.2c0.1-1.5 1.3-2.6 2.8-2.5l30.4 1.5c1.4 0 2.6 1.3 2.5 2.7z"/>
								</g>
							</g>
						</g>
						<g id="&lt;Group&gt;">
							<g id="&lt;Group&gt;">
								<g id="&lt;Group&gt;">
									<g id="&lt;Group&gt;">
										<path id="&lt;Path&gt;" class="s9" d="m313.3 691.4l-0.3-7.8c-0.1-1.9-1.7-3.3-3.5-3.2l-58 2.3c-1.9 0.1-3.3 1.6-3.3 3.5l0.4 7.8c0 1.8 1.6 3.3 3.4 3.2l58.1-2.3c1.8-0.1 3.2-1.7 3.2-3.5z"/>
									</g>
								</g>
							</g>
							<g id="&lt;Group&gt;">
								<g id="&lt;Group&gt;">
									<g id="&lt;Group&gt;">
										<path id="&lt;Path&gt;" class="s9" d="m236.1 668.5l7.8-1.2c1.8-0.3 3-2 2.8-3.8l-5.2-33c-0.2-1.8-1.9-3.1-3.8-2.8l-7.7 1.2c-1.8 0.3-3.1 2-2.8 3.8l5.1 33c0.3 1.8 2 3.1 3.8 2.8z"/>
									</g>
								</g>
							</g>
							<g id="&lt;Group&gt;">
								<g id="&lt;Group&gt;">
									<g id="&lt;Group&gt;">
										<path id="&lt;Path&gt;" class="s3" d="m250.3 669.1c3.6 2.7 4.3 7.9 1.6 11.5-2.8 3.6-7.9 4.3-11.5 1.6-3.6-2.8-4.3-7.9-1.6-11.5 2.8-3.7 7.9-4.4 11.5-1.6z"/>
									</g>
								</g>
							</g>
						</g>
						<g id="&lt;Group&gt;">
							<g id="&lt;Group&gt;">
								<g id="&lt;Group&gt;">
									<g id="&lt;Group&gt;">
										<g id="&lt;Group&gt;">
											<path id="&lt;Path&gt;" class="s3" d="m671.1 720.2l26.3-9.3 11 17.5-7.6 5.5-6.2-10.4-13.3 4.7 1.6 11.2-9.3 3.5z"/>
										</g>
									</g>
								</g>
							</g>
						</g>
						<g id="&lt;Group&gt;">
							<g id="&lt;Group&gt;">
								<g id="&lt;Group&gt;">
									<g id="&lt;Group&gt;">
										<path id="&lt;Path&gt;" class="s8" d="m271.1 746.4l-18.3-3.4c-1.7-0.3-2.9-2-2.6-3.8l6.8-36.8c0.3-1.8 2-2.9 3.8-2.6l18.2 3.4c1.8 0.3 3 2 2.7 3.8l-6.8 36.8c-0.4 1.7-2.1 2.9-3.8 2.6z"/>
									</g>
								</g>
							</g>
							<g id="&lt;Group&gt;">
								<g id="&lt;Group&gt;">
									<g id="&lt;Group&gt;">
										<g id="&lt;Group&gt;">
											<g id="&lt;Group&gt;">
												<path id="&lt;Path&gt;" class="s2" d="m267.4 714.3c-16.8-3.1-33 8-36.1 24.8l61 11.3c3.1-16.8-8.1-33-24.9-36.1z"/>
											</g>
										</g>
									</g>
								</g>
							</g>
						</g>
						<g id="&lt;Group&gt;">
							<g id="&lt;Group&gt;">
								<g id="&lt;Group&gt;">
									<g id="&lt;Group&gt;">
										<path id="&lt;Path&gt;" class="s9" d="m186.2 682.7l12.8-10.4c1.4-1.1 3.4-0.9 4.6 0.5l23.6 29c1.1 1.4 0.9 3.4-0.5 4.6l-12.8 10.4c-1.4 1.1-3.4 0.9-4.6-0.5l-23.6-29c-1.1-1.4-0.9-3.5 0.5-4.6z"/>
									</g>
								</g>
							</g>
							<g id="&lt;Group&gt;">
								<g id="&lt;Group&gt;">
									<g id="&lt;Group&gt;">
										<path id="&lt;Path&gt;" class="s8" d="m159.2 656.5l19.6-15.9c1.4-1.1 3.4-0.9 4.6 0.5l23.6 29c1.1 1.4 0.9 3.4-0.5 4.6l-19.5 15.9c-1.4 1.1-3.5 0.9-4.6-0.5l-23.6-29c-1.2-1.4-1-3.5 0.4-4.6z"/>
									</g>
								</g>
							</g>
						</g>
						<g id="&lt;Group&gt;">
							<g id="&lt;Group&gt;">
								<g id="&lt;Group&gt;">
									<g id="&lt;Group&gt;">
										<g id="&lt;Group&gt;">
											<path id="&lt;Path&gt;" class="s2" d="m150.8 708.7c-17.1-1.2-31.9 11.6-33.2 28.7l61.9 4.5c1.2-17.1-11.6-32-28.7-33.2z"/>
										</g>
									</g>
								</g>
							</g>
						</g>
						<g id="&lt;Group&gt;">
							<g id="&lt;Group&gt;">
								<g id="&lt;Group&gt;">
									<path id="&lt;Path&gt;" class="s5" d="m578 615c3 5.2 9.3 8.8 14.1 12.3 5.5 4 11.1 9.2 17.6 11.7 3.1 1.2 5.1-3.2 3-5.4-4.4-4.6-11-7.7-16.5-11.1-5.2-3.2-11-7.9-17.2-8.8-0.7-0.1-1.4 0.6-1 1.3z"/>
								</g>
							</g>
							<g id="&lt;Group&gt;">
								<g id="&lt;Group&gt;">
									<path id="&lt;Path&gt;" class="s5" d="m584.2 642.2c5.8-2.2 10.4-7.6 14.7-12 4-4 11.4-9.1 12.6-14.8 0.4-2.1-1.3-3.9-3.5-3.4-5.7 1.3-10.5 8.7-14.5 12.8-4.2 4.5-9.6 9.2-11.7 15.1-0.4 1.3 1 2.8 2.4 2.3z"/>
								</g>
							</g>
						</g>
						<g id="&lt;Group&gt;">
							<g id="&lt;Group&gt;">
								<g id="&lt;Group&gt;">
									<path id="&lt;Path&gt;" class="s5" d="m578 689.5c3 5.1 9.3 8.7 14.1 12.2 5.5 4 11.1 9.2 17.6 11.7 3.1 1.2 5.1-3.2 3-5.3-4.4-4.7-11-7.8-16.5-11.2-5.2-3.2-11-7.9-17.2-8.8-0.7-0.1-1.4 0.6-1 1.4z"/>
								</g>
							</g>
							<g id="&lt;Group&gt;">
								<g id="&lt;Group&gt;">
									<path id="&lt;Path&gt;" class="s5" d="m584.2 716.7c5.8-2.3 10.4-7.7 14.7-12.1 4-4 11.4-9 12.6-14.8 0.4-2.1-1.3-3.9-3.5-3.4-5.7 1.3-10.5 8.7-14.5 12.9-4.2 4.4-9.6 9.2-11.7 15-0.4 1.3 1 2.9 2.4 2.4z"/>
								</g>
							</g>
						</g>
						<g id="&lt;Group&gt;">
							<path id="&lt;Compound Path&gt;" fill-rule="evenodd" class="s5" d="m417.4 501.9c-2.2-1.1-4.3-2.1-6.6-3.3 1.5-4.7 2.9-9.4 4.5-14.1 0.2-0.7 0.9-1.3 1.5-1.7 2.5-1.8 4.1-4.2 5.5-7 6.8-13.8 13.8-27.7 20.8-41.5 0.3-0.7 0.8-1.3 1.6-2.5-2.4-1-4.4-1.7-6.3-2.8-0.5-0.2-0.8-1.4-0.7-2.1 0.2-0.9 0.9-1.7 1.2-2.6 0.5-1.2 1.2-1.5 2.6-1.3 1 0.2 2.7-0.4 3.1-1.2 0.3-0.8-0.3-2.4-1.1-3.2-0.9-0.9-0.9-1.5-0.4-2.6 6.2-12.3 12.3-24.6 18.5-36.8 1.5-3 4-4.7 7.3-4.9 5.8-0.5 10.2 1.8 13.3 6.6 1.8 2.9 2 6 0.4 9.1q-9.1 18.2-18.2 36.4c-0.6 1.2-1.2 1.8-2.7 1.4-0.9-0.2-2.5 0.4-3 1.1-0.4 0.6-0.1 2.4 0.5 2.8 1.9 1.3 1.4 2.6 0.5 4-0.6 1-1.1 2-1.9 3.6-2.3-1.5-4.4-3-6.9-4.7-1.4 3-2.4 5.1-3.4 7.2-6.6 13.2-13.2 26.3-19.7 39.4-0.7 1.3-1.1 2.9-1.1 4.3 0 2.8-0.9 5.2-2.7 7.4-2.3 2.8-4.4 5.9-6.6 9zm35.2-84.5c0.3-0.5 1-1.2 1.5-2.1q7.5-14.9 15-29.9c0.2-0.5 0.7-1.1 0.6-1.5-0.2-0.9-0.5-2.3-1.1-2.6-0.8-0.3-2 0.1-2.9 0.5-0.5 0.2-0.7 1-1 1.6q-7.4 14.7-14.8 29.5c-0.3 0.6-0.6 1.1-0.8 1.7-0.4 1.9 1.3 3.4 3.5 2.8zm8.4 4.2c0.3-0.4 1-1 1.4-1.8q7.6-15.2 15.2-30.4c0.3-0.5 0.5-1 0.6-1.5 0.3-1.9-1.5-3.4-3.1-2.5-0.8 0.4-1.4 1.2-1.8 2q-7.6 15-15.1 29.9c-0.2 0.6-0.6 1.2-0.6 1.8-0.3 1.7 1.3 3.1 3.4 2.5z"/>
						</g>
						<g id="&lt;Group&gt;">
							<g id="&lt;Group&gt;">
								<g id="&lt;Group&gt;">
									<g id="&lt;Group&gt;">
										<g id="&lt;Group&gt;">
											<path id="&lt;Path&gt;" class="s3" d="m458.3 452l15.2-23.3-14.4-14.8-7.1 6.1 8.6 8.4-7.6 11.8-10.6-4.1-5.6 8.2z"/>
										</g>
									</g>
								</g>
							</g>
						</g>
						<g id="&lt;Group&gt;">
							<path id="&lt;Path&gt;" class="s10" d="m441.8 543.1h-92.8c-1.2 0-2.2-1-2.2-2.2v-7.8c0-1.2 1-2.2 2.2-2.2h92.8c1.2 0 2.2 1 2.2 2.2v7.8c0 1.2-1 2.2-2.2 2.2z"/>
						</g>
						<g id="&lt;Group&gt;">
							<g id="&lt;Group&gt;">
								<path id="&lt;Path&gt;" class="s5" d="m399.5 537.7c9.4-29.4-7.5-61.6-36.9-70.9-3-1-4.3 3.8-1.3 4.8 26.9 8.5 42 38.1 33.4 64.8-1 3.1 3.8 4.4 4.8 1.3z"/>
							</g>
						</g>
						<g id="&lt;Group&gt;">
							<g id="&lt;Group&gt;">
								<path id="&lt;Path&gt;" class="s5" d="m410.1 523.9c3.2 0 3.2-4.9 0-4.9-3.2 0-3.2 4.9 0 4.9z"/>
							</g>
						</g>
						<g id="&lt;Group&gt;">
							<g id="&lt;Group&gt;">
								<path id="&lt;Path&gt;" class="s5" d="m377.8 500.8c3.2 0 3.2-5 0-5-3.2 0-3.2 5 0 5z"/>
							</g>
						</g>
						<g id="&lt;Group&gt;">
							<path id="&lt;Compound Path&gt;" fill-rule="evenodd" class="s5" d="m360.9 501.7c-2.8 0-5.5-1.2-7.2-3.4-0.6-0.9-1-1.9-1.2-2.9q-0.2-0.1-0.4-0.1c-2.5-0.6-4.6-3-5.1-5.9q-0.3-1.7 0.1-3.7-0.8-0.2-1.6-0.5c-0.5-0.2-2.9-1.5-3.8-4.4q-0.6-1.8-0.1-3.9c-2.1-1-4-2.7-5-4.8-1.1-2.3-1.1-4.6 0-6.9 0.3-0.6 1-0.9 1.6-0.6 0.7 0.3 0.9 1.1 0.6 1.7-0.9 1.9-0.5 3.6 0 4.7 0.8 1.5 2.1 2.8 3.6 3.5q0.5-1.2 1.3-2.5c1.5-2.3 5.2-3.5 7.5-3.2 1.5 0.2 2.6 1 3 2.2 0.3 1.3 0 2.5-1 3.6-1.9 2-6.1 3.4-9.2 3q-0.3 1.3 0.1 2.5c0.5 1.9 2.4 2.8 2.4 2.8q0.6 0.3 1.3 0.4 0.2-0.6 0.5-1.2c1.1-2.5 2.6-4 4.4-4.6 1.4-0.5 3-0.2 4.2 0.8 1 0.7 1.5 1.8 1.4 3-0.1 1.7-1.5 3.1-3.6 3.8-1.4 0.5-3.2 0.9-5.1 0.9q-0.4 1.6-0.1 3c0.3 1.8 1.4 3.3 2.8 3.8q0.1-0.4 0.1-0.7c0.4-2.1 1.6-3.9 3.2-4.9 1.8-1.2 4.4-1.3 5.7 0.5 1.1 1.5 0.7 3.5-0.3 4.7-0.9 1.1-2.2 1.7-3.4 2.1-0.8 0.3-1.7 0.6-2.6 0.8q0.3 0.8 0.7 1.5c1.7 2.3 5.3 3.1 8 1.8 0.6-0.3 1.4 0 1.6 0.6 0.3 0.7 0.1 1.4-0.6 1.7-1.2 0.5-2.5 0.8-3.8 0.8zm-2.5-12.9c-0.5 0-1 0.2-1.5 0.5-1 0.7-1.8 1.8-2 3.2q-0.1 0.2-0.1 0.3c0.7-0.1 1.3-0.3 1.9-0.6 0.9-0.3 1.8-0.7 2.4-1.4 0.4-0.5 0.5-1.2 0.2-1.6-0.2-0.3-0.5-0.4-0.9-0.4zm-4.4-9.1q-0.3 0-0.5 0.1c-1.1 0.4-2.1 1.5-3 3.4q0 0.1-0.1 0.3c1.3-0.1 2.5-0.4 3.5-0.8 0.9-0.3 1.9-0.9 1.9-1.6 0.1-0.4-0.2-0.7-0.4-0.9-0.4-0.3-0.9-0.5-1.4-0.5zm-9.2-4.6c2.3 0.1 5.3-0.8 6.6-2.2 0.6-0.6 0.5-1 0.4-1.2q-0.1-0.3-0.9-0.5c-1.7-0.2-4.2 0.9-5.1 2.1q-0.6 1-1 1.8z"/>
						</g>
						<g id="&lt;Group&gt;">
							<path id="&lt;Compound Path&gt;" fill-rule="evenodd" class="s5" d="m256.4 586.7c-0.3 0-0.7-0.1-0.9-0.4-3.1-3.4-3.5-8.8-0.9-12.4 0.7-0.9 1.6-1.7 2.7-2.3q-0.1-0.2-0.1-0.5c-0.2-2.8 1.6-5.7 4.4-7.2q1.8-0.9 4.1-1.2-0.1-0.9 0-1.9c0.1-0.6 0.6-3.6 3.3-5.5q1.8-1.2 4.2-1.4c0.2-2.5 1.5-5.1 3.3-6.9 2-1.9 4.5-2.7 7.2-2.3 0.7 0.1 1.2 0.7 1.1 1.4-0.1 0.7-0.7 1.2-1.4 1.1-2.5-0.4-4.2 0.7-5.2 1.6-1.3 1.3-2.3 3.3-2.5 5.2q1.5 0.1 3.2 0.6c2.9 0.8 5.4 4.1 5.8 6.7 0.3 1.6-0.1 3-1.3 3.8-1.1 0.7-2.5 0.8-4 0.1-2.8-1.3-5.6-5.3-6.2-8.8q-1.6 0.2-2.8 1c-1.9 1.3-2.2 3.6-2.2 3.6q-0.1 0.9 0 1.7 0.7 0 1.5 0.1c3 0.3 5.1 1.3 6.4 3 0.9 1.3 1.1 3.1 0.5 4.7-0.5 1.2-1.4 2.1-2.6 2.4-1.8 0.3-3.7-0.6-5.1-2.6-1-1.3-2.1-3.1-2.7-5.1q-1.9 0.2-3.4 0.9c-1.9 1-3.1 2.8-3.1 4.6q0.4-0.1 0.9-0.2c2.3-0.3 4.5 0.4 6.1 1.7 1.8 1.5 2.8 4.2 1.4 6.1-1.2 1.6-3.4 1.7-4.9 1.1-1.4-0.6-2.5-1.7-3.4-2.8-0.6-0.8-1.2-1.6-1.7-2.6q-0.9 0.6-1.5 1.4c-1.9 2.6-1.6 6.7 0.7 9.2 0.5 0.5 0.5 1.3 0 1.8-0.3 0.2-0.6 0.3-0.9 0.3zm4-13.6c0.4 0.7 0.9 1.4 1.4 2 0.8 0.9 1.5 1.7 2.3 2 0.7 0.3 1.6 0.2 2-0.3 0.5-0.7-0.1-2-0.9-2.7-1.1-0.9-2.7-1.3-4.3-1.1q-0.2 0-0.5 0.1zm8.4-7.9c0.6 1.4 1.4 2.7 2.1 3.7 0.6 0.8 1.6 1.7 2.5 1.5 0.5-0.1 0.8-0.5 0.9-0.8 0.3-0.8 0.2-1.7-0.3-2.3-0.8-1.1-2.3-1.8-4.6-2q-0.3-0.1-0.6-0.1zm7-8.7c0.6 2.5 2.8 5.5 4.7 6.4 0.9 0.5 1.4 0.2 1.5 0.1q0.4-0.3 0.3-1.3c-0.4-1.9-2.4-4.3-4-4.7q-1.4-0.4-2.5-0.5z"/>
						</g>
						<g id="&lt;Group&gt;">
							<path id="&lt;Compound Path&gt;" fill-rule="evenodd" class="s5" d="m422 528.9c-1.6 0-3.2-0.3-4.7-1-0.6-0.3-0.9-1.1-0.6-1.7 0.3-0.6 1-0.9 1.6-0.6 3.7 1.7 8.4 0.6 10.7-2.5q0.7-1 1-2.3c-1.2-0.2-2.5-0.7-3.6-1.1-1.5-0.6-3.1-1.3-4.2-2.6-1.1-1.5-1.7-3.9-0.4-5.6 1.5-2.1 4.7-2 6.9-0.6 2 1.3 3.4 3.5 3.9 6q0.1 0.7 0.1 1.3c2.1-0.5 3.9-2.6 4.4-5.2q0.3-2-0.3-4.3c-2.5 0-4.8-0.5-6.6-1.1-2.6-0.9-4.3-2.6-4.5-4.6-0.1-1.3 0.5-2.6 1.7-3.6 1.4-1.1 3.4-1.5 5.1-0.9 2.2 0.7 4 2.6 5.4 5.8q0.4 0.9 0.7 1.8 1.1-0.2 2-0.7c0.3-0.1 2.6-1.2 3.4-3.8q0.5-1.7 0-3.7c-3.9 0.6-9.3-1.1-11.8-3.7-1.5-1.6-1.5-3.2-1.2-4.2 0.5-1.5 1.7-2.4 3.5-2.6 2.9-0.5 7.4 1.1 9.3 3.9q1.1 1.8 1.8 3.5c2.1-0.9 4.1-2.7 5.1-4.8 0.7-1.4 1.3-3.7 0-6.4-0.3-0.6 0-1.3 0.6-1.6 0.6-0.3 1.3-0.1 1.6 0.6 1.4 2.8 1.4 5.7 0 8.5-1.3 2.7-3.8 5-6.5 6.1q0.7 2.7 0 5.1c-1.1 3.7-4.4 5.2-4.7 5.4q-1.2 0.5-2.4 0.7 0.6 2.7 0.2 5c-0.6 3.6-3.1 6.5-6.3 7.3q-0.3 0-0.6 0.1c-0.3 1.4-0.8 2.7-1.6 3.8-2 2.7-5.5 4.3-9 4.3zm3.3-16.5c-0.7 0-1.2 0.1-1.5 0.6-0.5 0.7-0.2 1.8 0.4 2.5 0.7 0.9 1.9 1.4 3.1 1.9 0.9 0.4 1.9 0.7 2.9 0.9q0-0.5-0.1-0.9c-0.3-1.9-1.3-3.5-2.8-4.4-0.6-0.4-1.4-0.6-2-0.6zm5.6-11.7c-0.7 0-1.4 0.2-2 0.7-0.3 0.3-0.7 0.7-0.7 1.4 0.1 1.2 1.5 2 2.7 2.4 1.5 0.5 3.3 0.9 5.2 1q-0.2-0.4-0.4-0.9c-1.2-2.5-2.5-4-4-4.5q-0.4-0.1-0.8-0.1zm4.6-10.9q-0.3 0-0.6 0-1.3 0.2-1.5 0.9c-0.1 0.2-0.3 0.8 0.6 1.8 1.8 1.9 6.1 3.3 9.2 3q-0.6-1.4-1.5-2.8c-1-1.6-3.9-2.9-6.2-2.9z"/>
						</g>
						<g id="&lt;Group&gt;">
							<g id="&lt;Group&gt;">
								<path id="&lt;Path&gt;" class="s5" d="m389.4 535.5c1.4-11.1-3.8-22.2-14.6-26.6-13-5.4-25.1 3.2-33 13-12 14.7-20.1 34-25.6 52-7.2 23.3-8.3 48.9-24.7 68.3-2 2.4 1.5 5.9 3.6 3.5 15.7-18.7 18-42.2 24.3-65.1 4.2-15.2 10.3-29.9 18.2-43.5 4.5-7.7 9.6-16.1 17.3-21.1 14.8-9.5 31.7 2.6 29.5 19.5-0.4 3.1 4.6 3.1 5 0z"/>
							</g>
						</g>
						<g id="&lt;Group&gt;">
							<g id="&lt;Group&gt;">
								<path id="&lt;Path&gt;" class="s10" d="m465.3 556.2c-0.1 2-0.2 3.9 0 5.8 0 0.4 0.5 0.4 0.5 0 0.2-1.9 0.1-3.8 0.1-5.8 0-0.4-0.6-0.4-0.6 0z"/>
							</g>
						</g>
						<g id="&lt;Group&gt;">
							<g id="&lt;Group&gt;">
								<path id="&lt;Path&gt;" class="s10" d="m327.1 566c-1.8 2.9-2.4 7-1.3 10.3 0.2 0.6 1.2 0.8 1.4 0 0.7-3.2 0.8-6.8 0.7-10.1 0-0.4-0.6-0.6-0.8-0.2z"/>
							</g>
						</g>
						<g id="&lt;Group&gt;">
							<g id="&lt;Group&gt;">
								<path id="&lt;Path&gt;" class="s10" d="m462.4 563.8c0.4 0.5 0.7 0.9 1.3 1.4 0.2 0.2 0.7-0.1 0.5-0.4-0.4-0.6-0.7-1-1.2-1.4-0.3-0.3-0.9 0.1-0.6 0.4z"/>
							</g>
						</g>
						<g id="&lt;Group&gt;">
							<g id="&lt;Group&gt;">
								<path id="&lt;Path&gt;" class="s10" d="m468.5 562.4c-0.2 2 0 4-0.1 6 0 2-0.3 4.1 0 6 0 0.5 0.8 0.7 0.9 0.2 0.8-3.7 0.3-8.6-0.6-12.2-0.1-0.1-0.2-0.1-0.2 0z"/>
							</g>
						</g>
						<g id="&lt;Group&gt;">
							<g id="&lt;Group&gt;">
								<path id="&lt;Path&gt;" class="s10" d="m317.6 702.7c-0.2 1.1-0.3 2.2-0.2 3.4 0 0.5 0.8 0.5 0.8 0 0.2-1.2 0.1-2.3-0.2-3.4 0-0.2-0.4-0.2-0.4 0z"/>
							</g>
						</g>
						<g id="&lt;Group&gt;">
							<g id="&lt;Group&gt;">
								<path id="&lt;Path&gt;" class="s10" d="m320 703.6c-0.1 1.8-0.5 3.7-0.1 5.5 0.1 0.3 0.7 0.3 0.8 0 0.3-1.8 0-3.7-0.1-5.5-0.1-0.4-0.6-0.4-0.6 0z"/>
							</g>
						</g>
						<g id="&lt;Group&gt;">
							<g id="&lt;Group&gt;">
								<path id="&lt;Path&gt;" class="s10" d="m322.8 709.7c-0.3 1.2-0.1 2.8 0.4 3.9 0.1 0.4 0.7 0.4 0.8-0.1 0-1.2-0.2-2.8-0.9-3.8-0.1-0.2-0.3-0.2-0.3 0z"/>
							</g>
						</g>
						<g id="&lt;Group&gt;">
							<g id="&lt;Group&gt;">
								<path id="&lt;Path&gt;" class="s10" d="m318.1 711c0.1 0.9 0.4 1.5 0.8 2.2 0.2 0.2 0.6 0.1 0.5-0.2-0.2-0.8-0.5-1.5-1.1-2.1 0 0-0.2 0-0.2 0.1z"/>
							</g>
						</g>
						<g id="&lt;Group&gt;">
							<g id="&lt;Group&gt;">
								<path id="&lt;Path&gt;" class="s10" d="m394.1 584.4c-0.1 1.4-0.3 2.9 0.1 4.3 0.2 0.5 1 0.5 1.1 0 0.5-1.4 0.2-2.9 0.2-4.3 0-0.9-1.4-0.9-1.4 0z"/>
							</g>
						</g>
						<g id="&lt;Group&gt;">
							<g id="&lt;Group&gt;">
								<path id="&lt;Path&gt;" class="s10" d="m395.5 584.4c-0.1 0.9-0.3 1.7 0 2.6 0.1 0.6 0.9 0.6 1.1 0 0.3-0.9 0.1-1.7 0-2.6-0.1-0.7-1-0.7-1.1 0z"/>
							</g>
						</g>
						<g id="&lt;Group&gt;">
							<g id="&lt;Group&gt;">
								<path id="&lt;Path&gt;" class="s10" d="m396.6 577.8c0.4 2.6 0.1 5.4 0.8 7.9 0 0.3 0.5 0.3 0.6 0 0.7-2.5-0.2-5.6-0.8-8-0.2-0.4-0.7-0.3-0.6 0.1z"/>
							</g>
						</g>
						<g id="&lt;Group&gt;">
							<g id="&lt;Group&gt;">
								<path id="&lt;Path&gt;" class="s10" d="m394.3 594.6c-0.3 1.1-0.4 2.2 0.5 3 0.3 0.2 0.8 0.1 0.8-0.4-0.1-0.8-0.4-1.4-0.3-2.3 0.2-0.7-0.8-1-1-0.3z"/>
							</g>
						</g>
						<g id="&lt;Group&gt;">
							<g id="&lt;Group&gt;">
								<path id="&lt;Path&gt;" class="s10" d="m323.7 609.6c0.1 1.1 0.2 2.1 0.9 3.1 0.2 0.3 0.7 0.2 0.7-0.2 0.1-1.2-0.4-2.1-0.9-3.1-0.2-0.3-0.8-0.2-0.7 0.2z"/>
							</g>
						</g>
						<g id="&lt;Group&gt;">
							<g id="&lt;Group&gt;">
								<path id="&lt;Path&gt;" class="s10" d="m325.2 608c0.6 0.6 0.6 1.1 0.9 1.7 0.1 0.4 0.6 0.6 0.8 0.2 0.5-1.1 0-2-0.8-2.7-0.6-0.5-1.4 0.3-0.9 0.8z"/>
							</g>
						</g>
						<g id="&lt;Group&gt;">
							<g id="&lt;Group&gt;">
								<path id="&lt;Path&gt;" class="s10" d="m344.1 550.4c-0.2 1.7-0.4 3.4-0.2 5.1 0.1 0.4 0.7 0.4 0.8 0 0.2-1.7 0-3.4-0.2-5.1 0-0.3-0.4-0.3-0.4 0z"/>
							</g>
						</g>
						<g id="&lt;Group&gt;">
							<g id="&lt;Group&gt;">
								<path id="&lt;Path&gt;" class="s10" d="m345.4 551.6c0.1 2.1-0.3 4.4 0.1 6.4 0.1 0.4 0.7 0.3 0.8 0 0.7-2 0.2-4.5-0.3-6.4-0.1-0.4-0.6-0.3-0.6 0z"/>
							</g>
						</g>
						<g id="&lt;Group&gt;">
							<g id="&lt;Group&gt;">
								<path id="&lt;Path&gt;" class="s10" d="m364.9 655c-1.2 3-1.3 6.2 0.3 9 0.2 0.3 0.7 0.1 0.6-0.3-0.7-2.8-0.9-5.7 0-8.4 0.2-0.6-0.6-0.8-0.9-0.3z"/>
							</g>
						</g>
						<g id="&lt;Group&gt;">
							<g id="&lt;Group&gt;">
								<path id="&lt;Path&gt;" class="s10" d="m359.6 654.3c-0.1 0.7-0.1 1.1 0 1.8 0.1 0.3 0.7 0.3 0.8 0 0.2-0.7 0.1-1.1 0.1-1.8-0.1-0.6-0.9-0.6-0.9 0z"/>
							</g>
						</g>
						<g id="&lt;Group&gt;">
							<g id="&lt;Group&gt;">
								<path id="&lt;Path&gt;" class="s10" d="m445.6 606.6c-0.4 1.3-0.6 2.5-0.7 3.9 0 0.4 0.6 0.6 0.8 0.2 0.6-1.3 0.8-2.4 1.1-3.8 0.1-0.8-1-1.1-1.2-0.3z"/>
							</g>
						</g>
						<g id="&lt;Group&gt;">
							<g id="&lt;Group&gt;">
								<path id="&lt;Path&gt;" class="s10" d="m447.5 610.8c-0.3 1.4-0.8 2.7-1.1 4.1 0 0.4 0.5 0.9 0.9 0.4 1-1.2 1.1-3 0.8-4.5-0.1-0.3-0.6-0.3-0.6 0z"/>
							</g>
						</g>
						<g id="&lt;Group&gt;">
							<g id="&lt;Group&gt;">
								<path id="&lt;Path&gt;" class="s10" d="m517.2 607c-0.3 0.6-0.4 0.8-0.5 1.4-0.1 0.4 0 0.9 0.3 1.2 0.5 0.4 0.7 0.4 1.3 0.3 0.4-0.1 0.7-0.5 0.9-0.9 0.1-0.5 0.2-0.8 0.2-1.4-0.1-1.1-1.6-1.6-2.2-0.6z"/>
							</g>
						</g>
						<g id="&lt;Group&gt;">
							<g id="&lt;Group&gt;">
								<path id="&lt;Path&gt;" class="s10" d="m511.6 611.4c-0.7 0.9-1.2 1.9-0.5 3 0.2 0.4 0.8 0.3 0.9-0.1 0.2-0.8 0-1.7 0.3-2.5 0-0.4-0.4-0.7-0.7-0.4z"/>
							</g>
						</g>
						<g id="&lt;Group&gt;">
							<g id="&lt;Group&gt;">
								<path id="&lt;Path&gt;" class="s10" d="m648.8 603.1c0.2 0.9 0 1.5-0.2 2.3-0.1 0.4 0.4 0.6 0.6 0.3 0.6-0.9 0.7-1.7 0.6-2.7-0.1-0.7-1.1-0.6-1 0.1z"/>
							</g>
						</g>
						<g id="&lt;Group&gt;">
							<g id="&lt;Group&gt;">
								<path id="&lt;Path&gt;" class="s10" d="m652 604.2c-0.1 0.9-0.3 1.7 0 2.6 0 0.3 0.4 0.3 0.5 0 0.2-0.9 0-1.7-0.1-2.6 0-0.2-0.3-0.2-0.4 0z"/>
							</g>
						</g>
						<g id="&lt;Group&gt;">
							<g id="&lt;Group&gt;">
								<path id="&lt;Path&gt;" class="s10" d="m654.2 694c-0.7 0.9-1.4 1.8-1.9 2.9-0.1 0.3 0.4 0.6 0.6 0.3 0.7-0.9 1.1-2 1.6-3 0.1-0.2-0.2-0.4-0.3-0.2z"/>
							</g>
						</g>
						<g id="&lt;Group&gt;">
							<g id="&lt;Group&gt;">
								<path id="&lt;Path&gt;" class="s10" d="m649.1 691.6c-0.1 1.1-0.1 2.2 0 3.3 0 0.3 0.5 0.3 0.5 0 0.1-1.1 0-2.2 0-3.3 0-0.4-0.5-0.4-0.5 0z"/>
							</g>
						</g>
						<g id="&lt;Group&gt;">
							<g id="&lt;Group&gt;">
								<path id="&lt;Path&gt;" class="s10" d="m526.8 699.9c0.5 1.9 1.9 4.2 3.7 5.2 0.4 0.2 1.1-0.2 0.9-0.7-0.7-1.8-2.2-3.8-3.6-5.1-0.4-0.4-1.2 0-1 0.6z"/>
							</g>
						</g>
						<g id="&lt;Group&gt;">
							<g id="&lt;Group&gt;">
								<path id="&lt;Path&gt;" class="s10" d="m522 705.4c0.5 1.2 0.9 2.4 1.7 3.4 0.3 0.4 0.8 0 0.8-0.4-0.3-1.2-0.9-2.3-1.4-3.4-0.3-0.6-1.4-0.2-1.1 0.4z"/>
							</g>
						</g>
						<g id="&lt;Group&gt;">
							<g id="&lt;Group&gt;">
								<path id="&lt;Path&gt;" class="s10" d="m631.5 647.4c-1.3 0.9-2.2 3-0.6 4.1 0.3 0.2 0.8 0 0.9-0.4 0.1-1-0.1-1.9 0.6-2.8 0.4-0.6-0.4-1.3-0.9-0.9z"/>
							</g>
						</g>
					</g>
					<g id="&lt;Group&gt;">
						<g id="&lt;Group&gt;">
							<g id="&lt;Group&gt;">
								<path id="&lt;Compound Path&gt;" fill-rule="evenodd" class="s5" d="m512.8 394.1c0.6 1.1 1.2 2.3 1.8 3.5 0.1 0.2 0.4 0.2 0.6 0.2 1 0.1 2.1 0.1 3.1 0.1 0.3-0.1 0.8-0.3 1-0.6 0.5-0.8 1-1.7 1.5-2.6 0.2-0.4 0.5-0.5 1-0.4q1.9 0.6 3.9 1.1c0 1.2 0 2.4-0.1 3.6 0 0.6 0.1 1 0.8 1.3 0.5 0.2 1.1 0.5 1.5 0.9 1 0.9 1.8 0.7 2.7 0 0.8-0.5 1.6-0.9 2.2-1.3 1.3 1.2 2.5 2.2 3.7 3.3-0.7 1.1-1.3 2.1-2 3.1-0.3 0.5-0.4 0.9 0 1.5 0.5 0.5 0.9 1.1 1.1 1.8 0.3 1 0.9 1.2 1.8 1.1 0.8-0.1 1.6 0 2.4-0.1 0.7-0.1 0.9 0.2 1 0.8 0.3 1.2 0.7 2.3 1 3.5q0 0.2 0 0.4c-1.1 0.6-2.2 1.2-3.3 1.8-0.3 0.2-0.5 0.6-0.5 0.9-0.1 1.2-0.4 2.6 0.1 3.4 0.5 0.9 1.9 1.4 3 2 0.4 0.2 0.6 0.5 0.5 1q-0.6 1.7-1 3.3c-0.1 0.5-0.4 0.7-0.9 0.7-1-0.1-1.9-0.1-2.9-0.2-0.5 0-0.8 0.2-1 0.6q-0.7 1.4-1.5 2.6c-0.3 0.4-0.3 0.7 0 1.2 0.6 1 1.2 2 1.8 3.2-0.4 0.3-0.7 0.6-1 0.9q-0.5 0.5-1.1 1c-1.4 1.4-1.4 1.4-3 0.3-1.3-1-2.3-1-3.8-0.1-1.7 0.8-2.2 1.8-2 3.5 0.1 1.8 0 1.8-1.7 2.2-1 0.3-2.1 0.9-2.9 0.5-0.7-0.2-1.1-1.5-1.5-2.4-0.4-0.8-0.8-1.2-1.7-1-0.8 0.1-1.7 0-2.5-0.1-0.6 0-0.9 0.2-1.1 0.7-0.6 1-1.2 1.9-1.7 3-1.4-0.4-2.7-0.8-4-1.1-0.6-0.2-0.7-0.4-0.7-1 0.1-0.9 0.1-1.8 0.1-2.7-0.1-0.3-0.3-0.8-0.6-1q-1.3-0.9-2.8-1.6c-0.2-0.1-0.7-0.1-1 0-0.8 0.5-1.7 1-2.5 1.5-0.2 0.1-0.7 0.1-0.8-0.1-1.1-1-2.1-2-3.1-3.1 0.6-1 1.3-1.9 1.8-2.9 0.1-0.3 0.1-0.8 0-1.1-0.5-0.9-1.1-1.8-1.6-2.8-0.2-0.5-0.5-0.6-1-0.6-1.1 0-2.2 0-3.3 0 0-0.1-0.1-0.2-0.1-0.2q-0.4-1.4-0.7-2.7c-0.4-1.7-0.5-1.9 1.2-2.6 1.5-0.6 2.2-1.5 1.8-3.1-0.1-0.5-0.1-1 0-1.4 0.2-0.9-0.1-1.4-0.9-1.7-0.8-0.4-2-0.8-2.2-1.5-0.3-0.7 0.3-1.7 0.5-2.6 0.5-1.9 0.5-1.9 2.5-1.9 0.4 0 0.9 0 1.3 0 0.5 0.1 0.8-0.1 1.1-0.5 0.5-1 1.1-1.9 1.6-2.9 0.2-0.3 0.2-0.7 0.1-1-0.5-1-1.1-2-1.5-2.6 1.2-1.4 2.2-2.6 3.2-3.7 0.9 0.5 1.7 0.9 2.3 1.4 0.8 0.6 1.5 0.7 2.4 0.1 0.6-0.5 1.3-0.8 2.1-1.1 0.5-0.3 0.8-0.6 0.7-1.2-0.1-0.8 0-1.7-0.1-2.5 0-0.7 0.2-0.9 0.8-1.1 1.2-0.3 2.4-0.6 3.5-0.9q0.3 0 0.6 0zm18.5 25.5c0.1-8.4-6.5-15.1-14.8-15.2-8.2 0-15 6.7-15 15 0 8.2 6.6 14.8 15 14.8 8 0.1 14.8-6.6 14.8-14.6z"/>
							</g>
						</g>
					</g>
					<g id="&lt;Group&gt;">
						<g id="&lt;Group&gt;">
							<g id="&lt;Group&gt;">
								<path id="&lt;Compound Path&gt;" fill-rule="evenodd" class="s5" d="m326.5 404.6c-1.1 1.6-0.3 3.5 1.6 3.9q0.9 0.3 1.9 0.5c3.6 0.9 3.5 0.9 3.6 4.5 0.1 1-0.2 1.6-1.2 1.9-1.2 0.3-2.4 0.8-3.6 1.3-2 0.7-2.5 2.7-1.2 4.3q0.7 0.7 1.3 1.5c2.4 2.7 2.3 2.6 0.2 5.6-0.6 0.9-1.1 1.2-2.1 0.8-1.3-0.4-2.6-0.8-3.8-1.1-1.7-0.5-3.5 0.9-3.4 2.6 0.1 1.5 0.3 2.9 0.3 4.3 0.1 0.4 0 1.1-0.2 1.2-1.3 0.7-2.7 1.4-4.1 1.6-0.5 0.1-1.3-1.1-1.9-1.7-0.4-0.5-0.8-1.1-1.3-1.7-1.7-2.3-3.6-2.1-5.1 0.3q-0.9 1.5-1.9 3c-0.2 0.3-0.5 0.8-0.7 0.8-1.5-0.3-3-0.5-4.3-1.2-0.5-0.2-0.5-1.6-0.6-2.4-0.1-0.9 0-1.7-0.1-2.6 0-2-1.9-3.3-3.8-2.6-1.2 0.6-2.4 1.1-3.7 1.6-0.4 0.1-1.1 0.2-1.2 0-1-1.1-2.2-2.2-2.7-3.5-0.3-0.6 0.8-1.7 1.3-2.5 0.3-0.5 0.6-0.9 0.9-1.4 1.5-2.3 0.8-4.1-1.9-4.7-1.1-0.3-2.3-0.5-3.4-0.8-0.3-0.1-0.9-0.3-0.9-0.5-0.1-1.6-0.4-3.2-0.2-4.6 0.1-0.5 1.5-0.9 2.3-1.2 0.9-0.4 1.8-0.7 2.7-1 1.3-0.5 1.9-2.7 1-3.8-1.2-1.4-2.4-2.8-3.6-4.2 0.8-1.2 1.5-2.4 2.3-3.5 0.3-0.4 1.1-0.6 1.6-0.5 1.3 0.2 2.7 0.7 4 1.1 1.9 0.5 3.5-0.9 3.2-2.8q-0.1-0.8-0.1-1.6c-0.3-4-0.3-4 3.7-5.1 0.5-0.1 1.2 0.2 1.6 0.6 1 1.1 1.8 2.3 2.8 3.5 0.3 0.4 1 0.6 1.6 0.7 2 0.4 2.4-1.4 3.1-2.6 2.2-3.5 2.2-3.6 6.1-2.1 0.4 0.2 0.9 0.8 0.9 1.3 0.2 1.5 0.1 2.9 0.2 4.3 0.1 0.7 0.6 1.3 1 1.8 1.2 1.4 2.3 0.4 3.5 0 4.5-1.9 4.5-1.9 7.3 2.4q-1.5 2.1-3 4.3zm-31 8.8c-0.5 6.9 5.3 13.2 12.7 13.7 7 0.5 13.3-5.4 13.8-12.8 0.5-7.1-5.4-13.2-12.9-13.7-6.9-0.4-13.1 5.3-13.6 12.8z"/>
							</g>
						</g>
					</g>
					<g id="&lt;Group&gt;">
						<g id="&lt;Group&gt;">
							<path id="&lt;Compound Path&gt;" fill-rule="evenodd" class="s5" d="m420.4 436.4c-1.1 0.7-1 3.5 0.3 4 1.7 0.7 2 1.7 1.2 3.3-0.1 0.4-0.2 0.8-0.4 1.2-1.4 0.3-2.9-0.5-4 1.4-1.2 1.9 0.3 2.8 0.8 4.5-0.3 0.3-1 0.6-1.3 1.1-0.9 1-1.8 1.2-2.7 0.2-1.2-1.1-2.1-0.1-3.2 0.3-1.1 0.5-1 1.3-0.9 2.1 0.2 1.4-0.5 1.9-1.7 2.1-1.1 0.2-2.1 0.7-2.7-0.9-0.2-0.6-0.8-1.3-1.3-1.4-1.5-0.2-3.1-0.3-3.7 1.7-0.1 0.3-0.4 0.6-0.6 1-0.7-0.2-1.2-0.4-1.8-0.5q-0.8-0.3-1.6-0.5c0-0.9 0-1.6 0-2.2-0.1-1.4-2.7-2.9-3.7-2.1-1.5 1.2-2.5 0.7-3.5-0.6-0.2-0.3-0.6-0.6-0.9-1q0.5-0.8 0.9-1.5c0.9-1.4-0.5-4.2-2.1-4-1.7 0.1-2.3-0.6-2.5-2.1-0.1-0.5-0.2-0.9-0.3-1.4 0.3-0.2 0.4-0.3 0.6-0.4 1.1-0.5 2-0.9 2-2.6-0.1-1.5-0.5-2.3-1.8-3-1.4-0.7-0.2-1.7-0.2-2.6 0.1-0.8 0.4-1.4 1.5-1.3 0.6 0.1 1.6 0.1 2-0.4 1.6-1.5 1.6-2.5 0.6-4.4-0.2-0.2-0.3-0.5-0.4-0.8q1.3-1.2 2.6-2.4c1.3 0.6 2.2 1.8 4.1 0.8 2-1 1.2-2.5 1.5-4 1.1-0.2 2.3-0.5 3.5-0.8 0.3 0.6 0.7 1.1 0.9 1.7 0.5 1.5 1.7 1 2.7 1.1 1 0.2 1.5-0.3 1.8-1.1 0.5-1.5 1.4-1.8 2.8-1.2 0.5 0.3 1.1 0.4 1.6 0.6 0 0.7 0.1 1.4 0 2-0.3 1.4 0.9 1.6 1.6 2.2 0.8 0.6 1.5 0.6 2.2 0 1.3-1.2 2.3-0.9 3.2 0.4 0.3 0.5 0.7 0.8 1 1.1-0.3 1.5-2.1 2.3-1 4.3 1.1 2 2.7 1 4.1 1.4 1.2 3 1.2 3-1.2 4.7zm-28.1 1.8c0 6.1 5 11.2 11.2 11.2 6.1 0 11.2-5 11.2-11.1 0.1-6.2-4.9-11.2-11.2-11.2-6.2-0.1-11.2 4.9-11.2 11.1z"/>
						</g>
					</g>
					<g id="&lt;Group&gt;">
						<g id="&lt;Group&gt;">
							<path id="&lt;Compound Path&gt;" fill-rule="evenodd" class="s5" d="m442.8 329.3c-1.1 0.4-1.5-0.1-2.1-0.7-1.5-1.5-3.6-1.5-5.3 0-0.7 0.6-1.2 1-2.1 0.4-0.9-0.5-0.8-1-0.7-1.8 0.2-2.2-1.2-4-3.3-4.5-0.5-0.2-1.2-0.7-1.5-1.3-0.4-0.8 0.1-1.4 0.9-1.9 1.8-1.1 2.3-3.3 1.5-5.2-0.2-0.5-0.2-1.3 0.1-1.8 0.3-0.7 0.9-1.1 1.9-0.7 2.1 0.8 3.9-0.1 5-2 0.3-0.5 1-0.9 1.6-0.9 0.6 0 1.4 0.5 1.6 1 1.1 2.2 2.4 2.9 4.8 2.5 0.5-0.1 1.2 0.4 1.7 0.8 0.7 0.5 0.7 1.1 0.2 1.9-1.2 1.9-0.9 3.7 1 5 0.9 0.6 0.8 1.2 0.7 2.1-0.2 0.9-0.8 1.1-1.6 1.2-2.1 0.2-3.4 1.7-3.4 3.9 0.2 0.8 0.1 1.6-1 2zm-4.4-15.2c-2.9 0-5.3 2.4-5.3 5.3 0.1 2.9 2.4 5.2 5.3 5.2 2.9-0.1 5.2-2.4 5.2-5.3 0-2.8-2.3-5.2-5.2-5.2z"/>
						</g>
					</g>
					<g id="&lt;Group&gt;">
						<g id="&lt;Group&gt;">
							<path id="&lt;Compound Path&gt;" fill-rule="evenodd" class="s5" d="m92 724c-1 0.4-1.4-0.1-2-0.7-1.5-1.5-3.6-1.5-5.4 0-0.6 0.6-1.1 1-2 0.4-0.9-0.5-0.9-1-0.8-1.8 0.3-2.2-1.2-4-3.2-4.5-0.6-0.2-1.2-0.7-1.5-1.3-0.4-0.8 0.1-1.4 0.9-1.9 1.7-1.1 2.3-3.3 1.4-5.2-0.2-0.5-0.1-1.3 0.1-1.8 0.4-0.7 1-1.1 2-0.7 2.1 0.8 3.9-0.1 5-2 0.2-0.5 1-0.9 1.5-0.9 0.6 0 1.5 0.5 1.7 1 1.1 2.2 2.4 2.9 4.7 2.5 0.6-0.1 1.3 0.4 1.8 0.8 0.6 0.5 0.7 1.1 0.2 1.9-1.3 1.9-0.9 3.7 1 5 0.8 0.6 0.8 1.2 0.6 2.1-0.2 0.9-0.7 1.1-1.5 1.2-2.1 0.2-3.5 1.7-3.4 3.9 0.1 0.8 0.1 1.6-1.1 2zm-4.3-15.2c-2.9 0-5.4 2.4-5.3 5.3 0 2.9 2.4 5.2 5.3 5.2 2.9-0.1 5.1-2.4 5.1-5.3 0-2.8-2.3-5.2-5.1-5.2z"/>
						</g>
					</g>
					<g id="&lt;Group&gt;">
						<path id="&lt;Compound Path&gt;" fill-rule="evenodd" class="s5" d="m399.3 401.2c-1.7 0-3.3-0.3-4.8-1-0.6-0.3-0.9-1.1-0.6-1.7 0.3-0.6 1.1-0.9 1.7-0.6 3.7 1.7 8.3 0.6 10.6-2.5q0.8-1 1.1-2.3c-1.3-0.2-2.5-0.7-3.7-1.1-1.5-0.6-3-1.3-4.1-2.6-1.2-1.5-1.7-3.8-0.5-5.6 1.6-2.1 4.8-2 6.9-0.6 2 1.3 3.4 3.5 3.9 6.1q0.1 0.6 0.2 1.2c2.1-0.5 3.8-2.6 4.3-5.2q0.3-2-0.2-4.3c-2.6 0-4.8-0.5-6.7-1.1-2.6-0.9-4.2-2.6-4.4-4.6-0.1-1.3 0.5-2.6 1.6-3.6 1.5-1.1 3.5-1.5 5.1-0.9 2.3 0.7 4 2.6 5.5 5.8q0.4 0.9 0.7 1.8 1-0.2 2-0.7c0.2-0.1 2.6-1.2 3.3-3.8q0.5-1.7 0.1-3.7c-4 0.6-9.4-1.1-11.9-3.7-1.5-1.6-1.5-3.2-1.2-4.2 0.5-1.5 1.8-2.4 3.6-2.6 2.8-0.5 7.4 1.1 9.2 3.9q1.2 1.8 1.9 3.5c2.1-0.9 4-2.7 5-4.8 0.7-1.4 1.3-3.7 0-6.4-0.3-0.6 0-1.3 0.6-1.6 0.6-0.3 1.4-0.1 1.7 0.6 1.3 2.8 1.3 5.7-0.1 8.5-1.3 2.7-3.7 5-6.4 6.1q0.6 2.7-0.1 5.1c-1.1 3.7-4.3 5.2-4.7 5.4q-1.1 0.5-2.3 0.7 0.5 2.7 0.1 5c-0.6 3.6-3.1 6.5-6.2 7.3q-0.4 0-0.7 0.1c-0.2 1.4-0.8 2.7-1.6 3.8-2 2.7-5.4 4.3-8.9 4.3zm3.2-16.5c-0.6 0-1.2 0.2-1.5 0.6-0.5 0.7-0.2 1.8 0.4 2.5 0.7 0.9 2 1.4 3.1 1.9 1 0.4 2 0.7 3 0.9q0-0.5-0.1-0.9c-0.4-1.9-1.4-3.5-2.8-4.4-0.6-0.4-1.4-0.6-2.1-0.6zm5.6-11.7c-0.6 0-1.4 0.2-1.9 0.7-0.4 0.3-0.8 0.7-0.7 1.4 0.1 1.2 1.5 2 2.7 2.4 1.4 0.5 3.2 0.9 5.1 1q-0.2-0.4-0.4-0.9c-1.1-2.5-2.4-4-4-4.5q-0.3-0.1-0.8-0.1zm4.7-10.9q-0.4 0-0.7 0-1.3 0.2-1.5 0.9c0 0.2-0.2 0.9 0.7 1.8 1.7 1.9 6.1 3.3 9.2 3q-0.6-1.4-1.6-2.8c-1-1.6-3.9-2.9-6.1-2.9z"/>
					</g>
				</g>
				<g id="&lt;Group&gt;">
					<g id="&lt;Group&gt;">
						<path id="&lt;Path&gt;" class="s1" d="m423.8 83.8c-4.3-1.4-9.5-1.3-14-1.7-5.1-0.4-9.9 0.2-13.8 3.9-2.8 2.5-4.3 5.7-4.9 9.2-0.7 0.5-1.3 1.2-1.7 2.1-3.4 6.3-2.3 17.3 2.4 22.6 6.2 7 19 9.1 27.5 6.3 8.5-2.9 15.1-10.5 16.8-19.2 1.9-9.7-2.5-20-12.3-23.2z"/>
						<path id="&lt;Path&gt;" class="s9" d="m473.8 87.7c-7.2-8.2-48.4-34.6-59.1-34.6-16.5 0-49.3 24.2-63.3 36.4-6.9 6-7.9 8.9-2.4 10.4 12 3.3 23.3 3.7 32.5 4.1 15.8 0.6 31.6 0.7 47.4 0 10.8-0.5 29.3-1.5 40.2-4.3 7.7-2 14.2-1.1 4.7-12z"/>
						<g id="&lt;Group&gt;">
							<path id="&lt;Path&gt;" class="s9" d="m412.7 69q-1.7-73.6-1.4-147.2"/>
							<g id="&lt;Group&gt;">
								<path id="&lt;Path&gt;" class="s9" d="m414.3 69.4c4.2-10.9 3.9 6.9 4.2-4.7 0.4-12.6-0.4-56.7-0.4-69.3 0.1-24.8 2.1-50.2-3.5-74.5-0.7-3.2-5.7-3.2-6.5 0-5.9 24.9-3.7 51.1-3.1 76.5 0.3 12.6-1.8 52.7-0.9 65.3 0.8 11.1 2.7-3.3 7.1 7.1 0.7 1.5 2.7 0.8 3.1-0.4z"/>
							</g>
						</g>
						<g id="&lt;Group&gt;">
							<path id="&lt;Path&gt;" class="s11" d="m417.3 57.7q17.5 8.4 32.9 20.1c1.6 1.2 3.1-1.4 1.6-2.6q-15.5-11.7-33-20.1c-1.7-0.8-3.2 1.7-1.5 2.6z"/>
						</g>
						<g id="&lt;Group&gt;">
							<path id="&lt;Path&gt;" class="s12" d=""/>
							<g id="&lt;Group&gt;">
								<path id="&lt;Path&gt;" class="s12" d="m391 108.3c1 0 1-1.5 0-1.5-1 0-1 1.5 0 1.5z"/>
							</g>
						</g>
						<g id="&lt;Group&gt;">
							<path id="&lt;Path&gt;" class="s12" d="m391.3 112.4c3.9 11.4 16.7 15.5 27.7 12 0.9-0.3 0.5-1.8-0.4-1.5-10.1 3.2-22.2-0.2-25.9-10.9-0.3-0.9-1.7-0.5-1.4 0.4z"/>
						</g>
					</g>
					<g id="&lt;Group&gt;">
						<path id="&lt;Path&gt;" class="s11" d="m455.3 81c2 0 2-3 0-3-1.9 0-1.9 3 0 3z"/>
					</g>
				</g>
			</g>
		</g>
	</g>
</svg>