<svg version="1.2" xmlns="http://www.w3.org/2000/svg" viewBox="0 0 752 750" width="752" height="750">
	<title>profilebanner</title>
	<style>
		.s0 { mix-blend-mode: multiply;fill: #c4c5c7 } 
		.s1 { fill: #fefefe } 
		.s2 { fill: #074f7d } 
		.s3 { fill: #d1d2d3 } 
		.s4 { fill: #74231f } 
		.s5 { fill: #f9b18d } 
		.s6 { fill: #ef4e4a } 
		.s7 { fill: #d89179 } 
		.s8 { fill: #ce3c3b } 
		.s9 { fill: #ee4644 } 
		.s10 { fill: #2b1116 } 
		.s11 { fill: #150205 } 
		.s12 { fill: #a6a9ab } 
		.s13 { mix-blend-mode: multiply;fill: #bbbdbf } 
		.s14 { fill: #4b2f1e } 
		.s15 { fill: #986742 } 
		.s16 { fill: #3bbebe } 
		.s17 { fill: #7d5434 } 
		.s18 { fill: #822f20 } 
		.s19 { mix-blend-mode: multiply;fill: #d1d2d3 } 
		.s20 { fill: #de782c } 
		.s21 { fill: #efcaad } 
		.s22 { fill: #b32528 } 
		.s23 { fill: #ee456f } 
		.s24 { fill: #ef5d7e } 
		.s25 { opacity: .1;fill: #6c6e70 } 
		.s26 { fill: #dba17d } 
		.s27 { fill: #c78d6b } 
		.s28 { fill: #403f40 } 
		.s29 { fill: #3b2313 } 
		.s30 { fill: #e6e7e8 } 
		.s31 { fill: #231f20 } 
		.s32 { fill: #808284 } 
	</style>
	<g id="Capa 1">
		<g id="&lt;Group&gt;">
			<g id="&lt;Group&gt;">
				<g id="&lt;Group&gt;">
					<path id="&lt;Path&gt;" class="s0" d="m299.3 421.2c0 15.5-12.5 28-28 28h-194.1c-15.4 0-27.9-12.5-27.9-28v-220.5c0-15.4 12.5-27.9 27.9-27.9h194.1c15.5 0 28 12.5 28 27.9z"/>
					<path id="&lt;Path&gt;" class="s1" d="m296.5 417.7c0 15.5-12.5 28-27.9 28h-194.2c-15.4 0-27.9-12.5-27.9-28v-220.5c0-15.4 12.5-28 27.9-28h194.2c15.4 0 27.9 12.6 27.9 28z"/>
					<path id="&lt;Path&gt;" class="s2" d="m296.5 211.2v-14c0-15.4-12.5-28-27.9-28h-194.2c-15.4 0-27.9 12.6-27.9 28v14z"/>
					<path id="&lt;Path&gt;" class="s1" d="m242.9 199.4c0 1.2-1 2.3-2.3 2.3h-15.2c-1.2 0-2.3-1.1-2.3-2.3v-15.3c0-1.2 1.1-2.2 2.3-2.2h15.2c1.3 0 2.3 1 2.3 2.2z"/>
					<path id="&lt;Path&gt;" class="s1" d="m271.7 199.4c0 1.2-1.1 2.3-2.3 2.3h-15.3c-1.2 0-2.2-1.1-2.2-2.3v-15.3c0-1.2 1-2.2 2.2-2.2h15.3c1.2 0 2.3 1 2.3 2.2z"/>
					<path id="&lt;Path&gt;" class="s1" d="m209.9 191.8c0 5.4-4.4 9.9-9.9 9.9h-128.1c-5.5 0-9.9-4.5-9.9-9.9 0-5.5 4.4-9.9 9.9-9.9h128.1c5.5 0 9.9 4.4 9.9 9.9z"/>
					<g id="&lt;Group&gt;">
						<path id="&lt;Path&gt;" class="s3" d="m185.5 296.7c0 33.2-26.9 60-60 60-33.1 0-60-26.8-60-60 0-33.1 26.9-60 60-60 33.1 0 60 26.9 60 60z"/>
						<g id="&lt;Clip Group&gt;">
							<g id="&lt;Group&gt;">
								<path id="&lt;Path&gt;" class="s4" d="m155.5 331.2c1.9 8.9-60.5 7.9-60.5 0 9.7-16.8 0.3-28.1-0.8-50.2-1.1-22.2 59.7-16.2 61 0 1.2 16.2-8.2 38.4 0.3 50.2z"/>
								<path id="&lt;Path&gt;" class="s5" d="m144.6 372.6h8.9l-0.2-3.1c0 0-1-27.8-2-35.6-1.1-7.8-7.2-7.7-7.2-7.7l-4.5 13c0 0 3.9 24.7 4.4 30 0.1 0.8 0.3 2 0.6 3.4z"/>
								<path id="&lt;Path&gt;" class="s5" d="m102.7 372.6c0.4-1.6 0.6-2.9 0.7-3.7 0.4-5.3 4.4-30 4.4-30l-4.5-13c0 0-6.1-0.1-7.2 7.7-1 7.8-2 35.6-2 35.6l-0.3 3.4z"/>
								<path id="&lt;Path&gt;" class="s6" d="m104.4 361.8l2.4 10.8h33.9l3.6-10.8c0 0 5.6-4.2 5.6-8.1-0.1-3.9-7.3-14.5-7.3-14.5l2.5-13.3-10.7-5.1h-20.8l-10.4 4.8 2.1 13.6c0 0-5.8 10.3-5.9 14.5-0.1 4.3 5 8.1 5 8.1z"/>
								<path id="&lt;Path&gt;" class="s5" d="m134.4 320.8c0 0 3.8 14.8 1.8 18.6-2.3 4.3-20.9 3.9-23.4 0-2.5-3.9 0.8-18.6 0.8-18.6l3.2-0.1v-15.6h14.3v14.9z"/>
								<path id="&lt;Path&gt;" class="s7" d="m128.7 318.5q1.3-0.3 2.4-0.8v-12.6h-14.3v11.4c3.8 1.7 7.5 3.3 11.9 2z"/>
								<path id="&lt;Path&gt;" class="s5" d="m155.3 296.5c-2 0.8-4.3-0.6-4.3-0.6 0 0-10 0.5-10-2.1 0-2.6 0-4.1 0-8.8 0-6.3 10-5.6 10-5.6 0 0 2.3-3.2 5.4-1 4.8 3.4 2.6 16.5-1.1 18.1z"/>
								<path id="&lt;Path&gt;" class="s5" d="m95.7 296.5c2 0.8 4.3-0.6 4.3-0.6 0 0 10 0.5 10-2.1 0-2.6 0-4.1 0-8.8 0-6.3-10-5.6-10-5.6 0 0-2.3-3.2-5.4-1-4.8 3.4-2.7 16.5 1.1 18.1z"/>
								<path id="&lt;Path&gt;" class="s5" d="m151.3 292.9c0 11.6-16.9 24.6-26 24.6-9.9 0-25.9-13.8-25.9-25.3 0-13.7 0-13.7 0-24.4 0-34.5 51.9-36.7 51.9 0 0 23.4 0 8.3 0 25.1z"/>
								<path id="&lt;Path&gt;" class="s4" d="m101 279.7c-0.2-3.3 5.2-5.9 5.8-17.9 4.5 2.5 26.4 15.4 42.9 17.9-0.2 6.9 1.4 9.1 1.9 11.2 0 0 0.1-6 0-9.1 0-3.1 3.9-4.2 3.9-4.2v-10.6c0-5.7-5.8-32.2-30.3-26-23.3-5.4-33.8 19-33.4 25 0.5 6.1 1.2 14.2 1.2 14.2 0 0 5.3-4.9 6.1 1.9 0.3 3.7 0 7.5 2.7 8.1-0.4-3.2-0.6-6.3-0.8-10.5z"/>
								<path id="&lt;Path&gt;" class="s7" d="m124.9 281.5v17.1l3-2.4z"/>
								<path id="&lt;Path&gt;" class="s4" d="m120.3 278.2c0 0-4.5-3.1-7.5-2.2-2.9 1-6.5 4.2-6.5 4.2l-0.5-1.5c0 0 2.8-3.3 6.8-3.7 3.9-0.3 7.7 3.2 7.7 3.2z"/>
								<g id="&lt;Group&gt;">
									<path id="&lt;Path&gt;" class="s8" d="m117.8 304.6c0 0 2.4 2.3 3.8 2.4 1.4 0.1 6.4 0.3 8.1-0.3 0.6-0.2 2.6-2.1 2.6-2.1 0 0-5.8-0.3-6.8-0.3-1.1-0.1-7.7 0.3-7.7 0.3z"/>
									<path id="&lt;Path&gt;" class="s9" d="m114 302.8c0 0 3.5 1.3 4.9 1.1 1.5-0.1 3.9-2.2 4.4-1.9 0.6 0.2 2 0.8 2 0.8 0 0 1.9-0.9 2.4-0.8 0.6 0.1 3.6 2.1 4.6 1.9 1-0.1 3.4-1.1 3.4-1.1 0 0-2.9 2-4.1 2.3-2.2 0.7-4.6 0-6.1-0.1-1.9-0.1-4.6 1.2-6.8 0.1-2.1-1.2-4.7-2.3-4.7-2.3z"/>
								</g>
								<path id="&lt;Path&gt;" class="s4" d="m130.6 277.9c0 0 4.6-3.1 7.6-2.2 2.9 1 6.5 4.2 6.5 4.2l0.4-1.5c0 0-2.7-3.3-6.7-3.7-3.9-0.3-7.8 3.2-7.8 3.2z"/>
								<g id="&lt;Group&gt;">
									<path id="&lt;Path&gt;" class="s10" d="m137 280.7c3.4 0 2.8 2.5 3.9 3.2 0.3-0.2 2.1-0.8 2.1-0.8 0 0-1.7-3-6-3-4.3 0-5.8 2.9-5.8 2.9 0 0 0.6 0 0.9 0.2 1.1-0.7 1.6-2.5 4.9-2.5z"/>
									<path id="&lt;Path&gt;" class="s1" d="m142.2 283.1c0 0-0.7 2.5-4.9 2.5-4.3 0-6-2.6-6-2.6 0 0 1.7-2.4 6-2.4 4.2 0 4.9 2.5 4.9 2.5z"/>
									<g id="&lt;Group&gt;">
										<path id="&lt;Path&gt;" class="s10" d="m134.4 283c0 1 0.4 1.9 1.2 2.5q0.8 0.1 1.7 0.1 0.8 0 1.7-0.1c0.7-0.6 1.2-1.5 1.2-2.5 0-1-0.5-1.9-1.2-2.4q-0.9-0.1-1.7-0.1-0.9 0-1.7 0.1c-0.8 0.5-1.2 1.4-1.2 2.4z"/>
									</g>
									<path id="&lt;Path&gt;" class="s11" d="m138.5 283.1c0 0.6-0.6 1.2-1.2 1.2-0.7 0-1.2-0.6-1.2-1.2 0-0.7 0.5-1.2 1.2-1.2 0.6 0 1.2 0.5 1.2 1.2z"/>
									<path id="&lt;Path&gt;" class="s1" d="m137 282c0 0.2-0.3 0.5-0.6 0.5-0.3 0-0.5-0.3-0.5-0.5 0-0.4 0.2-0.6 0.5-0.6 0.3 0 0.6 0.2 0.6 0.6z"/>
									<path id="&lt;Path&gt;" class="s1" d="m137.3 283.1c0 0.2-0.1 0.3-0.3 0.3-0.1 0-0.3-0.1-0.3-0.3 0-0.1 0.2-0.3 0.3-0.3 0.2 0 0.3 0.2 0.3 0.3z"/>
								</g>
								<g id="&lt;Group&gt;">
									<path id="&lt;Path&gt;" class="s10" d="m114 280.7c-3.4 0-2.9 2.5-3.9 3.2-0.3-0.2-2.2-0.8-2.2-0.8 0 0 1.8-3 6.1-3 4.2 0 5.8 2.9 5.8 2.9 0 0-0.6 0-0.9 0.2-1.1-0.7-1.6-2.5-4.9-2.5z"/>
									<path id="&lt;Path&gt;" class="s1" d="m108.8 283.1c0 0 0.6 2.5 4.9 2.5 4.3 0 6-2.6 6-2.6 0 0-1.7-2.4-6-2.4-4.3 0-4.9 2.5-4.9 2.5z"/>
									<g id="&lt;Group&gt;">
										<path id="&lt;Path&gt;" class="s10" d="m116.6 283c0 1-0.5 1.9-1.2 2.5q-0.8 0.1-1.7 0.1-0.9 0-1.7-0.1c-0.7-0.6-1.2-1.5-1.2-2.5 0-1 0.5-1.9 1.2-2.4q0.8-0.1 1.7-0.1 0.9 0 1.7 0.1c0.7 0.5 1.2 1.4 1.2 2.4z"/>
									</g>
									<path id="&lt;Path&gt;" class="s11" d="m112.5 283.1c0 0.6 0.5 1.2 1.2 1.2 0.7 0 1.2-0.6 1.2-1.2 0-0.7-0.5-1.2-1.2-1.2-0.7 0-1.2 0.5-1.2 1.2z"/>
									<path id="&lt;Path&gt;" class="s1" d="m114 282c0 0.2 0.3 0.5 0.6 0.5 0.3 0 0.5-0.3 0.5-0.5 0-0.4-0.2-0.6-0.5-0.6-0.3 0-0.6 0.2-0.6 0.6z"/>
									<path id="&lt;Path&gt;" class="s1" d="m113.7 283.1c0 0.2 0.1 0.3 0.3 0.3 0.1 0 0.2-0.1 0.2-0.3 0-0.1-0.1-0.3-0.2-0.3-0.2 0-0.3 0.2-0.3 0.3z"/>
								</g>
							</g>
						</g>
					</g>
					<path id="&lt;Path&gt;" class="s12" d="m275.9 256.4h-80.5v-15.2h80.5z"/>
					<path id="&lt;Path&gt;" class="s3" d="m275.9 274.9h-80.5v-7.6h80.5z"/>
					<path id="&lt;Path&gt;" class="s3" d="m275.9 290.5h-80.5v-7.6h80.5z"/>
					<path id="&lt;Path&gt;" class="s3" d="m275.9 306.1h-80.5v-7.6h80.5z"/>
					<path id="&lt;Path&gt;" class="s3" d="m275.9 321.7h-80.5v-7.6h80.5z"/>
					<path id="&lt;Path&gt;" class="s3" d="m275.9 337.3h-80.5v-7.6h80.5z"/>
					<path id="&lt;Path&gt;" class="s3" d="m275.9 352.9h-80.5v-7.6h80.5z"/>
					<path id="&lt;Path&gt;" class="s3" d="m275.9 384.8h-199.5v-7.6h199.5z"/>
					<path id="&lt;Path&gt;" class="s3" d="m275.9 403.7h-199.5v-7.6h199.5z"/>
				</g>
			</g>
			<g id="&lt;Group&gt;">
				<path id="&lt;Path&gt;" class="s13" d="m710.5 280.2c-4.1-6.2-11.2-10.3-19.2-10.3h-160.6c-12.7 0-23.1 10.4-23.1 23.2v11.5 170.8c0 6.1 2.4 11.6 6.2 15.8 4.2 6.2 11.2 10.3 19.2 10.3h160.6c12.8 0 23.1-10.4 23.1-23.1v-182.5c0-6-2.3-11.5-6.2-15.7z"/>
				<g id="&lt;Group&gt;">
					<path id="&lt;Path&gt;" class="s0" d="m726.1 473c0 12.8-10.4 23.1-23.2 23.1h-160.5c-12.8 0-23.1-10.3-23.1-23.1v-182.4c0-12.8 10.3-23.1 23.1-23.1h160.5c12.8 0 23.2 10.3 23.2 23.1z"/>
					<path id="&lt;Path&gt;" class="s1" d="m723.7 470.1c0 12.8-10.3 23.1-23.1 23.1h-160.5c-12.8 0-23.2-10.3-23.2-23.1v-182.4c0-12.8 10.4-23.1 23.2-23.1h160.5c12.8 0 23.1 10.3 23.1 23.1z"/>
					<path id="&lt;Path&gt;" class="s2" d="m723.7 299.3v-11.6c0-12.8-10.3-23.1-23.1-23.1h-160.5c-12.8 0-23.2 10.3-23.2 23.1v11.6z"/>
					<path id="&lt;Path&gt;" class="s1" d="m679.4 289.5c0 1.1-0.8 1.9-1.9 1.9h-12.6c-1 0-1.8-0.8-1.8-1.9v-12.6c0-1 0.8-1.9 1.8-1.9h12.6c1.1 0 1.9 0.9 1.9 1.9z"/>
					<path id="&lt;Path&gt;" class="s1" d="m703.2 289.5c0 1.1-0.9 1.9-1.9 1.9h-12.6c-1 0-1.9-0.8-1.9-1.9v-12.6c0-1 0.9-1.9 1.9-1.9h12.6c1 0 1.9 0.9 1.9 1.9z"/>
					<path id="&lt;Path&gt;" class="s1" d="m652.1 283.2c0 4.5-3.6 8.2-8.1 8.2h-106c-4.5 0-8.2-3.7-8.2-8.2 0-4.5 3.7-8.2 8.2-8.2h106c4.5 0 8.1 3.7 8.1 8.2z"/>
					<g id="&lt;Group&gt;">
						<path id="&lt;Path&gt;" class="s3" d="m631.9 370c0 27.4-22.2 49.7-49.6 49.7-27.4 0-49.6-22.3-49.6-49.7 0-27.4 22.2-49.6 49.6-49.6 27.4 0 49.6 22.2 49.6 49.6z"/>
						<g id="&lt;Clip Group&gt;">
							<g id="&lt;Group&gt;">
								<path id="&lt;Path&gt;" class="s14" d="m591.9 415.8c1.7 8-24.8 2.3-24.8-4.9 8.9-15.2-12.6-16.4-13.2-49.5-0.4-20.1 55.1-14.7 55.3 0 0.3 29.3-25 43.7-17.3 54.4z"/>
								<path id="&lt;Path&gt;" class="s15" d="m599.6 444.6h8.2l-0.3-2.9c0 0-0.8-25.2-1.8-32.3-1-7.1-6.6-7-6.6-7l-4 11.9c0 0 3.6 22.4 4 27.2 0.1 0.6 0.3 1.7 0.5 3.1z"/>
								<path id="&lt;Path&gt;" class="s15" d="m561.7 444.6c0.2-1.5 0.5-2.7 0.5-3.4 0.5-4.8 4.1-27.2 4.1-27.2l-4.1-11.9c0 0-5.6-0.1-6.5 7-1 7.1-1.9 32.3-1.9 32.3l-0.2 3.2z"/>
								<path id="&lt;Path&gt;" class="s16" d="m563.1 434.7l2.2 9.9h30.8l3.2-9.9c0 0 5.2-3.8 5.1-7.3 0-3.5-6.5-13.1-6.5-13.1l2.2-12.2-9.7-4.6h-18.9l-9.5 4.4 2 12.4c0 0-5.3 9.3-5.4 13.1 0 3.8 4.5 7.3 4.5 7.3z"/>
								<path id="&lt;Path&gt;" class="s15" d="m590.4 397.5c0 0 3.4 13.5 1.6 16.9-2.1 3.9-19 3.5-21.2 0-2.3-3.5 0.7-16.9 0.7-16.9l2.9-0.1v-14.1h13v13.5z"/>
								<path id="&lt;Path&gt;" class="s17" d="m585.2 395.5q1.2-0.4 2.2-0.8v-11.4h-13v10.3c3.5 1.6 6.8 3 10.8 1.9z"/>
								<path id="&lt;Path&gt;" class="s15" d="m609.3 375.5c-1.8 0.7-3.8-0.6-3.8-0.6 0 0-9.2 0.5-9.2-1.9 0-2.4 0-3.7 0-8 0-5.6 9.2-5.1 9.2-5.1 0 0 2-2.9 4.8-0.9 4.4 3.1 2.4 15-1 16.5z"/>
								<path id="&lt;Path&gt;" class="s15" d="m555.3 375.5c1.8 0.7 3.8-0.6 3.8-0.6 0 0 9.2 0.5 9.2-1.9 0-2.4 0-3.7 0-8 0-5.6-9.2-5.1-9.2-5.1 0 0-2-2.9-4.8-0.9-4.4 3.1-2.4 15 1 16.5z"/>
								<path id="&lt;Path&gt;" class="s15" d="m605.7 372.2c0 10.6-15.3 22.3-23.5 22.3-9.1 0-23.6-12.5-23.6-23 0-12.3 0-12.3 0-22.1 0-31.2 47.1-33.3 47.1 0 0 21.2 0 7.6 0 22.8z"/>
								<path id="&lt;Path&gt;" class="s14" d="m560.1 360.3c-0.2-3 16.6-7.1 21.1-20.1 4.5 11.2 8.1 17.7 23 20-0.1 6.3 1.4 8.3 1.8 10.2 0 0 0-5.5 0-8.3 0-2.8 3.5-3.8 3.5-3.8v-9.6c0-5.2-5.3-29.2-27.5-23.6-21.1-4.9-30.2 15.5-30.2 22.7 0 5.5 1 12.9 1 12.9 0 0 4.8-4.5 5.5 1.7 0.4 3.3 0.1 6.8 2.5 7.4-0.3-3-0.5-5.7-0.7-9.5z"/>
								<path id="&lt;Path&gt;" class="s17" d="m581.7 361.9v15.5l2.7-2.2z"/>
								<path id="&lt;Path&gt;" class="s14" d="m577.6 358.8c0 0-4.1-2.8-6.8-1.9-2.6 0.9-6 3.8-6 3.8l-0.3-1.4c0 0 2.5-3 6.1-3.3 3.6-0.3 7 2.8 7 2.8z"/>
								<g id="&lt;Group&gt;">
									<path id="&lt;Path&gt;" class="s18" d="m575.3 382.8c0 0 2.2 2.1 3.5 2.2 1.2 0.1 5.8 0.3 7.3-0.2 0.6-0.2 2.4-2 2.4-2 0 0-5.3-0.2-6.2-0.3-1 0-7 0.3-7 0.3z"/>
									<path id="&lt;Path&gt;" class="s18" d="m571.8 381.2c0 0 3.3 1.1 4.6 1 1.2-0.1 3.4-2 3.9-1.7 0.5 0.2 1.8 0.7 1.8 0.7 0 0 1.7-0.8 2.2-0.7 0.6 0 3.2 1.8 4.2 1.7 0.9-0.1 3.1-1 3.1-1 0 0-2.7 1.8-3.8 2.1-2 0.6-4.1 0-5.5-0.1-1.7-0.1-4.2 1.1-6.1 0-2-1-4.4-2-4.4-2z"/>
								</g>
								<path id="&lt;Path&gt;" class="s14" d="m587 358.6c0 0 4.1-2.8 6.8-2 2.6 0.9 6 3.8 6 3.8l0.3-1.4c0 0-2.5-3-6.1-3.3-3.6-0.3-7 2.9-7 2.9z"/>
								<g id="&lt;Group&gt;">
									<path id="&lt;Path&gt;" class="s10" d="m592.8 361.2c3 0 2.5 2.2 3.5 2.8 0.3-0.1 1.9-0.7 1.9-0.7 0 0-1.6-2.7-5.4-2.7-3.9 0-5.4 2.6-5.4 2.6 0 0 0.6 0 0.9 0.2 1-0.6 1.4-2.2 4.5-2.2z"/>
									<path id="&lt;Path&gt;" class="s1" d="m597.5 363.3c0 0-0.6 2.3-4.5 2.3-3.9 0-5.5-2.4-5.5-2.4 0 0 1.6-2.2 5.5-2.2 3.9 0 4.5 2.3 4.5 2.3z"/>
									<g id="&lt;Group&gt;">
										<path id="&lt;Path&gt;" class="s10" d="m590.3 363.2c0 1 0.5 1.8 1.2 2.3q0.7 0.1 1.5 0.1 0.8 0 1.5-0.1c0.7-0.5 1.1-1.3 1.1-2.3 0-0.9-0.4-1.7-1.1-2.2q-0.7-0.1-1.5-0.1-0.8 0-1.5 0.1c-0.7 0.5-1.2 1.3-1.2 2.2z"/>
									</g>
									<path id="&lt;Path&gt;" class="s11" d="m594.1 363.3c0 0.6-0.5 1.1-1.1 1.1-0.6 0-1.1-0.5-1.1-1.1 0-0.6 0.5-1.1 1.1-1.1 0.6 0 1.1 0.5 1.1 1.1z"/>
									<path id="&lt;Path&gt;" class="s1" d="m592.7 362.3c0 0.2-0.2 0.4-0.5 0.4-0.3 0-0.5-0.2-0.5-0.4 0-0.3 0.2-0.5 0.5-0.5 0.3 0 0.5 0.2 0.5 0.5z"/>
									<path id="&lt;Path&gt;" class="s1" d="m593 363.3c0 0.2-0.1 0.3-0.2 0.3-0.2 0-0.3-0.1-0.3-0.3 0-0.1 0.1-0.2 0.3-0.2 0.1 0 0.2 0.1 0.2 0.2z"/>
								</g>
								<g id="&lt;Group&gt;">
									<path id="&lt;Path&gt;" class="s10" d="m571.8 361.2c-3 0-2.5 2.2-3.5 2.8-0.3-0.1-1.9-0.7-1.9-0.7 0 0 1.6-2.7 5.4-2.7 3.9 0 5.4 2.6 5.4 2.6 0 0-0.6 0-0.9 0.2-1-0.6-1.4-2.2-4.5-2.2z"/>
									<path id="&lt;Path&gt;" class="s1" d="m567.1 363.3c0 0 0.6 2.3 4.5 2.3 3.9 0 5.5-2.4 5.5-2.4 0 0-1.6-2.2-5.5-2.2-3.9 0-4.5 2.3-4.5 2.3z"/>
									<g id="&lt;Group&gt;">
										<path id="&lt;Path&gt;" class="s10" d="m574.3 363.2c0 1-0.5 1.8-1.2 2.3q-0.7 0.1-1.5 0.1-0.8 0-1.5-0.1c-0.7-0.5-1.1-1.3-1.1-2.3 0-0.9 0.4-1.7 1.1-2.2q0.7-0.1 1.5-0.1 0.8 0 1.5 0.1c0.7 0.5 1.2 1.3 1.2 2.2z"/>
									</g>
									<path id="&lt;Path&gt;" class="s11" d="m570.5 363.3c0 0.6 0.5 1.1 1.1 1.1 0.6 0 1.1-0.5 1.1-1.1 0-0.6-0.5-1.1-1.1-1.1-0.6 0-1.1 0.5-1.1 1.1z"/>
									<path id="&lt;Path&gt;" class="s1" d="m571.9 362.3c0 0.2 0.2 0.4 0.5 0.4 0.2 0 0.5-0.2 0.5-0.4 0-0.3-0.3-0.5-0.5-0.5-0.3 0-0.5 0.2-0.5 0.5z"/>
									<path id="&lt;Path&gt;" class="s1" d="m571.6 363.3c0 0.2 0.1 0.3 0.2 0.3 0.2 0 0.3-0.1 0.3-0.3 0-0.1-0.1-0.2-0.3-0.2-0.1 0-0.2 0.1-0.2 0.2z"/>
								</g>
							</g>
						</g>
					</g>
					<path id="&lt;Path&gt;" class="s12" d="m706.7 336.7h-66.6v-12.6h66.6z"/>
					<path id="&lt;Path&gt;" class="s3" d="m706.7 352h-66.6v-6.3h66.6z"/>
					<path id="&lt;Path&gt;" class="s3" d="m706.7 364.9h-19.2-47.4v-6.3h66.6z"/>
					<path id="&lt;Path&gt;" class="s3" d="m706.7 377.8h-66.6v-6.3h66.6z"/>
					<path id="&lt;Path&gt;" class="s3" d="m706.7 390.7h-66.6v-6.3h66.6z"/>
					<path id="&lt;Path&gt;" class="s3" d="m706.7 403.6h-66.6v-6.3h66.6z"/>
					<path id="&lt;Path&gt;" class="s3" d="m706.7 416.5h-66.6v-6.3h66.6z"/>
					<path id="&lt;Path&gt;" class="s3" d="m706.7 442.9h-165v-6.3h165z"/>
					<path id="&lt;Path&gt;" class="s3" d="m706.7 458.5h-165v-6.3h165z"/>
				</g>
			</g>
			<g id="&lt;Group&gt;">
				<path id="&lt;Path&gt;" class="s19" d="m575.6 62.3c-3.4-5.1-9.3-8.5-15.9-8.5h-132.7c-10.6 0-19.1 8.6-19.1 19.1v9.6 141.2c0 5 1.9 9.5 5.1 13 3.4 5.1 9.3 8.5 15.9 8.5h132.7c10.5 0 19.1-8.6 19.1-19.1v-150.8c0-5-1.9-9.6-5.1-13z"/>
				<g id="&lt;Group&gt;">
					<path id="&lt;Path&gt;" class="s0" d="m588.2 218.6c0 10.5-8.5 19.1-19.1 19.1h-132.7c-10.6 0-19.1-8.6-19.1-19.1v-150.8c0-10.5 8.5-19.1 19.1-19.1h132.7c10.6 0 19.1 8.6 19.1 19.1z"/>
					<path id="&lt;Path&gt;" class="s1" d="m586.3 216.2c0 10.5-8.6 19.1-19.1 19.1h-132.7c-10.6 0-19.1-8.6-19.1-19.1v-150.8c0-10.5 8.5-19.1 19.1-19.1h132.7c10.5 0 19.1 8.6 19.1 19.1z"/>
					<path id="&lt;Path&gt;" class="s2" d="m586.3 75v-9.6c0-10.5-8.6-19.1-19.1-19.1h-132.7c-10.6 0-19.1 8.6-19.1 19.1v9.6z"/>
					<path id="&lt;Path&gt;" class="s1" d="m549.7 66.9c0 0.9-0.7 1.6-1.6 1.6h-10.4c-0.9 0-1.6-0.7-1.6-1.6v-10.4c0-0.9 0.7-1.6 1.6-1.6h10.4c0.9 0 1.6 0.7 1.6 1.6z"/>
					<path id="&lt;Path&gt;" class="s1" d="m569.3 66.9c0 0.9-0.7 1.6-1.5 1.6h-10.5c-0.8 0-1.5-0.7-1.5-1.6v-10.4c0-0.9 0.7-1.6 1.5-1.6h10.5c0.8 0 1.5 0.7 1.5 1.6z"/>
					<path id="&lt;Path&gt;" class="s1" d="m527.1 61.7c0 3.7-3 6.8-6.8 6.8h-87.5c-3.8 0-6.8-3.1-6.8-6.8 0-3.7 3-6.8 6.8-6.8h87.5c3.8 0 6.8 3.1 6.8 6.8z"/>
					<g id="&lt;Group&gt;">
						<path id="&lt;Path&gt;" class="s3" d="m510.4 133.4c0 22.7-18.4 41.1-41 41.1-22.6 0-41-18.4-41-41.1 0-22.6 18.4-41 41-41 22.6 0 41 18.4 41 41z"/>
						<g id="&lt;Clip Group&gt;">
							<g id="&lt;Group&gt;">
								<path id="&lt;Path&gt;" class="s20" d="m483 149.1c-6.7 6.1-21.7 5.1-26.2 1.6-4.5-3.4-12.9-8.4-9.7-25 3.2-16.4 42.5-12.2 43.4 0 0.9 12.2-1.1 17.6-7.5 23.4z"/>
								<path id="&lt;Path&gt;" class="s21" d="m483 190.4h6.4l-0.2-2.3c0 0-0.7-19.8-1.5-25.3-0.7-5.6-5.1-5.5-5.1-5.5l-3.2 9.3c0 0 2.9 17.6 3.2 21.3 0.1 0.6 0.2 1.4 0.4 2.5z"/>
								<path id="&lt;Path&gt;" class="s21" d="m453.2 190.4c0.2-1.2 0.4-2.1 0.5-2.7 0.3-3.7 3.1-21.3 3.1-21.3l-3.2-9.3c0 0-4.3-0.1-5.1 5.5-0.8 5.5-1.5 25.3-1.5 25.3l-0.1 2.5z"/>
								<path id="&lt;Path&gt;" class="s22" d="m454.4 182.7l1.7 7.7h24.1l2.6-7.7c0 0 4-3 4-5.8-0.1-2.8-5.2-10.3-5.2-10.3l1.8-9.5-7.6-3.6h-14.8l-7.5 3.4 1.6 9.7c0 0-4.2 7.3-4.3 10.3 0 3 3.6 5.8 3.6 5.8z"/>
								<path id="&lt;Path&gt;" class="s21" d="m475.8 153.5c0 0 2.7 10.5 1.2 13.2-1.6 3-14.9 2.8-16.7 0-1.7-2.8 0.7-13.2 0.7-13.2l2.2-1.1v-10.1h10.2v9.7z"/>
								<path id="&lt;Path&gt;" class="s7" d="m471.7 151.9q0.9-0.3 1.7-0.6v-9h-10.2v8.1c2.7 1.2 5.4 2.3 8.5 1.5z"/>
								<path id="&lt;Path&gt;" class="s21" d="m490.6 136.2c-1.4 0.5-3-0.5-3-0.5 0 0-7.2 0.4-7.2-1.5 0-1.8 0-2.9 0-6.2 0-4.5 7.2-4 7.2-4 0 0 1.6-2.3 3.8-0.7 3.4 2.4 1.9 11.7-0.8 12.9z"/>
								<path id="&lt;Path&gt;" class="s21" d="m448.2 136.2c1.4 0.5 3-0.5 3-0.5 0 0 7.2 0.4 7.2-1.5 0-1.8 0-2.9 0-6.2 0-4.5-7.2-4-7.2-4 0 0-1.6-2.3-3.8-0.7-3.4 2.4-1.9 11.7 0.8 12.9z"/>
								<path id="&lt;Path&gt;" class="s21" d="m487.8 133.6c-0.1 8.3-12.1 17.5-18.5 17.5-7.1 0-18.5-9.8-18.5-18 0-9.7 0-9.7 0-17.4 0-24.5 36.9-26.1 36.9 0 0 16.7 0 6 0 17.9z"/>
								<path id="&lt;Path&gt;" class="s20" d="m452 124.2c-0.2-2.3 3.7-4.2 4.1-12.7 3.2 1.8 18.8 10.9 30.5 12.7-0.1 4.9 1.1 6.5 1.4 8 0 0 0-4.3 0-6.5 0-2.2 2.8-3 2.8-3v-7.5c0-4.1-4.2-23-21.6-18.5-16.6-3.9-24.1 13.5-23.7 17.8 0.3 4.3 0.8 10.1 0.8 10.1 0 0 3.8-3.5 4.3 1.3 0.3 2.6 0 5.4 1.9 5.8-0.2-2.3-0.4-4.5-0.5-7.5z"/>
								<path id="&lt;Path&gt;" class="s7" d="m468.9 125.5v12.2l2.2-1.7z"/>
								<path id="&lt;Path&gt;" class="s20" d="m465.7 123.1c0 0-3.2-2.2-5.3-1.5-2.1 0.7-4.7 3-4.7 3l-0.3-1.1c0 0 2-2.4 4.8-2.6 2.8-0.2 5.5 2.2 5.5 2.2z"/>
								<g id="&lt;Group&gt;">
									<path id="&lt;Path&gt;" class="s23" d="m463.9 141.9c0 0 1.8 1.7 2.7 1.8 1 0 4.6 0.2 5.8-0.2 0.4-0.2 1.9-1.5 1.9-1.5 0 0-4.2-0.2-4.9-0.3-0.8 0-5.5 0.2-5.5 0.2z"/>
									<path id="&lt;Path&gt;" class="s24" d="m461.2 140.6c0 0 2.5 1 3.5 0.9 1.1-0.2 2.8-1.6 3.2-1.4 0.4 0.2 1.4 0.6 1.4 0.6 0 0 1.3-0.7 1.7-0.6 0.4 0.1 2.5 1.5 3.3 1.4 0.7-0.1 2.4-0.9 2.4-0.9 0 0-2.1 1.5-3 1.7-1.5 0.5-3.2 0-4.3-0.1-1.4-0.1-3.3 0.9-4.8 0.1-1.5-0.8-3.4-1.7-3.4-1.7z"/>
								</g>
								<path id="&lt;Path&gt;" class="s20" d="m473.1 122.9c0 0 3.2-2.2 5.3-1.5 2.1 0.7 4.7 3 4.7 3l0.3-1.1c0 0-2-2.4-4.8-2.6-2.8-0.2-5.5 2.2-5.5 2.2z"/>
								<g id="&lt;Group&gt;">
									<path id="&lt;Path&gt;" class="s10" d="m477.6 124.9c2.4 0 2 1.8 2.8 2.3 0.2-0.1 1.5-0.6 1.5-0.6 0 0-1.3-2.1-4.3-2.1-3 0-4.2 2.1-4.2 2.1 0 0 0.5 0 0.7 0.1 0.8-0.5 1.1-1.8 3.5-1.8z"/>
									<path id="&lt;Path&gt;" class="s1" d="m481.3 126.6c0 0-0.5 1.8-3.5 1.8-3 0-4.3-1.8-4.3-1.8 0 0 1.3-1.8 4.3-1.8 3 0 3.5 1.8 3.5 1.8z"/>
									<g id="&lt;Group&gt;">
										<path id="&lt;Path&gt;" class="s10" d="m475.7 126.6c0 0.7 0.4 1.3 0.9 1.7q0.6 0.1 1.2 0.1 0.6 0 1.2-0.1c0.5-0.4 0.9-1 0.9-1.7 0-0.7-0.4-1.4-0.9-1.8q-0.6 0-1.2 0-0.6 0-1.2 0c-0.5 0.4-0.9 1.1-0.9 1.8z"/>
									</g>
									<path id="&lt;Path&gt;" class="s11" d="m478.6 126.6c0 0.5-0.3 0.9-0.8 0.9-0.5 0-0.9-0.4-0.9-0.9 0-0.4 0.4-0.8 0.9-0.8 0.5 0 0.8 0.4 0.8 0.8z"/>
									<path id="&lt;Path&gt;" class="s1" d="m477.6 125.8c0 0.2-0.2 0.4-0.4 0.4-0.2 0-0.4-0.2-0.4-0.4 0-0.2 0.2-0.4 0.4-0.4 0.2 0 0.4 0.2 0.4 0.4z"/>
									<path id="&lt;Path&gt;" class="s1" d="m477.8 126.6c0 0.2-0.1 0.2-0.2 0.2-0.1 0-0.2 0-0.2-0.2 0-0.1 0.1-0.2 0.2-0.2 0.1 0 0.2 0.1 0.2 0.2z"/>
								</g>
								<g id="&lt;Group&gt;">
									<path id="&lt;Path&gt;" class="s10" d="m461.2 124.9c-2.4 0-2 1.8-2.8 2.3-0.2-0.1-1.5-0.6-1.5-0.6 0 0 1.3-2.1 4.3-2.1 3 0 4.2 2.1 4.2 2.1 0 0-0.5 0-0.7 0.1-0.8-0.5-1.1-1.8-3.5-1.8z"/>
									<path id="&lt;Path&gt;" class="s1" d="m457.5 126.6c0 0 0.5 1.8 3.5 1.8 3 0 4.3-1.8 4.3-1.8 0 0-1.3-1.8-4.3-1.8-3 0-3.5 1.8-3.5 1.8z"/>
									<g id="&lt;Group&gt;">
										<path id="&lt;Path&gt;" class="s10" d="m463.1 126.6c0 0.7-0.4 1.3-0.9 1.7q-0.6 0.1-1.2 0.1-0.6 0-1.2-0.1c-0.5-0.4-0.9-1-0.9-1.7 0-0.7 0.4-1.4 0.9-1.8q0.6 0 1.2 0 0.6 0 1.2 0c0.5 0.4 0.9 1.1 0.9 1.8z"/>
									</g>
									<path id="&lt;Path&gt;" class="s11" d="m460.2 126.6c0 0.5 0.3 0.9 0.8 0.9 0.5 0 0.9-0.4 0.9-0.9 0-0.4-0.4-0.8-0.9-0.8-0.5 0-0.8 0.4-0.8 0.8z"/>
									<path id="&lt;Path&gt;" class="s1" d="m461.2 125.8c0 0.2 0.2 0.4 0.4 0.4 0.2 0 0.4-0.2 0.4-0.4 0-0.2-0.2-0.4-0.4-0.4-0.2 0-0.4 0.2-0.4 0.4z"/>
									<path id="&lt;Path&gt;" class="s1" d="m461 126.6c0 0.2 0.1 0.2 0.2 0.2 0.1 0 0.2 0 0.2-0.2 0-0.1-0.1-0.2-0.2-0.2-0.1 0-0.2 0.1-0.2 0.2z"/>
								</g>
							</g>
						</g>
					</g>
					<path id="&lt;Path&gt;" class="s12" d="m572.2 105.9h-55v-10.4h55z"/>
					<path id="&lt;Path&gt;" class="s3" d="m572.2 118.5h-55v-5.2h55z"/>
					<path id="&lt;Path&gt;" class="s3" d="m572.2 129.2h-55v-5.2h55z"/>
					<path id="&lt;Path&gt;" class="s3" d="m572.2 139.9h-55v-5.2h55z"/>
					<path id="&lt;Path&gt;" class="s3" d="m572.2 150.5h-55v-5.2h55z"/>
					<path id="&lt;Path&gt;" class="s3" d="m572.2 161.2h-55v-5.2h55z"/>
					<path id="&lt;Path&gt;" class="s3" d="m572.2 171.9h-55v-5.3h55z"/>
					<path id="&lt;Path&gt;" class="s3" d="m572.2 193.7h-136.4v-5.2h136.4z"/>
					<path id="&lt;Path&gt;" class="s3" d="m572.2 206.6h-136.4v-5.2h136.4z"/>
				</g>
			</g>
		</g>
		<g id="&lt;Group&gt;">
			<g id="&lt;Group&gt;">
				<path id="&lt;Path&gt;" class="s25" d="m541.7 695.9c0 9.7-75.4 17.6-168.5 17.6-93.1 0-168.5-7.9-168.5-17.6 0-9.7 75.4-17.6 168.5-17.6 93.1 0 168.5 7.9 168.5 17.6z"/>
				<path id="&lt;Path&gt;" class="s25" d="m528.4 695.9c0 9-69.5 16.2-155.2 16.2-85.7 0-155.2-7.2-155.2-16.2 0-9 69.5-16.2 155.2-16.2 85.7 0 155.2 7.2 155.2 16.2z"/>
				<path id="&lt;Path&gt;" class="s25" d="m606.1 695.9c0 13.5-104.3 24.4-232.9 24.4-128.6 0-232.9-10.9-232.9-24.4 0-13.5 104.3-24.4 232.9-24.4 128.6 0 232.9 10.9 232.9 24.4z"/>
				<path id="&lt;Path&gt;" class="s25" d="m587.6 695.9c0 12.4-96 22.4-214.4 22.4-118.4 0-214.4-10-214.4-22.4 0-12.4 96-22.4 214.4-22.4 118.4 0 214.4 10 214.4 22.4z"/>
				<path id="&lt;Path&gt;" class="s25" d="m572 695.9c0 11.5-89 20.8-198.8 20.8-109.8 0-198.9-9.3-198.9-20.8 0-11.5 89.1-20.8 198.9-20.8 109.8 0 198.8 9.3 198.8 20.8z"/>
				<path id="&lt;Path&gt;" class="s25" d="m555 695.9c0 10.5-81.4 19-181.8 19-100.4 0-181.8-8.5-181.8-19 0-10.5 81.4-19 181.8-19 100.4 0 181.8 8.5 181.8 19z"/>
				<path id="&lt;Path&gt;" class="s25" d="m448.5 695.9c0 4.4-33.7 7.9-75.3 7.9-41.6 0-75.3-3.5-75.3-7.9 0-4.3 33.7-7.9 75.3-7.9 41.6 0 75.3 3.6 75.3 7.9z"/>
				<path id="&lt;Path&gt;" class="s25" d="m442.5 695.9c0 4-31 7.3-69.3 7.3-38.3 0-69.3-3.3-69.3-7.3 0-4 31-7.3 69.3-7.3 38.3 0 69.3 3.3 69.3 7.3z"/>
				<path id="&lt;Path&gt;" class="s25" d="m437.5 695.9c0 3.7-28.8 6.7-64.3 6.7-35.5 0-64.3-3-64.3-6.7 0-3.7 28.8-6.7 64.3-6.7 35.5 0 64.3 3 64.3 6.7z"/>
				<path id="&lt;Path&gt;" class="s25" d="m432 695.9c0 3.4-26.3 6.2-58.8 6.2-32.5 0-58.8-2.8-58.8-6.2 0-3.4 26.3-6.1 58.8-6.1 32.5 0 58.8 2.7 58.8 6.1z"/>
				<path id="&lt;Path&gt;" class="s25" d="m476.4 695.9c0 6-46.2 10.8-103.2 10.8-57 0-103.2-4.8-103.2-10.8 0-6 46.2-10.8 103.2-10.8 57 0 103.2 4.8 103.2 10.8z"/>
				<path id="&lt;Path&gt;" class="s25" d="m468.3 695.9c0 5.5-42.6 9.9-95.1 9.9-52.5 0-95.1-4.4-95.1-9.9 0-5.5 42.6-9.9 95.1-9.9 52.5 0 95.1 4.4 95.1 9.9z"/>
				<path id="&lt;Path&gt;" class="s25" d="m461.3 695.9c0 5.1-39.4 9.2-88.1 9.2-48.7 0-88.1-4.1-88.1-9.2 0-5.1 39.4-9.2 88.1-9.2 48.7 0 88.1 4.1 88.1 9.2z"/>
				<path id="&lt;Path&gt;" class="s25" d="m453.8 695.9c0 4.7-36.1 8.4-80.6 8.4-44.5 0-80.6-3.7-80.6-8.4 0-4.7 36.1-8.4 80.6-8.4 44.5 0 80.6 3.7 80.6 8.4z"/>
				<path id="&lt;Path&gt;" class="s25" d="m515.8 695.9c0 8.2-63.8 14.9-142.6 14.9-78.8 0-142.6-6.7-142.6-14.9 0-8.2 63.8-14.9 142.6-14.9 78.8 0 142.6 6.7 142.6 14.9z"/>
				<path id="&lt;Path&gt;" class="s25" d="m504.5 695.9c0 7.6-58.8 13.7-131.3 13.7-72.5 0-131.4-6.1-131.4-13.7 0-7.6 58.9-13.7 131.4-13.7 72.5 0 131.3 6.1 131.3 13.7z"/>
				<path id="&lt;Path&gt;" class="s25" d="m495 695.9c0 7-54.5 12.7-121.8 12.7-67.3 0-121.8-5.7-121.8-12.7 0-7 54.5-12.7 121.8-12.7 67.3 0 121.8 5.7 121.8 12.7z"/>
				<path id="&lt;Path&gt;" class="s25" d="m484.6 695.9c0 6.4-49.9 11.7-111.4 11.7-61.5 0-111.4-5.3-111.4-11.7 0-6.4 49.9-11.7 111.4-11.7 61.5 0 111.4 5.3 111.4 11.7z"/>
				<path id="&lt;Path&gt;" class="s25" d="m425.1 695.9c0 3-23.2 5.4-51.9 5.4-28.7 0-51.9-2.4-51.9-5.4 0-3 23.2-5.4 51.9-5.4 28.7 0 51.9 2.4 51.9 5.4z"/>
				<path id="&lt;Path&gt;" class="s25" d="m420.5 695.9c0 2.7-21.2 5-47.3 5-26.1 0-47.3-2.3-47.3-5 0-2.7 21.2-5 47.3-5 26.1 0 47.3 2.3 47.3 5z"/>
				<path id="&lt;Path&gt;" class="s25" d="m417.3 695.9c0 2.6-19.7 4.6-44.1 4.6-24.4 0-44.1-2-44.1-4.6 0-2.5 19.7-4.6 44.1-4.6 24.4 0 44.1 2.1 44.1 4.6z"/>
				<path id="&lt;Path&gt;" class="s25" d="m413.8 695.9c0 2.3-18.2 4.3-40.6 4.3-22.4 0-40.6-2-40.6-4.3 0-2.3 18.2-4.2 40.6-4.2 22.4 0 40.6 1.9 40.6 4.2z"/>
				<path id="&lt;Path&gt;" class="s25" d="m410.9 695.9c0 2.2-16.9 3.9-37.7 3.9-20.8 0-37.7-1.7-37.7-3.9 0-2.2 16.9-3.9 37.7-3.9 20.8 0 37.7 1.7 37.7 3.9z"/>
				<path id="&lt;Path&gt;" class="s25" d="m407.6 695.9c0 2-15.4 3.6-34.4 3.6-19 0-34.4-1.6-34.4-3.6 0-2 15.4-3.6 34.4-3.6 19 0 34.4 1.6 34.4 3.6z"/>
				<path id="&lt;Path&gt;" class="s25" d="m403.6 695.9c0 1.8-13.6 3.2-30.4 3.2-16.8 0-30.4-1.4-30.4-3.2 0-1.8 13.6-3.2 30.4-3.2 16.8 0 30.4 1.4 30.4 3.2z"/>
				<path id="&lt;Path&gt;" class="s25" d="m400.9 695.9c0 1.6-12.4 2.9-27.7 2.9-15.3 0-27.7-1.3-27.7-2.9 0-1.6 12.4-2.9 27.7-2.9 15.3 0 27.7 1.3 27.7 2.9z"/>
				<path id="&lt;Path&gt;" class="s25" d="m400.9 695.9c0 1.6-12.4 2.9-27.7 2.9-15.3 0-27.7-1.3-27.7-2.9 0-1.6 12.4-2.9 27.7-2.9 15.3 0 27.7 1.3 27.7 2.9z"/>
				<path id="&lt;Path&gt;" class="s25" d="m398.7 695.9c0 1.5-11.4 2.7-25.5 2.7-14.1 0-25.5-1.2-25.5-2.7 0-1.5 11.4-2.7 25.5-2.7 14.1 0 25.5 1.2 25.5 2.7z"/>
				<path id="&lt;Path&gt;" class="s25" d="m396.9 695.9c0 1.4-10.6 2.5-23.7 2.5-13.1 0-23.7-1.1-23.7-2.5 0-1.4 10.6-2.5 23.7-2.5 13.1 0 23.7 1.1 23.7 2.5z"/>
				<path id="&lt;Path&gt;" class="s25" d="m394.8 695.9c0 1.3-9.6 2.3-21.6 2.3-12 0-21.7-1-21.7-2.3 0-1.2 9.7-2.3 21.7-2.3 12 0 21.6 1.1 21.6 2.3z"/>
				<path id="&lt;Path&gt;" class="s25" d="m392.3 695.9c0 1.1-8.5 2-19.1 2-10.6 0-19.1-0.9-19.1-2 0-1.1 8.5-2 19.1-2 10.6 0 19.1 0.9 19.1 2z"/>
				<path id="&lt;Path&gt;" class="s25" d="m390.6 695.9c0 1-7.8 1.8-17.4 1.8-9.6 0-17.4-0.8-17.4-1.8 0-1 7.8-1.8 17.4-1.8 9.6 0 17.4 0.8 17.4 1.8z"/>
				<path id="&lt;Path&gt;" class="s25" d="m389.4 695.9c0 0.9-7.2 1.7-16.2 1.7-9 0-16.3-0.8-16.3-1.7 0-0.9 7.3-1.7 16.3-1.7 9 0 16.2 0.8 16.2 1.7z"/>
				<path id="&lt;Path&gt;" class="s25" d="m388.2 695.9c0 0.9-6.7 1.6-15 1.6-8.3 0-15-0.7-15-1.6 0-0.9 6.7-1.6 15-1.6 8.3 0 15 0.7 15 1.6z"/>
				<path id="&lt;Path&gt;" class="s25" d="m387.1 695.9c0 0.8-6.2 1.5-13.9 1.5-7.7 0-13.9-0.7-13.9-1.5 0-0.8 6.2-1.5 13.9-1.5 7.7 0 13.9 0.7 13.9 1.5z"/>
				<path id="&lt;Path&gt;" class="s25" d="m385.9 695.9c0 0.7-5.7 1.3-12.7 1.3-7 0-12.7-0.6-12.7-1.3 0-0.7 5.7-1.3 12.7-1.3 7 0 12.7 0.6 12.7 1.3z"/>
				<path id="&lt;Path&gt;" class="s25" d="m384.4 695.9c0 0.6-5 1.2-11.2 1.2-6.2 0-11.2-0.6-11.2-1.2 0-0.6 5-1.2 11.2-1.2 6.2 0 11.2 0.6 11.2 1.2z"/>
				<path id="&lt;Path&gt;" class="s25" d="m383.4 695.9c0 0.6-4.6 1.1-10.2 1.1-5.6 0-10.2-0.5-10.2-1.1 0-0.6 4.6-1.1 10.2-1.1 5.6 0 10.2 0.5 10.2 1.1z"/>
				<path id="&lt;Path&gt;" class="s25" d="m382 695.9c0 0.5-4 0.9-8.8 0.9-4.8 0-8.8-0.4-8.8-0.9 0-0.5 4-0.9 8.8-0.9 4.8 0 8.8 0.4 8.8 0.9z"/>
				<path id="&lt;Path&gt;" class="s25" d="m380.4 695.9c0 0.4-3.2 0.8-7.2 0.8-4 0-7.2-0.4-7.2-0.8 0-0.4 3.2-0.8 7.2-0.8 4 0 7.2 0.4 7.2 0.8z"/>
				<path id="&lt;Path&gt;" class="s25" d="m378.2 695.9c0 0.3-2.3 0.5-5 0.5-2.8 0-5-0.2-5-0.5 0-0.3 2.2-0.5 5-0.5 2.7 0 5 0.2 5 0.5z"/>
				<path id="&lt;Path&gt;" class="s25" d="m376.6 695.9c0 0.2-1.5 0.4-3.4 0.4-1.9 0-3.4-0.2-3.4-0.4 0-0.2 1.5-0.4 3.4-0.4 1.9 0 3.4 0.2 3.4 0.4z"/>
			</g>
			<g id="&lt;Group&gt;">
				<g id="&lt;Group&gt;">
					<path id="&lt;Path&gt;" class="s26" d="m196.2 624.1c5.1 10.9 14.5 19.5 24.2 25.3q3.2 2 6.5 4 6.5 3.9 12.9 7.8 3.8 2.2 7.6 4.5c2 1.2 5.4 0.8 6-1.8 0.6-2.9-1.7-4.9-3.6-6.5-1.8-1.5-3.4-3.1-5.1-4.6-3.6-3.1-7-6.4-10.6-9.5-0.8-0.7-1.5-1.4-2.4-2.1q1.4 1 2.8 2 3.5 2.5 6.9 5 4.4 3.2 8.7 6.3 4.1 3 8.2 6c2 1.4 4 2.9 6 4.2 1.8 1.2 4.8 1.8 6.4 0 0.9-1 0.8-2.4 0.6-3.7-0.1-1.3-1.3-3.3-2.3-4.2-1-0.9-1.9-1.8-2.9-2.8-2.5-2.7-5.4-5.2-8.2-7.6-3.1-2.6-6.2-5.3-9.3-7.9q-4-3.2-7.9-6.5c-1.2-1-2.4-2-3.7-3q0 0-0.1 0c0 0 36.6 28.7 36.7 28.8 2.5 1.9 8.5 5.1 11.1 0.9 0.9-1.4 0.3-4.6-0.4-6.1-0.9-1.5-2.3-2.6-3.6-3.8-2.7-2.5-5.3-5-8.1-7.4-5.8-4.8-11.4-9.7-17.4-14.3-1.3-1-2.5-2.1-3.9-3.1 4.2 3.7 9.2 7.1 13.9 10.2 5.4 3.8 8.9 6.9 13.2 9.4 1.2 0.7 2.7 1.8 4 1.8 1.9 0.1 4.5-0.4 5.4-1.9 1.4-2-0.1-5.9-1.9-7.5-10.8-9.3-18.4-15.6-28.4-21.8 0 0-8.4-5.1-9.1-6 0 0 16.2 9 26.9 7 0 0 14-7.1-8.8-11.8 0 0-12.9-5.8-20.9-9.7 0 0-15.4-8.3-33.9-2.7 0 0-14.9-9.2-18.8-12.4l-14.2 18.4c0 0 13.8 19.1 17.5 27.1z"/>
					<path id="&lt;Path&gt;" class="s26" d="m556.3 606c1 11.9-3 24-8.5 33.9q-1.9 3.3-3.8 6.6-3.7 6.6-7.4 13.2-2.1 3.8-4.3 7.7c-1.2 2.1-4.3 3.3-6.1 1.3-2-2.2-1-5.1-0.1-7.4 0.8-2.1 1.4-4.3 2.2-6.5 1.6-4.4 2.9-9 4.5-13.5 0.4-0.9 0.6-2 1-3q-0.7 1.6-1.4 3.2-1.8 3.9-3.5 7.7-2.3 4.9-4.5 9.8-2.1 4.6-4.2 9.2c-1 2.2-2 4.5-3.1 6.7-1 1.9-3.3 3.9-5.6 3.1-1.2-0.5-1.8-1.7-2.3-2.9-0.6-1.2-0.5-3.5-0.1-4.8 0.4-1.3 0.8-2.6 1.1-3.9 0.9-3.6 2.2-7.2 3.5-10.6 1.4-3.9 2.7-7.7 4.2-11.5q1.8-4.7 3.6-9.5c0.5-1.5 1.1-3 1.7-4.5q0 0 0.1 0c0 0-17.7 43-17.7 43.1-1.2 2.9-4.8 8.7-9.1 6.3-1.6-0.9-2.7-3.9-2.7-5.5-0.1-1.8 0.7-3.5 1.2-5.1 1.1-3.5 2.1-7 3.4-10.4 2.6-7.1 5.2-14.1 8-21.1 0.7-1.5 1.2-3.1 1.9-4.6-1.8 5.3-4.5 10.7-7 15.7-2.9 6-4.4 10.4-6.9 14.8-0.7 1.1-1.4 2.9-2.6 3.5-1.6 1-4 1.8-5.6 1-2.2-1.1-2.8-5.2-2-7.5 4.8-13.4 8.3-22.6 13.9-32.9 0 0 4.8-8.6 5-9.7 0 0-9.7 15.7-20 19.3 0 0-15.7 0.7 1.8-14.6 0 0 8.4-11.4 13.4-18.7 0 0 9.3-14.9 28.2-19.2 0 0 8.4-15.3 10.2-20l30.9 13c0 0-12.1 19.5-11.3 28.3z"/>
					<g id="&lt;Group&gt;">
						<path id="&lt;Path&gt;" class="s27" d="m337.2 347.9c0 0 7.3 20.7-13.7 36.3 0 0 48 49.3 111 0 0 0-24-2.4-15-49.3z"/>
						<path id="&lt;Path&gt;" class="s28" d="m581.5 558.9l-43.6-113.9c-9.6-28.4-34.4-45.5-60.4-56.2q-21.1-8.6-42.3-17.2c-47.3 51.7-106.6 0-106.6 0-8.7 4.8-17.5 9.7-26.2 14.6-24.4 13.5-53.1 23.6-68.2 48.6l-69.3 121.5c0 0 6.3 45.6 24.2 57.2 0 0 5.1-27.9 42.3-24l-5.9-28.8 61.4-62.4 9.7 106h163.5l12.8-106 51.6 59.6-23 41.4c38.6-16 54.9 10.3 54.9 10.3 0 0 19.4-23.4 25.1-50.7z"/>
						<path id="&lt;Path&gt;" class="s26" d="m450.2 270.6c0-61.1-33.5-94.3-74.7-94.3-41.2 0-74.6 33.2-74.7 94.3-2.3 0.1-14.7 0.9-7.7 14.9 0 0 7.6 9.2 8.1 20.9 0 0 2.7 6.4 6.6 3.5 9.2 24.7 26.2 43.5 42.6 55.3 0 0 27.9 18.3 48.6 2 19.7-12.1 36.8-30.4 45.3-56.7 3.4 1.1 5.6-4.1 5.6-4.1 0.5-11.7 8-20.9 8-20.9 7-14-5.3-14.8-7.7-14.9z"/>
						<path id="&lt;Path&gt;" class="s29" d="m451 270.9c-2.4 5.2-13.7 12.4-12.5 19.1q0 0.6 0 0c-1.5-2.4 0.3-9.7 0-12.6-0.4-5-1.3-9.6-2.5-14.5-2.4-10.2-5.4-19.4-11.3-28.1-7-10.3-15-17.1-28.7-16.4-8.2 0.4-20.6 2.4-22 12.4-7-16.7-37-16.5-47-2.7-5.8 8.2-8.2 17.2-9.6 26.9-0.8 5.9-1.1 11.8-2.3 17.5-0.6 3.5-1.2 10.6-3.1 12.9 0 0-1.9-10.1-11.2-14.8-9.1-4.6-0.9-49.7 1.1-56.4 9.4-32.1 37.6-50.9 69.8-54.3 16.2-1.7 32.2-6 48.8-4.8-3.6 2.6-7.3 6.2-10.4 9.7 9.4-1.5 18.3-4.5 28.4-3.7-5.4 3.9-2.9 9.8-5.6 15.7 11.7-0.7 20.3 13.7 26.3 22-5.6-1.5-10.8-4.4-16.4-5.9 24.6 7 15.6 62.3 8.2 78z"/>
						<path id="&lt;Path&gt;" class="s30" d="m328.6 371.6l-18.9 10.5c0 0 33.6 30.7 68.2 30.8q0.6 0 1.1 0c35-0.5 59.3-10.4 72.4-34.7l-16.2-6.6c0 0-26.6 23.6-49.4 23 0 0-24.3 1.2-57.2-23z"/>
					</g>
					<g id="&lt;Group&gt;">
						<path id="&lt;Path&gt;" class="s31" d="m512.5 655.3c0 6.6-5.4 11.9-11.9 11.9h-251c-6.5 0-11.8-5.3-11.8-11.9v-183c0-6.6 5.3-11.9 11.8-11.9h251c6.5 0 11.9 5.3 11.9 11.9z"/>
						<path id="&lt;Path&gt;" class="s32" d="m241 474.8v102.4c0 46.6 5.2 84.4 11.6 84.4h244.8c6.4 0 11.6-37.8 11.6-84.4v-102.4z"/>
						<path id="&lt;Path&gt;" class="s32" d="m316.8 673.1h-37.9v-9h37.9z"/>
						<path id="&lt;Path&gt;" class="s32" d="m464.6 673.1h-37.9v-9h37.9z"/>
						<path id="&lt;Path&gt;" class="s31" d="m209.9 676.7h331.3c0 0-4.6 14.5-12.9 20h-288.5c0 0-27.1-2.8-29.9-20z"/>
					</g>
				</g>
				<g id="&lt;Group&gt;">
					<path id="&lt;Compound Path&gt;" fill-rule="evenodd" class="s31" d="m443.9 292.7c-4.8 14.1-12.4 21.3-30.1 21.3-17.8 0-26.8-4.8-30.2-21.3-0.6-3.1-0.7-6-0.2-8.5-2.5-1.8-6.8-3.7-11.1 0.1 0.3 2.3 0.2 4.8-0.4 7.6-3.4 16.5-12.4 21.2-30.1 21.2-17.8 0-25.4-7.2-30.2-21.2-5.4-15.9-0.2-29.4 31.9-26.9 4.6 0.4 9 1.2 12.9 2.5q2.2 0.8 4.2 1.8c6.5 2.2 20 5.2 37.1-0.4q1.3-0.5 2.7-0.9c3.6-1.1 7.5-1.8 11.6-2.1 32.1-2.5 37.3 10.9 31.9 26.8zm-87.5-25.2q0 0 0 0zm-12.2 3.7c-26.6-2-30.9 8.5-26.5 20.9 4 11 10.3 16.6 25 16.6 14.7 0 22.2-3.8 25-16.6 2.9-13.4-8.9-19.9-23.5-20.9zm67.2 0.8c-14.7 1.1-26.4 7.5-23.5 20.9 2.8 12.9 10.3 16.6 24.9 16.6 14.7 0 21-5.6 25-16.6 4.5-12.4 0.2-22.8-26.4-20.9z"/>
					<path id="&lt;Path&gt;" class="s31" d="m315.3 287.8l-7.8 2-3-20.1h12.4z"/>
					<path id="&lt;Path&gt;" class="s31" d="m440.5 287.8l7.8 2 3-20.1h-12.4z"/>
				</g>
			</g>
		</g>
	</g>
</svg>