<svg version="1.2" xmlns="http://www.w3.org/2000/svg" viewBox="0 0 1500 1416" width="1000" height="944">
	<title>12083058_Wavy_Bus-02_Single-03-ai</title>
	<defs>
		<linearGradient id="g1" x2="1" gradientUnits="userSpaceOnUse" gradientTransform="matrix(-712.446,522.965,-201.277,-274.204,1923.908,1371.859)">
			<stop offset="0" stop-color="#ffc444"/>
			<stop offset=".996" stop-color="#f36f56"/>
		</linearGradient>
		<linearGradient id="g2" x2="1" gradientUnits="userSpaceOnUse" gradientTransform="matrix(-144.687,1012.54,-367.543,-52.52,169.43,-89.275)">
			<stop offset="0" stop-color="#ffc444"/>
			<stop offset=".996" stop-color="#f36f56"/>
		</linearGradient>
		<linearGradient id="g3" x2="1" gradientUnits="userSpaceOnUse" gradientTransform="matrix(-422.068,922.229,-376.585,-172.348,517.835,-87.471)">
			<stop offset="0" stop-color="#ff9085"/>
			<stop offset="1" stop-color="#fb6fbb"/>
		</linearGradient>
		<linearGradient id="g4" x2="1" gradientUnits="userSpaceOnUse" gradientTransform="matrix(-2517.996,-353.965,387.415,-2755.95,3161.982,1200.876)">
			<stop offset=".1" stop-color="#311944"/>
			<stop offset="1" stop-color="#893976"/>
		</linearGradient>
		<linearGradient id="g5" x2="1" gradientUnits="userSpaceOnUse" gradientTransform="matrix(-4042.86,-568.321,1326.856,-9438.849,4257.342,1364.796)">
			<stop offset=".1" stop-color="#311944"/>
			<stop offset="1" stop-color="#893976"/>
		</linearGradient>
		<linearGradient id="g6" x2="1" gradientUnits="userSpaceOnUse" gradientTransform="matrix(2034.077,641.516,-694.562,2202.27,798.484,-144.4)">
			<stop offset="0" stop-color="#aa80f9"/>
			<stop offset=".996" stop-color="#6165d7"/>
		</linearGradient>
		<linearGradient id="g7" x2="1" gradientUnits="userSpaceOnUse" gradientTransform="matrix(-2351.049,-976.284,1068.513,-2573.151,2280.18,1823.771)">
			<stop offset=".1" stop-color="#311944"/>
			<stop offset="1" stop-color="#893976"/>
		</linearGradient>
		<linearGradient id="g8" x2="1" gradientUnits="userSpaceOnUse" gradientTransform="matrix(-3774.762,-1567.488,3659.306,-8812.196,2983.286,2122.069)">
			<stop offset=".1" stop-color="#311944"/>
			<stop offset="1" stop-color="#893976"/>
		</linearGradient>
		<linearGradient id="g9" x2="1" gradientUnits="userSpaceOnUse" gradientTransform="matrix(1809.797,1133.238,-1226.898,1959.373,181.321,143.1)">
			<stop offset="0" stop-color="#aa80f9"/>
			<stop offset=".996" stop-color="#6165d7"/>
		</linearGradient>
		<linearGradient id="g10" x2="1" gradientUnits="userSpaceOnUse" gradientTransform="matrix(-541.01,153.53,-180.66,-636.609,1075.342,1303.274)">
			<stop offset="0" stop-color="#ffffff"/>
			<stop offset=".996" stop-color="#f4f7fa"/>
		</linearGradient>
		<linearGradient id="g11" x2="1" gradientUnits="userSpaceOnUse" gradientTransform="matrix(436.329,1023.389,-554.071,236.232,1451.042,-153.077)">
			<stop offset="0" stop-color="#ffc444"/>
			<stop offset=".996" stop-color="#f36f56"/>
		</linearGradient>
		<linearGradient id="g12" x2="1" gradientUnits="userSpaceOnUse" gradientTransform="matrix(557.805,1308.305,-1332.099,567.95,668.124,107.195)">
			<stop offset="0" stop-color="#ffc444"/>
			<stop offset=".996" stop-color="#f36f56"/>
		</linearGradient>
		<linearGradient id="g13" x2="1" gradientUnits="userSpaceOnUse" gradientTransform="matrix(957.451,2245.657,-1278.707,545.185,1177.034,-144.525)">
			<stop offset="0" stop-color="#ffc444"/>
			<stop offset=".996" stop-color="#f36f56"/>
		</linearGradient>
		<linearGradient id="g14" x2="1" gradientUnits="userSpaceOnUse" gradientTransform="matrix(557.734,1308.14,-1331.839,567.839,622.807,127.337)">
			<stop offset="0" stop-color="#ffc444"/>
			<stop offset=".996" stop-color="#f36f56"/>
		</linearGradient>
		<linearGradient id="g15" x2="1" gradientUnits="userSpaceOnUse" gradientTransform="matrix(-1766.975,-733.745,803.061,-1933.9,1277.311,1824.483)">
			<stop offset=".1" stop-color="#311944"/>
			<stop offset="1" stop-color="#893976"/>
		</linearGradient>
		<linearGradient id="g16" x2="1" gradientUnits="userSpaceOnUse" gradientTransform="matrix(-2836.993,-1178.075,2750.22,-6622.97,1805.743,2048.674)">
			<stop offset=".1" stop-color="#311944"/>
			<stop offset="1" stop-color="#893976"/>
		</linearGradient>
		<linearGradient id="g17" x2="1" gradientUnits="userSpaceOnUse" gradientTransform="matrix(1360.187,851.706,-922.098,1472.604,-300.126,561.344)">
			<stop offset="0" stop-color="#aa80f9"/>
			<stop offset=".996" stop-color="#6165d7"/>
		</linearGradient>
		<linearGradient id="g18" x2="1" gradientUnits="userSpaceOnUse" gradientTransform="matrix(-406.591,276.175,-166.434,-245.028,346.058,602.923)">
			<stop offset="0" stop-color="#311944"/>
			<stop offset="1" stop-color="#6b3976"/>
		</linearGradient>
		<linearGradient id="g19" x2="1" gradientUnits="userSpaceOnUse" gradientTransform="matrix(9.347,150.22,-131.092,8.157,522.403,850.099)">
			<stop offset="0" stop-color="#ff9085"/>
			<stop offset="1" stop-color="#fb6fbb"/>
		</linearGradient>
		<linearGradient id="g20" x2="1" gradientUnits="userSpaceOnUse" gradientTransform="matrix(-48.453,0,0,-29.165,557.832,1265.596)">
			<stop offset="0" stop-color="#311944"/>
			<stop offset="1" stop-color="#6b3976"/>
		</linearGradient>
		<linearGradient id="g21" x2="1" gradientUnits="userSpaceOnUse" gradientTransform="matrix(-73.727,-221.181,140.156,-46.718,556.878,1292.545)">
			<stop offset="0" stop-color="#ffc444"/>
			<stop offset=".996" stop-color="#f36f56"/>
		</linearGradient>
		<linearGradient id="g22" x2="1" gradientUnits="userSpaceOnUse" gradientTransform="matrix(-29.633,0,0,-38.63,550.121,1171.883)">
			<stop offset="0" stop-color="#311944"/>
			<stop offset="1" stop-color="#6b3976"/>
		</linearGradient>
		<linearGradient id="g23" x2="1" gradientUnits="userSpaceOnUse" gradientTransform="matrix(-52.307,-156.921,58.31,-19.437,608.117,1267.545)">
			<stop offset="0" stop-color="#ffc444"/>
			<stop offset=".996" stop-color="#f36f56"/>
		</linearGradient>
		<linearGradient id="g24" x2="1" gradientUnits="userSpaceOnUse" gradientTransform="matrix(-42.408,245.17,-190.957,-33.03,378.382,995.305)">
			<stop offset="0" stop-color="#ab316d"/>
			<stop offset="1" stop-color="#792d3d"/>
		</linearGradient>
		<linearGradient id="g25" x2="1" gradientUnits="userSpaceOnUse" gradientTransform="matrix(-54.687,-173.074,115.78,-36.583,627.713,1223.584)">
			<stop offset="0" stop-color="#ab316d"/>
			<stop offset="1" stop-color="#792d3d"/>
		</linearGradient>
		<linearGradient id="g26" x2="1" gradientUnits="userSpaceOnUse" gradientTransform="matrix(-56.549,-178.97,209.305,-66.135,522.819,1269.115)">
			<stop offset="0" stop-color="#ab316d"/>
			<stop offset="1" stop-color="#792d3d"/>
		</linearGradient>
		<linearGradient id="g27" x2="1" gradientUnits="userSpaceOnUse" gradientTransform="matrix(-40.837,236.092,-469.757,-81.255,359.088,997.763)">
			<stop offset="0" stop-color="#ab316d"/>
			<stop offset="1" stop-color="#792d3d"/>
		</linearGradient>
		<linearGradient id="g28" x2="1" gradientUnits="userSpaceOnUse" gradientTransform="matrix(-429.301,157.209,-182.385,-498.051,447.837,748.118)">
			<stop offset="0" stop-color="#ff9085"/>
			<stop offset="1" stop-color="#fb6fbb"/>
		</linearGradient>
		<linearGradient id="g29" x2="1" gradientUnits="userSpaceOnUse" gradientTransform="matrix(22.226,-100.868,132.521,29.2,305.208,868.265)">
			<stop offset="0" stop-color="#ffc444"/>
			<stop offset=".996" stop-color="#f36f56"/>
		</linearGradient>
		<linearGradient id="g30" x2="1" gradientUnits="userSpaceOnUse" gradientTransform="matrix(-24.445,125.91,-111.426,-21.633,364.016,789.961)">
			<stop offset="0" stop-color="#ffc444"/>
			<stop offset=".996" stop-color="#f36f56"/>
		</linearGradient>
		<linearGradient id="g31" x2="1" gradientUnits="userSpaceOnUse" gradientTransform="matrix(-139.792,0,0,-20.78,446.152,993.819)">
			<stop offset="0" stop-color="#40447e"/>
			<stop offset=".996" stop-color="#3c3b6b"/>
		</linearGradient>
		<linearGradient id="g32" x2="1" gradientUnits="userSpaceOnUse" gradientTransform="matrix(-92.525,91.784,-57.2,-57.661,504.446,882.362)">
			<stop offset="0" stop-color="#40447e"/>
			<stop offset=".996" stop-color="#3c3b6b"/>
		</linearGradient>
		<linearGradient id="g33" x2="1" gradientUnits="userSpaceOnUse" gradientTransform="matrix(-129.949,128.909,-133.165,-134.239,543.453,822.245)">
			<stop offset="0" stop-color="#40447e"/>
			<stop offset=".996" stop-color="#3c3b6b"/>
		</linearGradient>
		<linearGradient id="g34" x2="1" gradientUnits="userSpaceOnUse" gradientTransform="matrix(25.782,143.066,-116.433,20.983,350.249,848.792)">
			<stop offset="0" stop-color="#ff9085"/>
			<stop offset="1" stop-color="#fb6fbb"/>
		</linearGradient>
		<linearGradient id="g35" x2="1" gradientUnits="userSpaceOnUse" gradientTransform="matrix(-66.616,62.777,-76.362,-81.032,371.562,976.141)">
			<stop offset="0" stop-color="#ffc444"/>
			<stop offset=".996" stop-color="#f36f56"/>
		</linearGradient>
	</defs>
	<style>
		.s0 { fill: #f4f7fa } 
		.s1 { fill: url(#g1) } 
		.s2 { fill: #beb8f2 } 
		.s3 { fill: url(#g2) } 
		.s4 { fill: #fcfdfe } 
		.s5 { fill: url(#g3) } 
		.s6 { fill: url(#g4) } 
		.s7 { fill: url(#g5) } 
		.s8 { fill: url(#g6) } 
		.s9 { fill: url(#g7) } 
		.s10 { fill: url(#g8) } 
		.s11 { fill: url(#g9) } 
		.s12 { fill: #d8dee8 } 
		.s13 { fill: url(#g10) } 
		.s14 { fill: url(#g11) } 
		.s15 { fill: url(#g12) } 
		.s16 { opacity: .3;mix-blend-mode: multiply;fill: url(#g13) } 
		.s17 { fill: url(#g14) } 
		.s18 { fill: url(#g15) } 
		.s19 { fill: url(#g16) } 
		.s20 { fill: url(#g17) } 
		.s21 { fill: url(#g18) } 
		.s22 { fill: url(#g19) } 
		.s23 { fill: url(#g20) } 
		.s24 { fill: url(#g21) } 
		.s25 { fill: url(#g22) } 
		.s26 { fill: url(#g23) } 
		.s27 { fill: url(#g24) } 
		.s28 { fill: url(#g25) } 
		.s29 { opacity: .3;mix-blend-mode: multiply;fill: url(#g26) } 
		.s30 { fill: url(#g27) } 
		.s31 { fill: url(#g28) } 
		.s32 { mix-blend-mode: soft-light;fill: #f4f7fa } 
		.s33 { fill: url(#g29) } 
		.s34 { fill: url(#g30) } 
		.s35 { fill: url(#g31) } 
		.s36 { fill: url(#g32) } 
		.s37 { opacity: .3;mix-blend-mode: multiply;fill: url(#g33) } 
		.s38 { fill: url(#g34) } 
		.s39 { fill: url(#g35) } 
	</style>
	<g id="Illustration">
		<g id="&lt;Group&gt;">
			<path id="&lt;Path&gt;" class="s0" d="m1252.9 1182.7c-34.2 35.3-64.8 56.1-88.3 71.8-228.7 152.7-490.2 108.7-571.1 93.6-130.4-24.2-240.5-41.4-335.1-126.9-215-194.2-204.5-599.4-40.3-850.3 19.5-29.8 183.5-272.9 445.6-307.2 6.4-0.8 11.2-1.3 15.4-1.8 40.5-4.2 291.7-26.9 496.5 144.7 29.4 24.6 76.6 68.9 120.3 136.5 160 247.1 160.5 629.9-43 839.6z"/>
			<g id="&lt;Group&gt;">
				<g id="&lt;Clip Group&gt;">
					<path id="&lt;Path&gt;" class="s1" d="m681.9 1152.5l114.9 78.5c0 0 61.8-44.2 62.1-105 0.5-124.1 109.1-115 155.2-118 69.5-4.5 128.8-38.8 77.4-106.5-51.5-67.6 85.9-125.1 199.2-116.2 110.8 8.7 190.2-183.3-47.9-224.2-142.3-24.4-203.7 102.1-250 158.6-46.2 56.4-138.9 0.4-158.5 94.6-16.7 80.5 1.7 160.1-65.5 177.3-67.3 17.3-104.2 62.9-86.9 160.9z"/>
					<g id="&lt;Group&gt;" style="opacity: .5;mix-blend-mode: soft-light">
						<path id="&lt;Path&gt;" class="s2" d="m724.3 1197.1l2.7 1.2c0.7-1.7 75.3-167.9 198.8-310.3 113.8-131.3 293.8-268.7 504.6-177.8l1.2-2.7c-93.9-40.5-189.5-39.8-284.3 1.9-75.7 33.3-151 92.8-223.7 176.7-123.9 142.8-198.5 309.3-199.3 311z"/>
						<path id="&lt;Path&gt;" class="s2" d="m1108.5 728.5l2.6 1.4c44.7-87 153-179.9 154-180.8l-1.9-2.3c-1.1 1-109.7 94.3-154.7 181.7z"/>
						<path id="&lt;Path&gt;" class="s2" d="m1172.4 702.5c116.4 4.9 176 81.4 176.5 82.1l2.4-1.7c-0.6-0.8-61-78.4-178.8-83.4z"/>
						<path id="&lt;Path&gt;" class="s2" d="m850.1 985.5c105.2-95.8 279.9-17.6 281.5-16.7l1.6-2.5c-1.5-1-178.9-79.6-285.1 17z"/>
						<path id="&lt;Path&gt;" class="s2" d="m882.5 936.6l2.7 1.1c34.8-83.9-10.3-188.8-10.7-189.8l-2.7 1.1c0.4 1.1 45.1 104.9 10.7 187.6z"/>
						<path id="&lt;Path&gt;" class="s2" d="m739.3 1172.4c33.9-42.1 121.5-33.9 122.4-33.9l0.3-2.9c-3.7-0.3-90.1-8.4-125 35z"/>
						<path id="&lt;Path&gt;" class="s2" d="m756.4 1132.8l2.7 1.2c17.8-38.8-8.3-113.5-16.9-138-1.2-3.5-2.2-6.5-2.3-7.1l-2.9 0.4c0.1 0.8 0.8 2.8 2.4 7.6 8.5 24.3 34.4 98.1 17 135.9z"/>
					</g>
				</g>
				<g id="&lt;Group&gt;">
					<path id="&lt;Path&gt;" class="s3" d="m919.7 746.5c25.8 27.3 20.5 63.4 12.6 89-3.5 1-5.3 2.4-8.5 4.2-29.6 16-45.6 16.6-77.2 27.8-6.8 2.4-28.9 3.4-38 3.3l-16.8-0.6c0 0-51.4-69.7-15.2-103.1 36.3-33.5-4.1-105.9-20.8-146.9-10.2-25.1-6.8-39.9-9.1-49.8-24-104.3-63.8-125.6-50.8-164.3 14.3-42.8 67-29.1 85.1-74.7 20.4-51.6-33-103.7-2.8-148.2 5.2-7.7 10.7-15.4 21.1-22 25.5-16.4 53-6.8 66.2-35.6 26.5-58 87.8-93.4 142.4-56.7 53.8 36.3 35.5 143.6-59.2 252.4-58.6 85-53.9 104.2-33.5 148.4 14.3 31 73.7 105.6 36.8 152.4-37 46.8-61.9 93.2-32.3 124.4z"/>
					<g id="&lt;Clip Group&gt;">
						<g id="&lt;Group&gt;" style="opacity: .5;mix-blend-mode: soft-light">
							<path id="&lt;Path&gt;" class="s4" d="m863.8 864l-2.4 0.4c-2.3-13.5-4.4-27.1-6.3-40.4-14.1-98.9-17.7-195.6-10.7-287.4 6-77.8 19.6-153.2 40.5-224 16.8-57 38.4-111.4 64.1-161.7 18.1-35.3 38.1-68.2 59.4-97.9 3.7-5.2 7.8-10.3 11.8-15.2 5.3-6.6 10.7-13.4 15.3-20.4l2.1 1.2c-4.6 7.1-10.1 13.9-15.4 20.5-4 4.9-8.1 10-11.7 15.1-21.3 29.6-41.2 62.5-59.2 97.7-25.8 50.1-47.3 104.4-64 161.2-20.9 70.7-34.5 146-40.4 223.6-7 91.6-3.4 188.2 10.6 286.9 1.9 13.4 4 27 6.3 40.4z"/>
							<path id="&lt;Path&gt;" class="s4" d="m865.7 400.2l-2.5-0.3c16.8-97.3-70.1-244-71-245.5l2.2-1.1c0.9 1.5 88.2 148.8 71.3 246.9z"/>
							<path id="&lt;Path&gt;" class="s4" d="m844.3 675.9h-2.4c3.1-67.3 112.2-149.2 113.3-150l1.5 1.8c-1.1 0.8-109.3 82-112.4 148.2z"/>
							<path id="&lt;Path&gt;" class="s4" d="m846.1 714.2l-2.4 0.3c-6.4-43.4-40.2-99.1-95.1-156.8-2.8-2.9-2.8-2.9-2.8-3.3l2.4-0.4-1.2 0.2 1.1-0.6c0.1 0.2 1.2 1.3 2.4 2.6 55.2 58 89.2 114.1 95.6 158z"/>
							<path id="&lt;Path&gt;" class="s4" d="m860 839.4l-2.4-0.3c8-47.9 75-84.8 75.7-85.1l1.2 1.9c-0.6 0.4-66.6 36.7-74.5 83.5z"/>
							<path id="&lt;Path&gt;" class="s4" d="m860.3 865.2c-20.3-33.9-51.8-63.4-96.3-90l1.3-2c44.9 26.9 76.7 56.6 97.1 90.8z"/>
							<path id="&lt;Path&gt;" class="s4" d="m936.6 181.7l-2.4-0.4c12.6-53.7 12.4-112.6 12.4-132 0-4.6 0-6.3 0.1-6.9l2.4 0.4c-0.1 0.4-0.1 3.1-0.1 6.5 0.1 19.4 0.2 78.5-12.4 132.4z"/>
							<path id="&lt;Path&gt;" class="s4" d="m902.3 266.4l-2.2-1.1c27.2-45.1 134-73.9 138.5-75.1l0.6 2.2c-1.1 0.3-110.2 29.7-136.9 74z"/>
						</g>
					</g>
				</g>
				<g id="&lt;Group&gt;">
					<path id="&lt;Path&gt;" class="s5" d="m919.7 1106.9c-8.6-0.1-3.8-44.7-34.8-97.4-7.8-13.2-45.2-87.9-107.8-82.8q-18.2 1.5-36.5 3c-13.6-25.9-21.6-52.9 13.9-67.7 55.1-22.9 43.9-118.1 23.7-149.9-24.9-39.3-81-132 3.6-168.8 70.5-30.5 122.6-36.6 115.9-126.4-6.7-89.7 37.5-151.4 123.8-156.3 90.9-5 149.8-127 228.7-97.8 137.5 50.8 46.9 261-102 336.4-149 75.4-52.2 118-38.3 190.4 0.9 6.8 1.8 17.4 0.5 30.2-8.2 78.3-86.3 100.8-135.9 170-67.5 94.4-40.4 217.2-54.8 217.1z"/>
					<g id="&lt;Clip Group&gt;">
						<g id="&lt;Group&gt;" style="opacity: .5;mix-blend-mode: soft-light">
							<path id="&lt;Path&gt;" class="s4" d="m850.6 909.7l-4.3-0.4c24.4-295 200.4-577.5 459.3-737.1l2.4 3.4c-257.9 158.9-433.2 440.2-457.4 734.1z"/>
							<path id="&lt;Path&gt;" class="s4" d="m878.5 749.9l-4.3 0.4c-14.9-115.4-131.2-193.4-132.4-194.2l2.5-3.3c1.2 0.8 119.1 79.8 134.2 197.1z"/>
							<path id="&lt;Path&gt;" class="s4" d="m856.6 855.5l-4-1.5c45.7-109.8 269.2-150.2 271.4-150.6l0.8 4c-2.2 0.4-223.4 40.4-268.2 148.1z"/>
							<path id="&lt;Path&gt;" class="s4" d="m997.5 482.4l-4.1-1.2c28.2-89.6-47.7-214-48.4-215.2l3.7-2.1c0.8 1.3 77.5 127.2 48.8 218.5z"/>
							<path id="&lt;Path&gt;" class="s4" d="m1115.8 331.2l-2.6-3.2c88.4-66.3 240.3-52.7 241.8-52.5l-0.4 4c-1.6-0.2-151.7-13.6-238.8 51.7z"/>
						</g>
					</g>
				</g>
			</g>
			<g id="&lt;Group&gt;">
				<path id="&lt;Compound Path&gt;" fill-rule="evenodd" class="s6" d="m1235.1 544.8c-5.8 14.5-12.6 28.3-20.3 41.4 1.1 0.9 2.2 1.8 3.2 2.8 20.3 20 21.3 54.4 2 76.9-19.2 22.6-51.2 24.7-71.6 4.8-1-1.1-2-2.2-3-3.3-11.6 9.5-23.8 18-36.5 25.5 0.5 1.4 1 2.9 1.4 4.4 8 28.5-7.2 59.4-34 68.9-26.8 9.6-55-5.8-63.1-34.3-0.4-1.4-0.7-2.9-1-4.4-14.1 2.1-28.4 3.1-42.9 2.8-0.2 1.5-0.4 3.1-0.8 4.6-6.4 29.5-33.8 48.5-61 42.6-27.2-6-44-34.8-37.6-64.2 0.4-1.6 0.8-3 1.2-4.5q-13.2-5.8-25.6-13c-21 19.5-67.2 19.8-86.6 0.8-20.3-19.9-21.2-54.3-2-76.9 1-1.1 2-2.2 3.1-3.3-8.4-12.1-15.9-25-22.5-38.5-1.3 0.6-2.7 1.2-4.1 1.7-26.8 9.6-55-5.8-63-34.3-8-28.5 7.2-59.4 34-68.9 1.4-0.5 2.7-0.9 4.1-1.3-1.5-15.1-1.9-30.5-1.2-46.1-1.4-0.1-2.8-0.3-4.2-0.6-27.2-6-44-34.8-37.6-64.2 6.5-29.5 33.8-48.6 61-42.6 1.4 0.3 2.8 0.7 4.2 1.1 5.8-14.4 12.6-28.2 20.3-41.3-1.1-0.9-2.2-1.8-3.2-2.9-20.4-19.9-21.3-54.3-2.1-76.8 19.3-22.6 51.3-24.7 71.7-4.8 1 1 2 2.1 3 3.3 11.5-9.5 23.8-18.1 36.5-25.6-0.5-1.4-1-2.8-1.4-4.3-8.1-28.5 5.4-59.8 65.8-74.3 27.7-6.6 23.2 11.1 31.2 39.7 0.5 1.4 0.8 2.9 1 4.4 14.2-2.2 28.5-3.1 43-2.8 0.2-1.6 0.4-3.1 0.8-4.6 6.4-29.5 24.4-59.2 87.6-46.4 27.3 5.6 17.4 38.5 11 68-0.4 1.5-0.8 3-1.2 4.5 13.2 5.8 25.8 12.7 37.8 20.5 0.9-1.2 1.8-2.4 2.7-3.6 19.2-22.5 51.3-24.6 71.7-4.7 20.3 19.9 21.2 54.3 2 76.8-1 1.2-2.1 2.3-3.1 3.4 8.4 12.1 15.9 25 22.5 38.4 1.3-0.6 2.7-1.2 4.1-1.7 26.8-9.5 55 5.8 63 34.3 8 28.6-7.2 59.4-34 69-1.4 0.5-2.8 0.9-4.1 1.2 1.5 15.2 1.9 30.6 1.1 46.1 1.5 0.2 2.9 0.4 4.3 0.7 27.2 6 44 34.7 37.6 64.2-6.5 29.5-33.8 48.5-61 42.6-1.5-0.3-2.8-0.7-4.2-1.2zm-386.7 147.9c0.8-0.9-10.2-2.5-13.9-3.7q5.4 3.5 11 6.8 1.5-1.5 2.9-3.1zm-13.9-3.7q-0.6-0.3-1.2-0.7c-0.2 0.2 0.3 0.5 1.2 0.7zm327.4-216c23.4-107-37.7-211.3-136.5-233-98.8-21.7-198 47.5-221.5 154.5-23.4 107.1 37.6 211.4 136.5 233.1 98.8 21.7 198-47.5 221.5-154.6z"/>
				<path id="&lt;Path&gt;" class="s7" d="m1261.4 391.2c26.8-9.6 42-40.4 34-69-8-28.5-36.2-43.8-63-34.3-1.4 0.5-2.8 1.1-4.1 1.7-6.6-13.4-14.1-26.3-22.5-38.4 1-1.1 2.1-2.2 3.1-3.4 19.2-22.5 37.9-69.8 15.7-87.5-42.3-33.6-70.2-7.1-89.4 15.4-0.9 1.2-1.8 2.4-2.7 3.6-12-7.8-24.6-14.7-37.8-20.5 0.4-1.5 0.8-3 1.2-4.5 3.5-16 0.1-31.8-8.1-43.9-12.4 45.8-24.3 91.7-35.9 137.7 83 33 131.3 127.9 110 224.9-18.1 82.3-80.9 142.2-153.8 155.6-1.1 9.2-2 18.3-3.3 27.4-3.5 24.7-8.4 49.2-13.3 73.8q10.4-0.7 20.7-2.3c0.3 1.5 0.6 3 1.1 4.4 8 28.5 31.7 48.4 80.7 32.8 27.2-8.6 24.3-38.9 16.3-67.4-0.4-1.5-0.9-3-1.4-4.4 12.7-7.5 24.9-16 36.5-25.5 1 1.1 2 2.2 3 3.3 20.4 19.9 72.3 17.1 91.5-5.4 19.2-22.6-1.6-56.3-21.9-76.3-1-1-2.1-1.9-3.2-2.8 7.7-13.1 14.5-26.9 20.3-41.4 1.4 0.5 2.7 0.9 4.2 1.2 27.2 5.9 54.5-13.1 61-42.6 6.4-29.5-10.4-58.2-37.6-64.2-1.4-0.3-2.8-0.5-4.3-0.7 0.8-15.5 0.4-30.9-1.1-46.1 1.3-0.3 2.7-0.7 4.1-1.2z"/>
				<path id="&lt;Compound Path&gt;" fill-rule="evenodd" class="s8" d="m1261.8 541.1c-5.9 14.4-12.7 28.2-20.4 41.3 1.1 0.9 2.2 1.9 3.2 2.9 20.4 19.9 21.3 54.3 2.1 76.8-19.2 22.6-51.3 24.7-71.6 4.8-1.1-1-2.1-2.1-3-3.2-11.6 9.4-23.8 18-36.6 25.5 0.5 1.4 1 2.8 1.5 4.3 8 28.5-7.3 59.4-34.1 69-26.8 9.5-55-5.8-63-34.4-0.4-1.4-0.7-2.9-1-4.4-14.1 2.2-28.5 3.1-43 2.9-0.2 1.5-0.4 3-0.7 4.5-6.5 29.5-33.8 48.6-61 42.6-27.3-6-44.1-34.7-37.6-64.2 0.3-1.5 0.7-3 1.2-4.5-13.3-5.8-25.9-12.7-37.9-20.5-0.8 1.2-1.7 2.4-2.7 3.6-19.2 22.5-51.3 24.6-71.6 4.7-20.4-19.9-21.3-54.3-2.1-76.8 1-1.2 2.1-2.3 3.2-3.4-8.5-12.1-16-25-22.6-38.4-1.3 0.6-2.7 1.2-4.1 1.7-26.8 9.5-55-5.8-63-34.3-8-28.6 7.2-59.4 34-69 1.4-0.5 2.8-0.9 4.2-1.2-1.5-15.2-1.9-30.6-1.2-46.1-1.4-0.2-2.8-0.4-4.2-0.7-27.3-6-44.1-34.7-37.6-64.2 6.4-29.5 33.7-48.5 61-42.6 1.4 0.3 2.7 0.7 4.1 1.2 5.9-14.5 12.7-28.3 20.4-41.4-1.1-0.9-2.2-1.8-3.3-2.8-20.3-20-21.2-54.4-2-76.9 19.2-22.6 51.3-24.7 71.6-4.8 1.1 1.1 2 2.2 3 3.3 11.6-9.5 23.8-18 36.5-25.5-0.5-1.4-1-2.9-1.4-4.4-8-28.5 7.2-59.4 34-68.9 26.8-9.6 55.1 5.8 63.1 34.3 0.4 1.4 0.7 2.9 1 4.4 14.1-2.1 28.5-3.1 42.9-2.8 0.2-1.5 0.5-3.1 0.8-4.6 6.5-29.5 33.8-48.5 61-42.6 27.2 6 44.1 34.8 37.6 64.2-0.3 1.6-0.8 3-1.2 4.5 13.2 5.8 25.9 12.7 37.8 20.5 0.9-1.2 1.8-2.4 2.8-3.5 19.2-22.6 51.2-24.7 71.6-4.8 20.3 19.9 21.2 54.3 2 76.9-1 1.1-2 2.2-3.1 3.3 8.4 12.1 16 25 22.5 38.5 1.4-0.6 2.7-1.2 4.1-1.7 26.8-9.6 55 5.8 63.1 34.3 8 28.5-7.3 59.4-34.1 68.9-1.3 0.5-2.7 0.9-4.1 1.3 1.5 15.1 1.9 30.5 1.2 46.1 1.4 0.1 2.8 0.3 4.2 0.6 27.2 6 44.1 34.8 37.6 64.2-6.5 29.5-33.8 48.6-61 42.6-1.4-0.3-2.8-0.7-4.1-1.1zm-73.3-71.8c23.5-107.1-37.6-211.4-136.5-233.1-98.8-21.7-198 47.5-221.4 154.6-23.5 107 37.6 211.3 136.4 233 98.9 21.7 198-47.5 221.5-154.5z"/>
			</g>
			<g id="&lt;Group&gt;">
				<path id="&lt;Compound Path&gt;" fill-rule="evenodd" class="s9" d="m1108.7 1092.2c-5.5 7.4-11.5 14.3-17.9 20.7q0.8 1 1.5 2.1c8.7 14.5 4.1 34.4-10.3 44.5-14.4 10.1-33.1 6.5-41.9-8q-0.6-1.1-1.2-2.3c-8.1 3.7-16.4 6.8-24.8 9.2q0.2 1.4 0.2 2.7c0.3 17.6-13 33.1-29.8 34.6-16.9 1.5-30.8-11.6-31.2-29.1q0-1.4 0.1-2.7-12.6-1.3-25.1-4.8-0.5 1.3-1.1 2.5c-8.1 16-26.6 22.9-41.4 15.4-14.7-7.5-20.1-26.5-12-42.5q0.6-1.2 1.3-2.4-6.7-5.3-12.8-11.3c-14.9 8.1-41.5 1.4-49.8-12.4-8.7-14.5-4.1-34.4 10.3-44.5q1.1-0.8 2.3-1.5c-3.1-8.2-5.5-16.7-7.2-25.4q-1.3 0.2-2.6 0.4c-16.9 1.5-30.8-11.6-31.1-29.2-0.4-17.5 13-33 29.8-34.5q1.3-0.1 2.5-0.1c1.4-8.9 3.5-17.8 6.2-26.6q-1.1-0.5-2.3-1.1c-14.7-7.5-20.1-26.5-12-42.5 8.1-15.9 26.6-22.8 41.4-15.3q1.1 0.6 2.2 1.3c5.5-7.5 11.5-14.4 17.8-20.8q-0.7-1-1.4-2.1c-8.7-14.5-4.1-34.4 10.3-44.5 14.4-10.1 33.1-6.5 41.9 8q0.6 1.1 1.2 2.3c8.1-3.7 16.4-6.8 24.8-9.2q-0.2-1.3-0.2-2.7c-0.3-17.6 12.1-33.6 48.9-32.9 16.9 0.4 11.7 9.9 12 27.4q0.1 1.4 0 2.7 12.6 1.4 25.1 4.8 0.5-1.2 1.1-2.5c8.1-16 22.9-30.3 57.2-13.5 14.9 7.2 4.3 24.7-3.8 40.6q-0.6 1.3-1.4 2.4 10.2 8 18.7 17.5 1-0.9 2.1-1.7c14.4-10.1 33.2-6.5 41.9 8 8.7 14.4 4.1 34.3-10.3 44.4q-1.1 0.8-2.3 1.5c3.1 8.2 5.5 16.7 7.2 25.4q1.3-0.2 2.6-0.3c16.9-1.5 30.8 11.5 31.1 29.1 0.4 17.5-13 33-29.8 34.5q-1.3 0.1-2.6 0.1c-1.3 8.9-3.4 17.8-6.1 26.7q1.1 0.4 2.3 1c14.7 7.5 20.1 26.5 12 42.5-8.1 15.9-26.6 22.8-41.4 15.3q-1.1-0.6-2.2-1.2zm-244.2 27.3c0.6-0.4-5.5-3-7.5-4.2q2.6 2.8 5.3 5.5 1.2-0.6 2.2-1.3zm-7.5-4.2q-0.2-0.3-0.5-0.6c-0.2 0.1 0.1 0.3 0.5 0.6zm220.3-75.3c29.5-58 9.9-127.1-43.6-154.2-53.6-27.2-120.9-2.3-150.3 55.7-29.5 58-9.9 127.1 43.6 154.3 53.6 27.2 120.9 2.2 150.3-55.8z"/>
				<path id="&lt;Path&gt;" class="s10" d="m1146.7 1007.8c16.8-1.5 30.2-17 29.8-34.5-0.3-17.6-14.2-30.6-31.1-29.1q-1.3 0.1-2.6 0.3c-1.7-8.7-4.1-17.2-7.2-25.4q1.2-0.7 2.3-1.5c14.4-10.1 32.2-34.4 22.1-47.9-19.3-25.7-39.3-14.6-53.7-4.5q-1.1 0.8-2.1 1.7-8.5-9.5-18.7-17.5 0.8-1.1 1.4-2.4c4.4-8.7 4.8-18.2 1.9-26.4-13.9 24.5-27.6 49.1-41.1 73.8 42.7 31.3 56.3 93 29.6 145.6-22.6 44.6-67.6 69.6-111.5 66.5-2 5.1-3.9 10.2-6 15.2-5.7 13.7-12.2 27-18.6 40.4q6.1 1.1 12.2 1.8-0.1 1.3-0.1 2.7c0.4 17.5 11.1 32.5 41.6 30.9 16.8-0.9 19.7-18.8 19.4-36.4q0-1.3-0.2-2.7c8.4-2.4 16.7-5.5 24.8-9.2q0.6 1.2 1.2 2.3c8.8 14.5 39 20.7 53.4 10.6 14.4-10.1 7.5-32.6-1.2-47.1q-0.7-1.1-1.5-2.1c6.4-6.4 12.4-13.3 17.9-20.7q1.1 0.6 2.2 1.2c14.8 7.5 33.3 0.6 41.4-15.3 8.1-16 2.7-35-12-42.5q-1.2-0.6-2.3-1c2.7-8.9 4.8-17.8 6.1-26.7q1.3 0 2.6-0.1z"/>
				<path id="&lt;Compound Path&gt;" fill-rule="evenodd" class="s11" d="m1124.6 1094c-5.5 7.4-11.5 14.3-17.9 20.7q0.8 1 1.4 2.1c8.8 14.5 4.2 34.4-10.2 44.5-14.4 10.1-33.2 6.5-41.9-8q-0.7-1.1-1.2-2.3c-8.1 3.8-16.4 6.8-24.8 9.2q0.1 1.4 0.2 2.7c0.3 17.6-13 33.1-29.9 34.6-16.8 1.5-30.7-11.5-31.1-29.1q0-1.4 0.1-2.7-12.7-1.3-25.1-4.8-0.5 1.3-1.1 2.5c-8.1 16-26.7 22.9-41.4 15.4-14.8-7.5-20.2-26.5-12-42.5q0.6-1.2 1.3-2.4-10.1-8-18.7-17.4-1 0.8-2.1 1.6c-14.4 10.1-33.1 6.5-41.8-7.9-8.8-14.5-4.2-34.4 10.2-44.5q1.2-0.8 2.3-1.4c-3-8.3-5.4-16.8-7.2-25.5q-1.2 0.2-2.6 0.4c-16.8 1.5-30.7-11.6-31.1-29.1-0.3-17.6 13-33.1 29.9-34.6q1.2-0.1 2.5-0.1c1.4-8.9 3.5-17.8 6.2-26.6q-1.2-0.5-2.3-1.1c-14.8-7.5-20.2-26.5-12-42.5 8.1-15.9 26.6-22.8 41.3-15.3q1.2 0.6 2.2 1.3c5.6-7.5 11.5-14.4 17.9-20.8q-0.7-1-1.4-2.1c-8.7-14.5-4.1-34.4 10.3-44.5 14.4-10 33.1-6.5 41.8 8q0.7 1.1 1.3 2.3c8-3.7 16.3-6.8 24.8-9.2q-0.2-1.3-0.2-2.7c-0.4-17.6 13-33.1 29.8-34.6 16.8-1.5 30.8 11.6 31.1 29.2q0 1.3-0.1 2.6c8.5 0.9 16.9 2.5 25.1 4.8q0.5-1.2 1.2-2.5c8.1-16 26.6-22.8 41.3-15.3 14.8 7.4 20.2 26.5 12.1 42.4q-0.7 1.3-1.4 2.4 10.1 8 18.7 17.5 1-0.9 2.1-1.7c14.4-10.1 33.1-6.5 41.9 8 8.7 14.4 4.1 34.3-10.3 44.4q-1.2 0.8-2.3 1.5c3 8.2 5.4 16.7 7.2 25.4q1.3-0.2 2.6-0.3c16.8-1.5 30.7 11.5 31.1 29.1 0.4 17.6-13 33-29.8 34.5q-1.3 0.1-2.6 0.1c-1.4 8.9-3.4 17.8-6.2 26.7q1.2 0.4 2.3 1c14.8 7.5 20.2 26.5 12.1 42.5-8.1 16-26.7 22.8-41.4 15.3q-1.2-0.6-2.2-1.2zm-31.4-52.2c29.4-58 9.9-127.1-43.7-154.2-53.5-27.2-120.8-2.3-150.3 55.7-29.4 58-9.9 127.1 43.7 154.3 53.6 27.2 120.8 2.2 150.3-55.8z"/>
			</g>
			<g id="&lt;Group&gt;">
				<path id="&lt;Path&gt;" class="s12" d="m854.5 1251.4l-750.4 54v-1057.2l750.4 28.6z"/>
				<path id="&lt;Path&gt;" class="s13" d="m912.3 1192.1l-740.2 50.5v-1051.6l740.2 32.8z"/>
				<g id="&lt;Group&gt;">
					<path id="&lt;Path&gt;" class="s14" d="m493.6 575.6v187.1l21.6-0.3v33.2l-21.6 0.5v16.6l21.6-0.5v19.2l-21.6 0.5v26.9l10.2-0.2v34.5l-10.2 0.4v15.3l19.9-0.6v41.2l-19.9 0.7v31.8l21.6-0.9v33.9l-21.6 0.9v39.6c0 4.6 1.8 9.1 5 12.4l52 53.7c6.5 6.7 17.2 7.6 25.4 2.1l34.7-23.2c5.7-3.7 9.1-9.9 9.1-16.4v-469.9z"/>
					<path id="&lt;Compound Path&gt;" fill-rule="evenodd" class="s15" d="m764.8 502.7c0 110.3-91.8 200.6-207.7 201.7-118.9 1.2-217.5-91.5-217.5-207 0-115.5 98.6-205.7 217.5-201.5 115.9 4 207.7 96.6 207.7 206.8zm-164.8-93.2c0-22.8-19.2-41.7-42.9-42.3-23.8-0.7-43.2 17.4-43.2 40.4 0 22.9 19.4 41.9 43.2 42.3 23.7 0.4 42.9-17.7 42.9-40.4z"/>
					<path id="&lt;Compound Path&gt;" fill-rule="evenodd" class="s16" d="m619.8 694.7v389.3c0 6.5-3.4 12.7-9.1 16.4l-34.7 23.2c-5.2 3.5-11.5 4.4-17.1 2.8-17.1-43.2-16.6-77-11.1-102.1 6.2-28.3 17.6-40.6 18.6-74.6 1.3-48.5-21.1-54.2-26.5-106.1-6.6-61.9 21.3-91.4 1.3-113.5-7.1-7.9-20.5-15-47.6-14.2v-20.1c-88.6-25.4-154-104.5-154-198.4 0-115.5 98.6-205.7 217.5-201.5 115.9 4 207.7 96.6 207.7 206.8 0 89.7-60.4 165.9-145 192zm-105.9-287.1c0 22.9 19.4 41.9 43.2 42.3 23.7 0.4 42.9-17.7 42.9-40.4 0-22.8-19.2-41.7-42.9-42.3-23.8-0.7-43.2 17.4-43.2 40.4z"/>
					<path id="&lt;Compound Path&gt;" fill-rule="evenodd" class="s17" d="m724.8 502.2c0 89.1-74.3 161.6-167.7 162.1-95.3 0.6-174-73.9-174-166.3 0-92.4 78.7-164.9 174-162 93.4 2.8 167.7 77.2 167.7 166.2zm-124.8-92.7c0-22.8-19.2-41.7-42.9-42.3-23.8-0.7-43.2 17.4-43.2 40.4 0 22.9 19.4 41.9 43.2 42.3 23.7 0.4 42.9-17.7 42.9-40.4z"/>
				</g>
			</g>
			<g id="&lt;Group&gt;">
				<path id="&lt;Compound Path&gt;" fill-rule="evenodd" class="s18" d="m396.9 1274.6q-6.3 8.4-13.5 15.6 0.6 0.8 1.1 1.6c6.6 10.9 3.1 25.8-7.7 33.4-10.8 7.6-24.9 4.9-31.5-5.9q-0.5-0.9-0.9-1.8-9.1 4.2-18.6 6.9 0.1 1 0.1 2.1c0.3 13.2-9.8 24.8-22.4 25.9-12.7 1.2-23.1-8.6-23.4-21.8q0-1.1 0.1-2.1-9.6-1-18.9-3.6-0.4 1-0.8 1.9c-6.1 12-20.1 17.2-31.2 11.6-11-5.7-15.1-20-9-32q0.5-0.9 1-1.8-5-4-9.6-8.4c-11.2 6-31.2 1-37.5-9.4-6.5-10.9-3-25.8 7.8-33.4q0.8-0.6 1.7-1.1-3.4-9.3-5.4-19.1-1 0.1-2 0.2c-12.6 1.2-23.1-8.6-23.3-21.8-0.3-13.2 9.7-24.9 22.4-26q0.9-0.1 1.9-0.1 1.6-10 4.6-20-0.8-0.3-1.7-0.8c-11.1-5.6-15.1-19.9-9-31.9 6.1-12 20-17.2 31.1-11.5q0.8 0.4 1.6 0.9 6.3-8.4 13.4-15.6-0.5-0.7-1-1.6c-6.6-10.8-3.1-25.8 7.7-33.4 10.8-7.6 24.9-4.9 31.5 6q0.5 0.8 0.9 1.7 9.1-4.2 18.6-6.9-0.1-1-0.1-2c-0.3-13.2 9.1-25.3 36.7-24.7 12.7 0.2 8.8 7.4 9.1 20.6q0 1-0.1 2 9.5 1 18.9 3.6 0.4-1 0.8-1.9c6.1-12 17.2-22.8 43.1-10.2 11.1 5.5 3.2 18.6-2.9 30.6q-0.5 0.9-1 1.8 7.6 6 14 13.1 0.8-0.6 1.6-1.2c10.8-7.6 24.9-4.9 31.4 5.9 6.6 10.9 3.1 25.9-7.7 33.5q-0.8 0.5-1.7 1 3.4 9.3 5.4 19.2 1-0.2 2-0.3c12.6-1.1 23.1 8.7 23.3 21.9 0.3 13.2-9.7 24.8-22.4 25.9q-0.9 0.1-1.9 0.1-1.6 10.1-4.7 20 0.9 0.4 1.8 0.8c11.1 5.6 15.1 19.9 9 31.9-6.1 12-20 17.2-31.1 11.6q-0.8-0.5-1.6-1zm-183.6 20.6c0.5-0.4-4.1-2.3-5.6-3.2q2 2.1 4 4.2 0.8-0.5 1.6-1zm-5.6-3.2q-0.2-0.2-0.4-0.5c-0.1 0.1 0.1 0.3 0.4 0.5zm165.6-56.6c22.1-43.6 7.4-95.5-32.8-115.9-40.3-20.4-90.9-1.7-113 41.9-22.1 43.6-7.4 95.5 32.8 115.9 40.3 20.5 90.8 1.7 113-41.9z"/>
				<path id="&lt;Path&gt;" class="s19" d="m425.4 1211.2c12.7-1.1 22.7-12.7 22.4-25.9-0.2-13.2-10.7-23-23.3-21.9q-1 0.1-2 0.3-2-9.9-5.4-19.2 0.9-0.5 1.7-1c10.8-7.6 24.2-26 16.6-36.1-14.5-19.3-29.5-10.9-40.3-3.3q-0.8 0.6-1.6 1.2-6.4-7.1-14-13.1 0.5-0.9 1-1.8c3.3-6.5 3.6-13.7 1.4-19.9q-15.7 27.6-30.9 55.5c32.1 23.5 42.3 69.9 22.3 109.4-17 33.5-50.8 52.3-83.9 50-1.4 3.8-2.9 7.6-4.4 11.4-4.3 10.3-9.2 20.3-14.1 30.4q4.6 0.9 9.3 1.3-0.1 1-0.1 2.1c0.3 13.2 8.3 24.4 31.2 23.2 12.7-0.7 14.9-14.1 14.6-27.3q0-1.1-0.1-2.1 9.5-2.7 18.6-6.9 0.4 0.9 0.9 1.8c6.6 10.8 29.3 15.5 40.1 7.9 10.9-7.6 5.7-24.5-0.9-35.4q-0.5-0.8-1.1-1.6 7.2-7.2 13.5-15.6 0.8 0.5 1.6 1c11.1 5.6 25 0.4 31.1-11.6 6.1-12 2.1-26.3-9-31.9q-0.9-0.4-1.8-0.8 3.1-9.9 4.7-20 1 0 1.9-0.1z"/>
				<path id="&lt;Compound Path&gt;" fill-rule="evenodd" class="s20" d="m408.8 1276q-6.2 8.4-13.4 15.6 0.5 0.7 1 1.6c6.6 10.8 3.1 25.8-7.7 33.4-10.8 7.6-24.9 4.9-31.4-6q-0.5-0.8-1-1.7-9.1 4.2-18.6 6.9 0.1 1 0.1 2c0.3 13.2-9.7 24.9-22.4 26-12.6 1.1-23.1-8.7-23.4-21.9q0-1 0.1-2-9.5-1-18.9-3.6-0.4 0.9-0.8 1.9c-6.1 12-20 17.2-31.1 11.5-11.1-5.6-15.2-19.9-9.1-31.9q0.5-0.9 1.1-1.8-7.7-6-14.1-13.1-0.7 0.6-1.6 1.2c-10.8 7.6-24.9 4.9-31.4-5.9-6.6-10.9-3.1-25.9 7.7-33.5q0.9-0.5 1.7-1-3.4-9.3-5.4-19.2-1 0.2-1.9 0.3c-12.7 1.1-23.2-8.7-23.4-21.9-0.3-13.2 9.7-24.8 22.4-25.9q1-0.1 1.9-0.1 1.6-10.1 4.7-20-0.9-0.4-1.8-0.8c-11.1-5.6-15.1-19.9-9-31.9 6.1-12.1 20-17.2 31.1-11.6q0.8 0.5 1.6 1 6.3-8.4 13.5-15.6-0.6-0.8-1.1-1.6c-6.6-10.9-3.1-25.9 7.7-33.4 10.8-7.6 24.9-4.9 31.5 5.9q0.5 0.9 0.9 1.8 9.1-4.2 18.7-6.9-0.2-1-0.2-2.1c-0.3-13.2 9.8-24.8 22.4-25.9 12.7-1.2 23.1 8.6 23.4 21.8q0 1.1 0 2.1 9.5 0.9 18.8 3.6 0.4-1 0.9-1.9c6.1-12 20-17.2 31.1-11.6 11.1 5.7 15.1 19.9 9 32q-0.5 0.9-1 1.8 7.6 6 14 13.1 0.8-0.7 1.6-1.3c10.8-7.6 24.9-4.9 31.5 6 6.5 10.9 3.1 25.8-7.8 33.4q-0.8 0.6-1.7 1.1 3.4 9.3 5.4 19.1 1-0.2 2-0.2c12.6-1.2 23.1 8.6 23.4 21.8 0.2 13.2-9.8 24.9-22.5 26q-0.9 0.1-1.9 0.1-1.5 10-4.6 20 0.9 0.3 1.7 0.8c11.1 5.6 15.2 19.9 9.1 31.9-6.1 12-20.1 17.2-31.1 11.5q-0.9-0.4-1.7-0.9zm-23.6-39.2c22.1-43.6 7.4-95.5-32.8-115.9-40.3-20.5-90.8-1.7-113 41.9-22.1 43.6-7.4 95.5 32.9 115.9 40.2 20.4 90.8 1.7 112.9-41.9z"/>
			</g>
			<g id="&lt;Group&gt;">
				<g id="&lt;Group&gt;">
					<g id="&lt;Group&gt;">
						<path id="&lt;Path&gt;" class="s21" d="m379 845.4c6.7-4.4 0.6-17.2 0.2-44.6-0.5-33.6 8.5-39.9 1.3-53.1-8.8-16.1-30.8-22.8-45.4-23.1-3.3 0-4-1.8-31 5.2-48.7 12.6-60.9-0.9-82.7 12.6-21 13-11.8 27.3-32.2 42.6-33.2 24.8-68-2-91.7 18.7-22.4 19.6-22.9 69.6 0.6 96.9 26.7 30.9 74.9 21.6 107.2 15.4 6.8-1.2 41.1-8.4 76.8-34.8 19.8-14.6 33.3-30.2 42-41.7 2-2.2 5.2-5 9.3-5.4 5.1-0.6 9.1 2.5 11 3.8 10.2 7.1 27.9 11.8 34.6 7.5z"/>
						<path id="&lt;Path&gt;" class="s22" d="m351.8 826.9c8.7-7.9 39.7 7.4 60.3 27.7 24.2 23.8 22.3 43.1 43.4 72.7 10.5 14.7 28.5 34.6 60.4 51.9q-3.4 8.5-6.8 16.9c-15.4 1-45.7 0.4-73.9-18-19.6-12.8-29.7-29.8-49-63.2-19.5-33.5-45.3-78.1-34.4-88z"/>
						<path id="&lt;Path&gt;" class="s23" d="m547.9 1280.2l-24.2-14.6h-11c0 0-3.7 13.9-3.3 14.6 4.9 8 27.6 14 41.7 14.5 2.4 0.1 5.7 0.1 6.5-1.6 1.5-2.9-5-8.9-9.7-12.9z"/>
						<path id="&lt;Path&gt;" class="s24" d="m523.2 1249.7c-1.5 9 0.4 13.7 2.6 16.4 1.5 1.8 2.8 2.3 11.7 10 2.9 2.5 4.4 3.9 4.1 4.6-0.4 0.8-3 0.4-8.6-1-12.2-2.9-18.3-4.4-19.8-7.3-1.4-2.7-0.2-3.9-0.3-11.1 0-4.8-1-8.6-1.7-11q6-0.3 12-0.6z"/>
						<path id="&lt;Path&gt;" class="s25" d="m540.8 1178.2c0 0 10.9 13.1 9.1 27.4-1.8 14.3-20.9-6.6-23.6-13.7-2.7-7.1-5.8-17.1-5.8-17.1 0 0 13.4-8.4 20.3 3.4z"/>
						<path id="&lt;Path&gt;" class="s26" d="m536.6 1157.8c0 0-3 15.2 2.7 23.2 2.8 4 6.6 7.4 5.5 10.7-0.8 2.2-3.6 3.7-6 3.5-4.7-0.5-7.2-7.6-9-12.6-2.7-7.3-4.2-23.1-4.2-23.1z"/>
						<path id="&lt;Path&gt;" class="s27" d="m527.8 1170.6q5.1-1.8 10.2-3.7c5.2-12 11.6-31.7 9.5-55.7-5.5-61.6-62.5-94.2-68.9-97.7-15.5 7.8-31.2 18.7-31.8 32.6-0.7 17.4 23 26.6 45.3 52 13.3 15.3 27.6 38 35.7 72.5z"/>
						<path id="&lt;Path&gt;" class="s28" d="m524.2 1256.7c11.1-43.4 8.3-78.9 5.1-99.4-4.9-30.8-14.7-93.7-56.7-117.1-9.1-5.1-22.2-9.7-38.2-23.9-13.3-11.9-21.8-24.4-26.9-33.2-56.1-16.5-107.9-9.8-130.7 20.3-2.6 3.5-9.2 11-10.5 22.1-2.9 25.1 21.7 55.3 49.4 61.6 35.2 8.1 55.6-28.1 86.7-16 8.7 3.3 16.1 11.6 30.9 28.3 18.8 21.2 29.3 40.7 33.3 48.6 11.9 23.2 21 40.4 22.3 62.7 0.3 5.2 0.5 15.7 6.6 27 4.6 8.7 10.9 14.5 15.7 18.1q6.5 0.5 13 0.9z"/>
						<path id="&lt;Path&gt;" class="s29" d="m266.3 1025.5c1.3-11.1 7.9-18.6 10.5-22.1 22.8-30.1 74.6-36.8 130.7-20.3 5.1 8.8 13.6 21.3 26.9 33.2 16 14.2 29.1 18.8 38.2 23.9 25.6 14.3 39.3 43.3 47.1 70.7-11.6-18-21.6-22.8-29.3-22.9-11.1-0.1-16 9.3-29.2 8-14.1-1.4-17.3-13-28.8-14.4-3.4-0.4-7.6 0.2-12.7 2.9-6.7-7.1-11.7-11.3-17.3-13.4-31.1-12.1-51.5 24.1-86.7 16-27.7-6.3-52.3-36.5-49.4-61.6z"/>
						<path id="&lt;Path&gt;" class="s30" d="m495.1 1059.6c-6.3-0.3-16.1-0.5-27.9 0.7-56 5.5-71.4 33.2-117.7 39.9-10.9 1.6-59.6 8.8-80.7-19.4-15.2-20.2-12.9-55.1 3.7-68.8 7-5.8 13.9-5.6 58.9-5.2 16.9 0.1 33.8 0.2 50.7 0.4 71.6 0.9 85.3-4.1 98.3 7.8 6.1 5.5 15 17.4 14.7 44.6z"/>
						<g id="&lt;Group&gt;">
							<g id="&lt;Group&gt;">
								<path id="&lt;Path&gt;" class="s31" d="m344 829.8c0 0-83.6-24.3-92.3 36.9-8.3 58.6 34.3 85.5 14.9 144.9-2.2 6.9 159.1-24.7 159.1-24.7-21.5-26.8-26.5-49-27.1-64.4-0.5-16.9 4.3-24.6 0-44.5 0 0-4.8-22.3-22.1-41.5-2.5-2.7-5.4-5.6-32.5-6.7z"/>
							</g>
							<path id="&lt;Path&gt;" class="s32" d="m290.5 998.9l-0.4-1.6c0.8-0.2 79-21 125.3-23.6l0.1 1.6c-46.2 2.6-124.2 23.4-125 23.6z"/>
						</g>
						<g id="&lt;Group&gt;">
							<path id="&lt;Path&gt;" class="s33" d="m325.8 793.2c0.8 3.6 4.7 22.7-3.2 27.7-1.7 1.1-4.9 1.7-11.5 2.9-4.3 0.8-7.9 1.3-10.4 1.6 0.4 3.2 1.5 8.4 5.2 13.2 10.4 13.4 31.3 9.9 34.2 9.4 10.5-1.9 20.9-5.2 23.4-7.2 3.8-3 6.7-5.3 8.5-7.6-4-1.9-12.3-7.1-17.8-8.8-4.1-1.3-7.9-2.2-11.4-2.8q-0.9-5.6-1.8-11.1-7.6-8.7-15.2-17.3z"/>
							<path id="&lt;Path&gt;" class="s34" d="m325.5 802.7c0 0 1.4 14.1 15 16.6 12.3 2.2 21.5-27.4 15.2-35-2.1-2.6-7.2-5-11.7-4.9-3.1 0.1-13.8 4.2-15.2 14.8-2.2-2.2-4.8-2.9-6.1-2-1.6 1.2-0.8 4.7-0.6 5.5 0.7 2.7 2.5 4.3 3.4 5z"/>
						</g>
					</g>
				</g>
				<g id="&lt;Group&gt;">
					<path id="&lt;Path&gt;" class="s35" d="m442.7 993.8l-127.9 6.2c-1.7 0.1-3.3 1.1-4.3 2.6l-3.5 5.6c-1.8 2.9 0.4 6.5 3.7 6.4l135.5-5.2z"/>
					<path id="&lt;Path&gt;" class="s36" d="m575.8 922.6l-132.2 2.6c-3.9 0-7.5 2.2-9.4 5.6l-45.8 80.5 139.6-5.6c3.8-0.1 7.3-2.2 9.3-5.5l42.4-70.8c1.8-3.1-0.4-6.9-3.9-6.8z"/>
					<path id="&lt;Path&gt;" class="s37" d="m434.2 930.8c1.9-3.4 5.5-5.6 9.4-5.6l2.9-0.1c0.4 4.3 1.8 8.2 4.4 11.3 8.1 9.8 21.6 3.8 31.7 14.2 11.1 11.4 0.9 25 10.8 35.7 10.4 11.2 27.3 2.1 46.7 9.2l-2.8 4.7c-2 3.3-5.5 5.4-9.3 5.5l-139.6 5.6z"/>
				</g>
				<g id="&lt;Group&gt;">
					<path id="&lt;Path&gt;" class="s38" d="m325.3 989.5q2.5-6.5 4.9-13.1c-18.4-5.1-43.8-12.5-69.9-21.9-4.1-1.4-8.9-3.2-10.5-7.5-4.5-12.1 23.9-24.6 34.9-51 10.2-24.3 4.6-58.1-7.2-62.1-24.7-8.4-112 100.4-80.8 146.2 17.6 26 72 30.1 128.6 9.4z"/>
				</g>
				<path id="&lt;Path&gt;" class="s39" d="m330.2 976.4c11.6-6.2 25.4 0.1 26.3 0.5 2.6 1.2 6.2 3.4 10 7.2 0.4 0.6 5.4 7.5 3.6 9.7-1.5 1.8-7.1 0.3-14-3.9-2.8-0.4-7.1-0.8-12.1-0.3-9.4 0.9-13.7 3.8-17.1 1.3-2.5-1.9-3.3-5.9-2.4-8.8 1-3.1 3.8-4.7 5.7-5.7z"/>
			</g>
		</g>
	</g>
</svg>