<svg xmlns="http://www.w3.org/2000/svg" xmlns:xlink="http://www.w3.org/1999/xlink" width="700" zoomAndPan="magnify" viewBox="0 0 525 525.000007" height="700" preserveAspectRatio="xMidYMid meet" version="1.0"><defs><clipPath id="be5c14b451"><path d="M 75 68.765625 L 402 68.765625 L 402 329 L 75 329 Z M 75 68.765625 " clip-rule="nonzero"/></clipPath></defs><path fill="#6946dd" d="M 123.433594 150.363281 C 124.371094 146.71875 123.535156 142.136719 119.371094 140.992188 C 115.9375 140.054688 112.191406 142.761719 109.378906 144.21875 C 106.984375 145.46875 104.382812 146.40625 101.886719 147.65625 C 95.535156 150.675781 89.914062 155.363281 86.0625 161.296875 C 85.230469 162.546875 84.5 164.003906 84.292969 165.460938 C 84.085938 167.023438 84.605469 168.691406 85.960938 169.523438 C 87.3125 170.355469 89.1875 170.148438 90.539062 169.316406 C 91.996094 168.585938 93.140625 167.335938 94.390625 166.398438 C 99.59375 162.339844 106.570312 161.816406 112.605469 159.214844 C 114.898438 158.277344 116.980469 157.027344 119.164062 155.675781 C 120.207031 155.050781 121.246094 154.425781 121.976562 153.382812 C 122.808594 152.550781 123.222656 151.507812 123.433594 150.363281 Z M 32.558594 211.074219 C 32.558594 211.074219 35.265625 213.15625 38.390625 216.589844 L 171.210938 139.949219 C 181.410156 134.015625 194.109375 134.015625 204.3125 139.949219 L 485.675781 302.394531 C 494.9375 289.277344 522.941406 295.417969 522.941406 295.417969 L 522.941406 329.679688 C 522.835938 332.804688 521.273438 335.824219 518.253906 337.59375 L 356.601562 431 C 343.589844 438.496094 327.558594 438.496094 314.441406 431 L 8.304688 254.183594 C 4.558594 251.996094 2.582031 248.246094 2.476562 244.394531 L 2.476562 210.136719 Z M 32.558594 211.074219 " fill-opacity="1" fill-rule="nonzero"/><path fill="#182d88" d="M 441.121094 372.164062 C 442.164062 371.125 442.789062 369.769531 442.789062 368.207031 L 442.789062 361.023438 C 442.789062 359.148438 440.707031 357.898438 439.039062 358.835938 L 428.527344 364.875 L 423.21875 375.082031 C 426.339844 374.976562 440.808594 372.476562 441.121094 372.164062 Z M 391.46875 323.742188 C 400.527344 318.535156 419.160156 317.183594 428.320312 322.390625 C 433.835938 325.617188 437.269531 335.925781 432.378906 338.007812 C 431.652344 335.300781 429.464844 332.699219 425.925781 330.617188 C 416.871094 325.410156 401.984375 325.410156 392.824219 330.617188 C 389.179688 332.699219 387.097656 335.300781 386.371094 338.007812 C 381.476562 335.925781 385.953125 326.972656 391.46875 323.742188 Z M 33.183594 214.613281 L 302.160156 374.558594 L 472.871094 278.238281 L 203.0625 122.246094 C 194.214844 117.144531 181.515625 115.582031 172.667969 120.6875 L 33.183594 203.054688 C 28.707031 205.65625 28.707031 212.113281 33.183594 214.613281 Z M 354.726562 317.808594 L 432.378906 272.925781 L 442.683594 278.863281 L 365.03125 323.742188 Z M 154.765625 244.289062 L 255.214844 186.183594 C 263.75 186.601562 272.285156 186.394531 280.714844 185.144531 L 166.628906 251.058594 Z M 145.605469 210.136719 L 198.796875 179.417969 C 203.480469 180.664062 208.269531 181.1875 213.054688 181.707031 C 214.511719 181.914062 216.074219 182.019531 217.53125 182.226562 L 157.367188 216.902344 Z M 145.605469 210.136719 " fill-opacity="1" fill-rule="nonzero"/><path fill="#f7f5fa" d="M 402.296875 261.992188 L 411.664062 267.304688 L 409.375 268.65625 C 409.167969 268.761719 409.167969 268.867188 409.167969 268.867188 C 409.167969 268.96875 409.167969 268.96875 409.269531 269.074219 C 409.375 269.179688 409.480469 269.179688 409.582031 269.179688 C 409.6875 269.179688 409.894531 269.074219 410 269.074219 L 415.308594 265.949219 C 415.515625 265.847656 415.515625 265.742188 415.515625 265.742188 C 415.515625 265.636719 415.515625 265.636719 415.410156 265.535156 C 415.308594 265.429688 415.203125 265.429688 415.101562 265.429688 C 414.996094 265.429688 414.789062 265.535156 414.683594 265.535156 L 412.394531 266.886719 L 403.960938 262.097656 L 406.875 261.160156 C 406.980469 261.160156 407.085938 261.054688 407.1875 261.054688 C 407.292969 261.054688 407.292969 260.953125 407.292969 260.847656 C 407.292969 260.742188 407.292969 260.742188 407.1875 260.640625 C 407.085938 260.640625 406.980469 260.535156 406.875 260.535156 C 406.773438 260.535156 406.667969 260.535156 406.460938 260.640625 Z M 393.863281 271.78125 L 395.53125 272.71875 C 396.988281 273.550781 398.445312 273.96875 399.902344 274.074219 C 401.046875 274.175781 402.089844 273.96875 402.921875 273.449219 C 403.335938 273.238281 403.648438 272.925781 403.859375 272.613281 C 404.066406 272.300781 404.171875 271.988281 404.066406 271.675781 C 404.066406 271.46875 403.960938 271.261719 403.753906 270.949219 C 403.546875 270.636719 403.335938 270.324219 403.128906 270.117188 C 402.816406 269.804688 402.296875 269.492188 401.777344 269.074219 L 400.109375 268.136719 C 398.652344 267.304688 397.195312 266.886719 395.738281 266.78125 C 394.59375 266.679688 393.550781 266.886719 392.71875 267.40625 C 392.304688 267.617188 391.992188 267.929688 391.78125 268.242188 C 391.574219 268.554688 391.46875 268.867188 391.574219 269.179688 C 391.574219 269.386719 391.679688 269.59375 391.886719 269.90625 C 392.09375 270.21875 392.304688 270.53125 392.511719 270.738281 C 392.71875 271.15625 393.242188 271.46875 393.863281 271.78125 Z M 394.59375 271.46875 C 393.96875 271.15625 393.449219 270.738281 393.136719 270.324219 C 392.824219 269.90625 392.511719 269.59375 392.511719 269.28125 C 392.511719 269.074219 392.511719 268.867188 392.617188 268.65625 C 392.71875 268.34375 393.03125 268.136719 393.34375 267.929688 C 394.074219 267.511719 395.113281 267.40625 396.257812 267.511719 C 397.402344 267.71875 398.550781 268.03125 399.589844 268.65625 L 401.046875 269.492188 C 401.671875 269.804688 402.191406 270.21875 402.503906 270.636719 C 402.816406 271.050781 403.128906 271.363281 403.128906 271.78125 C 403.128906 271.988281 403.128906 272.199219 403.023438 272.300781 C 402.921875 272.613281 402.609375 272.824219 402.296875 273.03125 C 401.566406 273.449219 400.527344 273.550781 399.382812 273.449219 C 398.238281 273.238281 397.089844 272.925781 396.050781 272.300781 Z M 384.390625 277.40625 C 385.328125 277.507812 386.160156 277.613281 386.996094 277.507812 C 387.828125 277.40625 388.453125 277.195312 388.972656 276.882812 C 389.390625 276.570312 389.804688 276.257812 389.910156 275.84375 C 390.117188 275.425781 390.011719 275.007812 389.804688 274.59375 C 389.597656 274.175781 389.179688 273.761719 388.554688 273.449219 C 387.722656 273.03125 386.785156 272.71875 385.539062 272.613281 C 384.390625 272.511719 383.351562 272.71875 382.519531 273.238281 C 381.894531 273.550781 381.582031 274.074219 381.375 274.488281 C 381.269531 275.007812 381.375 275.53125 381.789062 276.050781 C 382.308594 276.78125 383.246094 277.507812 384.390625 278.132812 C 385.328125 278.652344 386.265625 279.070312 387.203125 279.175781 C 387.828125 279.277344 388.554688 279.382812 389.285156 279.382812 C 390.011719 279.382812 390.847656 279.277344 391.574219 279.175781 C 392.617188 278.964844 393.449219 278.652344 394.175781 278.238281 C 394.699219 277.925781 395.011719 277.71875 395.113281 277.40625 C 395.21875 277.300781 395.113281 277.195312 395.011719 277.09375 C 394.90625 277.09375 394.800781 276.988281 394.699219 276.988281 C 394.59375 276.988281 394.488281 276.988281 394.386719 277.09375 C 394.28125 277.09375 394.28125 277.195312 394.175781 277.300781 C 394.074219 277.507812 393.863281 277.613281 393.550781 277.820312 C 392.40625 278.445312 391.054688 278.863281 389.390625 278.863281 C 387.722656 278.863281 386.371094 278.550781 385.121094 277.820312 C 385.121094 277.820312 384.808594 277.71875 384.390625 277.40625 Z M 383.457031 276.675781 C 382.726562 275.945312 382.308594 275.320312 382.308594 274.800781 C 382.308594 274.382812 382.621094 273.96875 383.246094 273.65625 C 383.871094 273.34375 384.601562 273.136719 385.433594 273.136719 C 386.371094 273.136719 387.203125 273.34375 387.929688 273.761719 C 388.660156 274.175781 388.972656 274.59375 389.078125 275.113281 C 389.179688 275.632812 388.867188 276.050781 388.347656 276.363281 C 388.035156 276.570312 387.621094 276.675781 387.203125 276.78125 C 386.683594 276.882812 386.160156 276.882812 385.539062 276.882812 C 385.121094 276.988281 384.390625 276.882812 383.457031 276.675781 Z M 376.378906 282.609375 C 376.066406 283.132812 375.960938 283.546875 376.167969 283.964844 C 376.273438 284.382812 376.691406 284.695312 377.105469 285.007812 C 377.9375 285.421875 378.875 285.632812 380.019531 285.632812 C 381.164062 285.632812 382.207031 285.320312 383.039062 284.902344 C 383.871094 284.382812 384.390625 283.859375 384.390625 283.132812 C 384.390625 282.507812 384.082031 281.882812 383.246094 281.464844 C 382.726562 281.152344 382.101562 280.945312 381.375 280.945312 C 380.644531 280.839844 379.917969 280.945312 378.980469 281.050781 C 379.1875 280.632812 379.292969 280.214844 379.1875 279.902344 C 379.082031 279.488281 378.769531 279.070312 378.25 278.863281 C 377.523438 278.445312 376.585938 278.238281 375.542969 278.238281 C 374.398438 278.238281 373.460938 278.550781 372.628906 278.964844 C 371.796875 279.488281 371.378906 280.007812 371.378906 280.632812 C 371.378906 281.257812 371.691406 281.777344 372.421875 282.195312 C 372.941406 282.507812 373.566406 282.714844 374.296875 282.714844 C 374.921875 282.820312 375.648438 282.714844 376.378906 282.609375 Z M 377.835938 284.695312 C 377.210938 284.382812 377 283.964844 377 283.445312 C 377 282.921875 377.417969 282.507812 378.042969 282.089844 C 378.769531 281.675781 379.5 281.464844 380.4375 281.464844 C 381.375 281.464844 382.101562 281.570312 382.621094 281.882812 C 383.246094 282.195312 383.457031 282.609375 383.457031 283.132812 C 383.457031 283.652344 383.039062 284.070312 382.414062 284.484375 C 381.6875 284.902344 380.957031 285.109375 380.019531 285.109375 C 379.1875 285.109375 378.460938 285.007812 377.835938 284.695312 Z M 373.253906 281.777344 C 372.734375 281.464844 372.421875 281.050781 372.421875 280.527344 C 372.421875 280.007812 372.734375 279.589844 373.359375 279.277344 C 373.984375 278.964844 374.710938 278.757812 375.542969 278.757812 C 376.378906 278.757812 377.105469 278.863281 377.625 279.175781 C 378.148438 279.488281 378.355469 279.800781 378.355469 280.320312 C 378.355469 280.839844 377.9375 281.257812 377.3125 281.570312 C 376.691406 281.988281 375.960938 282.089844 375.128906 282.195312 C 374.296875 282.296875 373.773438 282.089844 373.253906 281.777344 Z M 351.914062 292.398438 L 351.601562 292.191406 L 356.496094 289.378906 L 357.121094 289.691406 C 357.328125 289.796875 357.433594 289.796875 357.535156 289.796875 C 357.640625 289.796875 357.746094 289.796875 357.847656 289.691406 C 357.953125 289.589844 357.953125 289.589844 357.953125 289.484375 C 357.953125 289.378906 357.847656 289.277344 357.746094 289.277344 L 356.496094 288.546875 L 350.25 292.191406 L 351.289062 292.816406 L 362.53125 296.148438 C 362.742188 296.253906 362.84375 296.253906 362.949219 296.253906 C 363.054688 296.253906 363.15625 296.253906 363.261719 296.148438 C 363.367188 296.042969 363.367188 296.042969 363.367188 295.941406 C 363.367188 295.835938 363.367188 295.835938 363.261719 295.730469 C 363.261719 295.730469 363.15625 295.628906 362.949219 295.628906 Z M 351.082031 298.4375 C 350.042969 298.335938 349.210938 298.335938 348.480469 298.4375 C 347.75 298.542969 347.128906 298.75 346.605469 299.0625 C 345.878906 299.480469 345.566406 300 345.566406 300.625 C 345.566406 301.25 345.980469 301.875 346.917969 302.394531 C 347.75 302.8125 348.6875 303.125 349.832031 303.230469 C 350.980469 303.332031 352.019531 303.125 352.957031 302.605469 C 353.582031 302.292969 353.894531 301.875 354.101562 301.355469 C 354.308594 300.835938 354.101562 300.3125 353.683594 299.6875 C 353.164062 298.960938 352.332031 298.230469 351.1875 297.605469 C 350.355469 297.085938 349.417969 296.773438 348.375 296.566406 C 347.542969 296.355469 346.710938 296.355469 345.878906 296.355469 C 345.046875 296.355469 344.210938 296.460938 343.378906 296.667969 C 342.546875 296.878906 341.820312 297.085938 341.089844 297.503906 C 340.671875 297.816406 340.359375 298.023438 340.257812 298.335938 C 340.257812 298.4375 340.257812 298.542969 340.359375 298.648438 C 340.464844 298.75 340.570312 298.75 340.671875 298.75 C 340.777344 298.75 340.882812 298.75 340.984375 298.648438 C 341.089844 298.648438 341.089844 298.542969 341.195312 298.4375 C 341.296875 298.230469 341.507812 298.023438 341.820312 297.917969 C 342.859375 297.292969 344.210938 296.980469 345.980469 296.980469 C 347.75 296.980469 349.210938 297.292969 350.355469 298.023438 C 350.457031 298.023438 350.667969 298.125 351.082031 298.4375 Z M 352.019531 299.0625 C 352.75 299.6875 353.164062 300.3125 353.058594 300.835938 C 353.058594 301.355469 352.75 301.769531 352.125 302.082031 C 351.5 302.394531 350.769531 302.605469 349.9375 302.605469 C 349 302.605469 348.273438 302.394531 347.542969 301.980469 C 346.816406 301.5625 346.503906 301.148438 346.503906 300.625 C 346.503906 300.105469 346.710938 299.6875 347.335938 299.375 C 347.855469 299.0625 348.585938 298.960938 349.519531 298.855469 C 349.9375 298.855469 350.875 298.960938 352.019531 299.0625 Z M 335.988281 301.355469 L 339.214844 303.230469 C 338.695312 303.332031 338.175781 303.542969 337.757812 303.644531 C 337.34375 303.855469 336.925781 303.957031 336.613281 304.167969 C 335.78125 304.6875 335.363281 305.207031 335.363281 305.9375 C 335.363281 306.5625 335.886719 307.1875 336.820312 307.707031 C 337.863281 308.332031 339.007812 308.644531 340.359375 308.644531 C 341.609375 308.644531 342.753906 308.332031 343.796875 307.8125 C 344.421875 307.394531 344.941406 306.976562 345.253906 306.457031 C 345.460938 306.144531 345.671875 305.726562 345.671875 305.417969 C 345.671875 305.207031 345.671875 305.105469 345.566406 305 C 345.460938 304.894531 345.359375 304.894531 345.253906 304.894531 C 345.148438 304.894531 345.046875 304.894531 344.941406 305 C 344.835938 305.105469 344.835938 305.105469 344.835938 305.207031 C 344.734375 306.144531 344.210938 306.875 343.277344 307.394531 C 342.441406 307.8125 341.609375 308.125 340.570312 308.125 C 339.527344 308.125 338.589844 307.914062 337.65625 307.394531 C 336.925781 306.976562 336.507812 306.457031 336.507812 305.9375 C 336.507812 305.417969 336.820312 305 337.550781 304.582031 C 338.28125 304.167969 339.113281 303.855469 340.152344 303.644531 C 340.359375 303.644531 340.570312 303.542969 340.671875 303.542969 C 340.777344 303.4375 340.777344 303.4375 340.777344 303.332031 C 340.777344 303.230469 340.671875 303.230469 340.570312 303.125 L 336.199219 300.625 L 331.511719 303.332031 C 331.304688 303.4375 331.304688 303.542969 331.304688 303.542969 C 331.304688 303.644531 331.304688 303.644531 331.410156 303.75 C 331.511719 303.855469 331.617188 303.855469 331.722656 303.855469 C 331.824219 303.855469 332.035156 303.75 332.136719 303.75 Z M 329.328125 312.601562 L 333.804688 309.996094 L 333.074219 309.582031 L 322.976562 308.125 L 321.519531 308.957031 L 327.972656 312.707031 L 327.453125 313.019531 C 327.246094 313.121094 327.246094 313.226562 327.140625 313.226562 C 327.140625 313.332031 327.140625 313.332031 327.246094 313.433594 C 327.351562 313.539062 327.453125 313.539062 327.558594 313.539062 C 327.660156 313.539062 327.871094 313.433594 327.972656 313.433594 L 328.496094 313.121094 L 330.578125 314.371094 L 330.054688 314.683594 C 329.847656 314.789062 329.847656 314.890625 329.742188 314.890625 C 329.742188 314.996094 329.742188 314.996094 329.847656 315.101562 C 329.953125 315.203125 330.054688 315.203125 330.160156 315.203125 C 330.265625 315.203125 330.472656 315.101562 330.578125 315.101562 L 333.074219 313.640625 C 333.28125 313.539062 333.28125 313.433594 333.386719 313.433594 C 333.386719 313.332031 333.386719 313.332031 333.28125 313.226562 C 333.179688 313.121094 333.074219 313.121094 332.96875 313.121094 C 332.867188 313.121094 332.660156 313.226562 332.554688 313.226562 L 331.304688 313.953125 Z M 328.703125 312.183594 L 322.976562 308.851562 L 323.289062 308.644531 L 332.449219 309.996094 Z M 306.84375 322.597656 C 306.53125 323.117188 306.425781 323.640625 306.53125 324.054688 C 306.636719 324.472656 307.050781 324.890625 307.570312 325.203125 C 308.40625 325.617188 309.339844 325.824219 310.695312 325.824219 C 312.046875 325.824219 313.089844 325.511719 314.027344 324.890625 C 314.648438 324.578125 315.066406 324.160156 315.484375 323.640625 C 315.898438 323.117188 316.003906 322.703125 316.003906 322.492188 C 316.003906 322.390625 316.003906 322.285156 315.898438 322.285156 C 315.796875 322.285156 315.691406 322.179688 315.585938 322.179688 C 315.484375 322.179688 315.378906 322.179688 315.273438 322.285156 C 315.171875 322.285156 315.171875 322.390625 315.066406 322.492188 C 314.859375 323.328125 314.234375 324.054688 313.296875 324.578125 C 312.464844 324.992188 311.632812 325.304688 310.589844 325.304688 C 309.550781 325.304688 308.820312 325.203125 308.195312 324.890625 C 307.78125 324.679688 307.570312 324.367188 307.46875 323.953125 C 307.363281 323.535156 307.46875 323.222656 307.675781 322.804688 C 307.882812 322.390625 308.300781 322.078125 308.820312 321.765625 C 309.03125 321.660156 309.03125 321.554688 309.03125 321.554688 C 309.03125 321.554688 309.03125 321.453125 308.925781 321.347656 C 308.820312 321.246094 308.71875 321.246094 308.613281 321.246094 C 308.507812 321.246094 308.300781 321.246094 308.195312 321.347656 L 307.675781 321.660156 C 307.050781 321.972656 306.425781 322.179688 305.59375 322.179688 C 304.867188 322.179688 304.242188 322.078125 303.71875 321.765625 C 303.199219 321.453125 302.992188 321.140625 302.992188 320.621094 C 302.992188 320.203125 303.410156 319.785156 304.03125 319.371094 C 304.449219 319.058594 304.96875 318.847656 305.59375 318.746094 C 306.113281 318.640625 306.636719 318.535156 307.15625 318.535156 C 307.363281 318.535156 307.46875 318.535156 307.570312 318.535156 C 307.675781 318.535156 307.675781 318.535156 307.78125 318.433594 C 307.882812 318.328125 307.882812 318.328125 307.882812 318.222656 C 307.882812 318.121094 307.882812 318.121094 307.78125 318.015625 C 307.570312 317.910156 307.050781 317.910156 306.324219 318.015625 C 305.179688 318.121094 304.242188 318.433594 303.410156 318.953125 C 302.574219 319.472656 302.054688 319.996094 302.054688 320.621094 C 302.054688 321.246094 302.367188 321.765625 302.992188 322.078125 C 303.410156 322.285156 303.929688 322.492188 304.65625 322.597656 C 305.386719 322.804688 306.113281 322.804688 306.84375 322.597656 Z M 305.90625 328.535156 L 300.703125 331.554688 L 300.492188 331.449219 C 300.285156 331.34375 300.179688 331.34375 300.078125 331.34375 C 299.972656 331.34375 299.871094 331.34375 299.765625 331.449219 C 299.660156 331.554688 299.660156 331.554688 299.660156 331.65625 C 299.660156 331.761719 299.765625 331.867188 299.871094 331.867188 L 300.804688 332.386719 L 307.363281 328.636719 L 306.425781 328.117188 C 303.824219 328.222656 301.328125 328.324219 298.722656 328.324219 C 297.578125 328.324219 296.640625 328.324219 296.226562 328.324219 C 295.707031 328.324219 295.289062 328.222656 295.082031 328.222656 C 294.769531 328.117188 294.558594 328.011719 294.351562 327.910156 C 293.832031 327.597656 293.519531 327.179688 293.519531 326.660156 C 293.519531 326.136719 293.9375 325.722656 294.558594 325.304688 C 295.183594 324.992188 295.808594 324.785156 296.640625 324.679688 C 297.476562 324.578125 298.101562 324.679688 298.722656 324.890625 C 298.933594 324.992188 299.035156 324.992188 299.140625 324.992188 C 299.246094 324.992188 299.347656 324.992188 299.453125 324.890625 C 299.558594 324.785156 299.558594 324.785156 299.558594 324.679688 C 299.558594 324.578125 299.558594 324.578125 299.453125 324.472656 C 299.246094 324.367188 298.722656 324.265625 297.996094 324.160156 C 297.265625 324.054688 296.539062 324.160156 295.808594 324.265625 C 295.082031 324.367188 294.457031 324.679688 293.9375 324.890625 C 293.101562 325.410156 292.6875 325.929688 292.582031 326.660156 C 292.582031 327.386719 292.894531 327.910156 293.625 328.324219 C 293.9375 328.535156 294.25 328.636719 294.664062 328.742188 C 294.976562 328.847656 295.496094 328.847656 296.019531 328.949219 C 296.539062 328.949219 297.476562 328.949219 298.722656 328.949219 C 301.535156 328.636719 304.03125 328.636719 305.90625 328.535156 Z M 283.527344 330.824219 L 292.894531 336.136719 L 290.605469 337.488281 C 290.398438 337.59375 290.398438 337.695312 290.398438 337.695312 C 290.398438 337.800781 290.398438 337.800781 290.5 337.90625 C 290.605469 338.007812 290.710938 338.007812 290.8125 338.007812 C 290.917969 338.007812 291.125 337.90625 291.230469 337.90625 L 296.539062 334.78125 C 296.746094 334.675781 296.746094 334.574219 296.746094 334.574219 C 296.746094 334.574219 296.746094 334.46875 296.640625 334.363281 C 296.539062 334.261719 296.433594 334.261719 296.332031 334.261719 C 296.226562 334.261719 296.019531 334.363281 295.914062 334.363281 L 293.625 335.71875 L 285.191406 330.929688 L 288.105469 329.992188 C 288.210938 329.992188 288.316406 329.886719 288.417969 329.886719 C 288.523438 329.886719 288.523438 329.78125 288.523438 329.679688 C 288.523438 329.574219 288.523438 329.574219 288.417969 329.46875 C 288.316406 329.46875 288.210938 329.367188 288.105469 329.367188 C 288.003906 329.367188 287.898438 329.367188 287.691406 329.46875 Z M 275.09375 340.613281 L 276.761719 341.550781 C 278.21875 342.382812 279.675781 342.800781 281.132812 342.902344 C 282.277344 343.007812 283.320312 342.800781 284.152344 342.277344 C 284.566406 342.070312 284.878906 341.757812 285.089844 341.445312 C 285.296875 341.132812 285.398438 340.820312 285.296875 340.507812 C 285.296875 340.300781 285.191406 340.09375 284.984375 339.78125 C 284.777344 339.46875 284.566406 339.15625 284.359375 338.945312 C 284.046875 338.632812 283.527344 338.320312 283.007812 337.90625 L 281.339844 336.96875 C 279.882812 336.136719 278.425781 335.71875 276.96875 335.613281 C 275.824219 335.511719 274.78125 335.71875 273.949219 336.238281 C 273.535156 336.449219 273.222656 336.761719 273.011719 337.070312 C 272.804688 337.382812 272.699219 337.695312 272.804688 338.007812 C 272.804688 338.21875 272.910156 338.425781 273.117188 338.84375 C 273.324219 339.15625 273.535156 339.46875 273.742188 339.675781 C 273.949219 339.882812 274.46875 340.195312 275.09375 340.613281 Z M 275.824219 340.195312 C 275.199219 339.882812 274.679688 339.46875 274.367188 339.050781 C 274.054688 338.632812 273.742188 338.320312 273.742188 338.007812 C 273.742188 337.800781 273.742188 337.59375 273.847656 337.382812 C 273.949219 337.070312 274.261719 336.863281 274.574219 336.65625 C 275.304688 336.238281 276.34375 336.136719 277.488281 336.238281 C 278.632812 336.449219 279.78125 336.761719 280.820312 337.382812 L 282.277344 338.21875 C 282.902344 338.53125 283.421875 338.945312 283.734375 339.363281 C 284.046875 339.78125 284.359375 340.09375 284.359375 340.507812 C 284.359375 340.71875 284.359375 340.925781 284.253906 341.027344 C 284.152344 341.339844 283.839844 341.550781 283.527344 341.757812 C 282.796875 342.175781 281.757812 342.277344 280.613281 342.175781 C 279.46875 341.964844 278.320312 341.652344 277.28125 341.027344 Z M 8.304688 200.035156 L 171.210938 105.898438 C 181.410156 99.964844 194.109375 99.964844 204.3125 105.898438 L 247.40625 130.785156 C 253.964844 130.472656 260.625 130.371094 267.289062 130.683594 C 273.742188 130.996094 280.507812 131.621094 286.546875 129.433594 C 291.542969 127.664062 295.707031 124.226562 299.972656 121.101562 C 311.109375 113.085938 324.539062 107.042969 338.070312 108.816406 C 339.632812 108.398438 341.195312 108.398438 342.441406 109.335938 C 343.066406 109.855469 343.589844 110.480469 344.003906 111.210938 C 345.460938 113.917969 346.085938 116.9375 346.605469 119.957031 C 348.167969 128.808594 349.730469 137.761719 351.289062 146.613281 C 352.75 154.738281 354.207031 162.964844 353.476562 171.191406 C 353.058594 175.5625 352.019531 180.144531 349.105469 183.476562 C 347.855469 184.933594 346.398438 185.976562 344.734375 187.019531 L 518.253906 287.191406 C 524.5 290.835938 524.5 299.898438 518.253906 303.542969 L 356.601562 396.949219 C 343.589844 404.445312 327.558594 404.445312 314.441406 396.949219 L 8.304688 220.132812 C 0.5 215.652344 0.5 204.511719 8.304688 200.035156 Z M 119.164062 146.09375 C 116.667969 144.636719 113.648438 144.636719 111.253906 146.09375 L 92.308594 157.027344 C 90.539062 158.070312 90.539062 160.671875 92.308594 161.714844 L 92.414062 161.714844 C 95.429688 163.484375 99.074219 163.484375 102.09375 161.714844 L 119.269531 151.820312 C 121.453125 150.570312 121.453125 147.34375 119.164062 146.09375 Z M 392.824219 345.402344 C 401.878906 350.609375 416.765625 350.609375 425.925781 345.402344 C 434.980469 340.195312 434.980469 331.554688 425.925781 326.347656 C 416.871094 321.140625 401.984375 321.140625 392.824219 326.347656 C 383.664062 331.554688 383.664062 340.195312 392.824219 345.402344 Z M 38.078125 213.78125 L 306.636719 368.9375 L 462.773438 278.757812 L 310.488281 190.765625 C 303.199219 189.414062 295.914062 187.332031 288.628906 185.664062 C 286.335938 185.144531 283.941406 184.726562 281.652344 185.039062 C 258.960938 188.578125 235.957031 184.207031 213.160156 181.601562 C 205.144531 180.664062 196.816406 179.730469 189.738281 175.667969 C 182.660156 171.605469 177.25 163.796875 178.496094 155.777344 C 179.433594 150.257812 183.390625 145.675781 188.179688 142.65625 C 192.964844 139.742188 198.484375 138.285156 203.894531 137.035156 C 207.226562 136.304688 210.558594 135.578125 213.890625 134.953125 L 198.484375 125.996094 C 189.636719 120.894531 178.707031 120.894531 169.859375 125.996094 L 37.972656 202.117188 C 33.601562 204.824219 33.601562 211.28125 38.078125 213.78125 Z M 417.492188 374.558594 L 417.492188 381.640625 C 417.492188 383.621094 419.574219 384.765625 421.34375 383.828125 L 440.082031 372.996094 C 440.5 372.789062 440.808594 372.476562 441.121094 372.269531 L 428.632812 365.082031 L 420.304688 369.875 C 418.535156 370.8125 417.492188 372.582031 417.492188 374.558594 Z M 417.492188 374.558594 " fill-opacity="1" fill-rule="nonzero"/><g clip-path="url(#be5c14b451)"><path fill="#fecf47" d="M 244.179688 306.351562 L 271.140625 321.867188 L 282.382812 315.414062 L 255.421875 299.898438 Z M 284.359375 303.019531 L 273.742188 309.164062 L 266.351562 304.894531 L 276.96875 298.75 Z M 235.125 311.664062 L 243.140625 307.082031 L 251.363281 311.871094 L 239.601562 318.640625 L 235.226562 316.140625 C 233.457031 315.101562 233.457031 312.601562 235.125 311.664062 Z M 269.996094 322.597656 L 262.1875 327.074219 C 259.691406 328.535156 256.566406 328.535156 254.070312 327.074219 L 249.90625 324.679688 L 261.667969 317.910156 Z M 285.921875 303.855469 L 290.292969 306.351562 C 292.0625 307.394531 292.0625 309.789062 290.292969 310.832031 L 283.527344 314.683594 L 275.304688 309.894531 Z M 256.566406 299.167969 L 263.851562 295.003906 C 265.933594 293.859375 268.433594 293.859375 270.515625 295.003906 L 275.40625 297.8125 L 264.789062 303.957031 Z M 260.3125 316.976562 L 248.550781 323.742188 L 241.160156 319.472656 L 252.921875 312.707031 Z M 88.039062 186.394531 C 97.511719 180.875 113.023438 180.875 122.496094 186.394531 C 131.96875 191.914062 131.96875 200.867188 122.496094 206.28125 C 117.707031 208.988281 111.460938 210.34375 105.214844 210.34375 C 95.742188 216.902344 83.667969 213.050781 78.984375 210.34375 C 74.195312 207.636719 75.339844 199.929688 80.859375 196.285156 C 80.960938 192.746094 83.253906 189.101562 88.039062 186.394531 Z M 171.210938 198.160156 C 284.359375 257.308594 342.859375 261.160156 385.953125 236.273438 C 394.800781 231.171875 401.152344 203.679688 401.566406 187.957031 C 402.296875 165.046875 396.050781 139.222656 388.554688 134.953125 C 366.070312 121.933594 274.261719 68.828125 274.261719 68.828125 C 274.261719 68.828125 227.109375 96.007812 159.863281 90.902344 C 159.863281 90.902344 162.46875 122.144531 123.015625 157.757812 C 123.015625 157.652344 154.765625 189.515625 171.210938 198.160156 Z M 192.550781 166.710938 L 217.117188 152.550781 L 315.585938 152.550781 L 315.585938 124.019531 L 340.152344 109.855469 L 340.152344 166.710938 L 336.511719 173.480469 L 197.441406 173.480469 Z M 192.550781 166.710938 " fill-opacity="1" fill-rule="nonzero"/></g><path fill="#e29417" d="M 192.550781 176.1875 L 340.152344 176.1875 L 340.152344 166.710938 L 192.550781 166.710938 Z M 63.683594 200.449219 C 68.472656 197.742188 74.71875 196.390625 80.960938 196.390625 C 80.960938 200.035156 83.355469 203.574219 88.039062 206.386719 C 92.828125 209.09375 99.074219 210.449219 105.320312 210.449219 C 105.320312 214.09375 102.925781 217.632812 98.242188 220.445312 C 88.769531 225.964844 73.257812 225.964844 63.789062 220.445312 C 54.210938 214.820312 54.210938 205.867188 63.683594 200.449219 Z M 123.015625 157.652344 C 123.015625 157.652344 220.03125 213.675781 236.164062 222.945312 C 271.242188 243.144531 345.566406 247.832031 388.660156 222.945312 C 397.507812 217.839844 401.152344 203.574219 401.671875 187.851562 C 401.671875 187.851562 401.671875 187.851562 401.777344 187.851562 C 402.296875 188.371094 401.777344 203.679688 401.777344 203.679688 C 401.464844 219.921875 397.820312 235.023438 388.765625 240.230469 C 345.671875 265.117188 271.242188 260.429688 236.269531 240.230469 C 220.132812 230.960938 123.121094 174.9375 123.121094 174.9375 Z M 123.015625 157.652344 " fill-opacity="1" fill-rule="nonzero"/></svg>