<svg xmlns="http://www.w3.org/2000/svg" xmlns:xlink="http://www.w3.org/1999/xlink" width="70" zoomAndPan="magnify" viewBox="0 0 52.5 52.499999" height="70" preserveAspectRatio="xMidYMid meet" version="1.0"><defs><clipPath id="56f980de21"><path d="M 30 0 L 52.003906 0 L 52.003906 52.003906 L 30 52.003906 Z M 30 0 " clip-rule="nonzero"/></clipPath><clipPath id="20a119abf2"><path d="M 1 1 L 52.003906 1 L 52.003906 51.945312 L 1 51.945312 Z M 1 1 " clip-rule="nonzero"/></clipPath><clipPath id="92b62c2c9d"><path d="M 12 0.195312 L 39 0.195312 L 39 26 L 12 26 Z M 12 0.195312 " clip-rule="nonzero"/></clipPath><clipPath id="c89865dabd"><path d="M 0 0.195312 L 51 0.195312 L 51 51 L 0 51 Z M 0 0.195312 " clip-rule="nonzero"/></clipPath></defs><g clip-path="url(#56f980de21)"><path fill="#ff0000" d="M 157.875 190.199219 C 118.304688 190.199219 86.234375 158.097656 86.234375 118.492188 C 86.234375 78.894531 118.304688 46.789062 157.875 46.789062 C 197.445312 46.789062 229.515625 78.894531 229.515625 118.492188 C 229.515625 158.097656 197.445312 190.199219 157.875 190.199219 Z M 157.875 -0.261719 C 87.316406 -0.261719 30.117188 56.984375 30.117188 127.605469 C 30.117188 198.222656 157.875 371.710938 157.875 371.710938 C 157.875 371.710938 285.632812 198.222656 285.632812 127.605469 C 285.632812 56.984375 228.433594 -0.261719 157.875 -0.261719 " fill-opacity="1" fill-rule="nonzero"/></g><g clip-path="url(#20a119abf2)"><path fill="#e6e7e8" d="M 51.328125 24.863281 L 29.152344 2.835938 C 28.003906 1.695312 26.136719 1.695312 24.988281 2.835938 L 2.8125 24.863281 C 2.257812 25.414062 1.953125 26.148438 1.953125 26.929688 C 1.953125 27.707031 2.257812 28.441406 2.8125 28.996094 L 24.988281 51.019531 C 25.5625 51.589844 26.316406 51.875 27.070312 51.875 C 27.824219 51.875 28.578125 51.589844 29.152344 51.019531 L 51.328125 28.996094 C 52.472656 27.855469 52.472656 26 51.328125 24.863281 Z M 51.328125 24.863281 " fill-opacity="1" fill-rule="nonzero"/></g><path fill="#fa759e" d="M 34.308594 16.398438 C 33.929688 15.75 33.355469 15.179688 32.476562 14.847656 C 31.28125 14.394531 29.902344 14.566406 28.902344 15.355469 C 27.164062 16.726562 27.054688 19.242188 28.578125 20.753906 C 28.8125 20.988281 29.070312 21.175781 29.34375 21.332031 L 25.390625 25.257812 L 29.34375 29.183594 C 29.71875 28.535156 30.292969 27.964844 31.171875 27.632812 C 32.367188 27.179688 33.746094 27.351562 34.746094 28.140625 C 36.484375 29.511719 36.59375 32.027344 35.070312 33.539062 C 34.835938 33.769531 34.578125 33.960938 34.308594 34.117188 L 38.261719 38.042969 L 49.347656 27.027344 C 50.332031 26.050781 50.332031 24.464844 49.347656 23.488281 L 38.261719 12.472656 Z M 34.308594 16.398438 " fill-opacity="1" fill-rule="nonzero"/><path fill="#ffffff" d="M 48.457031 26.144531 L 37.367188 37.15625 L 38.261719 38.042969 L 49.347656 27.03125 C 50.332031 26.050781 50.332031 24.464844 49.347656 23.488281 L 48.457031 22.601562 C 49.441406 23.578125 49.441406 25.164062 48.457031 26.144531 Z M 48.457031 26.144531 " fill-opacity="1" fill-rule="nonzero"/><path fill="#ffd7e5" d="M 20.855469 22.089844 C 19.332031 23.601562 16.796875 23.496094 15.417969 21.769531 C 14.625 20.773438 14.453125 19.40625 14.90625 18.21875 C 15.242188 17.34375 15.816406 16.773438 16.46875 16.398438 L 12.519531 12.472656 L 1.429688 23.488281 C 0.445312 24.464844 0.445312 26.050781 1.429688 27.03125 L 12.519531 38.042969 L 16.46875 34.117188 C 16.847656 34.765625 17.421875 35.335938 18.300781 35.667969 C 19.496094 36.121094 20.875 35.949219 21.875 35.160156 C 23.613281 33.792969 23.722656 31.273438 22.199219 29.761719 C 21.964844 29.53125 21.707031 29.339844 21.4375 29.183594 L 25.390625 25.257812 L 21.4375 21.332031 C 21.28125 21.601562 21.089844 21.859375 20.855469 22.089844 Z M 20.855469 22.089844 " fill-opacity="1" fill-rule="nonzero"/><g clip-path="url(#92b62c2c9d)"><path fill="#0089ef" d="M 23.605469 1.460938 L 12.519531 12.472656 L 16.46875 16.398438 C 15.816406 16.773438 15.242188 17.34375 14.90625 18.21875 C 14.453125 19.40625 14.625 20.773438 15.417969 21.769531 C 16.796875 23.496094 19.332031 23.601562 20.855469 22.089844 C 21.089844 21.859375 21.277344 21.601562 21.4375 21.332031 L 25.390625 25.257812 L 29.339844 21.332031 C 28.6875 20.957031 28.113281 20.386719 27.777344 19.511719 C 27.324219 18.328125 27.496094 16.957031 28.289062 15.964844 C 29.667969 14.238281 32.203125 14.128906 33.726562 15.640625 C 33.960938 15.875 34.148438 16.128906 34.308594 16.398438 L 38.261719 12.472656 L 27.171875 1.460938 C 26.1875 0.484375 24.589844 0.484375 23.605469 1.460938 Z M 23.605469 1.460938 " fill-opacity="1" fill-rule="nonzero"/></g><path fill="#6dc9f7" d="M 31.171875 27.632812 C 30.292969 27.964844 29.71875 28.535156 29.34375 29.183594 L 25.390625 25.257812 L 21.4375 29.183594 C 22.089844 29.558594 22.664062 30.128906 23 31.003906 C 23.453125 32.191406 23.28125 33.558594 22.488281 34.554688 C 21.109375 36.28125 18.574219 36.386719 17.050781 34.875 C 16.816406 34.644531 16.628906 34.386719 16.472656 34.117188 L 12.519531 38.042969 L 23.605469 49.054688 C 24.589844 50.035156 26.1875 50.035156 27.171875 49.054688 L 38.261719 38.042969 L 34.308594 34.117188 C 34.582031 33.960938 34.839844 33.773438 35.070312 33.539062 C 36.59375 32.027344 36.484375 29.511719 34.746094 28.140625 C 33.746094 27.351562 32.367188 27.179688 31.171875 27.632812 Z M 31.171875 27.632812 " fill-opacity="1" fill-rule="nonzero"/><path fill="#3a2c60" d="M 44.523438 19.285156 C 44.605469 19.367188 44.714844 19.40625 44.820312 19.40625 C 44.929688 19.40625 45.035156 19.367188 45.117188 19.285156 C 45.285156 19.121094 45.285156 18.859375 45.117188 18.695312 L 42.65625 16.25 C 42.492188 16.089844 42.226562 16.089844 42.0625 16.25 C 41.898438 16.414062 41.898438 16.679688 42.0625 16.839844 Z M 44.523438 19.285156 " fill-opacity="1" fill-rule="nonzero"/><g clip-path="url(#c89865dabd)"><path fill="#3a2c60" d="M 49.644531 23.191406 L 46.480469 20.046875 C 46.316406 19.882812 46.050781 19.882812 45.886719 20.046875 C 45.722656 20.210938 45.722656 20.472656 45.886719 20.636719 L 49.050781 23.78125 C 49.871094 24.597656 49.871094 25.921875 49.050781 26.734375 L 38.261719 37.453125 L 34.96875 34.183594 C 35.109375 34.074219 35.242188 33.957031 35.367188 33.835938 C 36.183594 33.023438 36.617188 31.898438 36.550781 30.75 C 36.484375 29.605469 35.921875 28.535156 35.007812 27.8125 C 33.90625 26.945312 32.382812 26.726562 31.023438 27.242188 C 30.308594 27.511719 29.722656 27.945312 29.277344 28.527344 L 25.984375 25.257812 L 29.640625 21.628906 C 29.730469 21.535156 29.777344 21.40625 29.757812 21.277344 C 29.742188 21.148438 29.664062 21.035156 29.550781 20.96875 C 28.894531 20.59375 28.441406 20.070312 28.171875 19.363281 C 27.761719 18.289062 27.929688 17.085938 28.621094 16.222656 C 29.203125 15.492188 30.039062 15.058594 30.96875 15.007812 C 31.878906 14.960938 32.78125 15.292969 33.429688 15.9375 C 33.625 16.128906 33.796875 16.355469 33.941406 16.609375 C 34.007812 16.722656 34.121094 16.796875 34.25 16.8125 C 34.382812 16.832031 34.511719 16.785156 34.605469 16.695312 L 38.261719 13.0625 L 40.683594 15.472656 C 40.765625 15.554688 40.875 15.59375 40.980469 15.59375 C 41.089844 15.59375 41.195312 15.554688 41.277344 15.472656 C 41.441406 15.308594 41.441406 15.042969 41.277344 14.882812 L 27.46875 1.164062 C 26.914062 0.613281 26.175781 0.308594 25.390625 0.308594 C 24.601562 0.308594 23.863281 0.613281 23.308594 1.164062 L 1.132812 23.191406 C -0.015625 24.332031 -0.015625 26.1875 1.132812 27.324219 L 23.308594 49.351562 C 23.882812 49.921875 24.636719 50.207031 25.390625 50.207031 C 26.140625 50.207031 26.894531 49.921875 27.46875 49.351562 L 49.644531 27.324219 C 50.792969 26.1875 50.792969 24.332031 49.644531 23.191406 Z M 23.902344 1.753906 C 24.300781 1.363281 24.828125 1.144531 25.390625 1.144531 C 25.949219 1.144531 26.476562 1.363281 26.875 1.753906 L 37.664062 12.472656 L 34.371094 15.746094 C 34.265625 15.601562 34.148438 15.46875 34.023438 15.347656 C 33.207031 14.535156 32.074219 14.105469 30.917969 14.171875 C 29.765625 14.238281 28.6875 14.796875 27.960938 15.703125 C 27.089844 16.796875 26.867188 18.3125 27.386719 19.664062 C 27.65625 20.371094 28.09375 20.953125 28.679688 21.398438 L 25.390625 24.667969 L 21.734375 21.039062 C 21.65625 20.957031 21.546875 20.914062 21.4375 20.914062 C 21.417969 20.914062 21.398438 20.917969 21.382812 20.917969 C 21.25 20.9375 21.136719 21.011719 21.074219 21.125 C 20.925781 21.375 20.753906 21.601562 20.558594 21.796875 C 19.910156 22.4375 19.011719 22.777344 18.097656 22.726562 C 17.167969 22.671875 16.332031 22.242188 15.75 21.507812 C 15.0625 20.644531 14.890625 19.441406 15.300781 18.367188 C 15.570312 17.664062 16.023438 17.136719 16.679688 16.761719 C 16.792969 16.699219 16.871094 16.582031 16.886719 16.457031 C 16.90625 16.324219 16.863281 16.195312 16.769531 16.105469 L 13.113281 12.472656 Z M 1.726562 23.78125 L 12.519531 13.0625 L 15.808594 16.335938 C 15.222656 16.777344 14.785156 17.359375 14.515625 18.070312 C 13.996094 19.417969 14.21875 20.9375 15.089844 22.027344 C 15.816406 22.9375 16.894531 23.496094 18.046875 23.558594 C 19.199219 23.625 20.335938 23.199219 21.152344 22.386719 C 21.277344 22.261719 21.394531 22.128906 21.5 21.988281 L 24.792969 25.257812 L 21.140625 28.890625 C 21.046875 28.980469 21.003906 29.109375 21.019531 29.238281 C 21.035156 29.367188 21.113281 29.480469 21.226562 29.546875 C 21.882812 29.921875 22.335938 30.449219 22.605469 31.152344 C 23.019531 32.226562 22.847656 33.429688 22.15625 34.292969 C 21.574219 35.027344 20.738281 35.457031 19.8125 35.511719 C 18.894531 35.566406 17.996094 35.222656 17.347656 34.578125 C 17.152344 34.386719 16.980469 34.160156 16.835938 33.910156 C 16.769531 33.796875 16.65625 33.71875 16.527344 33.703125 C 16.394531 33.6875 16.265625 33.730469 16.171875 33.820312 L 12.519531 37.453125 L 1.726562 26.734375 C 0.90625 25.921875 0.90625 24.597656 1.726562 23.78125 Z M 26.875 48.761719 C 26.054688 49.574219 24.722656 49.574219 23.902344 48.761719 L 13.113281 38.042969 L 16.40625 34.773438 C 16.511719 34.914062 16.628906 35.046875 16.753906 35.167969 C 17.570312 35.980469 18.707031 36.410156 19.859375 36.34375 C 21.015625 36.277344 22.089844 35.71875 22.816406 34.8125 C 23.6875 33.71875 23.910156 32.203125 23.390625 30.855469 C 23.121094 30.144531 22.683594 29.5625 22.097656 29.121094 L 25.390625 25.847656 L 29.042969 29.480469 C 29.136719 29.570312 29.269531 29.617188 29.398438 29.597656 C 29.527344 29.582031 29.640625 29.503906 29.707031 29.394531 C 30.085938 28.738281 30.613281 28.289062 31.324219 28.023438 C 32.402344 27.613281 33.617188 27.78125 34.484375 28.46875 C 35.222656 29.046875 35.65625 29.875 35.710938 30.800781 C 35.761719 31.710938 35.421875 32.601562 34.773438 33.246094 C 34.578125 33.4375 34.351562 33.609375 34.097656 33.753906 C 33.984375 33.820312 33.90625 33.933594 33.890625 34.0625 C 33.875 34.191406 33.917969 34.320312 34.011719 34.410156 L 37.664062 38.042969 Z M 26.875 48.761719 " fill-opacity="1" fill-rule="nonzero"/></g></svg>