<svg xmlns="http://www.w3.org/2000/svg" xmlns:xlink="http://www.w3.org/1999/xlink" width="70" zoomAndPan="magnify" viewBox="0 0 52.5 52.499999" height="70" preserveAspectRatio="xMidYMid meet" version="1.0"><defs><clipPath id="e3b0a14c7d"><path d="M 30 0 L 52.003906 0 L 52.003906 52.003906 L 30 52.003906 Z M 30 0 " clip-rule="nonzero"/></clipPath><clipPath id="80c3735563"><path d="M 0 25 L 52.003906 25 L 52.003906 52.003906 L 0 52.003906 Z M 0 25 " clip-rule="nonzero"/></clipPath><clipPath id="5500ef6a18"><path d="M 15.585938 37.734375 L 36.914062 37.734375 L 36.914062 38.554688 L 15.585938 38.554688 Z M 15.585938 37.734375 " clip-rule="nonzero"/></clipPath></defs><g clip-path="url(#e3b0a14c7d)"><path fill="#ff0000" d="M 157.875 190.199219 C 118.304688 190.199219 86.234375 158.097656 86.234375 118.492188 C 86.234375 78.894531 118.304688 46.789062 157.875 46.789062 C 197.445312 46.789062 229.515625 78.894531 229.515625 118.492188 C 229.515625 158.097656 197.445312 190.199219 157.875 190.199219 Z M 157.875 -0.261719 C 87.316406 -0.261719 30.117188 56.984375 30.117188 127.605469 C 30.117188 198.222656 157.875 371.710938 157.875 371.710938 C 157.875 371.710938 285.632812 198.222656 285.632812 127.605469 C 285.632812 56.984375 228.433594 -0.261719 157.875 -0.261719 " fill-opacity="1" fill-rule="nonzero"/></g><path fill="#fcd965" d="M 47.167969 29.53125 C 47.167969 41.082031 37.800781 50.449219 26.25 50.449219 C 14.699219 50.449219 5.332031 41.082031 5.332031 29.53125 C 5.332031 17.980469 14.699219 8.613281 26.25 8.613281 C 37.800781 8.613281 47.167969 17.980469 47.167969 29.53125 " fill-opacity="1" fill-rule="nonzero"/><path fill="#f35e52" d="M 35.273438 27.890625 C 35.273438 27.890625 35.273438 27.890625 33.632812 25.839844 C 33.542969 25.730469 33.429688 25.628906 33.300781 25.535156 C 31.570312 27.480469 29.050781 28.710938 26.25 28.710938 C 23.730469 28.710938 21.441406 27.714844 19.75 26.101562 C 19.585938 26.152344 19.425781 26.199219 19.277344 26.25 C 15.585938 27.480469 15.175781 31.582031 15.175781 31.582031 L 15.175781 39.375 L 37.734375 39.375 L 37.734375 32.8125 L 35.273438 27.890625 " fill-opacity="1" fill-rule="nonzero"/><path fill="#2c3d53" d="M 5.960938 36.914062 L 7.726562 36.914062 C 6.714844 34.515625 6.152344 31.882812 6.152344 29.121094 C 6.152344 18.039062 15.167969 9.023438 26.25 9.023438 C 37.332031 9.023438 46.347656 18.039062 46.347656 29.121094 C 46.347656 31.882812 45.789062 34.515625 44.773438 36.914062 L 46.539062 36.914062 C 47.472656 34.492188 47.988281 31.867188 47.988281 29.121094 C 47.988281 17.132812 38.238281 7.382812 26.25 7.382812 C 14.261719 7.382812 4.511719 17.132812 4.511719 29.121094 C 4.511719 31.867188 5.027344 34.492188 5.960938 36.914062 " fill-opacity="1" fill-rule="nonzero"/><g clip-path="url(#80c3735563)"><path fill="#2c3d53" d="M 50.039062 38.554688 L 38.554688 38.554688 L 38.554688 33.632812 C 38.554688 30.003906 36.578125 26.828125 33.644531 25.121094 C 33.296875 25.566406 32.902344 25.980469 32.480469 26.351562 C 35.109375 27.722656 36.914062 30.464844 36.914062 33.632812 L 36.914062 38.554688 L 15.585938 38.554688 L 15.585938 33.632812 C 15.585938 30.464844 17.390625 27.722656 20.019531 26.351562 C 19.597656 25.980469 19.203125 25.566406 18.855469 25.121094 C 15.921875 26.828125 13.945312 30.003906 13.945312 33.632812 L 13.945312 38.554688 L 2.460938 38.554688 C 1.101562 38.554688 0 39.65625 0 41.015625 L 0 50.039062 C 0 51.398438 1.101562 52.5 2.460938 52.5 L 50.039062 52.5 C 51.398438 52.5 52.5 51.398438 52.5 50.039062 L 52.5 41.015625 C 52.5 39.65625 51.398438 38.554688 50.039062 38.554688 M 50.859375 50.039062 C 50.859375 50.488281 50.492188 50.859375 50.039062 50.859375 L 2.460938 50.859375 C 2.011719 50.859375 1.640625 50.488281 1.640625 50.039062 L 1.640625 41.015625 C 1.640625 40.5625 2.011719 40.195312 2.460938 40.195312 L 50.039062 40.195312 C 50.492188 40.195312 50.859375 40.5625 50.859375 41.015625 L 50.859375 50.039062 " fill-opacity="1" fill-rule="nonzero"/></g><path fill="#8dd9dd" d="M 50.039062 40.195312 L 2.460938 40.195312 C 2.011719 40.195312 1.640625 40.5625 1.640625 41.015625 L 1.640625 50.039062 C 1.640625 50.488281 2.011719 50.859375 2.460938 50.859375 L 50.039062 50.859375 C 50.488281 50.859375 50.859375 50.488281 50.859375 50.039062 L 50.859375 41.015625 C 50.859375 40.5625 50.488281 40.195312 50.039062 40.195312 M 10.605469 46.1875 L 10.160156 46.648438 L 10.269531 47.316406 C 10.367188 47.933594 10.109375 48.558594 9.59375 48.917969 C 9.316406 49.117188 8.980469 49.21875 8.648438 49.21875 C 8.378906 49.21875 8.105469 49.148438 7.855469 49.011719 L 7.382812 48.75 L 6.910156 49.011719 C 6.660156 49.148438 6.386719 49.21875 6.117188 49.21875 C 5.78125 49.21875 5.449219 49.117188 5.171875 48.917969 C 4.65625 48.558594 4.398438 47.933594 4.496094 47.316406 L 4.605469 46.648438 L 4.160156 46.1875 C 3.726562 45.75 3.582031 45.105469 3.777344 44.523438 C 3.96875 43.941406 4.476562 43.511719 5.085938 43.421875 L 5.636719 43.335938 L 5.898438 42.777344 C 6.167969 42.203125 6.746094 41.835938 7.382812 41.835938 C 8.019531 41.835938 8.597656 42.203125 8.867188 42.777344 L 9.128906 43.335938 L 9.679688 43.421875 C 10.289062 43.511719 10.796875 43.941406 10.988281 44.523438 C 11.183594 45.105469 11.039062 45.75 10.605469 46.1875 M 20.039062 46.1875 L 19.59375 46.648438 L 19.703125 47.316406 C 19.800781 47.933594 19.542969 48.558594 19.027344 48.917969 C 18.75 49.117188 18.414062 49.21875 18.082031 49.21875 C 17.8125 49.21875 17.539062 49.148438 17.289062 49.011719 L 16.816406 48.75 L 16.34375 49.011719 C 16.09375 49.148438 15.820312 49.21875 15.550781 49.21875 C 15.214844 49.21875 14.882812 49.117188 14.605469 48.917969 C 14.089844 48.558594 13.832031 47.933594 13.929688 47.316406 L 14.039062 46.648438 L 13.59375 46.1875 C 13.160156 45.75 13.015625 45.105469 13.210938 44.523438 C 13.402344 43.941406 13.910156 43.511719 14.519531 43.421875 L 15.070312 43.335938 L 15.332031 42.777344 C 15.601562 42.203125 16.179688 41.835938 16.816406 41.835938 C 17.453125 41.835938 18.03125 42.203125 18.300781 42.777344 L 18.5625 43.335938 L 19.113281 43.421875 C 19.722656 43.511719 20.230469 43.941406 20.421875 44.523438 C 20.617188 45.105469 20.472656 45.75 20.039062 46.1875 M 29.472656 46.1875 L 29.027344 46.648438 L 29.136719 47.316406 C 29.234375 47.933594 28.976562 48.558594 28.460938 48.917969 C 28.183594 49.117188 27.847656 49.21875 27.515625 49.21875 C 27.246094 49.21875 26.972656 49.148438 26.722656 49.011719 L 26.25 48.75 L 25.777344 49.011719 C 25.527344 49.148438 25.253906 49.21875 24.984375 49.21875 C 24.648438 49.21875 24.316406 49.117188 24.039062 48.917969 C 23.523438 48.558594 23.265625 47.933594 23.363281 47.316406 L 23.472656 46.648438 L 23.027344 46.1875 C 22.59375 45.75 22.449219 45.105469 22.644531 44.523438 C 22.835938 43.941406 23.34375 43.511719 23.953125 43.421875 L 24.503906 43.335938 L 24.765625 42.777344 C 25.035156 42.203125 25.613281 41.835938 26.25 41.835938 C 26.886719 41.835938 27.464844 42.203125 27.734375 42.777344 L 27.996094 43.335938 L 28.546875 43.421875 C 29.15625 43.511719 29.664062 43.941406 29.855469 44.523438 C 30.050781 45.105469 29.90625 45.75 29.472656 46.1875 M 38.90625 46.1875 L 38.460938 46.648438 L 38.570312 47.316406 C 38.667969 47.933594 38.410156 48.558594 37.894531 48.917969 C 37.617188 49.117188 37.28125 49.21875 36.949219 49.21875 C 36.679688 49.21875 36.40625 49.148438 36.15625 49.011719 L 35.683594 48.75 L 35.210938 49.011719 C 34.960938 49.148438 34.6875 49.21875 34.417969 49.21875 C 34.082031 49.21875 33.75 49.117188 33.472656 48.917969 C 32.957031 48.558594 32.699219 47.933594 32.796875 47.316406 L 32.90625 46.648438 L 32.460938 46.1875 C 32.027344 45.75 31.882812 45.105469 32.078125 44.523438 C 32.269531 43.941406 32.777344 43.511719 33.386719 43.421875 L 33.9375 43.335938 L 34.199219 42.777344 C 34.46875 42.203125 35.046875 41.835938 35.683594 41.835938 C 36.320312 41.835938 36.898438 42.203125 37.167969 42.777344 L 37.429688 43.335938 L 37.980469 43.421875 C 38.589844 43.511719 39.097656 43.941406 39.289062 44.523438 C 39.484375 45.105469 39.339844 45.75 38.90625 46.1875 M 48.339844 46.1875 L 47.894531 46.648438 L 48.003906 47.316406 C 48.101562 47.933594 47.84375 48.558594 47.328125 48.917969 C 47.050781 49.117188 46.71875 49.21875 46.382812 49.21875 C 46.113281 49.21875 45.839844 49.148438 45.589844 49.011719 L 45.117188 48.75 L 44.644531 49.011719 C 44.394531 49.148438 44.121094 49.21875 43.851562 49.21875 C 43.515625 49.21875 43.183594 49.117188 42.90625 48.917969 C 42.390625 48.558594 42.132812 47.933594 42.230469 47.316406 L 42.339844 46.648438 L 41.894531 46.1875 C 41.464844 45.75 41.316406 45.105469 41.511719 44.523438 C 41.703125 43.941406 42.210938 43.511719 42.820312 43.421875 L 43.371094 43.335938 L 43.632812 42.777344 C 43.902344 42.203125 44.480469 41.835938 45.117188 41.835938 C 45.753906 41.835938 46.332031 42.203125 46.601562 42.777344 L 46.863281 43.335938 L 47.414062 43.421875 C 48.023438 43.511719 48.53125 43.941406 48.722656 44.523438 C 48.917969 45.105469 48.773438 45.75 48.339844 46.1875 " fill-opacity="1" fill-rule="nonzero"/><path fill="#2c3d53" d="M 29.855469 44.523438 C 29.664062 43.941406 29.15625 43.511719 28.546875 43.421875 L 27.996094 43.335938 L 27.734375 42.777344 C 27.464844 42.203125 26.886719 41.835938 26.25 41.835938 C 25.613281 41.835938 25.035156 42.203125 24.765625 42.777344 L 24.503906 43.335938 L 23.953125 43.421875 C 23.34375 43.511719 22.835938 43.941406 22.644531 44.523438 C 22.449219 45.105469 22.597656 45.75 23.027344 46.1875 L 23.472656 46.648438 L 23.363281 47.316406 C 23.265625 47.933594 23.523438 48.558594 24.039062 48.917969 C 24.316406 49.117188 24.652344 49.21875 24.984375 49.21875 C 25.253906 49.21875 25.527344 49.148438 25.777344 49.011719 L 26.25 48.75 L 26.722656 49.011719 C 26.972656 49.148438 27.246094 49.21875 27.515625 49.21875 C 27.847656 49.21875 28.183594 49.117188 28.460938 48.917969 C 28.976562 48.558594 29.234375 47.933594 29.136719 47.316406 L 29.027344 46.648438 L 29.472656 46.1875 C 29.90625 45.75 30.050781 45.105469 29.855469 44.523438 Z M 27.515625 47.578125 L 26.25 46.875 L 24.984375 47.578125 L 25.222656 46.09375 L 24.199219 45.042969 L 25.613281 44.824219 L 26.25 43.476562 L 26.886719 44.824219 L 28.300781 45.042969 L 27.277344 46.09375 L 27.515625 47.578125 " fill-opacity="1" fill-rule="nonzero"/><path fill="#fcd965" d="M 27.273438 46.09375 L 27.515625 47.578125 L 26.25 46.875 L 24.984375 47.578125 L 25.222656 46.09375 L 24.199219 45.042969 L 25.613281 44.824219 L 26.25 43.476562 L 26.886719 44.824219 L 28.300781 45.042969 L 27.273438 46.09375 " fill-opacity="1" fill-rule="nonzero"/><path fill="#2c3d53" d="M 39.289062 44.523438 C 39.097656 43.941406 38.589844 43.511719 37.980469 43.421875 L 37.429688 43.335938 L 37.167969 42.78125 C 36.898438 42.207031 36.320312 41.835938 35.683594 41.835938 C 35.046875 41.835938 34.46875 42.207031 34.199219 42.78125 L 33.9375 43.335938 L 33.386719 43.421875 C 32.777344 43.511719 32.269531 43.941406 32.078125 44.523438 C 31.882812 45.105469 32.027344 45.75 32.460938 46.1875 L 32.90625 46.648438 L 32.796875 47.316406 C 32.699219 47.933594 32.957031 48.558594 33.472656 48.917969 C 33.75 49.117188 34.082031 49.21875 34.414062 49.21875 C 34.6875 49.21875 34.960938 49.148438 35.210938 49.015625 L 35.683594 48.75 L 36.15625 49.015625 C 36.40625 49.148438 36.679688 49.21875 36.949219 49.21875 C 37.28125 49.21875 37.617188 49.117188 37.894531 48.917969 C 38.410156 48.558594 38.667969 47.933594 38.570312 47.316406 L 38.460938 46.648438 L 38.90625 46.1875 C 39.335938 45.75 39.484375 45.105469 39.289062 44.523438 Z M 36.949219 47.578125 L 35.683594 46.875 L 34.414062 47.578125 L 34.65625 46.09375 L 33.632812 45.042969 L 35.046875 44.824219 L 35.683594 43.476562 L 36.320312 44.824219 L 37.734375 45.042969 L 36.707031 46.09375 L 36.949219 47.578125 " fill-opacity="1" fill-rule="nonzero"/><path fill="#fcd965" d="M 36.707031 46.09375 L 36.949219 47.578125 L 35.683594 46.875 L 34.417969 47.578125 L 34.65625 46.09375 L 33.632812 45.042969 L 35.046875 44.824219 L 35.683594 43.476562 L 36.320312 44.824219 L 37.734375 45.042969 L 36.707031 46.09375 " fill-opacity="1" fill-rule="nonzero"/><path fill="#2c3d53" d="M 48.722656 44.523438 C 48.53125 43.941406 48.023438 43.511719 47.414062 43.421875 L 46.863281 43.335938 L 46.601562 42.78125 C 46.332031 42.203125 45.753906 41.835938 45.117188 41.835938 C 44.480469 41.835938 43.902344 42.203125 43.632812 42.78125 L 43.371094 43.335938 L 42.820312 43.421875 C 42.207031 43.511719 41.703125 43.941406 41.511719 44.523438 C 41.316406 45.105469 41.460938 45.75 41.894531 46.1875 L 42.339844 46.648438 L 42.230469 47.316406 C 42.132812 47.933594 42.390625 48.558594 42.90625 48.917969 C 43.183594 49.117188 43.515625 49.21875 43.851562 49.21875 C 44.121094 49.21875 44.394531 49.148438 44.644531 49.011719 L 45.117188 48.75 L 45.589844 49.011719 C 45.839844 49.148438 46.113281 49.21875 46.382812 49.21875 C 46.714844 49.21875 47.050781 49.117188 47.328125 48.917969 C 47.84375 48.558594 48.101562 47.933594 48.003906 47.316406 L 47.894531 46.648438 L 48.339844 46.1875 C 48.773438 45.75 48.917969 45.105469 48.722656 44.523438 Z M 46.382812 47.578125 L 45.117188 46.875 L 43.851562 47.578125 L 44.089844 46.09375 L 43.066406 45.042969 L 44.480469 44.824219 L 45.117188 43.476562 L 45.753906 44.824219 L 47.167969 45.042969 L 46.140625 46.09375 L 46.382812 47.578125 " fill-opacity="1" fill-rule="nonzero"/><path fill="#fcd965" d="M 46.140625 46.09375 L 46.382812 47.578125 L 45.117188 46.875 L 43.851562 47.578125 L 44.089844 46.09375 L 43.066406 45.042969 L 44.480469 44.824219 L 45.117188 43.476562 L 45.753906 44.824219 L 47.167969 45.042969 L 46.140625 46.09375 " fill-opacity="1" fill-rule="nonzero"/><path fill="#2c3d53" d="M 10.988281 44.523438 C 10.796875 43.941406 10.289062 43.511719 9.679688 43.421875 L 9.128906 43.335938 L 8.867188 42.777344 C 8.597656 42.203125 8.019531 41.835938 7.382812 41.835938 C 6.746094 41.835938 6.167969 42.203125 5.898438 42.777344 L 5.636719 43.335938 L 5.085938 43.421875 C 4.476562 43.511719 3.96875 43.941406 3.777344 44.523438 C 3.582031 45.105469 3.726562 45.75 4.160156 46.1875 L 4.605469 46.648438 L 4.496094 47.316406 C 4.398438 47.933594 4.65625 48.558594 5.171875 48.917969 C 5.449219 49.117188 5.78125 49.21875 6.117188 49.21875 C 6.386719 49.21875 6.660156 49.148438 6.910156 49.011719 L 7.382812 48.75 L 7.855469 49.011719 C 8.105469 49.148438 8.378906 49.21875 8.648438 49.21875 C 8.980469 49.21875 9.316406 49.117188 9.59375 48.917969 C 10.109375 48.558594 10.367188 47.933594 10.269531 47.316406 L 10.160156 46.648438 L 10.605469 46.1875 C 11.039062 45.75 11.183594 45.105469 10.988281 44.523438 Z M 8.648438 47.578125 L 7.382812 46.875 L 6.117188 47.578125 L 6.355469 46.09375 L 5.332031 45.042969 L 6.746094 44.824219 L 7.382812 43.476562 L 8.019531 44.824219 L 9.433594 45.042969 L 8.40625 46.09375 L 8.648438 47.578125 " fill-opacity="1" fill-rule="nonzero"/><path fill="#fcd965" d="M 8.40625 46.09375 L 8.648438 47.578125 L 7.382812 46.875 L 6.117188 47.578125 L 6.355469 46.09375 L 5.332031 45.042969 L 6.746094 44.824219 L 7.382812 43.476562 L 8.019531 44.824219 L 9.433594 45.042969 L 8.40625 46.09375 " fill-opacity="1" fill-rule="nonzero"/><path fill="#2c3d53" d="M 20.421875 44.523438 C 20.230469 43.941406 19.722656 43.511719 19.113281 43.421875 L 18.5625 43.335938 L 18.300781 42.777344 C 18.03125 42.203125 17.453125 41.835938 16.816406 41.835938 C 16.179688 41.835938 15.601562 42.203125 15.332031 42.777344 L 15.070312 43.335938 L 14.519531 43.421875 C 13.910156 43.511719 13.402344 43.941406 13.210938 44.523438 C 13.015625 45.105469 13.160156 45.75 13.59375 46.1875 L 14.039062 46.648438 L 13.929688 47.316406 C 13.832031 47.933594 14.089844 48.558594 14.605469 48.917969 C 14.882812 49.117188 15.214844 49.21875 15.550781 49.21875 C 15.820312 49.21875 16.09375 49.148438 16.34375 49.011719 L 16.816406 48.75 L 17.289062 49.011719 C 17.539062 49.148438 17.8125 49.21875 18.082031 49.21875 C 18.417969 49.21875 18.75 49.117188 19.027344 48.917969 C 19.542969 48.558594 19.800781 47.933594 19.703125 47.316406 L 19.59375 46.648438 L 20.039062 46.1875 C 20.472656 45.75 20.617188 45.105469 20.421875 44.523438 Z M 18.082031 47.578125 L 16.816406 46.875 L 15.550781 47.578125 L 15.792969 46.09375 L 14.765625 45.042969 L 16.179688 44.824219 L 16.816406 43.476562 L 17.453125 44.824219 L 18.867188 45.042969 L 17.84375 46.09375 L 18.082031 47.578125 " fill-opacity="1" fill-rule="nonzero"/><path fill="#fcd965" d="M 17.839844 46.09375 L 18.082031 47.578125 L 16.816406 46.875 L 15.550781 47.578125 L 15.789062 46.09375 L 14.765625 45.042969 L 16.179688 44.824219 L 16.816406 43.476562 L 17.453125 44.824219 L 18.867188 45.042969 L 17.839844 46.09375 " fill-opacity="1" fill-rule="nonzero"/><path fill="#2c3d53" d="M 26.25 11.484375 C 21.953125 11.484375 18.457031 14.980469 18.457031 19.277344 C 18.457031 23.574219 21.953125 27.070312 26.25 27.070312 C 30.546875 27.070312 34.042969 23.574219 34.042969 19.277344 C 34.042969 14.980469 30.546875 11.484375 26.25 11.484375 M 26.25 25.429688 C 22.859375 25.429688 20.097656 22.667969 20.097656 19.277344 C 20.097656 15.886719 22.859375 13.125 26.25 13.125 C 29.640625 13.125 32.402344 15.886719 32.402344 19.277344 C 32.402344 22.667969 29.640625 25.429688 26.25 25.429688 " fill-opacity="1" fill-rule="nonzero"/><path fill="#e4eef6" d="M 32.402344 19.277344 C 32.402344 22.667969 29.640625 25.429688 26.25 25.429688 C 22.859375 25.429688 20.097656 22.667969 20.097656 19.277344 C 20.097656 15.886719 22.859375 13.125 26.25 13.125 C 29.640625 13.125 32.402344 15.886719 32.402344 19.277344 " fill-opacity="1" fill-rule="nonzero"/><path fill="#2c3d53" d="M 26.25 5.742188 C 26.703125 5.742188 27.070312 5.375 27.070312 4.921875 L 27.070312 0.820312 C 27.070312 0.367188 26.703125 0 26.25 0 C 25.796875 0 25.429688 0.367188 25.429688 0.820312 L 25.429688 4.921875 C 25.429688 5.375 25.796875 5.742188 26.25 5.742188 " fill-opacity="1" fill-rule="nonzero"/><path fill="#2c3d53" d="M 45.117188 14.347656 C 45.328125 14.347656 45.542969 14.269531 45.695312 14.113281 L 48.980469 10.832031 C 49.300781 10.511719 49.300781 9.996094 48.980469 9.675781 C 48.65625 9.351562 48.140625 9.351562 47.820312 9.675781 L 44.539062 12.953125 C 44.21875 13.273438 44.21875 13.792969 44.539062 14.113281 C 44.691406 14.269531 44.902344 14.347656 45.117188 14.347656 " fill-opacity="1" fill-rule="nonzero"/><path fill="#2c3d53" d="M 6.804688 14.113281 C 7.109375 14.421875 7.644531 14.433594 7.960938 14.113281 C 8.285156 13.792969 8.285156 13.277344 7.960938 12.953125 L 4.679688 9.675781 C 4.359375 9.351562 3.84375 9.351562 3.523438 9.675781 C 3.199219 9.992188 3.199219 10.511719 3.523438 10.832031 L 6.804688 14.113281 " fill-opacity="1" fill-rule="nonzero"/><g clip-path="url(#5500ef6a18)"><path fill="#d24d44" d="M 15.585938 38.554688 L 36.914062 38.554688 L 36.914062 37.734375 L 15.585938 37.734375 L 15.585938 38.554688 " fill-opacity="1" fill-rule="nonzero"/></g><path fill="#fae497" d="M 26.25 9.023438 C 15.167969 9.023438 6.152344 18.039062 6.152344 29.121094 C 6.152344 29.191406 6.152344 29.257812 6.152344 29.328125 C 6.15625 29.394531 6.15625 29.464844 6.160156 29.53125 C 6.378906 18.636719 15.308594 9.84375 26.25 9.84375 C 37.191406 9.84375 46.121094 18.636719 46.339844 29.53125 C 46.34375 29.464844 46.34375 29.394531 46.347656 29.328125 C 46.347656 29.257812 46.347656 29.191406 46.347656 29.121094 C 46.347656 18.039062 37.332031 9.023438 26.25 9.023438 " fill-opacity="1" fill-rule="nonzero"/><path fill="#8e9690" d="M 6.152344 29.121094 C 6.152344 29.1875 6.152344 29.257812 6.152344 29.328125 C 6.152344 29.257812 6.152344 29.191406 6.152344 29.121094 M 46.347656 29.121094 C 46.347656 29.191406 46.347656 29.257812 46.347656 29.328125 C 46.347656 29.257812 46.347656 29.1875 46.347656 29.121094 M 26.25 9.023438 C 15.167969 9.023438 6.152344 18.039062 6.152344 29.121094 C 6.152344 18.039062 15.167969 9.023438 26.25 9.023438 C 37.332031 9.023438 46.347656 18.039062 46.347656 29.121094 C 46.347656 18.039062 37.332031 9.023438 26.25 9.023438 " fill-opacity="1" fill-rule="nonzero"/><path fill="#62aeaf" d="M 50.859375 49.21875 C 50.859375 49.667969 50.488281 50.039062 50.039062 50.039062 L 2.460938 50.039062 C 2.011719 50.039062 1.640625 49.667969 1.640625 49.21875 L 1.640625 50.039062 C 1.640625 50.488281 2.011719 50.859375 2.460938 50.859375 L 50.039062 50.859375 C 50.488281 50.859375 50.859375 50.488281 50.859375 50.039062 L 50.859375 49.21875 " fill-opacity="1" fill-rule="nonzero"/><path fill="#b2e5e7" d="M 50.039062 40.195312 L 2.460938 40.195312 C 2.011719 40.195312 1.640625 40.5625 1.640625 41.015625 L 1.640625 41.835938 C 1.640625 41.382812 2.011719 41.015625 2.460938 41.015625 L 50.039062 41.015625 C 50.488281 41.015625 50.859375 41.382812 50.859375 41.835938 L 50.859375 41.015625 C 50.859375 40.5625 50.488281 40.195312 50.039062 40.195312 " fill-opacity="1" fill-rule="nonzero"/><path fill="#5f6f7f" d="M 20.097656 19.265625 C 20.097656 19.269531 20.097656 19.273438 20.097656 19.277344 C 20.097656 19.273438 20.097656 19.269531 20.097656 19.265625 M 20.097656 19.132812 C 20.097656 19.175781 20.097656 19.222656 20.097656 19.265625 C 20.097656 19.222656 20.097656 19.175781 20.097656 19.132812 M 32.402344 19.125 C 32.402344 19.175781 32.402344 19.226562 32.402344 19.277344 C 32.402344 19.226562 32.402344 19.175781 32.402344 19.125 " fill-opacity="1" fill-rule="nonzero"/><path fill="#c1c7ce" d="M 32.34375 19.277344 C 31.945312 22.285156 29.363281 24.609375 26.25 24.609375 C 23.136719 24.609375 20.554688 22.285156 20.15625 19.277344 C 20.136719 19.414062 20.121094 19.550781 20.113281 19.6875 C 20.105469 19.597656 20.101562 19.511719 20.097656 19.421875 C 20.175781 22.746094 22.90625 25.429688 26.25 25.429688 C 29.589844 25.429688 32.320312 22.75 32.398438 19.429688 C 32.398438 19.515625 32.394531 19.601562 32.386719 19.6875 C 32.375 19.550781 32.363281 19.414062 32.34375 19.277344 " fill-opacity="1" fill-rule="nonzero"/><path fill="#f4f8fc" d="M 26.25 13.125 C 22.90625 13.125 20.175781 15.808594 20.097656 19.132812 C 20.101562 19.042969 20.105469 18.957031 20.113281 18.867188 C 20.125 19.003906 20.136719 19.140625 20.15625 19.277344 C 20.554688 16.269531 23.136719 13.945312 26.25 13.945312 C 29.363281 13.945312 31.945312 16.269531 32.34375 19.277344 C 32.363281 19.140625 32.375 19.003906 32.386719 18.867188 C 32.394531 18.953125 32.398438 19.039062 32.402344 19.125 C 32.320312 15.804688 29.589844 13.125 26.25 13.125 " fill-opacity="1" fill-rule="nonzero"/><path fill="#929ea9" d="M 32.402344 19.277344 C 32.402344 19.328125 32.402344 19.378906 32.398438 19.429688 C 32.402344 19.378906 32.402344 19.328125 32.402344 19.277344 " fill-opacity="1" fill-rule="nonzero"/><path fill="#e3e7e9" d="M 32.386719 18.867188 C 32.375 19.003906 32.363281 19.140625 32.34375 19.277344 C 32.363281 19.414062 32.375 19.550781 32.386719 19.6875 C 32.394531 19.601562 32.398438 19.515625 32.402344 19.429688 C 32.402344 19.378906 32.402344 19.328125 32.402344 19.277344 C 32.402344 19.226562 32.402344 19.175781 32.402344 19.125 C 32.398438 19.039062 32.394531 18.953125 32.386719 18.867188 " fill-opacity="1" fill-rule="nonzero"/><path fill="#e3e7e9" d="M 20.113281 18.867188 C 20.105469 18.957031 20.101562 19.042969 20.097656 19.132812 C 20.097656 19.175781 20.097656 19.222656 20.097656 19.265625 C 20.097656 19.269531 20.097656 19.273438 20.097656 19.277344 C 20.097656 19.28125 20.097656 19.285156 20.097656 19.289062 C 20.097656 19.332031 20.097656 19.378906 20.097656 19.421875 C 20.101562 19.511719 20.105469 19.597656 20.113281 19.6875 C 20.125 19.550781 20.136719 19.414062 20.15625 19.277344 C 20.136719 19.140625 20.125 19.003906 20.113281 18.867188 " fill-opacity="1" fill-rule="nonzero"/></svg>