<svg xmlns="http://www.w3.org/2000/svg" xmlns:xlink="http://www.w3.org/1999/xlink" width="70" zoomAndPan="magnify" viewBox="0 0 52.5 52.499999" height="70" preserveAspectRatio="xMidYMid meet" version="1.0"><defs><clipPath id="b1f80478fc"><path d="M 30 0 L 52.003906 0 L 52.003906 52.003906 L 30 52.003906 Z M 30 0 " clip-rule="nonzero"/></clipPath><clipPath id="83fd2a9c70"><path d="M 0 0 L 52.003906 0 L 52.003906 52.003906 L 0 52.003906 Z M 0 0 " clip-rule="nonzero"/></clipPath><clipPath id="5f5e4b26e9"><path d="M 52.5 26.25 C 52.5 40.75 40.75 52.5 26.25 52.5 C 11.75 52.5 0 40.75 0 26.25 C 0 11.75 11.75 0 26.25 0 C 40.75 0 52.5 11.75 52.5 26.25 " clip-rule="nonzero"/></clipPath><clipPath id="1c4ec8a60f"><path d="M 36.085938 41 L 40 41 L 40 52.003906 L 36.085938 52.003906 Z M 36.085938 41 " clip-rule="nonzero"/></clipPath><clipPath id="b59b299f36"><path d="M 52.5 26.25 C 52.5 40.75 40.75 52.5 26.25 52.5 C 11.75 52.5 0 40.75 0 26.25 C 0 11.75 11.75 0 26.25 0 C 40.75 0 52.5 11.75 52.5 26.25 " clip-rule="nonzero"/></clipPath><clipPath id="1717f8afed"><path d="M 36.085938 43.71875 L 36.847656 43.71875 L 36.847656 44.332031 L 36.085938 44.332031 Z M 36.085938 43.71875 " clip-rule="nonzero"/></clipPath><clipPath id="a8c7695124"><path d="M 52.5 26.25 C 52.5 40.75 40.75 52.5 26.25 52.5 C 11.75 52.5 0 40.75 0 26.25 C 0 11.75 11.75 0 26.25 0 C 40.75 0 52.5 11.75 52.5 26.25 " clip-rule="nonzero"/></clipPath><clipPath id="6668226f87"><path d="M 36.085938 42.804688 L 39.902344 42.804688 L 39.902344 50.589844 L 36.085938 50.589844 Z M 36.085938 42.804688 " clip-rule="nonzero"/></clipPath><clipPath id="d51e994b87"><path d="M 52.5 26.25 C 52.5 40.75 40.75 52.5 26.25 52.5 C 11.75 52.5 0 40.75 0 26.25 C 0 11.75 11.75 0 26.25 0 C 40.75 0 52.5 11.75 52.5 26.25 " clip-rule="nonzero"/></clipPath><clipPath id="1f10595b80"><path d="M 34.558594 34.40625 L 40.054688 34.40625 L 40.054688 52.003906 L 34.558594 52.003906 Z M 34.558594 34.40625 " clip-rule="nonzero"/></clipPath><clipPath id="df50a19f4c"><path d="M 52.5 26.25 C 52.5 40.75 40.75 52.5 26.25 52.5 C 11.75 52.5 0 40.75 0 26.25 C 0 11.75 11.75 0 26.25 0 C 40.75 0 52.5 11.75 52.5 26.25 " clip-rule="nonzero"/></clipPath><clipPath id="a07ae092c5"><path d="M 34.558594 37 L 37.917969 37 L 37.917969 52.003906 L 34.558594 52.003906 Z M 34.558594 37 " clip-rule="nonzero"/></clipPath><clipPath id="98f5e371ae"><path d="M 52.5 26.25 C 52.5 40.75 40.75 52.5 26.25 52.5 C 11.75 52.5 0 40.75 0 26.25 C 0 11.75 11.75 0 26.25 0 C 40.75 0 52.5 11.75 52.5 26.25 " clip-rule="nonzero"/></clipPath><clipPath id="1767b8d6d0"><path d="M 12.414062 41 L 16.386719 41 L 16.386719 52.003906 L 12.414062 52.003906 Z M 12.414062 41 " clip-rule="nonzero"/></clipPath><clipPath id="878269c26f"><path d="M 52.5 26.25 C 52.5 40.75 40.75 52.5 26.25 52.5 C 11.75 52.5 0 40.75 0 26.25 C 0 11.75 11.75 0 26.25 0 C 40.75 0 52.5 11.75 52.5 26.25 " clip-rule="nonzero"/></clipPath><clipPath id="4f8a266380"><path d="M 15.621094 43.71875 L 16.386719 43.71875 L 16.386719 44.332031 L 15.621094 44.332031 Z M 15.621094 43.71875 " clip-rule="nonzero"/></clipPath><clipPath id="923af85134"><path d="M 52.5 26.25 C 52.5 40.75 40.75 52.5 26.25 52.5 C 11.75 52.5 0 40.75 0 26.25 C 0 11.75 11.75 0 26.25 0 C 40.75 0 52.5 11.75 52.5 26.25 " clip-rule="nonzero"/></clipPath><clipPath id="e7d782011a"><path d="M 12.566406 42.804688 L 16.386719 42.804688 L 16.386719 50.589844 L 12.566406 50.589844 Z M 12.566406 42.804688 " clip-rule="nonzero"/></clipPath><clipPath id="4724bfd1e8"><path d="M 52.5 26.25 C 52.5 40.75 40.75 52.5 26.25 52.5 C 11.75 52.5 0 40.75 0 26.25 C 0 11.75 11.75 0 26.25 0 C 40.75 0 52.5 11.75 52.5 26.25 " clip-rule="nonzero"/></clipPath><clipPath id="ca1bd12257"><path d="M 12.414062 34.40625 L 17.914062 34.40625 L 17.914062 52.003906 L 12.414062 52.003906 Z M 12.414062 34.40625 " clip-rule="nonzero"/></clipPath><clipPath id="76f8682282"><path d="M 52.5 26.25 C 52.5 40.75 40.75 52.5 26.25 52.5 C 11.75 52.5 0 40.75 0 26.25 C 0 11.75 11.75 0 26.25 0 C 40.75 0 52.5 11.75 52.5 26.25 " clip-rule="nonzero"/></clipPath><clipPath id="ea50b7fbd8"><path d="M 14.707031 37 L 17.914062 37 L 17.914062 52.003906 L 14.707031 52.003906 Z M 14.707031 37 " clip-rule="nonzero"/></clipPath><clipPath id="0947af740d"><path d="M 52.5 26.25 C 52.5 40.75 40.75 52.5 26.25 52.5 C 11.75 52.5 0 40.75 0 26.25 C 0 11.75 11.75 0 26.25 0 C 40.75 0 52.5 11.75 52.5 26.25 " clip-rule="nonzero"/></clipPath><clipPath id="f61b26f926"><path d="M 15.773438 32 L 36.695312 32 L 36.695312 52.003906 L 15.773438 52.003906 Z M 15.773438 32 " clip-rule="nonzero"/></clipPath><clipPath id="b097bbd719"><path d="M 52.5 26.25 C 52.5 40.75 40.75 52.5 26.25 52.5 C 11.75 52.5 0 40.75 0 26.25 C 0 11.75 11.75 0 26.25 0 C 40.75 0 52.5 11.75 52.5 26.25 " clip-rule="nonzero"/></clipPath><clipPath id="6009ff179e"><path d="M 20.203125 32.113281 L 26.464844 32.113281 L 26.464844 48.757812 L 20.203125 48.757812 Z M 20.203125 32.113281 " clip-rule="nonzero"/></clipPath><clipPath id="fc4774a679"><path d="M 52.5 26.25 C 52.5 40.75 40.75 52.5 26.25 52.5 C 11.75 52.5 0 40.75 0 26.25 C 0 11.75 11.75 0 26.25 0 C 40.75 0 52.5 11.75 52.5 26.25 " clip-rule="nonzero"/></clipPath><clipPath id="4526fcfe3b"><path d="M 26.3125 32.265625 L 32.570312 32.265625 L 32.570312 48.910156 L 26.3125 48.910156 Z M 26.3125 32.265625 " clip-rule="nonzero"/></clipPath><clipPath id="1ccaf7f708"><path d="M 52.5 26.25 C 52.5 40.75 40.75 52.5 26.25 52.5 C 11.75 52.5 0 40.75 0 26.25 C 0 11.75 11.75 0 26.25 0 C 40.75 0 52.5 11.75 52.5 26.25 " clip-rule="nonzero"/></clipPath><clipPath id="1dc4d5b85d"><path d="M 22.800781 33.640625 L 30.28125 33.640625 L 30.28125 48.910156 L 22.800781 48.910156 Z M 22.800781 33.640625 " clip-rule="nonzero"/></clipPath><clipPath id="a7dae484b9"><path d="M 52.5 26.25 C 52.5 40.75 40.75 52.5 26.25 52.5 C 11.75 52.5 0 40.75 0 26.25 C 0 11.75 11.75 0 26.25 0 C 40.75 0 52.5 11.75 52.5 26.25 " clip-rule="nonzero"/></clipPath><clipPath id="8c6e813b8b"><path d="M 24.785156 34 L 28.296875 34 L 28.296875 48.910156 L 24.785156 48.910156 Z M 24.785156 34 " clip-rule="nonzero"/></clipPath><clipPath id="f4002234d9"><path d="M 52.5 26.25 C 52.5 40.75 40.75 52.5 26.25 52.5 C 11.75 52.5 0 40.75 0 26.25 C 0 11.75 11.75 0 26.25 0 C 40.75 0 52.5 11.75 52.5 26.25 " clip-rule="nonzero"/></clipPath><clipPath id="82b963204f"><path d="M 25.242188 34.097656 L 27.839844 34.097656 L 27.839844 36 L 25.242188 36 Z M 25.242188 34.097656 " clip-rule="nonzero"/></clipPath><clipPath id="ff9fdbbf4c"><path d="M 52.5 26.25 C 52.5 40.75 40.75 52.5 26.25 52.5 C 11.75 52.5 0 40.75 0 26.25 C 0 11.75 11.75 0 26.25 0 C 40.75 0 52.5 11.75 52.5 26.25 " clip-rule="nonzero"/></clipPath><clipPath id="98478e2e2a"><path d="M 22.644531 27.53125 L 29.976562 27.53125 L 29.976562 34.25 L 22.644531 34.25 Z M 22.644531 27.53125 " clip-rule="nonzero"/></clipPath><clipPath id="522a7fa437"><path d="M 52.5 26.25 C 52.5 40.75 40.75 52.5 26.25 52.5 C 11.75 52.5 0 40.75 0 26.25 C 0 11.75 11.75 0 26.25 0 C 40.75 0 52.5 11.75 52.5 26.25 " clip-rule="nonzero"/></clipPath><clipPath id="7cf9bab9cf"><path d="M 23.105469 28.90625 L 29.671875 28.90625 L 29.671875 31.65625 L 23.105469 31.65625 Z M 23.105469 28.90625 " clip-rule="nonzero"/></clipPath><clipPath id="fb63d9878a"><path d="M 52.5 26.25 C 52.5 40.75 40.75 52.5 26.25 52.5 C 11.75 52.5 0 40.75 0 26.25 C 0 11.75 11.75 0 26.25 0 C 40.75 0 52.5 11.75 52.5 26.25 " clip-rule="nonzero"/></clipPath><clipPath id="2ac240a0c6"><path d="M 23.105469 28.90625 L 29.671875 28.90625 L 29.671875 31.960938 L 23.105469 31.960938 Z M 23.105469 28.90625 " clip-rule="nonzero"/></clipPath><clipPath id="c24f7fa36a"><path d="M 52.5 26.25 C 52.5 40.75 40.75 52.5 26.25 52.5 C 11.75 52.5 0 40.75 0 26.25 C 0 11.75 11.75 0 26.25 0 C 40.75 0 52.5 11.75 52.5 26.25 " clip-rule="nonzero"/></clipPath><clipPath id="32c837e8c4"><path d="M 32.417969 18.21875 L 35.320312 18.21875 L 35.320312 22.800781 L 32.417969 22.800781 Z M 32.417969 18.21875 " clip-rule="nonzero"/></clipPath><clipPath id="2cb8bd665a"><path d="M 52.5 26.25 C 52.5 40.75 40.75 52.5 26.25 52.5 C 11.75 52.5 0 40.75 0 26.25 C 0 11.75 11.75 0 26.25 0 C 40.75 0 52.5 11.75 52.5 26.25 " clip-rule="nonzero"/></clipPath><clipPath id="4dede2055d"><path d="M 33.335938 19.132812 L 34.863281 19.132812 L 34.863281 22.1875 L 33.335938 22.1875 Z M 33.335938 19.132812 " clip-rule="nonzero"/></clipPath><clipPath id="cba93b546a"><path d="M 52.5 26.25 C 52.5 40.75 40.75 52.5 26.25 52.5 C 11.75 52.5 0 40.75 0 26.25 C 0 11.75 11.75 0 26.25 0 C 40.75 0 52.5 11.75 52.5 26.25 " clip-rule="nonzero"/></clipPath><clipPath id="5486932b64"><path d="M 33.183594 19 L 34.863281 19 L 34.863281 22.1875 L 33.183594 22.1875 Z M 33.183594 19 " clip-rule="nonzero"/></clipPath><clipPath id="98b1ddde91"><path d="M 52.5 26.25 C 52.5 40.75 40.75 52.5 26.25 52.5 C 11.75 52.5 0 40.75 0 26.25 C 0 11.75 11.75 0 26.25 0 C 40.75 0 52.5 11.75 52.5 26.25 " clip-rule="nonzero"/></clipPath><clipPath id="05402033ee"><path d="M 33.335938 19.285156 L 34.40625 19.285156 L 34.40625 20.660156 L 33.335938 20.660156 Z M 33.335938 19.285156 " clip-rule="nonzero"/></clipPath><clipPath id="0defebbfcd"><path d="M 52.5 26.25 C 52.5 40.75 40.75 52.5 26.25 52.5 C 11.75 52.5 0 40.75 0 26.25 C 0 11.75 11.75 0 26.25 0 C 40.75 0 52.5 11.75 52.5 26.25 " clip-rule="nonzero"/></clipPath><clipPath id="3928baa64e"><path d="M 17.300781 18.21875 L 20.203125 18.21875 L 20.203125 22.800781 L 17.300781 22.800781 Z M 17.300781 18.21875 " clip-rule="nonzero"/></clipPath><clipPath id="0dc754e2a1"><path d="M 52.5 26.25 C 52.5 40.75 40.75 52.5 26.25 52.5 C 11.75 52.5 0 40.75 0 26.25 C 0 11.75 11.75 0 26.25 0 C 40.75 0 52.5 11.75 52.5 26.25 " clip-rule="nonzero"/></clipPath><clipPath id="312fb95645"><path d="M 17.757812 19.132812 L 19.285156 19.132812 L 19.285156 22.035156 L 17.757812 22.035156 Z M 17.757812 19.132812 " clip-rule="nonzero"/></clipPath><clipPath id="ab8848cb34"><path d="M 52.5 26.25 C 52.5 40.75 40.75 52.5 26.25 52.5 C 11.75 52.5 0 40.75 0 26.25 C 0 11.75 11.75 0 26.25 0 C 40.75 0 52.5 11.75 52.5 26.25 " clip-rule="nonzero"/></clipPath><clipPath id="c90e378dc1"><path d="M 17.757812 19 L 19.4375 19 L 19.4375 22.1875 L 17.757812 22.1875 Z M 17.757812 19 " clip-rule="nonzero"/></clipPath><clipPath id="5fdb5c968f"><path d="M 52.5 26.25 C 52.5 40.75 40.75 52.5 26.25 52.5 C 11.75 52.5 0 40.75 0 26.25 C 0 11.75 11.75 0 26.25 0 C 40.75 0 52.5 11.75 52.5 26.25 " clip-rule="nonzero"/></clipPath><clipPath id="595e9c8e21"><path d="M 18.066406 19.285156 L 19.285156 19.285156 L 19.285156 20.660156 L 18.066406 20.660156 Z M 18.066406 19.285156 " clip-rule="nonzero"/></clipPath><clipPath id="85ed2d295f"><path d="M 52.5 26.25 C 52.5 40.75 40.75 52.5 26.25 52.5 C 11.75 52.5 0 40.75 0 26.25 C 0 11.75 11.75 0 26.25 0 C 40.75 0 52.5 11.75 52.5 26.25 " clip-rule="nonzero"/></clipPath><clipPath id="8eebb1f0d4"><path d="M 19.132812 11.191406 L 33.488281 11.191406 L 33.488281 30.28125 L 19.132812 30.28125 Z M 19.132812 11.191406 " clip-rule="nonzero"/></clipPath><clipPath id="4f48dd9719"><path d="M 52.5 26.25 C 52.5 40.75 40.75 52.5 26.25 52.5 C 11.75 52.5 0 40.75 0 26.25 C 0 11.75 11.75 0 26.25 0 C 40.75 0 52.5 11.75 52.5 26.25 " clip-rule="nonzero"/></clipPath><clipPath id="46e6d478ce"><path d="M 23.714844 25.089844 L 28.753906 25.089844 L 28.753906 26.3125 L 23.714844 26.3125 Z M 23.714844 25.089844 " clip-rule="nonzero"/></clipPath><clipPath id="b0399eba18"><path d="M 52.5 26.25 C 52.5 40.75 40.75 52.5 26.25 52.5 C 11.75 52.5 0 40.75 0 26.25 C 0 11.75 11.75 0 26.25 0 C 40.75 0 52.5 11.75 52.5 26.25 " clip-rule="nonzero"/></clipPath><clipPath id="9cd681a566"><path d="M 22.492188 11.347656 L 33.335938 11.347656 L 33.335938 18.21875 L 22.492188 18.21875 Z M 22.492188 11.347656 " clip-rule="nonzero"/></clipPath><clipPath id="d353c2fc9a"><path d="M 52.5 26.25 C 52.5 40.75 40.75 52.5 26.25 52.5 C 11.75 52.5 0 40.75 0 26.25 C 0 11.75 11.75 0 26.25 0 C 40.75 0 52.5 11.75 52.5 26.25 " clip-rule="nonzero"/></clipPath><clipPath id="b1d1818c38"><path d="M 22.035156 11.347656 L 33.335938 11.347656 L 33.335938 18.523438 L 22.035156 18.523438 Z M 22.035156 11.347656 " clip-rule="nonzero"/></clipPath><clipPath id="7f116141f6"><path d="M 52.5 26.25 C 52.5 40.75 40.75 52.5 26.25 52.5 C 11.75 52.5 0 40.75 0 26.25 C 0 11.75 11.75 0 26.25 0 C 40.75 0 52.5 11.75 52.5 26.25 " clip-rule="nonzero"/></clipPath><clipPath id="a672637149"><path d="M 19.132812 12.871094 L 31.503906 12.871094 L 31.503906 30.28125 L 19.132812 30.28125 Z M 19.132812 12.871094 " clip-rule="nonzero"/></clipPath><clipPath id="4276805d34"><path d="M 52.5 26.25 C 52.5 40.75 40.75 52.5 26.25 52.5 C 11.75 52.5 0 40.75 0 26.25 C 0 11.75 11.75 0 26.25 0 C 40.75 0 52.5 11.75 52.5 26.25 " clip-rule="nonzero"/></clipPath><clipPath id="c9379e9670"><path d="M 20.8125 16.691406 L 24.9375 16.691406 L 24.9375 17.914062 L 20.8125 17.914062 Z M 20.8125 16.691406 " clip-rule="nonzero"/></clipPath><clipPath id="8543979850"><path d="M 52.5 26.25 C 52.5 40.75 40.75 52.5 26.25 52.5 C 11.75 52.5 0 40.75 0 26.25 C 0 11.75 11.75 0 26.25 0 C 40.75 0 52.5 11.75 52.5 26.25 " clip-rule="nonzero"/></clipPath><clipPath id="230bca7439"><path d="M 27.378906 16.691406 L 31.503906 16.691406 L 31.503906 17.914062 L 27.378906 17.914062 Z M 27.378906 16.691406 " clip-rule="nonzero"/></clipPath><clipPath id="7ea73a3e51"><path d="M 52.5 26.25 C 52.5 40.75 40.75 52.5 26.25 52.5 C 11.75 52.5 0 40.75 0 26.25 C 0 11.75 11.75 0 26.25 0 C 40.75 0 52.5 11.75 52.5 26.25 " clip-rule="nonzero"/></clipPath><clipPath id="d9a04e4208"><path d="M 25 22.339844 L 27.683594 22.339844 L 27.683594 23.5625 L 25 23.5625 Z M 25 22.339844 " clip-rule="nonzero"/></clipPath><clipPath id="017919259d"><path d="M 52.5 26.25 C 52.5 40.75 40.75 52.5 26.25 52.5 C 11.75 52.5 0 40.75 0 26.25 C 0 11.75 11.75 0 26.25 0 C 40.75 0 52.5 11.75 52.5 26.25 " clip-rule="nonzero"/></clipPath><clipPath id="16767c3f85"><path d="M 25.394531 26.617188 L 27.226562 26.617188 L 27.226562 27.378906 L 25.394531 27.378906 Z M 25.394531 26.617188 " clip-rule="nonzero"/></clipPath><clipPath id="15258e429a"><path d="M 52.5 26.25 C 52.5 40.75 40.75 52.5 26.25 52.5 C 11.75 52.5 0 40.75 0 26.25 C 0 11.75 11.75 0 26.25 0 C 40.75 0 52.5 11.75 52.5 26.25 " clip-rule="nonzero"/></clipPath><clipPath id="aaea5f4483"><path d="M 25 22.800781 L 27.683594 22.800781 L 27.683594 24 L 25 24 Z M 25 22.800781 " clip-rule="nonzero"/></clipPath><clipPath id="b9041adfe8"><path d="M 52.5 26.25 C 52.5 40.75 40.75 52.5 26.25 52.5 C 11.75 52.5 0 40.75 0 26.25 C 0 11.75 11.75 0 26.25 0 C 40.75 0 52.5 11.75 52.5 26.25 " clip-rule="nonzero"/></clipPath><clipPath id="35b0a66b44"><path d="M 23.105469 19.285156 L 24.480469 19.285156 L 24.480469 21.730469 L 23.105469 21.730469 Z M 23.105469 19.285156 " clip-rule="nonzero"/></clipPath><clipPath id="985b59af15"><path d="M 52.5 26.25 C 52.5 40.75 40.75 52.5 26.25 52.5 C 11.75 52.5 0 40.75 0 26.25 C 0 11.75 11.75 0 26.25 0 C 40.75 0 52.5 11.75 52.5 26.25 " clip-rule="nonzero"/></clipPath><clipPath id="3e3b56b484"><path d="M 28.144531 19.285156 L 29.519531 19.285156 L 29.519531 21.730469 L 28.144531 21.730469 Z M 28.144531 19.285156 " clip-rule="nonzero"/></clipPath><clipPath id="ef0d740168"><path d="M 52.5 26.25 C 52.5 40.75 40.75 52.5 26.25 52.5 C 11.75 52.5 0 40.75 0 26.25 C 0 11.75 11.75 0 26.25 0 C 40.75 0 52.5 11.75 52.5 26.25 " clip-rule="nonzero"/></clipPath><clipPath id="1ae71af34f"><path d="M 21.730469 31.503906 L 26.617188 31.503906 L 26.617188 35.929688 L 21.730469 35.929688 Z M 21.730469 31.503906 " clip-rule="nonzero"/></clipPath><clipPath id="42f28f7e0a"><path d="M 52.5 26.25 C 52.5 40.75 40.75 52.5 26.25 52.5 C 11.75 52.5 0 40.75 0 26.25 C 0 11.75 11.75 0 26.25 0 C 40.75 0 52.5 11.75 52.5 26.25 " clip-rule="nonzero"/></clipPath><clipPath id="c683fd8f12"><path d="M 26.3125 31.503906 L 31.199219 31.503906 L 31.199219 35.929688 L 26.3125 35.929688 Z M 26.3125 31.503906 " clip-rule="nonzero"/></clipPath><clipPath id="c7af405a21"><path d="M 52.5 26.25 C 52.5 40.75 40.75 52.5 26.25 52.5 C 11.75 52.5 0 40.75 0 26.25 C 0 11.75 11.75 0 26.25 0 C 40.75 0 52.5 11.75 52.5 26.25 " clip-rule="nonzero"/></clipPath><clipPath id="9e0517a058"><path d="M 18.523438 6.308594 L 35.320312 6.308594 L 35.320312 20.964844 L 18.523438 20.964844 Z M 18.523438 6.308594 " clip-rule="nonzero"/></clipPath><clipPath id="5c5363cb10"><path d="M 52.5 26.25 C 52.5 40.75 40.75 52.5 26.25 52.5 C 11.75 52.5 0 40.75 0 26.25 C 0 11.75 11.75 0 26.25 0 C 40.75 0 52.5 11.75 52.5 26.25 " clip-rule="nonzero"/></clipPath><clipPath id="f7ed0afee7"><path d="M 19 10 L 28.90625 10 L 28.90625 12.414062 L 19 12.414062 Z M 19 10 " clip-rule="nonzero"/></clipPath><clipPath id="263ce68e2d"><path d="M 52.5 26.25 C 52.5 40.75 40.75 52.5 26.25 52.5 C 11.75 52.5 0 40.75 0 26.25 C 0 11.75 11.75 0 26.25 0 C 40.75 0 52.5 11.75 52.5 26.25 " clip-rule="nonzero"/></clipPath><clipPath id="2f35429b28"><path d="M 19.59375 18.371094 L 33.183594 18.371094 L 33.183594 23.105469 L 19.59375 23.105469 Z M 19.59375 18.371094 " clip-rule="nonzero"/></clipPath><clipPath id="c5e51d46b0"><path d="M 52.5 26.25 C 52.5 40.75 40.75 52.5 26.25 52.5 C 11.75 52.5 0 40.75 0 26.25 C 0 11.75 11.75 0 26.25 0 C 40.75 0 52.5 11.75 52.5 26.25 " clip-rule="nonzero"/></clipPath><clipPath id="4ba014cf1f"><path d="M 22.1875 13.332031 L 33.945312 13.332031 L 33.945312 20.355469 L 22.1875 20.355469 Z M 22.1875 13.332031 " clip-rule="nonzero"/></clipPath><clipPath id="7b37cc9e1d"><path d="M 52.5 26.25 C 52.5 40.75 40.75 52.5 26.25 52.5 C 11.75 52.5 0 40.75 0 26.25 C 0 11.75 11.75 0 26.25 0 C 40.75 0 52.5 11.75 52.5 26.25 " clip-rule="nonzero"/></clipPath><clipPath id="cfbd3a4f1a"><path d="M 18.523438 13.332031 L 22.339844 13.332031 L 22.339844 20.964844 L 18.523438 20.964844 Z M 18.523438 13.332031 " clip-rule="nonzero"/></clipPath><clipPath id="118561c212"><path d="M 52.5 26.25 C 52.5 40.75 40.75 52.5 26.25 52.5 C 11.75 52.5 0 40.75 0 26.25 C 0 11.75 11.75 0 26.25 0 C 40.75 0 52.5 11.75 52.5 26.25 " clip-rule="nonzero"/></clipPath></defs><g clip-path="url(#b1f80478fc)"><path fill="#ff0000" d="M 157.875 190.199219 C 118.304688 190.199219 86.234375 158.097656 86.234375 118.492188 C 86.234375 78.894531 118.304688 46.789062 157.875 46.789062 C 197.445312 46.789062 229.515625 78.894531 229.515625 118.492188 C 229.515625 158.097656 197.445312 190.199219 157.875 190.199219 Z M 157.875 -0.261719 C 87.316406 -0.261719 30.117188 56.984375 30.117188 127.605469 C 30.117188 198.222656 157.875 371.710938 157.875 371.710938 C 157.875 371.710938 285.632812 198.222656 285.632812 127.605469 C 285.632812 56.984375 228.433594 -0.261719 157.875 -0.261719 " fill-opacity="1" fill-rule="nonzero"/></g><g clip-path="url(#83fd2a9c70)"><g clip-path="url(#5f5e4b26e9)"><path fill="#82d7f6" d="M 52.5 26.25 C 52.5 40.75 40.75 52.5 26.25 52.5 C 11.75 52.5 0 40.75 0 26.25 C 0 11.75 11.75 0 26.25 0 C 40.75 0 52.5 11.75 52.5 26.25 " fill-opacity="1" fill-rule="nonzero"/></g></g><g clip-path="url(#1c4ec8a60f)"><g clip-path="url(#b59b299f36)"><path fill="#f0a176" d="M 39.230469 54.007812 C 39.605469 47.707031 39.976562 41.089844 39.976562 41.089844 L 36.195312 44.300781 C 36.257812 45.371094 36.394531 49.628906 36.519531 54.007812 L 39.230469 54.007812 " fill-opacity="1" fill-rule="nonzero"/></g></g><g clip-path="url(#1717f8afed)"><g clip-path="url(#a8c7695124)"><path fill="#b7977b" d="M 36.195312 44.300781 L 36.71875 43.855469 L 36.722656 43.855469 L 36.195312 44.300781 " fill-opacity="1" fill-rule="nonzero"/></g></g><g clip-path="url(#6668226f87)"><g clip-path="url(#d51e994b87)"><path fill="#d6855a" d="M 36.414062 50.460938 C 36.324219 47.515625 36.242188 45.074219 36.195312 44.300781 L 36.722656 43.855469 L 39.875 42.859375 C 39.800781 44.207031 39.683594 46.21875 39.554688 48.488281 C 38.917969 48.863281 38.207031 49.175781 37.546875 49.234375 L 37.527344 49.964844 C 37.160156 50.136719 36.789062 50.304688 36.414062 50.460938 " fill-opacity="1" fill-rule="nonzero"/></g></g><g clip-path="url(#1f10595b80)"><g clip-path="url(#df50a19f4c)"><path fill="#5e8fa9" d="M 39.714844 54.007812 C 40.003906 47.074219 40.253906 38.394531 39.742188 37.339844 C 38.878906 35.558594 36.375 34.480469 36.375 34.480469 C 34.027344 34.578125 34.476562 45.816406 35.117188 54.007812 L 39.714844 54.007812 " fill-opacity="1" fill-rule="nonzero"/></g></g><g clip-path="url(#a07ae092c5)"><g clip-path="url(#98f5e371ae)"><path fill="#4d7890" d="M 37.582031 54.007812 C 37.949219 46.832031 37.941406 38.136719 35.855469 37.136719 C 35.546875 36.992188 35.253906 36.972656 34.96875 37.054688 C 34.304688 40.871094 34.664062 48.203125 35.117188 54.007812 L 37.582031 54.007812 " fill-opacity="1" fill-rule="nonzero"/></g></g><g clip-path="url(#1767b8d6d0)"><g clip-path="url(#878269c26f)"><path fill="#f0a176" d="M 15.929688 54.007812 C 16.054688 49.628906 16.191406 45.371094 16.253906 44.300781 L 12.472656 41.089844 C 12.472656 41.089844 12.84375 47.707031 13.21875 54.007812 L 15.929688 54.007812 " fill-opacity="1" fill-rule="nonzero"/></g></g><g clip-path="url(#4f8a266380)"><g clip-path="url(#923af85134)"><path fill="#b7977b" d="M 16.253906 44.300781 L 15.726562 43.855469 L 16.253906 44.300781 " fill-opacity="1" fill-rule="nonzero"/></g></g><g clip-path="url(#e7d782011a)"><g clip-path="url(#4724bfd1e8)"><path fill="#d6855a" d="M 16.035156 50.441406 C 15.660156 50.28125 15.289062 50.113281 14.921875 49.9375 L 14.902344 49.234375 C 14.238281 49.175781 13.53125 48.863281 12.894531 48.488281 C 12.765625 46.21875 12.648438 44.207031 12.574219 42.859375 L 15.726562 43.855469 L 16.253906 44.300781 C 16.207031 45.070312 16.125 47.503906 16.035156 50.441406 " fill-opacity="1" fill-rule="nonzero"/></g></g><g clip-path="url(#ca1bd12257)"><g clip-path="url(#76f8682282)"><path fill="#5e8fa9" d="M 17.382812 54.007812 C 18.023438 45.816406 18.472656 34.578125 16.125 34.480469 C 16.125 34.480469 13.621094 35.558594 12.757812 37.339844 C 12.246094 38.394531 12.496094 47.074219 12.785156 54.007812 L 17.382812 54.007812 " fill-opacity="1" fill-rule="nonzero"/></g></g><g clip-path="url(#ea50b7fbd8)"><g clip-path="url(#0947af740d)"><path fill="#4d7890" d="M 17.378906 54.007812 C 17.835938 48.203125 18.195312 40.871094 17.53125 37.054688 C 17.246094 36.972656 16.953125 36.992188 16.644531 37.136719 C 14.558594 38.136719 14.550781 46.832031 14.917969 54.007812 L 17.378906 54.007812 " fill-opacity="1" fill-rule="nonzero"/></g></g><g clip-path="url(#f61b26f926)"><g clip-path="url(#b097bbd719)"><path fill="#5e8fa9" d="M 34.386719 54.007812 C 35.417969 46.476562 36.832031 35.628906 36.601562 34.578125 C 36.601562 34.578125 30.433594 32.539062 29.367188 32.03125 L 26.214844 32.527344 L 23.0625 32.03125 C 21.992188 32.539062 15.828125 34.578125 15.828125 34.578125 C 15.597656 35.628906 17.011719 46.476562 18.039062 54.007812 L 34.386719 54.007812 " fill-opacity="1" fill-rule="nonzero"/></g></g><g clip-path="url(#6009ff179e)"><g clip-path="url(#fc4774a679)"><path fill="#477189" d="M 26.402344 48.726562 L 22.347656 45.015625 L 22.84375 42.648438 L 20.332031 41.433594 L 22.84375 32.128906 L 25.457031 38.5625 L 26.402344 48.726562 " fill-opacity="1" fill-rule="nonzero"/></g></g><g clip-path="url(#4526fcfe3b)"><g clip-path="url(#1ccaf7f708)"><path fill="#477189" d="M 26.394531 48.878906 L 30.445312 45.167969 L 29.953125 42.800781 L 32.460938 41.585938 L 29.953125 32.28125 L 27.339844 38.714844 L 26.394531 48.878906 " fill-opacity="1" fill-rule="nonzero"/></g></g><g clip-path="url(#1dc4d5b85d)"><g clip-path="url(#a7dae484b9)"><path fill="#d3d49c" d="M 26.535156 34.019531 L 22.84375 33.652344 C 22.84375 33.652344 23.570312 46.378906 26.535156 48.847656 C 29.496094 46.378906 30.226562 33.652344 30.226562 33.652344 L 26.535156 34.019531 " fill-opacity="1" fill-rule="nonzero"/></g></g><g clip-path="url(#8c6e813b8b)"><g clip-path="url(#f4002234d9)"><path fill="#232333" d="M 26.496094 34.140625 L 26.460938 34.019531 L 26.460938 34.265625 L 25.996094 35.789062 C 25.996094 35.789062 24.964844 42.515625 24.8125 45.757812 C 25.277344 47.148438 25.847656 48.273438 26.535156 48.847656 C 27.1875 48.300781 27.734375 47.253906 28.1875 45.953125 C 28.070312 42.792969 26.996094 35.789062 26.996094 35.789062 L 26.535156 34.265625 L 26.535156 34.019531 L 26.496094 34.140625 " fill-opacity="1" fill-rule="nonzero"/></g></g><g clip-path="url(#82b963204f)"><g clip-path="url(#ff9fdbbf4c)"><path fill="#2e2f45" d="M 26.535156 34.203125 L 26.535156 34.199219 L 26.5 34.199219 L 26.5 34.203125 L 25.261719 34.339844 C 25.261719 34.339844 25.652344 35.304688 26.097656 35.941406 L 26.933594 35.941406 C 27.378906 35.304688 27.769531 34.339844 27.769531 34.339844 L 26.535156 34.203125 " fill-opacity="1" fill-rule="nonzero"/></g></g><g clip-path="url(#98478e2e2a)"><g clip-path="url(#522a7fa437)"><path fill="#da8b65" d="M 29.042969 27.554688 L 26.28125 28.355469 L 23.519531 27.554688 C 23.519531 27.554688 23.304688 31.371094 22.65625 32.25 C 22.65625 32.25 24.488281 34.082031 26.28125 34.15625 C 28.074219 34.082031 29.90625 32.25 29.90625 32.25 C 29.257812 31.371094 29.042969 27.554688 29.042969 27.554688 " fill-opacity="1" fill-rule="nonzero"/></g></g><g clip-path="url(#7cf9bab9cf)"><g clip-path="url(#fb63d9878a)"><path fill="#908475" d="M 29.632812 31.640625 C 29.40625 30.925781 29.253906 29.855469 29.164062 28.988281 C 29.253906 29.855469 29.40625 30.925781 29.632812 31.640625 M 23.203125 30.4375 C 23.285156 29.949219 23.351562 29.4375 23.398438 28.980469 C 23.351562 29.4375 23.285156 29.949219 23.203125 30.4375 " fill-opacity="1" fill-rule="nonzero"/></g></g><g clip-path="url(#2ac240a0c6)"><g clip-path="url(#c24f7fa36a)"><path fill="#b06749" d="M 27.226562 31.902344 C 25.722656 31.902344 24.476562 31.492188 23.203125 30.4375 C 23.285156 29.949219 23.351562 29.4375 23.398438 28.980469 C 24.449219 29.710938 25.5 30.15625 26.28125 30.15625 C 26.28125 30.15625 26.28125 30.15625 26.285156 30.15625 C 26.285156 30.15625 26.289062 30.15625 26.289062 30.15625 C 26.289062 30.15625 26.292969 30.15625 26.292969 30.15625 C 26.292969 30.15625 26.296875 30.15625 26.296875 30.15625 C 26.296875 30.15625 26.300781 30.15625 26.300781 30.15625 C 26.300781 30.15625 26.304688 30.15625 26.304688 30.15625 C 26.304688 30.15625 26.308594 30.15625 26.308594 30.15625 C 26.308594 30.15625 26.3125 30.15625 26.3125 30.15625 C 26.3125 30.15625 26.316406 30.15625 26.316406 30.15625 C 26.316406 30.15625 26.320312 30.15625 26.320312 30.15625 C 26.320312 30.15625 26.324219 30.15625 26.324219 30.15625 C 26.324219 30.15625 26.328125 30.15625 26.328125 30.15625 C 26.332031 30.15625 26.332031 30.15625 26.332031 30.15625 C 26.332031 30.15625 26.335938 30.15625 26.335938 30.15625 C 26.339844 30.15625 26.339844 30.15625 26.339844 30.15625 C 26.34375 30.15625 26.34375 30.15625 26.34375 30.15625 C 26.347656 30.15625 26.347656 30.15625 26.347656 30.15625 C 26.351562 30.15625 26.351562 30.15625 26.351562 30.15625 C 26.355469 30.15625 26.355469 30.15625 26.355469 30.15625 C 26.359375 30.15625 26.359375 30.15625 26.359375 30.15625 C 26.363281 30.15625 26.367188 30.15625 26.367188 30.15625 C 26.367188 30.15625 26.367188 30.15625 26.371094 30.15625 C 26.375 30.15625 26.378906 30.15625 26.382812 30.15625 C 26.386719 30.15625 26.390625 30.15625 26.394531 30.15625 C 27.15625 30.113281 28.160156 29.679688 29.164062 28.988281 C 29.253906 29.855469 29.40625 30.925781 29.632812 31.640625 C 28.75 31.804688 27.957031 31.902344 27.226562 31.902344 " fill-opacity="1" fill-rule="nonzero"/></g></g><g clip-path="url(#32c837e8c4)"><g clip-path="url(#2cb8bd665a)"><path fill="#d17a50" d="M 32.480469 20.398438 C 32.390625 21.636719 32.929688 22.691406 33.6875 22.746094 C 34.445312 22.804688 35.132812 21.84375 35.226562 20.601562 C 35.320312 19.359375 34.777344 18.308594 34.023438 18.253906 C 33.261719 18.195312 32.574219 19.15625 32.480469 20.398438 " fill-opacity="1" fill-rule="nonzero"/></g></g><g clip-path="url(#4dede2055d)"><g clip-path="url(#cba93b546a)"><path fill="#ba6449" d="M 33.839844 22.054688 C 33.671875 22.054688 33.515625 21.890625 33.4375 21.367188 C 33.4375 21.367188 34.367188 21.109375 33.558594 20.75 L 33.414062 20.691406 C 33.414062 20.570312 33.414062 20.445312 33.414062 20.328125 C 33.414062 20.082031 33.410156 19.835938 33.402344 19.582031 C 33.496094 19.335938 33.667969 19.148438 33.972656 19.148438 C 33.980469 19.148438 33.992188 19.148438 34 19.148438 C 34.757812 19.179688 34.699219 20.089844 34.707031 20.089844 C 34.707031 20.089844 34.710938 20.0625 34.722656 19.996094 C 34.722656 19.996094 34.71875 20.347656 34.527344 20.390625 C 34.527344 20.390625 34.648438 19.671875 34 19.519531 C 34 19.519531 34.4375 19.765625 34.363281 20.828125 C 34.363281 20.828125 34.34375 20.320312 33.714844 20.171875 C 33.714844 20.171875 34.660156 20.96875 33.855469 21.496094 C 33.855469 21.496094 33.867188 21.785156 34.074219 21.785156 C 34.152344 21.785156 34.25 21.746094 34.386719 21.640625 C 34.386719 21.640625 34.101562 22.054688 33.839844 22.054688 " fill-opacity="1" fill-rule="nonzero"/></g></g><g clip-path="url(#5486932b64)"><g clip-path="url(#98b1ddde91)"><path fill="#9a4f36" d="M 34.726562 20.199219 C 34.726562 20.0625 34.707031 19.921875 34.667969 19.792969 C 34.648438 19.730469 34.621094 19.667969 34.585938 19.609375 C 34.554688 19.550781 34.515625 19.496094 34.46875 19.445312 C 34.449219 19.421875 34.425781 19.398438 34.398438 19.378906 C 34.371094 19.359375 34.347656 19.335938 34.320312 19.320312 C 34.265625 19.28125 34.203125 19.257812 34.140625 19.234375 C 34.078125 19.214844 34.015625 19.195312 33.949219 19.1875 C 33.882812 19.179688 33.828125 19.183594 33.765625 19.203125 C 33.652344 19.242188 33.566406 19.339844 33.507812 19.453125 C 33.449219 19.570312 33.414062 19.699219 33.386719 19.832031 C 33.363281 19.964844 33.347656 20.097656 33.34375 20.234375 C 33.339844 20.300781 33.339844 20.371094 33.339844 20.4375 L 33.339844 20.644531 L 33.292969 20.582031 C 33.40625 20.617188 33.511719 20.65625 33.617188 20.707031 C 33.667969 20.734375 33.71875 20.761719 33.769531 20.796875 C 33.820312 20.828125 33.867188 20.867188 33.90625 20.925781 C 33.925781 20.957031 33.9375 20.996094 33.941406 21.035156 C 33.941406 21.074219 33.933594 21.117188 33.914062 21.144531 C 33.875 21.207031 33.824219 21.246094 33.773438 21.277344 C 33.671875 21.339844 33.5625 21.382812 33.453125 21.417969 L 33.488281 21.359375 C 33.507812 21.492188 33.539062 21.628906 33.589844 21.753906 C 33.613281 21.8125 33.648438 21.871094 33.6875 21.917969 C 33.710938 21.941406 33.734375 21.964844 33.761719 21.980469 C 33.785156 21.996094 33.816406 22 33.84375 22.007812 C 33.875 22.007812 33.90625 22.003906 33.9375 22 C 33.96875 21.988281 34 21.976562 34.027344 21.960938 C 34.085938 21.929688 34.140625 21.886719 34.191406 21.839844 C 34.292969 21.746094 34.382812 21.636719 34.46875 21.527344 C 34.394531 21.644531 34.3125 21.761719 34.214844 21.863281 C 34.167969 21.917969 34.113281 21.964844 34.054688 22.003906 C 34.023438 22.023438 33.988281 22.039062 33.953125 22.054688 C 33.917969 22.066406 33.878906 22.074219 33.839844 22.070312 C 33.800781 22.070312 33.761719 22.058594 33.726562 22.039062 C 33.691406 22.023438 33.660156 21.996094 33.632812 21.972656 C 33.582031 21.917969 33.542969 21.851562 33.511719 21.785156 C 33.449219 21.65625 33.410156 21.515625 33.386719 21.375 L 33.378906 21.335938 L 33.421875 21.320312 C 33.523438 21.28125 33.625 21.238281 33.714844 21.183594 C 33.753906 21.15625 33.796875 21.121094 33.816406 21.089844 C 33.828125 21.070312 33.828125 21.054688 33.828125 21.039062 C 33.824219 21.023438 33.820312 21.007812 33.808594 20.992188 C 33.757812 20.917969 33.660156 20.863281 33.566406 20.816406 C 33.46875 20.773438 33.363281 20.734375 33.261719 20.703125 L 33.214844 20.691406 L 33.214844 20.644531 C 33.210938 20.578125 33.210938 20.503906 33.210938 20.4375 C 33.210938 20.367188 33.214844 20.296875 33.21875 20.226562 C 33.226562 20.085938 33.242188 19.945312 33.269531 19.808594 C 33.300781 19.667969 33.339844 19.53125 33.410156 19.402344 C 33.441406 19.335938 33.484375 19.273438 33.539062 19.222656 C 33.59375 19.167969 33.664062 19.125 33.738281 19.105469 C 33.808594 19.082031 33.894531 19.082031 33.964844 19.09375 C 34.039062 19.105469 34.101562 19.132812 34.171875 19.15625 C 34.238281 19.183594 34.300781 19.214844 34.359375 19.257812 C 34.390625 19.277344 34.417969 19.304688 34.445312 19.328125 C 34.472656 19.351562 34.496094 19.375 34.519531 19.402344 C 34.542969 19.429688 34.5625 19.460938 34.582031 19.492188 C 34.601562 19.523438 34.621094 19.550781 34.632812 19.585938 C 34.664062 19.648438 34.6875 19.714844 34.703125 19.785156 C 34.734375 19.921875 34.742188 20.0625 34.726562 20.199219 " fill-opacity="1" fill-rule="nonzero"/></g></g><g clip-path="url(#05402033ee)"><g clip-path="url(#0defebbfcd)"><path fill="#9a4f36" d="M 34.382812 20.65625 C 34.382812 20.65625 34.386719 20.542969 34.363281 20.378906 C 34.351562 20.296875 34.335938 20.203125 34.304688 20.105469 C 34.289062 20.054688 34.269531 20.007812 34.25 19.957031 C 34.230469 19.90625 34.199219 19.863281 34.171875 19.816406 C 34.140625 19.777344 34.109375 19.734375 34.070312 19.699219 C 34.03125 19.664062 33.996094 19.628906 33.953125 19.609375 C 33.929688 19.597656 33.910156 19.585938 33.890625 19.574219 C 33.867188 19.570312 33.847656 19.5625 33.828125 19.554688 C 33.804688 19.550781 33.785156 19.542969 33.765625 19.539062 C 33.746094 19.535156 33.726562 19.53125 33.707031 19.53125 C 33.667969 19.53125 33.632812 19.519531 33.601562 19.523438 C 33.570312 19.527344 33.542969 19.53125 33.519531 19.53125 C 33.476562 19.535156 33.449219 19.539062 33.449219 19.539062 L 33.429688 19.386719 C 33.429688 19.386719 33.460938 19.386719 33.511719 19.386719 C 33.539062 19.386719 33.570312 19.386719 33.605469 19.386719 C 33.640625 19.386719 33.683594 19.398438 33.726562 19.402344 C 33.75 19.410156 33.773438 19.414062 33.796875 19.417969 C 33.816406 19.425781 33.839844 19.4375 33.867188 19.445312 C 33.890625 19.457031 33.914062 19.464844 33.9375 19.476562 C 33.960938 19.492188 33.984375 19.507812 34.007812 19.523438 C 34.058594 19.550781 34.09375 19.59375 34.136719 19.636719 C 34.175781 19.679688 34.207031 19.730469 34.234375 19.777344 C 34.261719 19.828125 34.289062 19.878906 34.304688 19.933594 C 34.324219 19.988281 34.339844 20.039062 34.351562 20.09375 C 34.375 20.195312 34.382812 20.292969 34.386719 20.375 C 34.394531 20.542969 34.382812 20.65625 34.382812 20.65625 " fill-opacity="1" fill-rule="nonzero"/></g></g><g clip-path="url(#3928baa64e)"><g clip-path="url(#0dc754e2a1)"><path fill="#d17a50" d="M 20.109375 20.398438 C 20.199219 21.636719 19.660156 22.691406 18.902344 22.746094 C 18.144531 22.804688 17.457031 21.84375 17.363281 20.601562 C 17.269531 19.359375 17.808594 18.308594 18.570312 18.253906 C 19.328125 18.195312 20.015625 19.15625 20.109375 20.398438 " fill-opacity="1" fill-rule="nonzero"/></g></g><g clip-path="url(#312fb95645)"><g clip-path="url(#ab8848cb34)"><path fill="#ba6449" d="M 18.722656 22.007812 C 18.699219 22.007812 18.675781 22.003906 18.652344 22 C 18.621094 21.988281 18.589844 21.976562 18.5625 21.960938 C 18.503906 21.929688 18.449219 21.886719 18.398438 21.839844 C 18.339844 21.785156 18.285156 21.726562 18.230469 21.664062 C 18.351562 21.753906 18.445312 21.785156 18.515625 21.785156 C 18.71875 21.785156 18.734375 21.496094 18.734375 21.496094 C 17.929688 20.96875 18.875 20.171875 18.875 20.171875 C 18.246094 20.320312 18.226562 20.828125 18.226562 20.828125 C 18.214844 20.640625 18.21875 20.484375 18.230469 20.34375 C 18.242188 20.269531 18.257812 20.1875 18.285156 20.105469 C 18.300781 20.054688 18.316406 20.003906 18.339844 19.957031 C 18.359375 19.90625 18.390625 19.863281 18.417969 19.816406 C 18.449219 19.773438 18.480469 19.734375 18.519531 19.699219 C 18.558594 19.664062 18.59375 19.628906 18.636719 19.609375 C 18.660156 19.597656 18.679688 19.585938 18.699219 19.574219 C 18.722656 19.570312 18.742188 19.5625 18.761719 19.554688 C 18.785156 19.550781 18.804688 19.542969 18.824219 19.539062 C 18.84375 19.535156 18.863281 19.53125 18.882812 19.53125 C 18.917969 19.53125 18.945312 19.523438 18.972656 19.523438 C 18.976562 19.523438 18.984375 19.523438 18.988281 19.523438 C 19.019531 19.527344 19.046875 19.53125 19.070312 19.53125 C 19.089844 19.53125 19.109375 19.535156 19.121094 19.535156 C 19.132812 19.570312 19.144531 19.605469 19.15625 19.644531 C 19.152344 19.875 19.148438 20.101562 19.148438 20.328125 C 19.148438 20.394531 19.148438 20.464844 19.148438 20.535156 C 19.148438 20.566406 19.148438 20.597656 19.148438 20.632812 C 19.089844 20.65625 19.03125 20.679688 18.972656 20.707031 C 18.921875 20.734375 18.867188 20.761719 18.820312 20.796875 C 18.769531 20.828125 18.722656 20.867188 18.683594 20.925781 C 18.664062 20.957031 18.648438 20.996094 18.648438 21.035156 C 18.644531 21.074219 18.65625 21.117188 18.675781 21.144531 C 18.714844 21.207031 18.765625 21.246094 18.816406 21.277344 C 18.90625 21.332031 19 21.371094 19.09375 21.402344 C 19.078125 21.523438 19.046875 21.640625 19 21.753906 C 18.976562 21.8125 18.941406 21.871094 18.902344 21.917969 C 18.878906 21.941406 18.855469 21.964844 18.828125 21.980469 C 18.804688 21.996094 18.773438 22 18.746094 22.007812 C 18.738281 22.007812 18.730469 22.007812 18.722656 22.007812 M 18.0625 20.390625 C 17.917969 20.355469 17.878906 20.148438 17.871094 20.050781 C 17.871094 20.042969 17.871094 20.035156 17.871094 20.03125 C 17.878906 20.070312 17.882812 20.089844 17.882812 20.089844 C 17.886719 20.089844 17.882812 20.003906 17.898438 19.886719 C 17.902344 19.855469 17.914062 19.824219 17.921875 19.792969 C 17.941406 19.730469 17.96875 19.667969 18 19.609375 C 18.035156 19.550781 18.074219 19.496094 18.121094 19.445312 C 18.140625 19.421875 18.164062 19.398438 18.191406 19.378906 C 18.214844 19.359375 18.242188 19.335938 18.269531 19.320312 C 18.324219 19.28125 18.386719 19.257812 18.449219 19.234375 C 18.511719 19.214844 18.574219 19.195312 18.640625 19.1875 C 18.660156 19.183594 18.683594 19.183594 18.703125 19.183594 C 18.742188 19.183594 18.78125 19.1875 18.820312 19.203125 C 18.914062 19.234375 18.988281 19.300781 19.042969 19.386719 C 19.023438 19.386719 19.003906 19.386719 18.984375 19.386719 C 18.984375 19.386719 18.984375 19.386719 18.980469 19.386719 C 18.945312 19.386719 18.90625 19.398438 18.863281 19.40625 C 18.839844 19.410156 18.816406 19.414062 18.792969 19.417969 C 18.773438 19.425781 18.746094 19.4375 18.722656 19.445312 C 18.699219 19.457031 18.675781 19.464844 18.652344 19.476562 C 18.628906 19.488281 18.609375 19.503906 18.585938 19.519531 C 17.941406 19.671875 18.0625 20.390625 18.0625 20.390625 M 18.105469 19.363281 C 18.152344 19.3125 18.207031 19.265625 18.269531 19.230469 C 18.257812 19.238281 18.242188 19.25 18.230469 19.257812 C 18.199219 19.277344 18.171875 19.304688 18.144531 19.328125 C 18.132812 19.339844 18.117188 19.351562 18.105469 19.363281 " fill-opacity="1" fill-rule="nonzero"/></g></g><g clip-path="url(#c90e378dc1)"><g clip-path="url(#5fdb5c968f)"><path fill="#9a4f36" d="M 17.863281 20.199219 C 17.847656 20.0625 17.855469 19.921875 17.886719 19.785156 C 17.902344 19.714844 17.925781 19.648438 17.957031 19.585938 C 17.972656 19.550781 17.988281 19.523438 18.007812 19.492188 C 18.027344 19.460938 18.046875 19.429688 18.070312 19.40625 C 18.09375 19.375 18.117188 19.351562 18.144531 19.328125 C 18.171875 19.304688 18.199219 19.277344 18.230469 19.257812 C 18.285156 19.214844 18.351562 19.183594 18.417969 19.15625 C 18.484375 19.132812 18.550781 19.105469 18.625 19.09375 C 18.695312 19.082031 18.78125 19.082031 18.851562 19.105469 C 18.925781 19.125 18.996094 19.167969 19.050781 19.222656 C 19.105469 19.273438 19.144531 19.335938 19.183594 19.402344 C 19.25 19.53125 19.289062 19.667969 19.320312 19.808594 C 19.347656 19.945312 19.363281 20.085938 19.371094 20.226562 C 19.375 20.296875 19.378906 20.367188 19.378906 20.4375 C 19.378906 20.503906 19.378906 20.578125 19.375 20.644531 L 19.375 20.691406 L 19.328125 20.703125 C 19.226562 20.734375 19.121094 20.773438 19.023438 20.816406 C 18.929688 20.863281 18.832031 20.917969 18.78125 20.992188 C 18.769531 21.007812 18.765625 21.023438 18.761719 21.039062 C 18.761719 21.054688 18.761719 21.070312 18.773438 21.089844 C 18.792969 21.121094 18.832031 21.15625 18.875 21.183594 C 18.964844 21.238281 19.066406 21.28125 19.167969 21.320312 L 19.210938 21.335938 L 19.203125 21.375 C 19.175781 21.515625 19.140625 21.65625 19.078125 21.785156 C 19.046875 21.851562 19.007812 21.917969 18.957031 21.972656 C 18.929688 21.996094 18.898438 22.023438 18.863281 22.039062 C 18.828125 22.058594 18.789062 22.070312 18.75 22.070312 C 18.710938 22.074219 18.671875 22.066406 18.632812 22.054688 C 18.601562 22.039062 18.566406 22.023438 18.535156 22.003906 C 18.476562 21.964844 18.421875 21.917969 18.375 21.863281 C 18.277344 21.761719 18.195312 21.644531 18.121094 21.527344 C 18.207031 21.636719 18.296875 21.746094 18.398438 21.839844 C 18.449219 21.886719 18.503906 21.929688 18.5625 21.960938 C 18.589844 21.976562 18.621094 21.988281 18.652344 22 C 18.683594 22.003906 18.714844 22.007812 18.746094 22.007812 C 18.773438 22 18.804688 21.996094 18.828125 21.980469 C 18.855469 21.964844 18.878906 21.941406 18.902344 21.917969 C 18.941406 21.871094 18.976562 21.8125 19 21.753906 C 19.050781 21.628906 19.082031 21.492188 19.101562 21.359375 L 19.132812 21.417969 C 19.027344 21.382812 18.917969 21.339844 18.816406 21.277344 C 18.765625 21.246094 18.714844 21.207031 18.675781 21.144531 C 18.65625 21.117188 18.644531 21.074219 18.648438 21.035156 C 18.648438 20.996094 18.664062 20.957031 18.683594 20.925781 C 18.722656 20.867188 18.769531 20.828125 18.820312 20.796875 C 18.867188 20.761719 18.921875 20.734375 18.972656 20.707031 C 19.078125 20.65625 19.183594 20.617188 19.296875 20.582031 L 19.25 20.644531 L 19.25 20.4375 C 19.25 20.371094 19.25 20.300781 19.246094 20.234375 C 19.238281 20.097656 19.226562 19.964844 19.203125 19.832031 C 19.175781 19.699219 19.140625 19.570312 19.082031 19.453125 C 19.023438 19.339844 18.9375 19.242188 18.820312 19.203125 C 18.761719 19.183594 18.707031 19.179688 18.640625 19.1875 C 18.574219 19.195312 18.511719 19.214844 18.449219 19.234375 C 18.386719 19.257812 18.324219 19.28125 18.269531 19.320312 C 18.242188 19.335938 18.214844 19.359375 18.191406 19.378906 C 18.164062 19.398438 18.140625 19.421875 18.121094 19.445312 C 18.074219 19.496094 18.035156 19.550781 18 19.609375 C 17.96875 19.667969 17.941406 19.730469 17.921875 19.792969 C 17.882812 19.921875 17.863281 20.0625 17.863281 20.199219 " fill-opacity="1" fill-rule="nonzero"/></g></g><g clip-path="url(#595e9c8e21)"><g clip-path="url(#85ed2d295f)"><path fill="#9a4f36" d="M 18.207031 20.65625 C 18.207031 20.65625 18.191406 20.542969 18.203125 20.375 C 18.207031 20.292969 18.214844 20.195312 18.238281 20.09375 C 18.25 20.039062 18.261719 19.988281 18.285156 19.933594 C 18.300781 19.878906 18.328125 19.828125 18.351562 19.777344 C 18.382812 19.730469 18.414062 19.679688 18.453125 19.636719 C 18.496094 19.59375 18.53125 19.550781 18.582031 19.523438 C 18.605469 19.507812 18.628906 19.492188 18.652344 19.476562 C 18.675781 19.464844 18.699219 19.457031 18.722656 19.445312 C 18.746094 19.4375 18.773438 19.425781 18.792969 19.417969 C 18.816406 19.414062 18.839844 19.410156 18.863281 19.40625 C 18.90625 19.398438 18.949219 19.386719 18.984375 19.386719 C 19.019531 19.386719 19.050781 19.386719 19.078125 19.386719 C 19.128906 19.386719 19.160156 19.386719 19.160156 19.386719 L 19.140625 19.539062 C 19.140625 19.539062 19.113281 19.535156 19.070312 19.53125 C 19.046875 19.53125 19.019531 19.527344 18.988281 19.523438 C 18.957031 19.519531 18.921875 19.53125 18.882812 19.53125 C 18.863281 19.53125 18.84375 19.535156 18.824219 19.539062 C 18.804688 19.542969 18.785156 19.550781 18.761719 19.554688 C 18.742188 19.5625 18.722656 19.570312 18.699219 19.574219 C 18.679688 19.585938 18.660156 19.597656 18.636719 19.609375 C 18.59375 19.628906 18.558594 19.664062 18.519531 19.699219 C 18.480469 19.734375 18.449219 19.773438 18.417969 19.816406 C 18.390625 19.863281 18.359375 19.90625 18.339844 19.957031 C 18.316406 20.003906 18.300781 20.054688 18.285156 20.105469 C 18.253906 20.203125 18.234375 20.296875 18.226562 20.378906 C 18.203125 20.542969 18.207031 20.65625 18.207031 20.65625 " fill-opacity="1" fill-rule="nonzero"/></g></g><g clip-path="url(#8eebb1f0d4)"><g clip-path="url(#4f48dd9719)"><path fill="#f0a176" d="M 33.414062 20.328125 C 33.414062 21.542969 33.410156 22.941406 32.960938 24.300781 C 31.949219 27.339844 28.238281 30.15625 26.28125 30.15625 C 24.292969 30.15625 20.546875 27.257812 19.558594 24.167969 C 19.136719 22.851562 19.148438 21.503906 19.148438 20.328125 C 19.148438 16.386719 19.878906 11.234375 26.28125 11.234375 C 32.683594 11.234375 33.414062 16.386719 33.414062 20.328125 " fill-opacity="1" fill-rule="nonzero"/></g></g><g clip-path="url(#46e6d478ce)"><g clip-path="url(#b0399eba18)"><path fill="#5c3b37" d="M 23.796875 25.355469 C 23.804688 25.363281 24.792969 26.164062 26.222656 26.167969 C 26.9375 26.167969 27.761719 25.960938 28.617188 25.359375 L 28.527344 25.234375 C 27.699219 25.820312 26.910156 26.011719 26.222656 26.011719 C 25.539062 26.011719 24.953125 25.820312 24.542969 25.625 C 24.335938 25.527344 24.171875 25.429688 24.058594 25.359375 C 24.003906 25.320312 23.960938 25.292969 23.933594 25.269531 C 23.917969 25.261719 23.910156 25.25 23.902344 25.246094 L 23.890625 25.238281 L 23.796875 25.355469 " fill-opacity="1" fill-rule="nonzero"/></g></g><g clip-path="url(#9cd681a566)"><g clip-path="url(#d353c2fc9a)"><path fill="#b7977b" d="M 33.320312 18.175781 C 33.246094 17.421875 33.121094 16.667969 32.910156 15.945312 C 33.152344 16.636719 33.304688 17.390625 33.320312 18.175781 M 22.582031 12.035156 C 22.820312 11.632812 23.117188 11.613281 24.546875 11.378906 C 23.792969 11.511719 23.140625 11.738281 22.582031 12.035156 " fill-opacity="1" fill-rule="nonzero"/></g></g><g clip-path="url(#b1d1818c38)"><g clip-path="url(#7f116141f6)"><path fill="#d6855a" d="M 33.316406 18.5 C 32.238281 16.789062 31.636719 16.304688 30.566406 16.304688 C 30.097656 16.304688 29.539062 16.398438 28.808594 16.523438 C 28.097656 16.824219 27.445312 16.953125 26.851562 16.953125 C 24.480469 16.953125 22.972656 14.886719 22.0625 13.136719 C 22.335938 12.589844 22.449219 12.257812 22.582031 12.035156 C 23.140625 11.738281 23.792969 11.511719 24.546875 11.378906 C 24.582031 11.371094 24.617188 11.367188 24.652344 11.359375 C 26.769531 11.683594 28.832031 12 30.308594 12.230469 C 31.054688 12.695312 32.277344 14.105469 32.910156 15.945312 C 33.121094 16.667969 33.246094 17.421875 33.320312 18.175781 C 33.320312 18.285156 33.320312 18.390625 33.316406 18.5 " fill-opacity="1" fill-rule="nonzero"/></g></g><g clip-path="url(#a672637149)"><g clip-path="url(#4276805d34)"><path fill="#d6855a" d="M 26.28125 30.15625 C 24.292969 30.15625 20.546875 27.257812 19.558594 24.167969 C 19.277344 23.292969 19.1875 22.402344 19.160156 21.558594 C 19.160156 21.476562 19.15625 21.394531 19.15625 21.3125 C 19.152344 21.128906 19.148438 20.945312 19.148438 20.765625 C 19.148438 20.71875 19.148438 20.675781 19.148438 20.632812 C 19.148438 20.597656 19.148438 20.566406 19.148438 20.535156 C 19.148438 20.464844 19.148438 20.394531 19.148438 20.328125 C 19.148438 17.878906 19.808594 14.609375 21.613281 12.917969 C 20.253906 14.605469 19.742188 17.523438 19.742188 19.683594 C 19.742188 20.859375 19.726562 22.210938 20.148438 23.523438 C 21.140625 26.617188 24.886719 29.515625 26.871094 29.515625 C 28.058594 29.515625 29.890625 28.480469 31.375 26.984375 C 29.859375 28.765625 27.75 30.082031 26.394531 30.15625 C 26.390625 30.15625 26.386719 30.15625 26.382812 30.15625 C 26.378906 30.15625 26.375 30.15625 26.371094 30.15625 L 26.367188 30.15625 C 26.367188 30.15625 26.363281 30.15625 26.359375 30.15625 C 26.359375 30.15625 26.359375 30.15625 26.355469 30.15625 C 26.355469 30.15625 26.355469 30.15625 26.351562 30.15625 C 26.351562 30.15625 26.351562 30.15625 26.347656 30.15625 C 26.347656 30.15625 26.347656 30.15625 26.34375 30.15625 C 26.34375 30.15625 26.34375 30.15625 26.339844 30.15625 C 26.339844 30.15625 26.339844 30.15625 26.335938 30.15625 C 26.335938 30.15625 26.332031 30.15625 26.332031 30.15625 C 26.332031 30.15625 26.332031 30.15625 26.328125 30.15625 C 26.328125 30.15625 26.324219 30.15625 26.324219 30.15625 C 26.324219 30.15625 26.320312 30.15625 26.320312 30.15625 C 26.320312 30.15625 26.316406 30.15625 26.316406 30.15625 C 26.316406 30.15625 26.3125 30.15625 26.3125 30.15625 C 26.3125 30.15625 26.308594 30.15625 26.308594 30.15625 C 26.308594 30.15625 26.304688 30.15625 26.304688 30.15625 C 26.304688 30.15625 26.300781 30.15625 26.300781 30.15625 C 26.300781 30.15625 26.296875 30.15625 26.296875 30.15625 C 26.296875 30.15625 26.292969 30.15625 26.292969 30.15625 C 26.292969 30.15625 26.289062 30.15625 26.289062 30.15625 C 26.289062 30.15625 26.285156 30.15625 26.285156 30.15625 C 26.28125 30.15625 26.28125 30.15625 26.28125 30.15625 " fill-opacity="1" fill-rule="nonzero"/></g></g><g clip-path="url(#c9379e9670)"><g clip-path="url(#8543979850)"><path fill="#8c6158" d="M 20.863281 17.847656 C 20.863281 17.847656 21.675781 17.125 22.460938 17.304688 C 23.246094 17.480469 24.464844 17.480469 24.824219 17.082031 C 24.824219 17.082031 22.164062 16.015625 20.863281 17.847656 " fill-opacity="1" fill-rule="nonzero"/></g></g><g clip-path="url(#230bca7439)"><g clip-path="url(#7ea73a3e51)"><path fill="#8c6158" d="M 31.464844 17.847656 C 31.464844 17.847656 30.652344 17.125 29.867188 17.304688 C 29.082031 17.480469 27.863281 17.480469 27.503906 17.082031 C 27.503906 17.082031 30.164062 16.015625 31.464844 17.847656 " fill-opacity="1" fill-rule="nonzero"/></g></g><g clip-path="url(#d9a04e4208)"><g clip-path="url(#017919259d)"><path fill="#b05838" d="M 25.011719 23.492188 C 25.011719 23.492188 25.007812 23.476562 25.003906 23.453125 C 25 23.425781 24.996094 23.390625 25 23.339844 C 25.003906 23.285156 25.015625 23.226562 25.039062 23.160156 C 25.0625 23.089844 25.097656 23.019531 25.148438 22.945312 C 25.199219 22.871094 25.261719 22.796875 25.339844 22.734375 C 25.417969 22.664062 25.507812 22.605469 25.605469 22.554688 C 25.707031 22.503906 25.8125 22.457031 25.925781 22.433594 C 26.042969 22.402344 26.15625 22.394531 26.289062 22.386719 C 26.34375 22.394531 26.390625 22.390625 26.453125 22.398438 C 26.515625 22.40625 26.578125 22.417969 26.632812 22.433594 C 26.75 22.457031 26.855469 22.503906 26.957031 22.550781 C 27.054688 22.601562 27.144531 22.664062 27.222656 22.730469 C 27.300781 22.796875 27.363281 22.871094 27.414062 22.945312 C 27.460938 23.019531 27.5 23.089844 27.523438 23.160156 C 27.546875 23.226562 27.558594 23.289062 27.5625 23.335938 C 27.566406 23.386719 27.5625 23.425781 27.554688 23.453125 C 27.554688 23.476562 27.550781 23.492188 27.550781 23.492188 C 27.550781 23.492188 27.546875 23.480469 27.539062 23.453125 C 27.535156 23.429688 27.519531 23.394531 27.5 23.351562 C 27.484375 23.308594 27.457031 23.261719 27.417969 23.210938 C 27.382812 23.160156 27.332031 23.109375 27.277344 23.058594 C 27.222656 23.007812 27.15625 22.960938 27.085938 22.914062 C 27.011719 22.871094 26.929688 22.832031 26.84375 22.796875 C 26.757812 22.765625 26.664062 22.738281 26.570312 22.722656 C 26.523438 22.710938 26.476562 22.707031 26.429688 22.703125 C 26.386719 22.695312 26.328125 22.695312 26.273438 22.691406 C 26.191406 22.695312 26.082031 22.703125 25.992188 22.722656 C 25.894531 22.738281 25.804688 22.765625 25.71875 22.796875 C 25.632812 22.832031 25.550781 22.867188 25.476562 22.914062 C 25.40625 22.960938 25.339844 23.007812 25.28125 23.058594 C 25.226562 23.109375 25.179688 23.160156 25.144531 23.210938 C 25.105469 23.261719 25.078125 23.3125 25.058594 23.351562 C 25.042969 23.390625 25.027344 23.429688 25.023438 23.453125 C 25.015625 23.480469 25.011719 23.492188 25.011719 23.492188 " fill-opacity="1" fill-rule="nonzero"/></g></g><g clip-path="url(#16767c3f85)"><g clip-path="url(#15258e429a)"><path fill="#ad6544" d="M 25.457031 26.679688 C 25.457031 26.679688 26.296875 27.082031 27.136719 26.679688 C 27.136719 26.679688 26.40625 27.984375 25.457031 26.679688 " fill-opacity="1" fill-rule="nonzero"/></g></g><g clip-path="url(#aaea5f4483)"><g clip-path="url(#b9041adfe8)"><path fill="#d6855a" d="M 26.3125 23.964844 C 25.558594 23.964844 25.011719 23.652344 25.011719 23.652344 C 25.230469 22.882812 26.011719 22.828125 26.234375 22.828125 C 26.273438 22.828125 26.296875 22.832031 26.296875 22.832031 C 26.308594 22.828125 26.324219 22.828125 26.339844 22.828125 C 27.234375 22.828125 27.550781 23.652344 27.550781 23.652344 C 27.117188 23.886719 26.6875 23.964844 26.3125 23.964844 " fill-opacity="1" fill-rule="nonzero"/></g></g><g clip-path="url(#35b0a66b44)"><g clip-path="url(#985b59af15)"><path fill="#211a1b" d="M 24.398438 20.5 C 24.398438 21.117188 24.125 21.621094 23.78125 21.621094 C 23.441406 21.621094 23.164062 21.117188 23.164062 20.5 C 23.164062 19.882812 23.441406 19.378906 23.78125 19.378906 C 24.125 19.378906 24.398438 19.882812 24.398438 20.5 " fill-opacity="1" fill-rule="nonzero"/></g></g><g clip-path="url(#3e3b56b484)"><g clip-path="url(#ef0d740168)"><path fill="#211a1b" d="M 29.425781 20.5 C 29.425781 21.117188 29.152344 21.621094 28.808594 21.621094 C 28.46875 21.621094 28.191406 21.117188 28.191406 20.5 C 28.191406 19.882812 28.46875 19.378906 28.808594 19.378906 C 29.152344 19.378906 29.425781 19.882812 29.425781 20.5 " fill-opacity="1" fill-rule="nonzero"/></g></g><g clip-path="url(#1ae71af34f)"><g clip-path="url(#42f28f7e0a)"><path fill="#f6faca" d="M 22.84375 31.640625 C 22.84375 31.640625 24.613281 33.976562 26.535156 34.15625 C 26.535156 34.15625 22.75 36.324219 21.835938 35.660156 L 22.296875 32.34375 C 22.296875 32.34375 22.273438 31.132812 22.84375 31.640625 " fill-opacity="1" fill-rule="nonzero"/></g></g><g clip-path="url(#c683fd8f12)"><g clip-path="url(#c7af405a21)"><path fill="#f6faca" d="M 30.152344 31.640625 C 30.152344 31.640625 28.378906 33.976562 26.460938 34.15625 C 26.460938 34.15625 30.242188 36.324219 31.15625 35.660156 L 30.695312 32.34375 C 30.695312 32.34375 30.722656 31.132812 30.152344 31.640625 " fill-opacity="1" fill-rule="nonzero"/></g></g><g clip-path="url(#9e0517a058)"><g clip-path="url(#5c5363cb10)"><path fill="#8c6158" d="M 35.238281 13.136719 C 35.230469 16.929688 33.414062 20.328125 33.414062 20.328125 C 33.414062 20.328125 33.695312 17.082031 31.914062 16.113281 C 30.132812 15.148438 29.011719 15.78125 29.011719 15.78125 C 24.847656 17.132812 22.191406 13.367188 22.191406 13.367188 C 21.15625 15.222656 20.519531 15.402344 20.519531 15.402344 C 19.105469 17.285156 19.152344 20.9375 19.152344 20.9375 C 16.535156 7.191406 24.25 6.488281 29.484375 7.726562 C 29.484375 7.726562 33.277344 8.417969 33.636719 6.332031 C 33.636719 6.332031 35.242188 9.320312 35.238281 13.136719 " fill-opacity="1" fill-rule="nonzero"/></g></g><g clip-path="url(#f7ed0afee7)"><g clip-path="url(#263ce68e2d)"><path fill="#b9887d" d="M 19.101562 12.222656 C 21.851562 12.457031 26.296875 12.566406 28.808594 11.1875 C 28.808594 11.1875 23.449219 11.277344 20.0625 10.121094 C 19.667969 10.707031 19.34375 11.402344 19.101562 12.222656 " fill-opacity="1" fill-rule="nonzero"/></g></g><g clip-path="url(#2f35429b28)"><g clip-path="url(#c5e51d46b0)"><path fill="#211a1b" d="M 31.117188 22.25 C 31.117188 22.25 30.480469 22.664062 29.113281 22.511719 C 27.652344 22.351562 27.339844 20.113281 27.339844 20.113281 L 27.339844 19.5625 C 27.339844 19.5625 27.5 19.140625 28.070312 18.976562 C 28.636719 18.816406 30.710938 18.785156 31.296875 18.976562 C 31.296875 18.976562 31.960938 19.074219 31.960938 19.480469 C 31.960938 19.886719 32.042969 21.726562 31.117188 22.25 Z M 25.460938 20.253906 C 25.460938 20.253906 25.144531 22.492188 23.6875 22.65625 C 22.320312 22.808594 21.679688 22.390625 21.679688 22.390625 C 20.757812 21.867188 20.839844 20.027344 20.839844 19.625 C 20.839844 19.21875 21.503906 19.121094 21.503906 19.121094 C 22.085938 18.925781 24.164062 18.957031 24.730469 19.121094 C 25.296875 19.28125 25.460938 19.703125 25.460938 19.703125 Z M 33.054688 19.265625 C 32.917969 19.171875 32.53125 19.089844 32.304688 19.046875 C 32.121094 18.753906 31.585938 18.675781 31.585938 18.675781 C 30.902344 18.445312 28.457031 18.484375 27.789062 18.675781 C 27.265625 18.824219 27.035156 19.15625 26.960938 19.296875 C 26.476562 19.101562 26 19.207031 25.742188 19.296875 C 25.621094 19.136719 25.394531 18.925781 25.011719 18.816406 C 24.34375 18.625 21.898438 18.585938 21.210938 18.816406 C 21.210938 18.816406 20.878906 18.867188 20.648438 19.03125 C 20.46875 19.0625 19.957031 19.15625 19.800781 19.265625 C 19.609375 19.398438 19.796875 19.988281 19.796875 19.988281 L 20.4375 20.1875 C 20.476562 21.027344 20.65625 22.230469 21.421875 22.667969 C 21.421875 22.667969 22.171875 23.15625 23.78125 22.976562 C 25.5 22.785156 25.867188 20.152344 25.867188 20.152344 L 25.867188 20.078125 C 26.359375 19.757812 26.746094 19.964844 26.957031 20.152344 C 27.0625 20.703125 27.542969 22.671875 29.019531 22.835938 C 30.625 23.015625 31.378906 22.523438 31.378906 22.523438 C 32.097656 22.117188 32.296875 21.035156 32.351562 20.207031 L 33.058594 19.988281 C 33.058594 19.988281 33.246094 19.398438 33.054688 19.265625 " fill-opacity="1" fill-rule="nonzero"/></g></g><g clip-path="url(#4ba014cf1f)"><g clip-path="url(#7b37cc9e1d)"><path fill="#734340" d="M 29.425781 14.929688 C 26.382812 15.730469 22.191406 13.367188 22.191406 13.367188 C 22.191406 13.367188 24.847656 17.132812 29.011719 15.78125 C 29.011719 15.78125 30.132812 15.148438 31.914062 16.113281 C 33.695312 17.082031 33.414062 20.328125 33.414062 20.328125 C 35.0625 16.953125 32.472656 14.128906 29.425781 14.929688 " fill-opacity="1" fill-rule="nonzero"/></g></g><g clip-path="url(#cfbd3a4f1a)"><g clip-path="url(#118561c212)"><path fill="#734340" d="M 19.714844 15.148438 C 19.273438 15.023438 18.941406 14.691406 18.699219 14.351562 C 18.527344 16.113281 18.644531 18.28125 19.152344 20.9375 C 19.152344 20.9375 19.105469 17.285156 20.519531 15.402344 C 20.519531 15.402344 21.15625 15.222656 22.191406 13.367188 C 22.191406 13.367188 20.769531 15.453125 19.714844 15.148438 " fill-opacity="1" fill-rule="nonzero"/></g></g></svg>