<svg xmlns="http://www.w3.org/2000/svg" xmlns:xlink="http://www.w3.org/1999/xlink" width="70" zoomAndPan="magnify" viewBox="0 0 52.5 52.499999" height="70" preserveAspectRatio="xMidYMid meet" version="1.0"><defs><clipPath id="d9f325d412"><path d="M 30 0 L 52.003906 0 L 52.003906 52.003906 L 30 52.003906 Z M 30 0 " clip-rule="nonzero"/></clipPath><clipPath id="75173fe746"><path d="M 1 14 L 26 14 L 26 52.003906 L 1 52.003906 Z M 1 14 " clip-rule="nonzero"/></clipPath><clipPath id="9b72d361f5"><path d="M 26 14 L 51 14 L 51 52.003906 L 26 52.003906 Z M 26 14 " clip-rule="nonzero"/></clipPath></defs><g clip-path="url(#d9f325d412)"><path fill="#ff0000" d="M 157.875 190.199219 C 118.304688 190.199219 86.234375 158.097656 86.234375 118.492188 C 86.234375 78.894531 118.304688 46.789062 157.875 46.789062 C 197.445312 46.789062 229.515625 78.894531 229.515625 118.492188 C 229.515625 158.097656 197.445312 190.199219 157.875 190.199219 Z M 157.875 -0.261719 C 87.316406 -0.261719 30.117188 56.984375 30.117188 127.605469 C 30.117188 198.222656 157.875 371.710938 157.875 371.710938 C 157.875 371.710938 285.632812 198.222656 285.632812 127.605469 C 285.632812 56.984375 228.433594 -0.261719 157.875 -0.261719 " fill-opacity="1" fill-rule="nonzero"/></g><g clip-path="url(#75173fe746)"><path fill="#4e4187" d="M 3.972656 14.761719 L 24.75 26.839844 C 25.28125 27.152344 25.613281 27.71875 25.613281 28.34375 L 25.613281 52.5 C 24.613281 52.371094 23.660156 51.792969 23.085938 50.800781 L 17.910156 41.773438 C 18.792969 40.375 19.320312 38.722656 19.320312 36.941406 C 19.320312 31.996094 15.335938 27.996094 10.433594 27.996094 C 10.296875 27.996094 10.160156 27.996094 10.023438 28.007812 L 4.179688 17.8125 C 3.59375 16.804688 3.582031 15.695312 3.972656 14.761719 Z M 5.921875 28.964844 C 1.675781 31.429688 0.21875 36.917969 2.675781 41.195312 C 5.121094 45.472656 10.574219 46.941406 14.820312 44.464844 " fill-opacity="1" fill-rule="nonzero"/></g><g clip-path="url(#9b72d361f5)"><path fill="#00cfc1" d="M 34.234375 41.773438 L 29.058594 50.800781 C 28.484375 51.804688 27.53125 52.371094 26.53125 52.5 L 26.53125 28.34375 C 26.53125 27.71875 26.863281 27.152344 27.390625 26.839844 L 48.171875 14.761719 C 48.5625 15.695312 48.539062 16.804688 47.964844 17.8125 L 42.121094 28.007812 C 41.984375 27.996094 41.847656 27.996094 41.707031 27.996094 C 36.796875 27.996094 32.824219 32.007812 32.824219 36.941406 C 32.824219 38.722656 33.339844 40.375 34.234375 41.773438 Z M 37.335938 44.464844 C 41.582031 46.929688 47.023438 45.460938 49.480469 41.195312 C 51.925781 36.917969 50.46875 31.441406 46.230469 28.964844 " fill-opacity="1" fill-rule="nonzero"/></g><path fill="#1b98e0" d="M 47.714844 13.953125 L 26.933594 26.03125 C 26.40625 26.34375 25.738281 26.34375 25.210938 26.03125 L 4.429688 13.953125 C 5.039062 13.140625 6.003906 12.597656 7.152344 12.597656 L 17.953125 12.597656 C 19.34375 15.71875 22.457031 17.894531 26.070312 17.894531 C 29.6875 17.894531 32.789062 15.71875 34.1875 12.597656 L 44.992188 12.597656 C 46.140625 12.609375 47.105469 13.152344 47.714844 13.953125 Z M 34.957031 8.945312 C 34.957031 4.011719 30.972656 0 26.070312 0 C 21.167969 0 17.1875 4.011719 17.1875 8.945312 " fill-opacity="1" fill-rule="nonzero"/><path fill="#f7f0f0" d="M 14.351562 43.65625 C 10.550781 45.867188 5.660156 44.546875 3.464844 40.722656 C 1.273438 36.894531 2.582031 31.972656 6.382812 29.765625 C 10.183594 27.554688 15.074219 28.875 17.265625 32.699219 C 19.46875 36.527344 18.160156 41.449219 14.351562 43.65625 Z M 48.675781 40.722656 C 50.871094 36.882812 49.5625 31.972656 45.761719 29.765625 C 41.949219 27.554688 37.070312 28.875 34.878906 32.699219 C 32.683594 36.527344 33.992188 41.449219 37.792969 43.65625 C 41.59375 45.875 46.472656 44.558594 48.675781 40.722656 Z M 34.039062 8.945312 C 34.039062 4.519531 30.46875 0.925781 26.070312 0.925781 C 21.675781 0.925781 18.105469 4.519531 18.105469 8.945312 C 18.105469 13.375 21.675781 16.96875 26.070312 16.96875 C 30.46875 16.96875 34.039062 13.375 34.039062 8.945312 Z M 34.039062 8.945312 " fill-opacity="1" fill-rule="nonzero"/></svg>