<svg xmlns="http://www.w3.org/2000/svg" xmlns:xlink="http://www.w3.org/1999/xlink" width="70" zoomAndPan="magnify" viewBox="0 0 52.5 52.499999" height="70" preserveAspectRatio="xMidYMid meet" version="1.0"><defs><filter x="0%" y="0%" width="100%" height="100%" id="ba0c61c23b"><feColorMatrix values="0 0 0 0 1 0 0 0 0 1 0 0 0 0 1 0 0 0 1 0" color-interpolation-filters="sRGB"/></filter><clipPath id="63b4f1cea2"><path d="M 30 0 L 52.003906 0 L 52.003906 52.003906 L 30 52.003906 Z M 30 0 " clip-rule="nonzero"/></clipPath><clipPath id="bc5773d9a8"><path d="M 12 0 L 52.003906 0 L 52.003906 40 L 12 40 Z M 12 0 " clip-rule="nonzero"/></clipPath><mask id="a1b57aaa6f"><g filter="url(#ba0c61c23b)"><rect x="-5.25" width="63" fill="#000000" y="-5.25" height="62.999999" fill-opacity="0.85"/></g></mask><clipPath id="bffc0133fa"><path d="M 1.050781 0 L 40.003906 0 L 40.003906 39.75 L 1.050781 39.75 Z M 1.050781 0 " clip-rule="nonzero"/></clipPath><clipPath id="2ca26d2777"><rect x="0" width="41" y="0" height="40"/></clipPath><clipPath id="7412559ccb"><path d="M 0 10 L 43 10 L 43 52.003906 L 0 52.003906 Z M 0 10 " clip-rule="nonzero"/></clipPath><mask id="9d38a4b43d"><g filter="url(#ba0c61c23b)"><rect x="-5.25" width="63" fill="#000000" y="-5.25" height="62.999999" fill-opacity="0.79"/></g></mask><clipPath id="8568e4c246"><path d="M 0 0.949219 L 41.25 0.949219 L 41.25 42.003906 L 0 42.003906 Z M 0 0.949219 " clip-rule="nonzero"/></clipPath><clipPath id="cf27db5381"><path d="M 0 0.949219 L 21 0.949219 L 21 42.003906 L 0 42.003906 Z M 0 0.949219 " clip-rule="nonzero"/></clipPath><clipPath id="7b7eaf5b56"><rect x="0" width="43" y="0" height="43"/></clipPath></defs><g clip-path="url(#63b4f1cea2)"><path fill="#ff0000" d="M 157.875 190.199219 C 118.304688 190.199219 86.234375 158.097656 86.234375 118.492188 C 86.234375 78.894531 118.304688 46.789062 157.875 46.789062 C 197.445312 46.789062 229.515625 78.894531 229.515625 118.492188 C 229.515625 158.097656 197.445312 190.199219 157.875 190.199219 Z M 157.875 -0.261719 C 87.316406 -0.261719 30.117188 56.984375 30.117188 127.605469 C 30.117188 198.222656 157.875 371.710938 157.875 371.710938 C 157.875 371.710938 285.632812 198.222656 285.632812 127.605469 C 285.632812 56.984375 228.433594 -0.261719 157.875 -0.261719 " fill-opacity="1" fill-rule="nonzero"/></g><g clip-path="url(#bc5773d9a8)"><g mask="url(#a1b57aaa6f)"><g transform="matrix(1, 0, 0, 1, 12, 0.000000000000000295)"><g clip-path="url(#2ca26d2777)"><g clip-path="url(#bffc0133fa)"><path fill="#a4c639" d="M 7.011719 0 L 34.835938 0 C 35.230469 0 35.617188 0.0390625 36 0.113281 C 36.382812 0.191406 36.757812 0.304688 37.121094 0.453125 C 37.480469 0.605469 37.824219 0.789062 38.148438 1.003906 C 38.476562 1.222656 38.777344 1.46875 39.054688 1.746094 C 39.332031 2.023438 39.578125 2.324219 39.796875 2.648438 C 40.011719 2.976562 40.195312 3.320312 40.347656 3.679688 C 40.496094 4.042969 40.609375 4.414062 40.683594 4.800781 C 40.761719 5.183594 40.800781 5.570312 40.800781 5.960938 L 40.800781 33.789062 C 40.800781 34.179688 40.761719 34.566406 40.683594 34.949219 C 40.609375 35.335938 40.496094 35.707031 40.347656 36.070312 C 40.195312 36.429688 40.011719 36.773438 39.796875 37.101562 C 39.578125 37.425781 39.332031 37.726562 39.054688 38.003906 C 38.777344 38.28125 38.476562 38.527344 38.148438 38.746094 C 37.824219 38.960938 37.480469 39.144531 37.121094 39.296875 C 36.757812 39.445312 36.382812 39.558594 36 39.636719 C 35.617188 39.710938 35.230469 39.75 34.835938 39.75 L 7.011719 39.75 C 6.621094 39.75 6.234375 39.710938 5.847656 39.636719 C 5.464844 39.558594 5.09375 39.445312 4.730469 39.296875 C 4.367188 39.144531 4.027344 38.960938 3.699219 38.746094 C 3.375 38.527344 3.074219 38.28125 2.796875 38.003906 C 2.519531 37.726562 2.273438 37.425781 2.054688 37.101562 C 1.835938 36.773438 1.652344 36.429688 1.503906 36.070312 C 1.355469 35.707031 1.242188 35.335938 1.164062 34.949219 C 1.089844 34.566406 1.050781 34.179688 1.050781 33.789062 L 1.050781 5.960938 C 1.050781 5.570312 1.089844 5.183594 1.164062 4.800781 C 1.242188 4.414062 1.355469 4.042969 1.503906 3.679688 C 1.652344 3.320312 1.835938 2.976562 2.054688 2.648438 C 2.273438 2.324219 2.519531 2.023438 2.796875 1.746094 C 3.074219 1.46875 3.375 1.222656 3.699219 1.003906 C 4.027344 0.789062 4.367188 0.605469 4.730469 0.453125 C 5.09375 0.304688 5.464844 0.191406 5.847656 0.113281 C 6.234375 0.0390625 6.621094 0 7.011719 0 Z M 7.011719 0 " fill-opacity="1" fill-rule="nonzero"/></g><path stroke-linecap="round" transform="matrix(0.0776367, 0, 0, 0.0776367, 1.049999, 0.000000990566)" fill-opacity="1" fill="#000000" fill-rule="nonzero" stroke-linejoin="miter" d="M 106.978643 211.97485 L 106.978643 317.987438 M 405.997539 211.97485 L 405.997539 317.987438 M 298.978661 384.000023 L 298.978661 440.000028 M 213.997521 384.000023 L 213.997521 440.000028 " stroke="#ffffff" stroke-width="58" stroke-opacity="1" stroke-miterlimit="4"/><path stroke-linecap="round" transform="matrix(0.0776367, 0, 0, 0.0776367, 1.049999, 0.000000990566)" fill-opacity="1" fill="#000000" fill-rule="nonzero" stroke-linejoin="miter" d="M 202.978652 87.999995 L 186.022676 55.999992 M 308.991241 87.999995 L 327.003821 55.999992 " stroke="#ffffff" stroke-width="8" stroke-opacity="1" stroke-miterlimit="4"/><path fill="#ffffff" d="M 21.003906 5.902344 C 15.101562 5.902344 12.074219 10.558594 12.074219 14.050781 L 29.851562 14.050781 C 29.851562 10.402344 26.59375 5.976562 21.003906 5.902344 Z M 12.074219 14.828125 L 12.074219 27.5625 C 12.074219 28.804688 13.082031 29.8125 14.25 29.8125 L 27.601562 29.8125 C 28.84375 29.8125 29.851562 28.804688 29.851562 27.5625 L 29.851562 14.828125 Z M 12.074219 14.828125 " fill-opacity="1" fill-rule="nonzero"/><path fill="#a4c639" d="M 17.585938 10.09375 C 17.585938 10.285156 17.519531 10.449219 17.382812 10.585938 C 17.246094 10.722656 17.082031 10.792969 16.886719 10.792969 C 16.695312 10.792969 16.53125 10.722656 16.394531 10.585938 C 16.257812 10.449219 16.1875 10.285156 16.1875 10.09375 C 16.1875 9.898438 16.257812 9.734375 16.394531 9.597656 C 16.53125 9.460938 16.695312 9.394531 16.886719 9.394531 C 17.082031 9.394531 17.246094 9.460938 17.382812 9.597656 C 17.519531 9.734375 17.585938 9.898438 17.585938 10.09375 Z M 17.585938 10.09375 " fill-opacity="1" fill-rule="nonzero"/><path fill="#a4c639" d="M 25.738281 10.09375 C 25.738281 10.285156 25.671875 10.449219 25.535156 10.585938 C 25.398438 10.722656 25.234375 10.792969 25.039062 10.792969 C 24.847656 10.792969 24.683594 10.722656 24.546875 10.585938 C 24.410156 10.449219 24.339844 10.285156 24.339844 10.09375 C 24.339844 9.898438 24.410156 9.734375 24.546875 9.597656 C 24.683594 9.460938 24.847656 9.394531 25.039062 9.394531 C 25.234375 9.394531 25.398438 9.460938 25.535156 9.597656 C 25.671875 9.734375 25.738281 9.898438 25.738281 10.09375 Z M 25.738281 10.09375 " fill-opacity="1" fill-rule="nonzero"/></g></g></g></g><g clip-path="url(#7412559ccb)"><g mask="url(#9d38a4b43d)"><g transform="matrix(1, 0, 0, 1, 0, 10)"><g clip-path="url(#7b7eaf5b56)"><g clip-path="url(#8568e4c246)"><path fill="#5e94ff" d="M 5.179688 0.855469 C 2.265625 0.855469 -0.0976562 3.214844 -0.0976562 6.128906 L -0.0976562 36.828125 C -0.0976562 39.742188 2.265625 42.105469 5.179688 42.105469 L 35.878906 42.105469 C 38.792969 42.105469 41.152344 39.742188 41.152344 36.828125 L 41.152344 6.128906 C 41.152344 3.214844 38.792969 0.855469 35.878906 0.855469 Z M 5.179688 0.855469 " fill-opacity="1" fill-rule="nonzero"/></g><g clip-path="url(#cf27db5381)"><path fill="#5485e5" d="M 20.527344 0.855469 L 20.527344 42.105469 L 5.179688 42.105469 C 2.265625 42.105469 -0.0976562 39.742188 -0.0976562 36.828125 L -0.0976562 6.128906 C -0.0976562 3.214844 2.265625 0.855469 5.179688 0.855469 Z M 20.527344 0.855469 " fill-opacity="1" fill-rule="evenodd"/></g><path fill="#eceff1" d="M 5.660156 27.234375 C 5.660156 26.441406 6.304688 25.796875 7.097656 25.796875 L 33.960938 25.796875 C 34.753906 25.796875 35.398438 26.441406 35.398438 27.234375 C 35.398438 28.03125 34.753906 28.675781 33.960938 28.675781 L 7.097656 28.675781 C 6.304688 28.675781 5.660156 28.03125 5.660156 27.234375 Z M 5.660156 27.234375 " fill-opacity="1" fill-rule="evenodd"/><path fill="#eceff1" d="M 25.078125 6.800781 C 25.769531 7.195312 26.007812 8.074219 25.617188 8.761719 L 10.265625 35.625 C 9.871094 36.3125 8.992188 36.554688 8.304688 36.160156 C 7.613281 35.765625 7.375 34.886719 7.769531 34.195312 L 23.117188 7.335938 C 23.511719 6.644531 24.390625 6.40625 25.078125 6.800781 Z M 25.078125 6.800781 " fill-opacity="1" fill-rule="evenodd"/><path fill="#eceff1" d="M 15.976562 6.800781 C 15.289062 7.195312 15.046875 8.074219 15.441406 8.761719 L 30.792969 35.625 C 31.1875 36.3125 32.066406 36.554688 32.753906 36.160156 C 33.445312 35.765625 33.683594 34.886719 33.289062 34.195312 L 17.941406 7.335938 C 17.546875 6.644531 16.667969 6.40625 15.976562 6.800781 Z M 15.976562 6.800781 " fill-opacity="1" fill-rule="evenodd"/><path fill="#cfd8dc" d="M 20.527344 11.863281 L 17.941406 7.335938 C 17.546875 6.644531 16.667969 6.40625 15.976562 6.800781 C 15.289062 7.195312 15.046875 8.074219 15.441406 8.761719 L 18.871094 14.765625 L 12.566406 25.796875 L 7.097656 25.796875 C 6.304688 25.796875 5.660156 26.441406 5.660156 27.234375 C 5.660156 28.03125 6.304688 28.675781 7.097656 28.675781 L 10.921875 28.675781 L 7.769531 34.195312 C 7.375 34.886719 7.613281 35.765625 8.304688 36.160156 C 8.992188 36.554688 9.871094 36.3125 10.265625 35.625 L 14.238281 28.675781 L 20.527344 28.675781 L 20.527344 25.796875 L 15.882812 25.796875 L 20.527344 17.664062 Z M 20.527344 11.863281 " fill-opacity="1" fill-rule="evenodd"/></g></g></g></g></svg>