<svg version="1.2" xmlns="http://www.w3.org/2000/svg" viewBox="0 0 900 594" width="900" height="594">
	<title>5481033_2849108-ai</title>
	<style>
		.s0 { fill: #d0cedf } 
		.s1 { fill: #8fb9ab } 
		.s2 { fill: #79a897 } 
		.s3 { fill: #5e9680 } 
		.s4 { fill: #b2b2b2 } 
		.s5 { fill: #9cdbd9 } 
		.s6 { fill: #fffaf5 } 
		.s7 { fill: none;stroke: #81c6c2;stroke-miterlimit:10;stroke-width: 8.4 } 
		.s8 { fill: #9b9b9b } 
		.s9 { mix-blend-mode: multiply;fill: #cccccc } 
		.s10 { fill: #f4d096 } 
		.s11 { fill: #314d63 } 
		.s12 { fill: #e2bb81 } 
		.s13 { fill: #ee8a73 } 
		.s14 { opacity: .5;fill: #b2b2b2 } 
		.s15 { fill: #eaa292 } 
		.s16 { fill: #f7b39f } 
		.s17 { fill: none;stroke: #d16254;stroke-miterlimit:10;stroke-width: 5.6 } 
	</style>
	<g id="OBJECTS">
		<g id="&lt;Group&gt;">
			<g id="&lt;Group&gt;">
				<path id="&lt;Path&gt;" class="s0" d="m892.5 557.6c12.3-41.7 7-88.2-14.2-126.1-21.3-37.9-58.2-66.6-100.2-77.9 53.6-42.6 72.1-122.3 46.8-185.8-25.3-63.6-90.3-108.1-158.6-113.3-68.3-5.2-137.2 27-180.8 79.8-39.1-69.3-113-121-192.6-122.2-79.6-1.2-159.7 54.9-175.6 132.8-7.9 38.8-0.6 78.9 6.7 117.8-40.3-4.6-80.7 20-100.9 55.2-20.2 35.2-22.1 78.8-11.7 118 10.3 39.3 31.9 89.4 56.4 121.7z"/>
			</g>
			<g id="&lt;Group&gt;">
				<path id="&lt;Path&gt;" class="s1" d="m244.2 314.1q-0.3 2-0.5 4c0 0-1.5-0.2-4-0.8-28.1-5.5-195.1-47.3-183.7-252.8q0.1-2.1 0.3-4.4c0 0 1.4 0.2 3.9 0.7 29.3 5.3 212.6 47.2 184 253.3z"/>
				<path id="&lt;Path&gt;" class="s2" d="m243.6 318.1l-187.3-258c0 0 221.5 30.4 187.3 258z"/>
				<g id="&lt;Group&gt;">
					<path id="&lt;Path&gt;" class="s3" d="m245.3 320.3c-0.5 0.4-1.1 0.6-1.6 0.6-0.9 0-1.8-0.4-2.3-1.2l-1.7-2.4-38.7-53.2-4.6-6.3-36.2-49.8-4.2-5.8-37.5-51.7-4.8-6.5-57.7-79.5q0.1-2.1 0.3-4.4c0 0 1.4 0.2 3.9 0.7l61.6 84.8 1.6 2.1 13.9 19.3 4.4 6 35.2 48.5 4.7 6.4 29.2 40.1 4.5 6.3 28.9 39.8 1.7 2.3c0.9 1.3 0.6 3-0.6 3.9z"/>
				</g>
				<g id="&lt;Group&gt;">
					<path id="&lt;Path&gt;" class="s3" d="m120.6 150.9q-0.3 0-0.5-0.1l-49.6-9.2c-1.5-0.3-2.5-1.7-2.2-3.3 0.3-1.5 1.8-2.5 3.3-2.2l49.5 9.2c1.5 0.3 2.5 1.8 2.3 3.3-0.3 1.3-1.5 2.3-2.8 2.3z"/>
				</g>
				<g id="&lt;Group&gt;">
					<path id="&lt;Path&gt;" class="s3" d="m158.8 208.4q-0.2 0-0.5-0.1l-49.5-9.2c-1.6-0.3-2.6-1.8-2.3-3.3 0.3-1.5 1.8-2.5 3.3-2.2l49.5 9.2c1.5 0.3 2.5 1.8 2.3 3.3-0.3 1.3-1.5 2.3-2.8 2.3z"/>
				</g>
				<g id="&lt;Group&gt;">
					<path id="&lt;Path&gt;" class="s3" d="m200.4 264.2q-0.3 0-0.5-0.1l-49.6-9.2c-1.5-0.3-2.5-1.7-2.2-3.3 0.3-1.5 1.7-2.5 3.2-2.2l49.6 9.2c1.5 0.3 2.5 1.8 2.2 3.3-0.2 1.3-1.4 2.3-2.7 2.3z"/>
				</g>
				<g id="&lt;Group&gt;">
					<path id="&lt;Path&gt;" class="s3" d="m139.6 174q-0.2 0-0.4 0c-1.6-0.3-2.6-1.7-2.4-3.2l7.1-49.9c0.3-1.5 1.7-2.6 3.2-2.3 1.5 0.2 2.6 1.6 2.4 3.1l-7.2 49.9c-0.2 1.4-1.4 2.4-2.7 2.4z"/>
				</g>
				<g id="&lt;Group&gt;">
					<path id="&lt;Path&gt;" class="s3" d="m178.8 230.7q-0.2 0-0.4 0c-1.5-0.2-2.6-1.6-2.4-3.2l7.2-49.8c0.2-1.6 1.6-2.6 3.2-2.4 1.5 0.2 2.6 1.6 2.3 3.2l-7.1 49.8c-0.2 1.4-1.4 2.4-2.8 2.4z"/>
				</g>
				<g id="&lt;Group&gt;">
					<path id="&lt;Path&gt;" class="s3" d="m212.9 275.8q-0.2 0-0.4 0c-1.5-0.2-2.6-1.7-2.4-3.2l7.2-49.8c0.2-1.6 1.6-2.6 3.1-2.4 1.6 0.2 2.6 1.6 2.4 3.2l-7.1 49.8c-0.2 1.4-1.4 2.4-2.8 2.4z"/>
				</g>
			</g>
			<path id="&lt;Path&gt;" class="s4" d="m4.2 235.5c92.6 161.6 243.5 90.4 243.5 90.4-79.5-169.7-243.5-90.4-243.5-90.4z"/>
			<g id="&lt;Group&gt;">
				<path id="&lt;Path&gt;" class="s1" d="m247.7 337.7c0 0-1.3 0.6-3.8 1.6-23.5 9.5-153.3 53.9-237.5-88.2q-1.1-1.9-2.2-3.8c0 0 1.3-0.6 3.7-1.6 24.4-10.4 165-61.9 238 88.4q0.9 1.8 1.8 3.6z"/>
				<path id="&lt;Path&gt;" class="s2" d="m247.7 337.7l-243.5-90.4c0 0 164-79.3 243.5 90.4z"/>
				<path id="&lt;Path&gt;" class="s3" d="m250.3 338.7c-0.4 1.1-1.5 1.8-2.6 1.8q-0.5 0-1-0.2l-2.8-1-111.2-41.3c-0.3 0.5-0.8 1-1.4 1.2l-44 19.1q-0.5 0.2-1.1 0.2c-1.1 0-2.1-0.6-2.6-1.7-0.6-1.4 0.1-3 1.5-3.7l40.8-17.6-54.5-20.3-28.3 11.1q-0.5 0.2-1 0.2c-1.2 0-2.2-0.7-2.7-1.8-0.5-1.4 0.2-3.1 1.6-3.6l22.5-8.8-57.1-21.2q-1.1-1.9-2.2-3.8c0 0 1.3-0.6 3.7-1.6l63.5 23.5c1.2-0.3 2.5 0.2 3.1 1.2l19.6 7.3-16.8-39.2c-0.6-1.5 0-3.1 1.4-3.7 1.5-0.6 3.1 0 3.7 1.5l18.9 44q0 0.1 0 0.1l58.5 21.7-17.3-40.2c-0.6-1.5 0.1-3.1 1.5-3.7 1.4-0.6 3.1 0 3.7 1.4l18.9 44.1q0.2 0.5 0.2 1l79.1 29.4 2.7 1c1.5 0.5 2.2 2.1 1.7 3.6z"/>
			</g>
			<g id="&lt;Group&gt;">
				<path id="&lt;Path&gt;" class="s5" d="m750.8 158.2v332.8c0 8.6-5.3 16-12.8 19.2-2.4 1-5.2 1.6-8 1.6h-550.2c-4.6 0-9-1.6-12.4-4.2-5.1-3.8-8.3-9.8-8.3-16.6v-332.8c0-10.5 7.8-19.2 17.9-20.6q1.4-0.2 2.8-0.2h550.2c5 0 9.5 1.7 13 4.6 4.8 3.8 7.8 9.6 7.8 16.2z"/>
				<path id="&lt;Path&gt;" class="s6" d="m205.4 185.6h499.1v277.9h-499.1z"/>
				<path id="&lt;Path&gt;" class="s7" d="m205.4 185.6h499.1v277.9h-499.1z"/>
				<path id="&lt;Path&gt;" class="s5" d="m348.3 505.8h213.2v37.2h-213.2z"/>
				<path id="&lt;Path&gt;" class="s5" d="m676.9 559.9h-444c-5.7 0-10.3-4.6-10.3-10.4 0-5.7 4.6-10.3 10.3-10.3h444c5.7 0 10.4 4.6 10.4 10.3 0 5.8-4.7 10.4-10.4 10.4z"/>
				<path id="&lt;Path&gt;" class="s8" d="m347.7 511.5h213l-213 27.5z"/>
				<path id="&lt;Path&gt;" class="s4" d="m743 142l-575.6 365.6c-5.1-3.8-8.3-9.8-8.3-16.6v-332.8c0-10.5 7.8-19.2 17.9-20.6q1.4-0.2 2.8-0.2h550.2c5 0 9.5 1.7 13 4.6z"/>
			</g>
			<g id="&lt;Group&gt;">
				<path id="&lt;Path&gt;" class="s9" d="m321.5 233.4c0-9.4 7.6-17 17-17h189.7c9.4 0 17 7.6 17 17v156c0 9.3-7.6 17-17 17h-189.7c-9.4 0-17-7.7-17-17z"/>
				<g id="&lt;Group&gt;">
					<path id="&lt;Path&gt;" class="s6" d="m332.4 233.8c0-7.1 5.8-13 13-13h186.1c7.2 0 13 5.9 13 13v152.5c0 7.2-5.8 13-13 13h-186.1c-7.2 0-13-5.8-13-13z"/>
					<path id="&lt;Path&gt;" class="s1" d="m333.2 338.5c0 0 27.4-41.3 76.5-31.6 49.2 9.6 63.5 27.9 89 24.1 25.5-3.8 41.1-17.7 41.1-17.7v72.9c0 6.6-6.2 11.9-13.8 11.9h-178.5c-7.6 0-13.8-5.3-13.8-11.8z"/>
					<path id="&lt;Path&gt;" class="s10" d="m381.6 285.4c-11.3 0-20.4-9.2-20.4-20.5 0-11.3 9.1-20.5 20.4-20.5 11.4 0 20.5 9.2 20.5 20.5 0 11.3-9.1 20.5-20.5 20.5z"/>
					<path id="&lt;Path&gt;" class="s5" d="m524.1 260.7c-5.6-5.5-14.5-6.5-21.3-3.1-3.7-10.2-10.5-20.1-22.7-19.2-12 1-17.5 11.8-20.2 22.3-5.9-3.5-13.3-4.4-19.3-0.3-4.3 3-6.8 8.2-6.7 13.3-1.1 7.4 4.2 15 10.9 18.6 7.6 4 16.3 3 23.8-0.7 4.3 5.5 6.7 8.6 16.9 8.6 4.7 0.1 9.2-2.2 11.8-6.1q0 0 0-0.1c0.8-1.2 1.7-2.7 1.7-2.7 0 0 12.9 9 25.7-2.5 7.7-7 7-20.6-0.6-28.1z"/>
					<path id="&lt;Compound Path&gt;" fill-rule="evenodd" class="s11" d="m326.6 232.1c0-9.4 7.6-17 17-17h189.7c9.4 0 17 7.6 17 17v156c0 9.3-7.6 17-17 17h-189.7c-9.4 0-17-7.7-17-17zm11.5 155.4c0 3.3 2.7 6 6 6h188.6c3.4 0 6-2.7 6-6v-154.9c0-3.3-2.6-6-6-6h-188.6c-3.3 0-6 2.7-6 6z"/>
				</g>
				<path id="&lt;Path&gt;" class="s9" d="m350.6 256.4c0-9.4 7.6-17 17-17h189.7c9.4 0 17 7.6 17 17v156c0 9.4-7.6 17-17 17h-189.7c-9.4 0-17-7.6-17-17z"/>
				<g id="&lt;Group&gt;">
					<path id="&lt;Path&gt;" class="s6" d="m362.8 257.5c0-7.2 5.8-13 13-13h186.2c7.1 0 13 5.8 13 13v152.5c0 7.1-5.9 13-13 13h-186.2c-7.2 0-13-5.9-13-13z"/>
					<path id="&lt;Path&gt;" class="s1" d="m363.6 362.2c0 0 27.4-41.3 76.6-31.7 49.2 9.7 63.5 27.9 89 24.2 25.5-3.8 41.1-17.7 41.1-17.7v72.9c0 6.6-6.2 11.9-13.8 11.9h-178.6c-7.6 0-13.7-5.3-13.8-11.8z"/>
					<path id="&lt;Path&gt;" class="s10" d="m412.1 309c-11.3 0-20.5-9.1-20.5-20.4 0-11.3 9.2-20.5 20.5-20.5 11.3 0 20.5 9.2 20.5 20.5 0 11.3-9.2 20.4-20.5 20.4z"/>
					<path id="&lt;Path&gt;" class="s5" d="m554.6 284.4c-5.7-5.6-14.5-6.5-21.4-3.1-3.7-10.2-10.4-20.2-22.6-19.2-12.1 0.9-17.5 11.8-20.3 22.3-5.8-3.5-13.2-4.5-19.2-0.3-4.4 3-6.9 8.2-6.7 13.3-1.2 7.4 4.2 15 10.8 18.5 7.7 4.1 16.4 3.1 23.8-0.7 4.4 5.5 6.7 8.7 17 8.7 4.7 0 9.2-2.2 11.7-6.1q0.1-0.1 0.1-0.1c0.8-1.3 1.6-2.8 1.6-2.8 0 0 13 9.1 25.8-2.4 7.7-7 7-20.7-0.6-28.1z"/>
					<path id="&lt;Compound Path&gt;" fill-rule="evenodd" class="s11" d="m357.1 255.7c0-9.3 7.6-17 17-17h189.6c9.4 0 17 7.7 17 17v156c0 9.4-7.6 17-17 17h-189.6c-9.4 0-17-7.6-17-17zm11.5 155.5c0 3.3 2.7 6 6 6h188.6c3.3 0 6-2.7 6-6v-154.9c0-3.4-2.7-6-6-6h-188.6c-3.3 0-6 2.6-6 6z"/>
				</g>
			</g>
			<path id="&lt;Path&gt;" class="s4" d="m800.4 108.4q-1.7-0.1-3.4-0.1c-5.7 0-11.3 0.9-16.5 2.5-4.2-26.7-27.3-47.1-55.2-47.1-28 0-51.2 20.6-55.3 47.5-5.5-1.8-11.4-2.9-17.6-2.9-30.9 0-55.9 25-55.9 55.9 0 30.8 25 55.8 55.9 55.8h3.5 141.1c30.9 0 55.9-25 55.9-55.8 0-29.7-23.2-54-52.5-55.8z"/>
			<path id="&lt;Compound Path&gt;" fill-rule="evenodd" class="s4" d="m363.6 468.8h-19.1c1.3 10.8 0.7 36.2-31.1 42.3v4.2c0 6.7-5.4 12.2-12.2 12.2h-191c-1.9 0-3.7-0.4-5.3-1.2q-0.5-0.3-1-0.6c-4.6-1.8-8.2-5.5-9.5-10.3l-29.1-108.3c-2.6-9.7 5.2-19 15.7-19h17.6l0.5-16.6c0-5.4 4.4-9.9 9.8-9.9h31.3c8.2 0 14.8 6.7 14.8 14.9v3.6h146.2q0.8 0 1.6 0.2c6 0.7 10.6 5.8 10.6 12.1v42.8l11.9-15.1c1.4-1.8 4.2-1.8 5.7 0l35.4 42.7c2 2.4 0.3 6-2.8 6zm-49 0h-1.2v13.5c1-3.9 1.4-8.4 1.2-13.5z"/>
			<g id="&lt;Group&gt;">
				<path id="&lt;Path&gt;" class="s12" d="m277.2 526.9h-178.4c-1.8 0-3.5-0.2-5-0.7q-0.7-0.2-1.3-0.5c-4.6-1.8-8.2-5.5-9.4-10.3l-29.1-108.3c-2.6-9.7 5.1-19 15.7-19h178.5c7.4 0 13.9 4.7 15.7 11.5l0.2 0.8 28.8 107.5c2.6 9.7-5.1 19-15.7 19z"/>
				<path id="&lt;Path&gt;" class="s10" d="m302.1 392.4v122.9c0 6.7-5.5 12.2-12.2 12.2h-191c-1.9 0-3.7-0.4-5.3-1.2q-0.6-0.3-1.1-0.6c-3.5-2.1-5.9-6-5.9-10.4v-122.9q0.1-2 0.6-3.7v-0.6l0.5-16.6c0-5.4 4.4-9.9 9.9-9.9h31.3c8.2 0 14.8 6.7 14.8 14.9v3.6h146.2q0.8 0 1.5 0.2c6 0.7 10.7 5.8 10.7 12.1z"/>
				<path id="&lt;Path&gt;" class="s13" d="m355.1 462.8l-35.4-42.7c-1.5-1.8-4.3-1.8-5.8 0l-33.5 42.7c-2 2.5-0.2 6 2.9 6h19.9c1.9 40.5-38.8 41.7-38.8 41.7 69 11 70.4-27.6 68.7-41.7h19.1c3.2 0 4.9-3.6 2.9-6z"/>
				<path id="&lt;Path&gt;" class="s14" d="m291.4 380.3l-27.3 20.1-170.3 125.8-0.2 0.1q-0.6-0.3-1.1-0.6c-4.6-1.8-8.2-5.5-9.4-10.3l-29.1-108.3c-2.6-9.7 5.1-19 15.7-19h17.5l0.5-16.6c0-5.4 4.4-9.9 9.9-9.9h31.3c8.2 0 14.8 6.7 14.8 14.9v3.6h146.2q0.8 0 1.5 0.2z"/>
			</g>
			<path id="&lt;Compound Path&gt;" fill-rule="evenodd" class="s4" d="m854.7 534.9c-1.2 2.1-3.3 3.3-4.8 4.5q-0.7 0.5-1.2 1c-1.4 1.6-5 7-7.2 10.1-2.3 3.1-7.1 1.6-5.5-1 1.5-2.6 4.9-16.8 4.9-16.8q0 0 0.1 0l-4.9-4.6c-5.1-2.8-50.3-28.5-53-38.1-1.2-4.6-3.6-21-5.9-37.9-4.4 11-7.7 21.3-7.6 27.1 0.4 16.6-7.1 65.8-7.1 65.8h-2.4l-0.7 8.1c0 0 2.2 0.8 3 3.2 0.7 2.5-1 4.9-3.5 6.7-2.4 1.7-0.2 10.5-2.9 11.5-2.7 1-11.5 1.4-11.3-1.5 0.3-2.9 3.9 1 5.4-4.6 1.5-5.7 1.3-15.5 1.3-15.5l-0.3-7.9h-2.8c0.4-3.1-1.4-60.5-0.7-68.3 0.7-7.8 5.7-54.2 5.7-54.2l3-11.7-5.1 0.1c0 0 3.9-28.2 6.1-50.6 0.2-2.1 0.6-4.2 0.9-6.2-16.3-0.3-37.4-1.9-41.6-5.4-4.6-3.8-12.7-29.9-17.7-45.7l-5.9 1.7c-2.9 0.9-6-0.8-6.9-3.8l-13.6-46.1c-0.9-3 0.8-6.1 3.8-6.9l56.2-16.6c3-0.9 6.1 0.8 6.9 3.8l13.6 46.1c0.9 3-0.8 6.1-3.7 6.9l-16.9 5c5.8 9.9 14.7 24.2 14.7 24.2 0 0 12.6 5.9 23.3 11 1.1-0.9 1.9-1.3 2.3-1.2q0 0 0.1 0c0.2-2.2-0.1-7.4-0.3-9.8-6.7-2-9.4-10.2-8.2-17.5 1-6.2 5.4-13.3 11.2-17.2q0.2-0.6 0.5-1.2 0.5-1.1 1.4-1.9c1-1 2.4-1.6 3.8-1.8 2-0.9 4.7-0.6 6.7 0.2 10.1 2 18.4 19 20 27 0.7 3.5 1.1 7.1 0.8 10.6-0.3 3.8-1.3 7.4-1.7 11.1-0.4 3.2-0.4 6.4 1.6 9.1 1.9 2.7 4.6 4.9 6.5 7.7 7.2 11.2-0.9 24.9-12.3 28.6 0.6 17.8 0.9 38.5 0.9 38.5l-1.6 0.1c1.6 5.4 3.4 15.3 1.4 27.8-1.8 11.6-2.6 28.7-2.7 41.2 0 2.9 27.3 6.5 41.6 42.2l4.1 5.2q0.1-0.1 0.1-0.1c0 0 9.6 5.4 8.1 8zm-103.8-200.2c-8.6-6.4-16-12.7-17.3-15.9-2-4.8-7.9-14.4-12.7-22.3l-10.2 3c3.7 11.8 9.8 31.9 14.6 35.3 3.2 2.3 14.7 1.4 25.6-0.1z"/>
			<g id="&lt;Group&gt;">
				<path id="&lt;Path&gt;" class="s15" d="m789.8 355.9c0 0-44.1-28.8-47.5-37.1-3.3-8.2-18-29.9-19.6-34.2-1.5-4.3 0.3-8.3 5.2-7.4 4.9 1 6.8 2.8 8.6 7.4 1.8 4.6 19.3 32.7 19.3 32.7 0 0 36.7 17.1 37.9 18.1 1.3 0.9 10.8 12.8-3.9 20.5z"/>
				<g id="&lt;Group&gt;">
					<path id="&lt;Path&gt;" class="s6" d="m757.5 286.4l-56.3 16.6c-2 0.6-4.1-0.6-4.7-2.6l-13.6-46.1c-0.6-2 0.6-4.1 2.6-4.7l56.2-16.6c2-0.6 4.1 0.6 4.7 2.6l13.6 46.1c0.6 2-0.5 4.1-2.5 4.7z"/>
					<path id="&lt;Path&gt;" class="s1" d="m692.5 285.8c0 0 4.5-14.8 20.1-16.2 15.6-1.5 21.5 2.7 28.8-0.7 7.3-3.3 10.7-8.9 10.7-8.9l6.4 21.8c0.6 2-0.8 4.1-3.1 4.8l-53.4 15.8c-2.2 0.6-4.5-0.4-5.1-2.4z"/>
					<path id="&lt;Path&gt;" class="s10" d="m706.6 257.7c1 3.4-0.9 6.9-4.3 7.9-3.4 1-6.9-0.9-7.9-4.3-1-3.4 0.9-6.9 4.3-7.9 3.4-1 6.9 0.9 7.9 4.3z"/>
					<path id="&lt;Path&gt;" class="s5" d="m742.7 245.7c-2.1-1.2-4.9-0.7-6.6 0.9-2-2.7-4.9-5.1-8.5-3.7-3.5 1.3-4.2 5.1-4.1 8.4-2-0.5-4.3-0.1-5.7 1.7-1.1 1.2-1.4 3-0.9 4.5 0.3 2.3 2.6 4.1 4.9 4.6 2.6 0.5 5.2-0.5 7-2.3 1.8 1.3 2.8 2 5.9 1.1 1.4-0.4 2.5-1.5 3-2.9q0 0 0 0c0.1-0.4 0.2-1 0.2-1 0 0 4.7 1.6 7.5-3 1.7-2.7 0.3-6.8-2.7-8.3z"/>
					<path id="&lt;Compound Path&gt;" fill-rule="evenodd" class="s11" d="m758 288.1l-56.3 16.6c-2.9 0.9-6-0.8-6.9-3.8l-13.6-46.1c-0.9-3 0.8-6.1 3.8-6.9l56.2-16.6c3-0.9 6 0.8 6.9 3.8l13.6 46.1c0.9 3-0.8 6.1-3.7 6.9zm-72-36.8c-1.1 0.3-1.7 1.4-1.3 2.5l13.6 46.1c0.3 1.1 1.4 1.7 2.4 1.4l56.3-16.6c1-0.3 1.6-1.4 1.3-2.5l-13.6-46.1c-0.3-1.1-1.4-1.7-2.5-1.4z"/>
				</g>
				<path id="&lt;Path&gt;" class="s16" d="m759.7 543.9l0.4 9 8 0.2 0.8-9.7z"/>
				<path id="&lt;Path&gt;" class="s16" d="m856.3 528.3l-5 4.5-0.8 0.7-0.8-0.8-4.9-4.6-1.2-1.1 0.6-0.5 6-5.9 0.9 1.2 4.1 5.2z"/>
				<path id="&lt;Path&gt;" class="s2" d="m851.4 522.6l-5.6 5.3-0.5 0.5q0 0-0.5-0.3c-5.1-2.8-50.3-28.5-53-38.1-1.2-4.6-3.6-21-5.9-37.9-2.3-17.4-4.5-35.4-5.2-41.4-0.2-1.3-0.3-2-0.3-2l13.5-1.3 14.6-1.5 0.6-0.1c0 0 0.8 1.7 1.7 4.8 1.6 5.4 3.4 15.3 1.4 27.8-1.8 11.6-2.6 28.7-2.7 41.2 0 2.9 27.3 6.5 41.6 42.2q0.2 0.4 0.3 0.8z"/>
				<path id="&lt;Path&gt;" class="s1" d="m756.3 476.7c0.7-7.8 5.7-54.2 5.7-54.2l3.2-12.4 0.6-2.8 1.7-7.5 40 2.1c8.1 27.1-10.8 36.3-16.7 38.8-6.5 14.7-12.7 30.7-12.5 38.5 0.4 16.6-7.1 65.8-7.1 65.8h-14.2c0.4-3.1-1.4-60.5-0.7-68.3z"/>
				<path id="&lt;Path&gt;" class="s15" d="m781.1 316c0 0 0.7 9.7 0.3 11.8l8.1 0.2 1.4-13.7z"/>
				<path id="&lt;Path&gt;" class="s13" d="m812.4 410.5l-1.6 0.1h-1.5l-15.2 0.1h-13.4l-15.7 0.1-5.1 0.1c0 0 3.9-28.2 6.1-50.6 2.2-22.3 13.4-33.8 15.4-33.2 1.1 0.4 3.2 0.4 4.9 0.4 1.2 0 2.1-0.1 2.1-0.1 0 0 9 0 11.2 0.7 0.6 0.1 1.4 0.8 2.5 1.9 3.1 3.3 7.4 10.9 8.4 22.4 0.4 4.6 0.7 11.8 0.9 19.6 0.7 17.8 1 38.5 1 38.5z"/>
				<path id="&lt;Path&gt;" class="s16" d="m773 299.8c1.3-8.2 8.5-17.8 16.9-19.8 11.9-2.9 14.8 13.5 12.9 21.9-1.6 7.7-8.7 14.7-16.6 15.7-10.3 1.4-14.6-8.9-13.2-17.8z"/>
				<path id="&lt;Path&gt;" class="s16" d="m792.6 345.3c1.4-7.2-4.4-13.9-11.7-13.5q-0.1 0-0.2 0c-6.1 0.3-40.7 7.3-46.7 3-6.1-4.4-14.3-35.7-17-42.6-2.7-6.8-1-12.4-4.7-13.6-3.7-1.3-5.8-2.5-8.8 0.3-3 2.8-2.3 7.8 0 12.1 2.4 4.3 15.4 52.5 21.8 57.7 6.4 5.3 51.2 6.2 60.2 5 4.1-0.6 6.3-4.2 7.1-8.4z"/>
				<path id="&lt;Path&gt;" class="s5" d="m863.3 534.9c-1.1 2.1-3.2 3.3-4.7 4.5q-0.7 0.5-1.2 1c-1.4 1.6-5 7-7.2 10.1-2.3 3.1-7.1 1.6-5.5-1 1.5-2.6 4.9-16.8 4.9-16.8q0 0 0.1 0 0.4-0.2 0.9-0.5c3.2-1.8 4.4-4.7 4.6-5.2q0-0.1 0.1-0.1c0 0 9.6 5.4 8 8z"/>
				<path id="&lt;Path&gt;" class="s11" d="m811.4 372q-0.8 0.3-1.8 0.5c-5.1 1.2-10.4 0.7-14.9-1.6q-2.2-1.2-4.1-2.9c-5-4.7-7-11.8-5.9-18.4 0.7-4.2 3.4-7.4 4.4-11.4 0.8-3.7-1.2-7.3-2.8-10.7q-0.2-0.6-0.5-1.1c-2.9-6.4-4.5-14.4 2.5-18.8q0.4-0.2 0.8-0.2 0.1-0.1 0.3-0.1c0.7 0.9 1.8 1.8 3 1.8q0.7 0 1.3-0.3c1-0.6 1.4-1.7 1.3-2.8-0.2-2.2-2.1-4-4.2-3.3-2.9-1.9-4.8-4.7-6-8.1-1.2-3.5-2.2-9.6-0.1-13.2q0.5-1.1 1.4-1.9c1-1 2.4-1.6 3.8-1.8 2-0.9 4.7-0.6 6.7 0.2 10.1 2 18.4 19 20 27 0.7 3.5 1.1 7.1 0.8 10.6-0.3 3.8-1.3 7.4-1.7 11.1-0.4 3.2-0.4 6.4 1.6 9.1 1.9 2.7 4.6 4.9 6.5 7.7 7.2 11.2-0.9 24.9-12.4 28.6z"/>
				<path id="&lt;Path&gt;" class="s5" d="m760.1 552.9c0 0 0.2 9.8-1.3 15.5-1.5 5.6-5.1 1.7-5.4 4.6-0.2 2.9 8.6 2.5 11.3 1.5 2.7-1 0.5-9.8 2.9-11.5 2.5-1.8 4.2-4.2 3.5-6.7-0.8-2.4-3-3.2-3-3.2z"/>
				<path id="&lt;Path&gt;" class="s14" d="m863.3 534.9c-1.1 2.1-3.2 3.3-4.7 4.5-2-1.8-4.5-4-7.3-6.6q-0.4-0.3-0.7-0.6-2.3-2-4.8-4.3-0.8-0.7-1.6-1.4c-16.5-14.8-38.3-34.3-43.1-38.3-4.5-3.8-5.7-26.9-6.3-49.4-0.3-10.1-0.4-20-0.7-28.1q-0.1-1.7-0.2-3.3-0.1-3.5-0.3-6.3c-0.2-2.1-0.4-3.9-0.6-5.4-0.9-5.5 0-14.5 1.7-24.8 2-13 5.2-28 7.4-40.9 1.4-8.3 2.4-15.8 2.4-21.3 0-12.6-10.3-22.9-18.4-29.2 1-1 2.4-1.6 3.8-1.8 2-0.9 4.7-0.6 6.7 0.2 10.1 2 18.4 19 20 27 0.7 3.5 1.1 7.1 0.8 10.6-0.3 3.8-1.3 7.4-1.7 11.1-0.4 3.2-0.4 6.4 1.6 9.1 1.9 2.7 4.6 4.9 6.5 7.7 7.2 11.2-0.9 24.9-12.4 28.6 0.7 17.8 1 38.5 1 38.5l-1.6 0.1c1.6 5.4 3.4 15.3 1.4 27.8-1.8 11.6-2.6 28.7-2.7 41.2 0 2.9 27.3 6.5 41.6 42.2l4.1 5.2q0-0.1 0.1-0.1c0 0 9.6 5.4 8 8z"/>
			</g>
			<g id="&lt;Group&gt;">
				<path id="&lt;Path&gt;" class="s13" d="m864.2 164.2c0 30.8-25 55.8-55.9 55.8h-144.6c-30.9 0-55.9-25-55.9-55.8 0-30.9 25-55.9 55.9-55.9 6.2 0 12.1 1.1 17.6 2.9 4-26.9 27.3-47.5 55.3-47.5 27.9 0 51 20.4 55.2 47.1 5.2-1.6 10.8-2.5 16.5-2.5q1.7 0 3.4 0.1c29.3 1.8 52.5 26.1 52.5 55.8z"/>
				<path id="&lt;Path&gt;" class="s6" d="m778.4 147.9l-44.3-51.3-44.1 51.4c-2.3 2.6-2 6.6 0.6 8.8 1.2 1 2.7 1.5 4.1 1.5 1.8 0 3.6-0.7 4.8-2.1l27.8-32.3v70.8c0 3.4 2.8 6.3 6.3 6.3 3.5 0 6.3-2.9 6.3-6.3v-72.2l29 33.7c2.3 2.6 6.2 2.9 8.9 0.6 2.6-2.3 2.9-6.2 0.6-8.9z"/>
				<path id="&lt;Path&gt;" class="s17" d="m864.2 164.2c0 30.8-25 55.8-55.9 55.8h-144.6c-30.9 0-55.9-25-55.9-55.8 0-30.9 25-55.9 55.9-55.9 6.2 0 12.1 1.1 17.6 2.9 4-26.9 27.3-47.5 55.3-47.5 27.9 0 51 20.4 55.2 47.1 5.2-1.6 10.8-2.5 16.5-2.5q1.7 0 3.4 0.1c29.3 1.8 52.5 26.1 52.5 55.8z"/>
			</g>
		</g>
	</g>
</svg>