<svg version="1.2" xmlns="http://www.w3.org/2000/svg" viewBox="0 0 902 680" width="400" height="302">
	<title>4957142_Documents-ai</title>
	<style>
		.s0 { fill: #f5f5f5 } 
		.s1 { fill: #407bff } 
		.s2 { opacity: .6;fill: #000000 } 
		.s3 { opacity: .2;fill: #407bff } 
		.s4 { opacity: .8;fill: #ffffff } 
		.s5 { opacity: .3;fill: #000000 } 
		.s6 { opacity: .6;fill: #407bff } 
		.s7 { opacity: .5;fill: #407bff } 
	</style>
	<g id="Shadow">
		<path id="&lt;Path&gt;" class="s0" d="m887.8 638.5c0 12.5-173.6 22.6-387.8 22.6-214.2 0-387.8-10.1-387.8-22.6 0-12.5 173.6-22.7 387.8-22.7 214.2 0 387.8 10.2 387.8 22.7z"/>
	</g>
	<g id="Documents">
		<g id="&lt;Group&gt;">
			<g id="&lt;Group&gt;">
				<path id="&lt;Path&gt;" class="s1" d="m380.8 253.1c-2.3-10-11.2-17.1-21.4-17.1h-160.1c-12.2 0-22 9.8-22 22v355.6c0 12.2 9.8 22 22 22h508c12.2 0 22-9.8 22-22v-298.7c0-12.1-9.8-22-22-22h-276.4c-24 0-44.7-16.5-50.1-39.8z"/>
				<path id="&lt;Path&gt;" class="s2" d="m380.8 253.1c-2.3-10-11.2-17.1-21.4-17.1h-160.1c-12.2 0-22 9.8-22 22v355.6c0 12.2 9.8 22 22 22h508c12.2 0 22-9.8 22-22v-298.7c0-12.1-9.8-22-22-22h-276.4c-24 0-44.7-16.5-50.1-39.8z"/>
			</g>
			<g id="&lt;Group&gt;">
				<path id="&lt;Path&gt;" class="s3" d="m324.3 142.3l14.3 46.2c3.8 12.2 16.8 19.1 29 15.3l46.2-14.3z"/>
				<g id="&lt;Group&gt;">
					<g id="&lt;Group&gt;">
						<path id="&lt;Path&gt;" class="s1" d="m324.3 142.3l-165 51c-12.2 3.8-19.1 16.7-15.3 29l94.2 304.9c3.8 12.3 16.8 19.1 29 15.4l211.2-65.3c12.3-3.8 19.1-16.7 15.3-29l-79.9-258.8z"/>
						<path id="&lt;Path&gt;" class="s4" d="m324.3 142.3l-165 51c-12.2 3.8-19.1 16.7-15.3 29l94.2 304.9c3.8 12.3 16.8 19.1 29 15.4l211.2-65.3c12.3-3.8 19.1-16.7 15.3-29l-79.9-258.8z"/>
					</g>
					<g id="&lt;Group&gt;" style="opacity: .3">
						<path id="&lt;Path&gt;" class="s1" d="m413.1 464.1l-137.3 42.4c-5.3 1.6-11-1.4-12.6-6.7-1.7-5.3 1.3-11 6.7-12.7l137.2-42.4c5.4-1.6 11.1 1.4 12.7 6.7 1.7 5.3-1.4 11-6.7 12.7z"/>
					</g>
					<g id="&lt;Group&gt;" style="opacity: .3">
						<path id="&lt;Path&gt;" class="s1" d="m265.4 215.2l-72.6 22.4c-5.3 1.6-11-1.4-12.7-6.7-1.6-5.3 1.4-11 6.7-12.7l72.6-22.4c5.3-1.7 11 1.4 12.7 6.7 1.6 5.3-1.4 11-6.7 12.7z"/>
					</g>
					<g id="&lt;Group&gt;" style="opacity: .3">
						<path id="&lt;Path&gt;" class="s1" d="m324.6 238.9l-120 37.1c-5.3 1.6-11-1.4-12.6-6.7-1.7-5.3 1.3-11 6.7-12.7l119.9-37c5.4-1.7 11.1 1.3 12.7 6.7 1.7 5.3-1.4 11-6.7 12.6z"/>
					</g>
					<g id="&lt;Group&gt;" style="opacity: .3">
						<path id="&lt;Path&gt;" class="s1" d="m391.6 260.3l-175.1 54.1c-5.3 1.7-11-1.4-12.7-6.7-1.6-5.3 1.4-11 6.7-12.7l175.1-54c5.4-1.7 11.1 1.3 12.7 6.6 1.7 5.4-1.4 11.1-6.7 12.7z"/>
					</g>
					<g id="&lt;Group&gt;" style="opacity: .3">
						<path id="&lt;Path&gt;" class="s1" d="m403.5 298.7l-101.8 31.5c-5.3 1.6-11-1.4-12.7-6.7-1.6-5.3 1.4-11 6.7-12.7l101.8-31.4c5.3-1.7 11 1.3 12.7 6.7 1.6 5.3-1.4 11-6.7 12.6z"/>
					</g>
					<g id="&lt;Group&gt;" style="opacity: .3">
						<path id="&lt;Path&gt;" class="s1" d="m255 344.6l-26.6 8.2c-5.4 1.7-11.1-1.3-12.7-6.7-1.6-5.3 1.4-11 6.7-12.6l26.6-8.3c5.3-1.6 11 1.4 12.7 6.7 1.6 5.3-1.4 11-6.7 12.7z"/>
					</g>
					<g id="&lt;Group&gt;" style="opacity: .3">
						<path id="&lt;Path&gt;" class="s1" d="m415.4 337.1l-175.2 54.1c-5.3 1.7-11-1.3-12.6-6.7-1.7-5.3 1.3-11 6.7-12.6l175.1-54.1c5.3-1.7 11 1.3 12.6 6.7 1.7 5.3-1.3 11-6.6 12.6z"/>
					</g>
					<g id="&lt;Group&gt;" style="opacity: .3">
						<path id="&lt;Path&gt;" class="s1" d="m359.6 396.4l-107.5 33.2c-5.3 1.7-11-1.3-12.7-6.6-1.6-5.4 1.4-11.1 6.7-12.7l107.6-33.2c5.3-1.7 11 1.3 12.6 6.7 1.7 5.3-1.3 11-6.7 12.6z"/>
					</g>
					<g id="&lt;Group&gt;" style="opacity: .3">
						<path id="&lt;Path&gt;" class="s1" d="m427.2 375.6l-28.7 8.8c-5.3 1.7-11-1.3-12.7-6.7-1.6-5.3 1.4-11 6.7-12.6l28.7-8.9c5.4-1.7 11.1 1.4 12.7 6.7 1.7 5.3-1.4 11-6.7 12.7z"/>
					</g>
					<g id="&lt;Group&gt;" style="opacity: .3">
						<path id="&lt;Path&gt;" class="s1" d="m439.1 414l-175.1 54.1c-5.4 1.6-11.1-1.4-12.7-6.7-1.6-5.4 1.4-11.1 6.7-12.7l175.1-54.1c5.3-1.6 11 1.4 12.7 6.7 1.6 5.3-1.4 11-6.7 12.7z"/>
					</g>
				</g>
			</g>
			<g id="&lt;Group&gt;">
				<g id="&lt;Group&gt;">
					<path id="&lt;Path&gt;" class="s1" d="m442.8 27.6l52.4 116.7c2.8 6.3 0 13.8-6.3 16.6l-222.1 99.7c-6.4 2.9-13.9 0-16.7-6.3l-52.4-116.7c-1.4-3.3-1.4-6.9-0.1-10 1.2-2.8 3.5-5.3 6.5-6.6l222.1-99.7c3-1.4 6.3-1.4 9.2-0.4 3.2 1 5.9 3.4 7.4 6.7z"/>
					<path id="&lt;Path&gt;" class="s5" d="m442.8 27.6l52.4 116.7c2.8 6.3 0 13.8-6.3 16.6l-222.1 99.7c-6.4 2.9-13.9 0-16.7-6.3l-52.4-116.7c-1.4-3.3-1.4-6.9-0.1-10 1.2-2.8 3.5-5.3 6.5-6.6l222.1-99.7c3-1.4 6.3-1.4 9.2-0.4 3.2 1 5.9 3.4 7.4 6.7z"/>
				</g>
				<path id="&lt;Path&gt;" class="s1" d="m401.5 26.9l-0.8-1.9 7.1-3.1 0.8 1.8z"/>
				<path id="&lt;Path&gt;" class="s1" d="m369.5 41.3l-0.8-1.9 22.1-9.9 0.8 1.8z"/>
				<path id="&lt;Path&gt;" class="s1" d="m201.8 163.7l-6.1-13.5 1.8-0.8 6.1 13.5z"/>
				<path id="&lt;Path&gt;" class="s6" d="m435.4 20.9l-57.3 112.2c-10.9 21.4-35.3 32.3-58.6 26.3l-121.9-31.8c1.2-2.8 3.5-5.3 6.5-6.6l222.1-99.7c3-1.4 6.3-1.4 9.2-0.4z"/>
			</g>
			<g id="&lt;Group&gt;">
				<g id="&lt;Group&gt;">
					<path id="&lt;Path&gt;" class="s1" d="m514.1 164.5l-172.3 10.6c-12.8 0.8-22.5 11.8-21.8 24.6l19.7 318.5c0.8 12.8 11.8 22.6 24.6 21.8l220.6-13.6c12.8-0.8 22.5-11.8 21.7-24.6l-16.7-270.3z"/>
					<path id="&lt;Path&gt;" class="s4" d="m514.1 164.5l-172.3 10.6c-12.8 0.8-22.5 11.8-21.8 24.6l19.7 318.5c0.8 12.8 11.8 22.6 24.6 21.8l220.6-13.6c12.8-0.8 22.5-11.8 21.7-24.6l-16.7-270.3z"/>
				</g>
				<g id="&lt;Group&gt;" style="opacity: .2">
					<path id="&lt;Path&gt;" class="s1" d="m524.6 498.1l-143.5 8.8c-5.5 0.4-10.3-3.9-10.7-9.5-0.3-5.5 3.9-10.3 9.5-10.7l143.4-8.8c5.6-0.4 10.4 3.9 10.8 9.4 0.3 5.6-4 10.4-9.5 10.8z"/>
				</g>
				<g id="&lt;Group&gt;" style="opacity: .2">
					<path id="&lt;Path&gt;" class="s1" d="m439.7 221.4l-75.9 4.6c-5.5 0.4-10.4-3.9-10.7-9.4-0.4-5.6 3.9-10.4 9.5-10.8l75.8-4.7c5.6-0.3 10.4 4 10.8 9.5 0.3 5.6-4 10.4-9.5 10.8z"/>
				</g>
				<g id="&lt;Group&gt;" style="opacity: .2">
					<path id="&lt;Path&gt;" class="s1" d="m491.6 258.4l-125.3 7.8c-5.6 0.3-10.4-4-10.7-9.5-0.4-5.6 3.9-10.4 9.5-10.8l125.3-7.7c5.6-0.3 10.4 3.9 10.7 9.5 0.4 5.6-3.9 10.4-9.5 10.7z"/>
				</g>
				<g id="&lt;Group&gt;" style="opacity: .2">
					<path id="&lt;Path&gt;" class="s1" d="m551.7 295l-182.9 11.3c-5.6 0.3-10.4-3.9-10.8-9.5-0.3-5.6 4-10.4 9.5-10.7l183-11.3c5.5-0.4 10.3 3.9 10.7 9.5 0.3 5.5-3.9 10.4-9.5 10.7z"/>
				</g>
				<g id="&lt;Group&gt;" style="opacity: .2">
					<path id="&lt;Path&gt;" class="s1" d="m554.2 335.1l-106.4 6.6c-5.5 0.3-10.4-3.9-10.7-9.5-0.3-5.6 3.9-10.4 9.5-10.7l106.3-6.6c5.6-0.3 10.4 3.9 10.8 9.5 0.3 5.6-4 10.4-9.5 10.7z"/>
				</g>
				<g id="&lt;Group&gt;" style="opacity: .2">
					<path id="&lt;Path&gt;" class="s1" d="m399.1 344.7l-27.9 1.7c-5.5 0.4-10.3-3.9-10.7-9.5-0.3-5.5 3.9-10.4 9.5-10.7l27.8-1.7c5.6-0.4 10.4 3.9 10.8 9.5 0.3 5.5-4 10.4-9.5 10.7z"/>
				</g>
				<g id="&lt;Group&gt;" style="opacity: .2">
					<path id="&lt;Path&gt;" class="s1" d="m556.7 375.3l-183 11.2c-5.5 0.4-10.4-3.9-10.7-9.4-0.4-5.6 3.9-10.4 9.5-10.8l182.9-11.3c5.6-0.3 10.4 4 10.7 9.5 0.4 5.6-3.9 10.4-9.4 10.8z"/>
				</g>
				<g id="&lt;Group&gt;" style="opacity: .2">
					<path id="&lt;Path&gt;" class="s1" d="m488.5 419.7l-112.3 7c-5.6 0.3-10.4-4-10.7-9.5-0.4-5.6 3.9-10.4 9.5-10.7l112.3-7c5.6-0.3 10.4 4 10.7 9.5 0.4 5.6-3.9 10.4-9.5 10.7z"/>
				</g>
				<g id="&lt;Group&gt;" style="opacity: .2">
					<path id="&lt;Path&gt;" class="s1" d="m559.1 415.4l-30 1.8c-5.5 0.4-10.3-3.9-10.7-9.4-0.3-5.6 3.9-10.4 9.5-10.8l30-1.8c5.5-0.4 10.4 3.9 10.7 9.5 0.4 5.5-3.9 10.3-9.5 10.7z"/>
				</g>
				<g id="&lt;Group&gt;" style="opacity: .2">
					<path id="&lt;Path&gt;" class="s1" d="m561.6 455.5l-182.9 11.3c-5.6 0.3-10.4-3.9-10.8-9.5-0.3-5.5 4-10.4 9.5-10.7l183-11.3c5.5-0.3 10.3 3.9 10.7 9.5 0.3 5.5-3.9 10.4-9.5 10.7z"/>
				</g>
				<path id="&lt;Path&gt;" class="s3" d="m514.1 164.5l3 48.2c0.8 12.8 11.8 22.5 24.6 21.7l48.2-2.9z"/>
			</g>
			<path id="&lt;Path&gt;" class="s7" d="m457.7 284.8c-0.3-10-7.9-17.1-18.1-17.1h-160.1c-12.1 0-23.9 9.9-26.3 22l-63.2 323.9c-2.4 12.2 5.5 22 17.7 22h508c12.2 0 23.9-9.8 26.3-22l52.1-267c2.4-12.1-5.5-22-17.7-22h-276.4c-24 0-41.5-16.5-42.3-39.8z"/>
		</g>
	</g>
</svg>