<svg version="1.2" xmlns="http://www.w3.org/2000/svg" viewBox="0 0 1200 842" width="1200" height="842">
	<title>14562381_5500660 (1)-ai</title>
	<style>
		.s0 { fill: #81e3a5 } 
		.s1 { opacity: .6;fill: #ffffff } 
		.s2 { fill: #ebebeb } 
		.s3 { fill: #f5f5f5 } 
		.s4 { fill: #d0cedf } 
		.s5 { fill: #fafafa } 
		.s6 { fill: #e6e6e6 } 
		.s7 { fill: #e0e0e0 } 
		.s8 { fill: #f0f0f0 } 
		.s9 { fill: #b2caff } 
		.s10 { fill: #3f7bff } 
		.s11 { fill: #263138 } 
		.s12 { fill: #4eb073 } 
		.s13 { fill: #b9cefe } 
		.s14 { fill: #6dc4c0 } 
		.s15 { fill: #e0deef } 
		.s16 { fill: #263238 } 
		.s17 { fill: #407bff } 
		.s18 { fill: #ffffff } 
		.s19 { fill: #4cb473 } 
		.s20 { fill: #589f73 } 
		.s21 { fill: #47bc72 } 
		.s22 { fill: #58a374 } 
		.s23 { opacity: .7;fill: #81e3a5 } 
	</style>
	<g id="Background Simple">
		<g id="&lt;Group&gt;">
			<path id="&lt;Path&gt;" class="s0" d="m176.8 392.9c29.1-6.4 59.5 1.1 88.2 10.4 28.7 9.3 57.4 20.7 87.2 22.4 67.8 3.9 127.5-42.5 172.3-94.5 44.7-52 82-112.7 136.9-152.6 24.2-17.6 54.1-31 83.2-23.4 22.5 5.9 40.7 23.3 56.5 41.4 28.7 32.9 52.9 70.2 71.6 110.1 15.8 33.8 27.6 73.9 13.1 107.4-13.1 30.2-43.8 46.5-72.9 59.5-201.8 90.4-423.5 124.9-643.9 144.2-8.9 0.8-18.2 1.4-26.2-2.9-11.2-6-16.2-19.7-19.6-32.3-17.4-64.9-28.2-171.8 53.6-189.7z"/>
			<path id="&lt;Path&gt;" class="s1" d="m176.8 392.9c29.1-6.4 59.5 1.1 88.2 10.4 28.7 9.3 57.4 20.7 87.2 22.4 67.8 3.9 127.5-42.5 172.3-94.5 44.7-52 82-112.7 136.9-152.6 24.2-17.6 54.1-31 83.2-23.4 22.5 5.9 40.7 23.3 56.5 41.4 28.7 32.9 52.9 70.2 71.6 110.1 15.8 33.8 27.6 73.9 13.1 107.4-13.1 30.2-43.8 46.5-72.9 59.5-201.8 90.4-423.5 124.9-643.9 144.2-8.9 0.8-18.2 1.4-26.2-2.9-11.2-6-16.2-19.7-19.6-32.3-17.4-64.9-28.2-171.8 53.6-189.7z"/>
		</g>
	</g>
	<g id="Background Complete">
		<path id="&lt;Path&gt;" class="s2" d="m833.6 717h66.2v0.5h-66.2z"/>
		<path id="&lt;Path&gt;" class="s2" d="m645.1 722.4h17.3v0.5h-17.3z"/>
		<path id="&lt;Path&gt;" class="s2" d="m793.2 698.4h38.4v0.5h-38.4z"/>
		<path id="&lt;Path&gt;" class="s2" d="m104.9 701.8h86.4v0.5h-86.4z"/>
		<path id="&lt;Path&gt;" class="s2" d="m209.1 701.8h12.7v0.5h-12.7z"/>
		<path id="&lt;Path&gt;" class="s2" d="m262.9 710.2h187.4v0.5h-187.4z"/>
		<path id="&lt;Path&gt;" class="s2" d="m1000 685.3h-1000v-0.5h1000z"/>
		<g id="&lt;Group&gt;">
			<g id="&lt;Group&gt;">
				<g id="&lt;Group&gt;">
					<g id="&lt;Group&gt;">
						<g id="&lt;Group&gt;">
							<path id="&lt;Path&gt;" class="s3" d="m700.1 673.2h190.4v-253.3h-190.4z"/>
							<path id="&lt;Path&gt;" class="s4" d="m663.8 673.2h36.3v-253.3h-36.3z"/>
							<path id="&lt;Path&gt;" class="s5" d="m712.5 500.2h164.7v-61.5h-164.7z"/>
							<path id="&lt;Path&gt;" class="s4" d="m816.3 438.7l-0.7 8.2c-0.3 2.7-2.5 4.8-5.2 4.8h-31.1c-2.7 0-5-2.1-5.2-4.8l-0.7-8.2z"/>
							<path id="&lt;Path&gt;" class="s5" d="m712.5 568.4h164.7v-61.5h-164.7z"/>
							<path id="&lt;Path&gt;" class="s4" d="m816.3 506.9l-0.7 8.2c-0.3 2.7-2.5 4.8-5.2 4.8h-31.1c-2.7 0-5-2.1-5.2-4.8l-0.7-8.2z"/>
							<path id="&lt;Path&gt;" class="s5" d="m712.5 636.7h164.7v-61.6h-164.7z"/>
							<path id="&lt;Path&gt;" class="s4" d="m816.3 575.1l-0.7 8.2c-0.3 2.8-2.5 4.8-5.2 4.8h-31.1c-2.7 0-5-2-5.2-4.8l-0.7-8.2z"/>
							<path id="&lt;Path&gt;" class="s6" d="m712.5 685.8h162.7l2-12.6h-164.7z"/>
							<path id="&lt;Path&gt;" class="s7" d="m678.5 685.8h34v-12.6h-36z"/>
						</g>
						<g id="&lt;Group&gt;">
							<path id="&lt;Path&gt;" class="s5" d="m789 420.2h65l-7.2-82.5h-65z"/>
							<path id="&lt;Path&gt;" class="s4" d="m789 420.2h-3.1l-7.3-82.5h3.2z"/>
							<path id="&lt;Path&gt;" class="s8" d="m794.9 411.8h51.7l-5.7-65.7h-51.8z"/>
							<path id="&lt;Path&gt;" class="s4" d="m798.6 406.4h43.3l-4.8-54.9h-43.3z"/>
						</g>
						<g id="&lt;Group&gt;">
							<path id="&lt;Path&gt;" class="s4" d="m770.7 420.2l4.5-51.1h-64.7l-4.5 51.1z"/>
							<path id="&lt;Path&gt;" class="s7" d="m770.7 420.2l4.5-51.1h3.4l-4.4 51.1z"/>
							<path id="&lt;Path&gt;" class="s2" d="m764.6 415l3.5-40.7h-51.5l-3.6 40.7z"/>
							<path id="&lt;Path&gt;" class="s3" d="m760.6 411.6l3-33.9h-43.1l-2.9 33.9z"/>
						</g>
					</g>
				</g>
				<g id="&lt;Group&gt;">
					<path id="&lt;Path&gt;" class="s2" d="m621.3 651.5c0 13.6-2.1 22.3-5.7 27.9-2.7 4.2-7.5 6.6-12.5 6.6h-19.6c-5 0-9.8-2.4-12.5-6.6-3.6-5.6-5.7-14.3-5.7-27.9 0-19.6 8.5-35.3 11.3-47.8 1-4.5-2.3-18.4-2.3-18.4h38c0 0-3.4 13.9-2.4 18.4 2.8 12.5 11.4 28.2 11.4 47.8z"/>
					<path id="&lt;Path&gt;" class="s3" d="m686 572.2c0-17.1-26.7-10-33.4-36.4-2.6-10 19.1-32.7 19.1-32.7h-67.7c0 0 21.8 22.7 19.2 32.7-6.7 26.4-33.4 19.3-33.4 36.4 0 18.7 37.6 57.8 39.5 101.7 0.1 4-7.1 12.1-7.1 12.1h31.4c0 0-7.2-8.1-7.1-12.1 1.8-43.9 39.5-83 39.5-101.7z"/>
					<path id="&lt;Path&gt;" class="s8" d="m665.5 616.4c4-8.3-4.2-36.4-4.2-36.4h29.4c0 0-8.2 28.1-4.2 36.4 2.8 5.9 9.1 9.6 9.1 16.5v41.5c0 10.8-8.8 11.6-19.6 11.6-10.8 0-19.6-0.8-19.6-11.6v-41.5c0-6.9 6.4-10.6 9.1-16.5z"/>
				</g>
				<g id="&lt;Group&gt;">
					<g id="&lt;Group&gt;">
						<path id="&lt;Compound Path&gt;" fill-rule="evenodd" class="s4" d="m330.3 371.1c-16.8-7.3-26.5-22.7-21.4-34.4 5-11.6 22.8-15.1 39.7-7.8 16.8 7.3 26.4 22.7 21.4 34.3-5 11.6-22.8 15.2-39.7 7.9zm13.4-31c-7.9-3.4-16.2-1.8-18.6 3.7-2.3 5.4 2.2 12.6 10.1 16 7.9 3.5 16.2 1.8 18.6-3.6 2.3-5.5-2.2-12.7-10.1-16.1z"/>
					</g>
					<g id="&lt;Group&gt;">
						<g id="&lt;Group&gt;">
							<path id="&lt;Path&gt;" class="s6" d="m350.1 340.7l-8-3.4 48.4-111.9c1-2.2 3.5-3.2 5.8-2.3 2.2 1 3.2 3.5 2.2 5.7z"/>
						</g>
						<g id="&lt;Group&gt;">
							<g id="&lt;Group&gt;">
								<path id="&lt;Path&gt;" class="s6" d="m402.2 239.7l-15.3-6.8 3.4-8 15.4 6.8z"/>
							</g>
							<g id="&lt;Group&gt;">
								<path id="&lt;Path&gt;" class="s6" d="m394.7 248.6l-11-4.8 3.4-8 11 4.8z"/>
							</g>
							<g id="&lt;Group&gt;">
								<path id="&lt;Path&gt;" class="s6" d="m391.5 264.5l-12.3-5.4 3.5-8 12.3 5.4z"/>
							</g>
							<g id="&lt;Group&gt;">
								<path id="&lt;Path&gt;" class="s6" d="m353.2 328.8l-4.4-1.9c-2.1-1-3.2-3.5-2.2-5.7v-0.1c1-2.2 3.5-3.2 5.7-2.2l4.4 1.9c2.2 0.9 3.2 3.5 2.3 5.7h-0.1c-0.9 2.2-3.5 3.2-5.7 2.3z"/>
							</g>
						</g>
					</g>
				</g>
				<g id="&lt;Group&gt;">
					<g id="&lt;Group&gt;">
						<path id="&lt;Compound Path&gt;" fill-rule="evenodd" class="s4" d="m696.9 290.3c13.4 8.9 16.8 27.3 7.7 41-9.1 13.7-27.4 17.6-40.7 8.7-13.4-8.9-16.8-27.3-7.7-41 9.1-13.7 27.4-17.6 40.7-8.7zm-24.3 36.5c6.3 4.1 14.9 2.3 19.1-4.1 4.3-6.4 2.7-15-3.6-19.2-6.2-4.2-14.8-2.3-19.1 4.1-4.2 6.4-2.6 15 3.6 19.2z"/>
					</g>
					<g id="&lt;Group&gt;">
						<g id="&lt;Group&gt;">
							<path id="&lt;Path&gt;" class="s6" d="m669.4 323.2l8.3 5.5-59.2 90.7c-1.6 2.3-4.6 2.9-6.9 1.4-2.3-1.6-2.9-4.6-1.4-6.9z"/>
						</g>
						<g id="&lt;Group&gt;">
							<g id="&lt;Group&gt;">
								<path id="&lt;Path&gt;" class="s6" d="m610.6 394.1l17.4 11.7-8.7 13.1-17.5-11.8c-2.5-1.6-3.2-5-1.5-7.5l2.6-4c1.7-2.5 5.1-3.2 7.7-1.5z"/>
							</g>
						</g>
					</g>
				</g>
				<g id="&lt;Group&gt;">
					<g id="&lt;Group&gt;">
						<g id="&lt;Group&gt;">
							<g id="&lt;Group&gt;">
								<path id="&lt;Path&gt;" class="s8" d="m455.1 117.1l-9.2 23.8c-0.8 2.2-3.3 3.2-5.4 2.4-2.2-0.8-3.2-3.2-2.4-5.4l9.2-23.8c3-7.7-0.9-16.4-8.6-19.3l-8.5-3.3c-7.7-3-16.3 0.9-19.3 8.6l-3.8 9.7-7.7-3 3.7-9.7c4.6-12 18.1-18 30.1-13.4l8.5 3.3c12 4.6 18 18.1 13.4 30.1z"/>
							</g>
							<g id="&lt;Group&gt;">
								<g id="&lt;Group&gt;">
									<path id="&lt;Compound Path&gt;" fill-rule="evenodd" class="s4" d="m454.4 126.4l-17.9 46.4c-1.1 2.9-4.4 4.4-7.3 3.3l-46.4-18c-3-1.1-4.4-4.4-3.3-7.3l17.9-46.4c0.7-1.9 2.4-3.2 4.2-3.5 1.1-0.3 2.1-0.2 3.2 0.2l46.4 17.9c1 0.4 1.8 1.1 2.4 1.9 1.2 1.5 1.6 3.6 0.8 5.5zm-32.7 15c2.1-0.8 3.8-2.4 4.7-4.6 1.6-4.2-0.5-9-4.7-10.6-4.2-1.6-8.9 0.5-10.6 4.7-0.8 2.2-0.6 4.6 0.4 6.6l-7.8 13.5 14.7 5.7z"/>
								</g>
							</g>
						</g>
					</g>
				</g>
			</g>
			<g id="&lt;Group&gt;">
				<path id="&lt;Path&gt;" class="s4" d="m138.3 658.9h370.3v-199.3h-370.3z"/>
				<path id="&lt;Path&gt;" class="s6" d="m478.9 684.8h23.3v-17.6h-23.3z"/>
				<path id="&lt;Path&gt;" class="s4" d="m110.1 684.8h23.2v-240h-23.2z"/>
				<path id="&lt;Compound Path&gt;" fill-rule="evenodd" class="s8" d="m514.6 444.8v240h-12.4v-13.5h-356.7v13.5h-12.5v-240zm-369.1 105.1h172.2v-83.4h-172.2zm356.7-83.3h-172.1v183.1h172.1zm-184.5 183v-87.3h-172.2v87.3z"/>
				<path id="&lt;Path&gt;" class="s3" d="m330 649.6h160.5v-174.1h-160.5z"/>
				<path id="&lt;Path&gt;" class="s5" d="m337.3 557.3c0 4.2 3.3 7.5 7.4 7.5 4.2 0 7.5-3.3 7.5-7.5 0-4.1-3.3-7.4-7.5-7.4-4.1 0-7.4 3.3-7.4 7.4z"/>
				<path id="&lt;Path&gt;" class="s7" d="m344.7 564.8c3 0 5.6-1.8 6.8-4.4 0.4 1 0.7 2 0.7 3.1 0 4.2-3.3 7.5-7.5 7.5-4.1 0-7.4-3.3-7.4-7.5 0-1.1 0.2-2.1 0.7-3.1 1.2 2.6 3.7 4.4 6.7 4.4z"/>
				<path id="&lt;Path&gt;" class="s5" d="m428.3 649.6h-38.3l-18.3-174.1h38.3z"/>
				<path id="&lt;Path&gt;" class="s5" d="m380.2 649.6h-7.7l-18.2-174.1h7.6z"/>
				<path id="&lt;Path&gt;" class="s5" d="m278.8 549.8h15.2v-74.5h-15.2z"/>
				<path id="&lt;Path&gt;" class="s3" d="m215.9 549.8h15.2v-74.5h-15.2z"/>
				<path id="&lt;Path&gt;" class="s3" d="m263.6 549.8h15.2v-69.2h-15.2z"/>
				<path id="&lt;Path&gt;" class="s5" d="m231.1 549.8h15.1v-69.2h-15.1z"/>
				<path id="&lt;Path&gt;" class="s2" d="m246.2 549.8h9.9v-74.5h-9.9z"/>
				<path id="&lt;Path&gt;" class="s5" d="m256.1 549.8h7.5v-69.2h-7.5z"/>
				<path id="&lt;Path&gt;" class="s2" d="m200.7 549.8h15.2v-74.5h-15.2z"/>
				<path id="&lt;Path&gt;" class="s6" d="m185.6 549.8h15.1v-69.2h-15.1z"/>
				<path id="&lt;Path&gt;" class="s6" d="m153 549.8h15.2v-69.2h-15.2z"/>
				<path id="&lt;Path&gt;" class="s5" d="m168.2 549.8h9.8v-74.5h-9.8z"/>
				<path id="&lt;Path&gt;" class="s2" d="m178 549.8h7.6v-69.2h-7.6z"/>
				<path id="&lt;Path&gt;" class="s2" d="m145.4 549.8h7.6v-72.7h-7.6z"/>
				<path id="&lt;Path&gt;" class="s2" d="m160.6 649.6h-15.2v-74.5h15.2z"/>
				<path id="&lt;Path&gt;" class="s5" d="m223.5 649.6h-15.2v-74.5h15.2z"/>
				<path id="&lt;Path&gt;" class="s5" d="m175.8 649.6h-15.2v-69.2h15.2z"/>
				<path id="&lt;Path&gt;" class="s2" d="m208.3 649.6h-15.1v-69.2h15.1z"/>
				<path id="&lt;Path&gt;" class="s5" d="m193.2 649.6h-9.8v-74.5h9.8z"/>
				<path id="&lt;Path&gt;" class="s3" d="m183.4 649.6h-7.6v-69.2h7.6z"/>
				<path id="&lt;Path&gt;" class="s2" d="m238.7 649.6h-15.2v-74.5h15.2z"/>
				<path id="&lt;Path&gt;" class="s3" d="m253.8 649.6h-15.1v-69.2h15.1z"/>
				<path id="&lt;Path&gt;" class="s6" d="m286.4 649.6h-15.2v-69.2h15.2z"/>
				<path id="&lt;Path&gt;" class="s5" d="m271.2 649.6h-9.8v-74.5h9.8z"/>
				<path id="&lt;Path&gt;" class="s5" d="m303.8 649.6h-9.8v-74.5h9.8z"/>
				<path id="&lt;Path&gt;" class="s2" d="m261.4 649.6h-7.6v-69.2h7.6z"/>
				<path id="&lt;Path&gt;" class="s2" d="m294 649.6h-7.6v-72.7h7.6z"/>
			</g>
			<g id="&lt;Group&gt;">
				<g id="&lt;Group&gt;">
					<g id="&lt;Group&gt;">
						<g id="&lt;Group&gt;">
							<g id="&lt;Group&gt;">
								<g id="&lt;Group&gt;">
									<path id="&lt;Path&gt;" class="s9" d="m162.4 316.6c0 0-2.6 1.1-3.8 3.5-1.1 2.4 2.5 6.8 2.5 6.8 0 0 3 2.1 6 0.7 3-1.4 3-1.4 3-1.4 0 0-5.1-8.9-7.6-9z"/>
								</g>
							</g>
							<g id="&lt;Group&gt;">
								<g id="&lt;Group&gt;">
									<path id="&lt;Path&gt;" class="s10" d="m175.3 316.5c0.3 4.2-2.3 9.6-6.1 9.9-3.8 0.3-7.3-4.5-7.6-8.7-0.4-4.2 2.6-4.7 6.4-5 3.8-0.3 6.9-0.4 7.3 3.8z"/>
								</g>
								<g id="&lt;Group&gt;">
									<path id="&lt;Path&gt;" class="s6" d="m164.2 315.3c0 0 2.9 2.3 8.8 0.9 0 0-9.4 6.3-8.8-0.9z"/>
								</g>
								<g id="&lt;Group&gt;">
									<path id="&lt;Path&gt;" class="s6" d="m166.7 314.4c0 0 3.4-0.6 3.4 0.8 0 0 2.8-0.1 2.4-1.3-0.3-1.2-5.8 0.5-5.8 0.5z"/>
								</g>
								<g id="&lt;Group&gt;" style="opacity: .2">
									<path id="&lt;Path&gt;" class="s5" d="m164.2 315.3c0 0 2.9 2.3 8.8 0.9 0 0-9.4 6.3-8.8-0.9z"/>
								</g>
								<g id="&lt;Group&gt;" style="opacity: .2">
									<path id="&lt;Path&gt;" class="s5" d="m166.7 314.4c0 0 3.4-0.6 3.4 0.8 0 0 2.8-0.1 2.4-1.3-0.3-1.2-5.8 0.5-5.8 0.5z"/>
								</g>
							</g>
							<g id="&lt;Group&gt;">
								<path id="&lt;Path&gt;" class="s9" d="m162.9 327.8c1.2 1.9 3.6 2.9 5.9 2.6 2.3-0.2 4.3-1.7 5.6-3.5 1.4-1.9 2-4.2 2.1-6.5 0.1-0.6 0.1-2.1-0.7-2.3-0.7-0.2-1.1 0.8-1.5 1.3-0.9 1.3-1.9 2.6-3.1 3.7q-1.8 1.6-3.9 2.8c-0.4 0.2-4.2 2.2-4.4 1.9z"/>
							</g>
							<g id="&lt;Group&gt;">
								<path id="&lt;Path&gt;" class="s9" d="m179.1 319.3c0.7 1.7 0.4 3.8-0.7 5.3-0.7 1-1.7 1.7-2.8 2.3-0.7 0.4-1.7 0.9-2.4 0.4-0.7-0.5-0.7-1.6-0.5-2.5q0.4-2.1 0.9-4.2c0.3-1.1 0.5-3 1.2-3.9 0.6-0.9 1.4-0.4 2.4 0.3 0.8 0.5 1.5 1.4 1.9 2.3z"/>
							</g>
							<g id="&lt;Group&gt;" style="opacity: .2">
								<path id="&lt;Path&gt;" class="s5" d="m163.8 325.4c-1.4-0.1-2.8-1-3.4-2.4-0.3-1-0.3-3.6 1-3.9 0.5 2.3 1 4.3 2.4 6.3z"/>
							</g>
							<g id="&lt;Group&gt;" style="opacity: .2">
								<path id="&lt;Path&gt;" class="s5" d="m173.7 325.3c1.4-0.4 2.5-1.5 2.9-2.9 0.3-0.7 0-4.6-1.2-3-0.4 0.5-0.3 2.2-0.5 2.9q-0.4 1.6-1.2 3z"/>
							</g>
							<g id="&lt;Group&gt;" style="opacity: .2">
								<path id="&lt;Path&gt;" class="s5" d="m168.4 327.7c1.1 0.9 2.8 1 3.9 0.1-0.2 0.8-2.5 1.4-3.2 1.6-2 0.6-3-0.3-4.8-1.1 0 0 2.9 0.5 4.1-0.6z"/>
							</g>
						</g>
						<g id="&lt;Group&gt;">
							<g id="&lt;Group&gt;">
								<path id="&lt;Path&gt;" class="s11" d="m165.1 405.6l0.2-57.7 2.9-17.6 1.2 0.2-3 17.5-0.2 58.7z"/>
							</g>
						</g>
						<g id="&lt;Group&gt;">
							<path id="&lt;Path&gt;" class="s11" d="m166.3 347.6l-0.9 0.7c-0.9-1.2-1.7-2.7-2.7-4.5-1.4-2.8-3.1-5.9-5.6-8.6l0.8-0.8c2.6 2.9 4.3 6 5.8 8.9 1 1.7 1.7 3.2 2.6 4.3z"/>
						</g>
						<g id="&lt;Group&gt;">
							<path id="&lt;Path&gt;" class="s12" d="m167 339.9c1.5-0.4 2.9-1.4 3.8-2.7 1-1.5 1.3-3.4 1.7-5.1-2 0.6-4.2-0.4-6.2-0.2-1.7 0.2-3.2 1.2-4 2.7-1.1 1.8-1.6 3.9-0.6 4.8 0.8 0.7 3.2 1 5.3 0.5z"/>
						</g>
						<g id="&lt;Group&gt;">
							<g id="&lt;Group&gt;">
								<path id="&lt;Path&gt;" class="s6" d="m159.3 335.9c-1.8 1.1-4.2 1.4-6.3 0.8-2-0.7-2.6-3.8-3.4-5.8 1.8-0.4 6.6-0.2 7.7-0.1 1.1 0.2 2.2 0.6 2.8 1.6 0.5 0.9 0.4 2.3-0.5 2.9 0-0.1-0.3 0.6-0.3 0.6z"/>
							</g>
						</g>
						<g id="&lt;Group&gt;">
							<g id="&lt;Group&gt;">
								<path id="&lt;Path&gt;" class="s12" d="m149.9 339.3c1.2-1.6 4.3-2.7 6.3-2.3 2 0.3 3.6 1.7 4.3 3.3-0.5 1.2-1.9 1.9-3.2 2-1.4 0.1-2.7-0.3-4-0.7-1.3-0.4-2.6-0.8-3.9-0.7z"/>
							</g>
						</g>
					</g>
					<g id="&lt;Group&gt;">
						<g id="&lt;Group&gt;">
							<g id="&lt;Group&gt;">
								<g id="&lt;Group&gt;">
									<path id="&lt;Path&gt;" class="s9" d="m188.4 329.3c0 0 2 1.9 2.5 4.5 0.4 2.6-4.4 5.7-4.4 5.7 0 0-3.5 1.2-6-1-2.4-2.2-2.4-2.2-2.4-2.2 0 0 7.5-7.1 9.9-6.4z"/>
								</g>
							</g>
							<g id="&lt;Group&gt;">
								<g id="&lt;Group&gt;">
									<path id="&lt;Path&gt;" class="s10" d="m176 325.5c-1.5 3.9-0.6 9.8 2.9 11.2 3.5 1.5 8.3-2.1 9.9-6.1 1.6-3.9-1.2-5.2-4.7-6.6-3.5-1.5-6.5-2.5-8.1 1.5z"/>
								</g>
								<g id="&lt;Group&gt;">
									<path id="&lt;Path&gt;" class="s6" d="m187 327.5c0 0-3.4 1.4-8.7-1.6 0 0 7.1 8.7 8.7 1.6z"/>
								</g>
								<g id="&lt;Group&gt;">
									<path id="&lt;Path&gt;" class="s6" d="m184.8 326c0 0-3-1.6-3.5-0.2 0 0-2.6-1-1.9-2 0.7-1.1 5.4 2.2 5.4 2.2z"/>
								</g>
								<g id="&lt;Group&gt;" style="opacity: .2">
									<path id="&lt;Path&gt;" class="s5" d="m187 327.5c0 0-3.4 1.4-8.7-1.6 0 0 7.1 8.7 8.7 1.6z"/>
								</g>
								<g id="&lt;Group&gt;" style="opacity: .2">
									<path id="&lt;Path&gt;" class="s5" d="m184.8 326c0 0-3-1.6-3.5-0.2 0 0-2.6-1-1.9-2 0.7-1.1 5.4 2.2 5.4 2.2z"/>
								</g>
							</g>
							<g id="&lt;Group&gt;">
								<path id="&lt;Path&gt;" class="s9" d="m184.6 339.9c-1.7 1.5-4.4 1.7-6.5 0.8-2.1-0.9-3.6-2.9-4.3-5.1-0.7-2.2-0.6-4.5-0.1-6.8 0.1-0.6 0.5-2 1.3-2 0.8 0 0.9 1.1 1.1 1.7 0.5 1.5 1.1 3 1.9 4.5q1.3 2 2.9 3.8c0.3 0.3 3.4 3.3 3.7 3.1z"/>
							</g>
							<g id="&lt;Group&gt;">
								<path id="&lt;Path&gt;" class="s13" d="m171.6 327c-1.2 1.4-1.6 3.5-1 5.3 0.4 1.1 1.2 2.1 2.1 3 0.5 0.6 1.3 1.3 2.1 1.1 0.9-0.3 1.2-1.4 1.3-2.3q0.2-2.1 0.3-4.2c0-1.2 0.4-3 0.1-4.1-0.3-1.1-1.3-0.8-2.4-0.5-1 0.3-1.9 0.9-2.5 1.7z"/>
							</g>
							<g id="&lt;Group&gt;" style="opacity: .2">
								<path id="&lt;Path&gt;" class="s5" d="m184.4 337.3c1.4 0.4 3-0.1 3.9-1.3 0.7-0.8 1.4-3.3 0.3-4-1.3 2-2.3 3.9-4.2 5.3z"/>
							</g>
							<g id="&lt;Group&gt;" style="opacity: .2">
								<path id="&lt;Path&gt;" class="s5" d="m175 334.3c-1.2-0.7-2-2.1-2-3.6 0-0.8 1.4-4.4 2-2.5 0.2 0.6-0.3 2.2-0.3 2.9q-0.1 1.7 0.3 3.2z"/>
							</g>
							<g id="&lt;Group&gt;" style="opacity: .2">
								<path id="&lt;Path&gt;" class="s5" d="m179.3 338.2c-1.3 0.5-2.9 0.1-3.7-1.1-0.1 0.8 2 2.1 2.6 2.5 1.6 1.1 2.8 0.6 4.8 0.4 0 0-2.9-0.4-3.7-1.8z"/>
							</g>
						</g>
						<g id="&lt;Group&gt;">
							<g id="&lt;Group&gt;">
								<path id="&lt;Path&gt;" class="s11" d="m163.5 397l0.7-2.4 0.9-3.2 1.2-3.7 8.9-29.5 1.2-8.5 1-7.5 0.2-1.6 0.5 0.1 0.6 0.1v0.1l-0.2 1.5-1.1 8-0.9 6.6-0.1 1.4-0.1 0.2-10 33-1.2 3.7-0.5 1.8-0.7 2.3z"/>
							</g>
						</g>
						<g id="&lt;Group&gt;">
							<path id="&lt;Path&gt;" class="s11" d="m175.5 357.8l0.6 1c1.2-0.9 2.5-2.1 3.9-3.6 2.2-2.2 4.7-4.7 7.9-6.6l-0.6-0.9c-3.3 1.9-5.9 4.5-8.1 6.7-1.4 1.4-2.6 2.6-3.7 3.4z"/>
						</g>
						<g id="&lt;Group&gt;">
							<path id="&lt;Path&gt;" class="s12" d="m177.1 350.2c-1.4-0.8-2.4-2.1-2.9-3.7-0.5-1.7-0.3-3.5-0.1-5.3 1.8 1.1 4.1 0.8 6 1.7 1.5 0.6 2.7 2 3.1 3.6 0.4 2.1 0.2 4.3-0.9 4.8-1 0.5-3.4 0.1-5.2-1.1z"/>
						</g>
						<g id="&lt;Group&gt;">
							<g id="&lt;Group&gt;">
								<path id="&lt;Path&gt;" class="s12" d="m185.6 348.7c1.4 1.6 3.6 2.6 5.7 2.6 2.2-0.1 3.7-2.9 5.1-4.6-1.7-0.9-6.3-2-7.4-2.2-1.1-0.3-2.3-0.1-3.1 0.6-0.8 0.7-1.1 2-0.5 2.9 0.1 0 0.2 0.7 0.2 0.7z"/>
							</g>
						</g>
						<g id="&lt;Group&gt;">
							<g id="&lt;Group&gt;">
								<path id="&lt;Path&gt;" class="s12" d="m193.6 354.7c-0.7-1.9-3.4-3.8-5.4-4.1-1.9-0.2-3.9 0.6-5.1 1.9 0.2 1.4 1.3 2.4 2.5 2.9 1.3 0.5 2.7 0.5 4 0.5 1.4 0 2.7 0 4 0.5z"/>
							</g>
						</g>
					</g>
					<g id="&lt;Group&gt;">
						<g id="&lt;Group&gt;">
							<g id="&lt;Group&gt;">
								<g id="&lt;Group&gt;">
									<path id="&lt;Path&gt;" class="s13" d="m147.8 327c0 0-2.2 1.6-3 4.2-0.7 2.5 3.7 6.2 3.7 6.2 0 0 3.3 1.5 6-0.4 2.7-1.9 2.7-1.9 2.7-1.9 0 0-6.6-7.8-9.1-7.5z"/>
								</g>
							</g>
							<g id="&lt;Group&gt;">
								<g id="&lt;Group&gt;">
									<path id="&lt;Path&gt;" class="s10" d="m160.5 324.6c1.1 4.1-0.5 9.9-4.1 10.9-3.7 1-8-3.1-9.1-7.2-1.2-4.1 1.8-5.1 5.4-6.1 3.7-1 6.7-1.7 7.8 2.4z"/>
								</g>
								<g id="&lt;Group&gt;">
									<path id="&lt;Path&gt;" class="s6" d="m149.4 325.4c0 0 3.2 1.8 8.9-0.6 0 0-8.1 7.8-8.9 0.6z"/>
								</g>
								<g id="&lt;Group&gt;">
									<path id="&lt;Path&gt;" class="s6" d="m151.7 324.1c0 0 3.2-1.2 3.5 0.2 0 0 2.8-0.7 2.2-1.8-0.6-1-5.7 1.6-5.7 1.6z"/>
								</g>
								<g id="&lt;Group&gt;" style="opacity: .2">
									<path id="&lt;Path&gt;" class="s5" d="m149.4 325.4c0 0 3.2 1.8 8.9-0.6 0 0-8.1 7.8-8.9 0.6z"/>
								</g>
								<g id="&lt;Group&gt;" style="opacity: .2">
									<path id="&lt;Path&gt;" class="s5" d="m151.7 324.1c0 0 3.2-1.2 3.5 0.2 0 0 2.8-0.7 2.2-1.8-0.6-1-5.7 1.6-5.7 1.6z"/>
								</g>
							</g>
							<g id="&lt;Group&gt;">
								<path id="&lt;Path&gt;" class="s9" d="m150.3 337.9c1.6 1.7 4.2 2.3 6.4 1.6 2.2-0.7 3.9-2.4 4.9-4.5 0.9-2.1 1.1-4.5 0.9-6.8-0.1-0.5-0.3-2-1.1-2.1-0.8-0.1-1 1-1.3 1.5-0.7 1.5-1.4 2.9-2.4 4.2q-1.5 2-3.3 3.5c-0.4 0.3-3.8 2.9-4.1 2.6z"/>
							</g>
							<g id="&lt;Group&gt;">
								<path id="&lt;Path&gt;" class="s9" d="m164.8 326.7c1 1.6 1.1 3.7 0.3 5.3-0.5 1.1-1.4 2-2.4 2.8-0.6 0.6-1.5 1.1-2.2 0.8-0.9-0.3-1-1.5-1-2.4q0-2.1 0.2-4.2c0-1.2-0.1-3.1 0.4-4.1 0.4-1 1.4-0.6 2.4-0.2 0.9 0.5 1.7 1.1 2.3 2z"/>
							</g>
							<g id="&lt;Group&gt;" style="opacity: .2">
								<path id="&lt;Path&gt;" class="s5" d="m150.9 335.5c-1.5 0.2-3-0.6-3.8-1.8-0.5-0.9-1-3.5 0.2-4 1 2.1 1.9 4.1 3.6 5.8z"/>
							</g>
							<g id="&lt;Group&gt;" style="opacity: .2">
								<path id="&lt;Path&gt;" class="s5" d="m160.6 333.6c1.2-0.7 2.2-2 2.3-3.4 0.1-0.8-0.9-4.5-1.7-2.7-0.3 0.6 0.1 2.2 0 2.9q-0.1 1.6-0.6 3.2z"/>
							</g>
							<g id="&lt;Group&gt;" style="opacity: .2">
								<path id="&lt;Path&gt;" class="s5" d="m155.8 336.9c1.2 0.7 2.9 0.4 3.8-0.6 0 0.7-2.2 1.8-2.9 2.1-1.7 0.9-2.9 0.3-4.8-0.1 0 0 2.9-0.1 3.9-1.4z"/>
							</g>
						</g>
						<g id="&lt;Group&gt;">
							<g id="&lt;Group&gt;">
								<path id="&lt;Path&gt;" class="s11" d="m166.5 414.1l-10.2-56.8-0.2-17.8h1.1l0.3 17.7 10.3 57.8z"/>
							</g>
						</g>
						<g id="&lt;Group&gt;">
							<path id="&lt;Path&gt;" class="s11" d="m157.3 356.8l-0.8 0.9c-1.1-1-2.2-2.4-3.4-4-1.9-2.4-4.1-5.2-7.1-7.5l0.7-0.9c3.1 2.4 5.3 5.2 7.3 7.7 1.2 1.6 2.3 2.9 3.3 3.8z"/>
						</g>
						<g id="&lt;Group&gt;">
							<path id="&lt;Path&gt;" class="s12" d="m156.6 349.1c1.4-0.7 2.6-1.9 3.2-3.3 0.8-1.7 0.8-3.5 0.8-5.4-1.9 1-4.2 0.4-6.1 1-1.6 0.5-3 1.8-3.5 3.3-0.7 2.1-0.8 4.2 0.3 4.9 0.9 0.5 3.4 0.4 5.3-0.5z"/>
						</g>
						<g id="&lt;Group&gt;">
							<g id="&lt;Group&gt;">
								<path id="&lt;Path&gt;" class="s12" d="m148.3 346.6c-1.6 1.4-3.8 2.2-6 1.9-2.2-0.3-3.3-3.3-4.5-5.1 1.8-0.7 6.6-1.3 7.6-1.4 1.1-0.1 2.3 0.2 3 1 0.8 0.8 0.9 2.1 0.1 2.9 0 0-0.2 0.7-0.2 0.7z"/>
							</g>
						</g>
						<g id="&lt;Group&gt;">
							<g id="&lt;Group&gt;">
								<path id="&lt;Path&gt;" class="s12" d="m139.6 351.6c1-1.8 3.9-3.4 5.8-3.4 2 0 3.9 1 4.9 2.5-0.3 1.3-1.5 2.2-2.8 2.5-1.3 0.4-2.7 0.2-4 0.1-1.4-0.2-2.7-0.3-4 0z"/>
							</g>
						</g>
					</g>
				</g>
				<g id="&lt;Group&gt;">
					<path id="&lt;Path&gt;" class="s14" d="m170.7 379.3h-11.9c-0.9-0.1-1.7 0.5-2 1.4-1 3.1-3.1 11.2-3.1 24.1 0 14.1 3.7 32.8 4.9 38.4 0.2 0.9 1 1.6 1.9 1.6h8.3c1 0 1.8-0.7 2-1.6 1.2-5.6 4.8-24.3 4.8-38.4 0-12.9-2-21-3-24.1-0.3-0.8-1-1.4-1.9-1.4z"/>
				</g>
			</g>
		</g>
	</g>
	<g id="Shadow">
		<path id="&lt;Path&gt; 359 " class="s15" d="m887.8 751.4c0 12.5-173.6 22.6-387.8 22.6-214.2 0-387.8-10.1-387.8-22.6 0-12.5 173.6-22.7 387.8-22.7 214.2 0 387.8 10.2 387.8 22.7z"/>
	</g>
	<g id="Plant">
		<g id="&lt;Group&gt;">
			<g id="&lt;Group&gt;">
				<g id="&lt;Group&gt;">
					<g id="&lt;Group&gt;">
						<path id="&lt;Path&gt;" class="s16" d="m241.6 673.5c-0.7 0-1.2-0.6-1.2-1.3 1.5-58.7 4.5-155.2 4.6-155.7 0.2-0.7 1-1 1.6-0.9 0.7 0.2 1.1 1 0.9 1.6 0 0.2-3.1 96.9-4.6 155.1 0 0.7-0.6 1.3-1.3 1.2q0 0 0 0z"/>
					</g>
					<g id="&lt;Group&gt;">
						<g id="&lt;Group&gt;">
							<path id="&lt;Path&gt;" class="s17" d="m233.7 477.3c0.5 4.5 5.9 20.2 10.4 19.7 4.5-0.5 6.5-17 6-21.5-0.5-4.5-4.6-7.8-9.1-7.3-4.6 0.5-7.8 4.5-7.3 9.1z"/>
							<path id="&lt;Path&gt;" class="s17" d="m255.6 526.8c-0.5-4.6-5.9-20.3-10.4-19.8-4.5 0.5-6.4 17-6 21.6 0.5 4.5 4.6 7.8 9.1 7.3 4.6-0.5 7.8-4.6 7.3-9.1z"/>
							<path id="&lt;Path&gt;" class="s17" d="m219.9 513c4.5-0.5 20.2-5.9 19.7-10.4-0.5-4.6-17-6.5-21.5-6-4.5 0.5-7.8 4.6-7.3 9.1 0.5 4.5 4.6 7.8 9.1 7.3z"/>
							<path id="&lt;Path&gt;" class="s17" d="m269.4 491c-4.5 0.5-20.2 5.9-19.7 10.5 0.5 4.5 17 6.4 21.5 5.9 4.5-0.5 7.8-4.5 7.3-9.1-0.5-4.5-4.6-7.8-9.1-7.3z"/>
							<path id="&lt;Path&gt;" class="s17" d="m219.4 492.3c3.5 2.8 18.5 10.1 21.3 6.6 2.9-3.6-7.4-16.6-11-19.5-3.5-2.8-8.7-2.3-11.6 1.3-2.8 3.5-2.3 8.7 1.3 11.6z"/>
							<path id="&lt;Path&gt;" class="s17" d="m269.9 511.8c-3.5-2.9-18.5-10.2-21.3-6.6-2.9 3.5 7.4 16.6 11 19.4 3.5 2.9 8.7 2.3 11.6-1.3 2.8-3.5 2.3-8.7-1.3-11.5z"/>
							<path id="&lt;Path&gt;" class="s17" d="m234.9 527.3c2.9-3.6 10.1-18.5 6.6-21.3-3.6-2.9-16.6 7.4-19.4 11-2.9 3.5-2.3 8.7 1.2 11.6 3.6 2.8 8.8 2.2 11.6-1.3z"/>
							<path id="&lt;Path&gt;" class="s17" d="m254.4 476.7c-2.9 3.6-10.1 18.5-6.6 21.4 3.6 2.8 16.6-7.5 19.4-11 2.9-3.6 2.3-8.8-1.2-11.6-3.6-2.9-8.8-2.3-11.6 1.2z"/>
						</g>
						<g id="&lt;Group&gt;" style="opacity: .6">
							<path id="&lt;Path&gt;" class="s18" d="m233.7 477.3c0.5 4.5 5.9 20.2 10.4 19.7 4.5-0.5 6.5-17 6-21.5-0.5-4.5-4.6-7.8-9.1-7.3-4.6 0.5-7.8 4.5-7.3 9.1z"/>
							<path id="&lt;Path&gt;" class="s18" d="m255.6 526.8c-0.5-4.6-5.9-20.3-10.4-19.8-4.5 0.5-6.4 17-6 21.6 0.5 4.5 4.6 7.8 9.1 7.3 4.6-0.5 7.8-4.6 7.3-9.1z"/>
							<path id="&lt;Path&gt;" class="s18" d="m219.9 513c4.5-0.5 20.2-5.9 19.7-10.4-0.5-4.6-17-6.5-21.5-6-4.5 0.5-7.8 4.6-7.3 9.1 0.5 4.5 4.6 7.8 9.1 7.3z"/>
							<path id="&lt;Path&gt;" class="s18" d="m269.4 491c-4.5 0.5-20.2 5.9-19.7 10.5 0.5 4.5 17 6.4 21.5 5.9 4.5-0.5 7.8-4.5 7.3-9.1-0.5-4.5-4.6-7.8-9.1-7.3z"/>
							<path id="&lt;Path&gt;" class="s18" d="m219.4 492.3c3.5 2.8 18.5 10.1 21.3 6.6 2.9-3.6-7.4-16.6-11-19.5-3.5-2.8-8.7-2.3-11.6 1.3-2.8 3.5-2.3 8.7 1.3 11.6z"/>
							<path id="&lt;Path&gt;" class="s18" d="m269.9 511.8c-3.5-2.9-18.5-10.2-21.3-6.6-2.9 3.5 7.4 16.6 11 19.4 3.5 2.9 8.7 2.3 11.6-1.3 2.8-3.5 2.3-8.7-1.3-11.5z"/>
							<path id="&lt;Path&gt;" class="s18" d="m234.9 527.3c2.9-3.6 10.1-18.5 6.6-21.3-3.6-2.9-16.6 7.4-19.4 11-2.9 3.5-2.3 8.7 1.2 11.6 3.6 2.8 8.8 2.2 11.6-1.3z"/>
							<path id="&lt;Path&gt;" class="s18" d="m254.4 476.7c-2.9 3.6-10.1 18.5-6.6 21.4 3.6 2.8 16.6-7.5 19.4-11 2.9-3.6 2.3-8.8-1.2-11.6-3.6-2.9-8.8-2.3-11.6 1.2z"/>
						</g>
						<path id="&lt;Path&gt;" class="s17" d="m234.9 503.1c0.6 5.3 5.4 9.2 10.8 8.6 5.4-0.6 9.2-5.4 8.7-10.7-0.6-5.4-5.4-9.3-10.8-8.7-5.4 0.6-9.2 5.4-8.7 10.8z"/>
					</g>
				</g>
				<g id="&lt;Group&gt;">
					<path id="&lt;Path&gt;" class="s19" d="m235.9 630.5c-11.3 0.2-30.5-10.2-38.1-20.3-7.7-10.4 13.9-4 11.6-12.1-2.2-8.1-28.8-2-33.7-13.7-5-11.6 14.2-8.9 13.4-14.9-0.7-5.9-20.6-4.7-27-17-6.5-12.3 11.1-5.5 8.3-10.6-2.8-5.1-24.7-26.6-15.6-31.1 9.2-4.5 29.8 17.9 36.7 20.4 6.9 2.5 8.4-13 17.4-5.7 9 7.4 2.4 39.9 12.9 44.1 7.9 3.2 4.5-11.7 13.6-8 15.8 6.6 5.1 68.8 0.5 68.9z"/>
					<g id="&lt;Group&gt;" style="opacity: .2">
						<path id="&lt;Path&gt;" class="s20" d="m235.9 630.5c-11.3 0.2-30.5-10.2-38.1-20.3-7.7-10.4 13.9-4 11.6-12.1-2.2-8.1-28.8-2-33.7-13.7-5-11.6 14.2-8.9 13.4-14.9-0.7-5.9-20.6-4.7-27-17-6.5-12.3 11.1-5.5 8.3-10.6-2.8-5.1-24.7-26.6-15.6-31.1 9.2-4.5 29.8 17.9 36.7 20.4 6.9 2.5 8.4-13 17.4-5.7 9 7.4 2.4 39.9 12.9 44.1 7.9 3.2 4.5-11.7 13.6-8 15.8 6.6 5.1 68.8 0.5 68.9z"/>
					</g>
				</g>
				<g id="&lt;Group&gt;">
					<g id="&lt;Group&gt;">
						<path id="&lt;Path&gt;" class="s21" d="m252.1 616.2c0.2 0.3-1.5 1.9 4.1 2.1 13.7 0.6 37.9-0.3 47-12.8 13-17.8-17-16.1-14.1-26 2.9-9.8 35.1-1.8 41.4-15.8 6.3-14-17.1-11.2-16-18.4 1.1-7.2 25.6 2.1 33.7-12.8 8.1-14.8-13.3-6.9-9.9-13 3.5-6.2 30.7-31.8 19.7-37.5-11-5.7-36.6 21-45.1 23.9-8.4 2.9-10.4-23.4-21.4-14.6-11.1 8.8-3.9 48.4-16.8 53.3-9.6 3.7-4.4-10.5-16.3-10-16.1 0.8-21.4 56.3-6.3 81.6z"/>
					</g>
					<g id="&lt;Group&gt;" style="opacity: .3">
						<path id="&lt;Path&gt;" class="s22" d="m252.1 616.2c0.2 0.3-1.5 1.9 4.1 2.1 13.7 0.6 37.9-0.3 47-12.8 13-17.8-17-16.1-14.1-26 2.9-9.8 35.1-1.8 41.4-15.8 6.3-14-17.1-11.2-16-18.4 1.1-7.2 25.6 2.1 33.7-12.8 8.1-14.8-13.3-6.9-9.9-13 3.5-6.2 30.7-31.8 19.7-37.5-11-5.7-36.6 21-45.1 23.9-8.4 2.9-10.4-23.4-21.4-14.6-11.1 8.8-3.9 48.4-16.8 53.3-9.6 3.7-4.4-10.5-16.3-10-16.1 0.8-21.4 56.3-6.3 81.6z"/>
					</g>
				</g>
				<g id="&lt;Group&gt;">
					<g id="&lt;Group&gt;">
						<g id="&lt;Group&gt;">
							<g id="&lt;Group&gt;">
								<g id="&lt;Group&gt;">
									<g id="&lt;Group&gt;">
										<g id="&lt;Group&gt;">
											<g id="&lt;Group&gt;">
												<g id="&lt;Group&gt;">
													<path id="&lt;Path&gt;" class="s16" d="m241.8 664.7q0 0 0 0c-0.5-0.1-0.9-0.5-0.8-1 11.2-92.1 64.2-129.5 64.8-129.8 0.4-0.3 0.9-0.2 1.2 0.2 0.3 0.4 0.2 0.9-0.2 1.2-0.5 0.4-52.9 37.4-64 128.6-0.1 0.4-0.5 0.8-1 0.8z"/>
												</g>
												<g id="&lt;Group&gt;">
													<path id="&lt;Path&gt;" class="s16" d="m293.7 546.6c-0.4 0-0.7-0.2-0.8-0.6-0.2-0.4 0.1-0.9 0.6-1.1 0.3-0.1 8.2-2.6 21.1 0.1 0.5 0.2 0.8 0.6 0.7 1.1-0.1 0.5-0.6 0.8-1 0.7-12.5-2.6-20.2-0.2-20.3-0.2q-0.1 0.1-0.3 0z"/>
												</g>
												<g id="&lt;Group&gt;">
													<path id="&lt;Path&gt;" class="s16" d="m283.9 557.8c-0.5 0-0.8-0.4-0.8-0.9-0.3-27.8 15.8-49.5 16-49.8 0.3-0.3 0.8-0.4 1.2-0.1 0.4 0.3 0.5 0.8 0.2 1.2-0.2 0.2-15.9 21.5-15.7 48.7 0 0.5-0.4 0.9-0.8 0.9q-0.1 0-0.1 0z"/>
												</g>
												<g id="&lt;Group&gt;">
													<path id="&lt;Path&gt;" class="s16" d="m268.1 581.4q-0.3 0-0.6-0.3c-0.3-0.4-0.3-0.9 0-1.3 0.2-0.1 12.1-11.1 27.7-5.5 0.5 0.2 0.7 0.7 0.6 1.1-0.2 0.5-0.7 0.7-1.2 0.6-14.6-5.3-25.7 5-25.8 5.1q-0.3 0.3-0.7 0.3z"/>
												</g>
												<g id="&lt;Group&gt;">
													<path id="&lt;Path&gt;" class="s16" d="m259.9 597.8c-0.4 0-0.7-0.2-0.8-0.5-0.3-0.6-6.1-14.6-2.9-34.5 0.1-0.5 0.5-0.9 1-0.8 0.5 0.1 0.9 0.6 0.8 1-3.2 19.4 2.7 33.4 2.7 33.6 0.2 0.4 0 1-0.4 1.1q-0.2 0.1-0.4 0.1z"/>
												</g>
											</g>
										</g>
									</g>
								</g>
							</g>
						</g>
						<g id="&lt;Group&gt;">
							<g id="&lt;Group&gt;">
								<g id="&lt;Group&gt;">
									<path id="&lt;Path&gt;" class="s16" d="m242.2 697.5c-0.5 0-0.8-0.4-0.9-0.8l-1.1-24.4c-3.4-81.1-59-136.2-59.6-136.7-0.3-0.4-0.3-0.9 0-1.3 0.3-0.3 0.9-0.3 1.3 0 0.5 0.6 56.6 56.1 60.1 137.9l1.1 24.4c0 0.5-0.4 0.9-0.8 0.9q-0.1 0-0.1 0z"/>
								</g>
								<g id="&lt;Group&gt;">
									<path id="&lt;Path&gt;" class="s16" d="m203.5 566q0 0-0.1 0-0.1 0-0.3-0.1l-0.3-0.1c-7.2-3-15.4-4.6-22.8-4.4-0.5 0-0.9-0.4-1-0.9 0-0.5 0.4-0.9 0.9-0.9 7.7-0.2 16.1 1.4 23.6 4.5l0.3 0.2q0.1 0 0.2 0c0.3 0.2 0.5 0.6 0.4 1 0 0.4-0.4 0.7-0.9 0.7z"/>
								</g>
								<g id="&lt;Group&gt;">
									<path id="&lt;Path&gt;" class="s16" d="m211.4 576.5q0 0 0 0c-0.5-0.1-0.9-0.5-0.8-1 2.1-23.9-10.3-43.6-10.4-43.8-0.3-0.4-0.2-1 0.3-1.2 0.4-0.3 0.9-0.2 1.2 0.2 0.1 0.2 12.8 20.4 10.6 45 0 0.4-0.4 0.8-0.9 0.8z"/>
								</g>
								<g id="&lt;Group&gt;">
									<path id="&lt;Path&gt;" class="s16" d="m219.5 590.3q-0.3 0-0.6-0.2c-0.1-0.1-9.1-9-22.3-5.5-0.5 0.1-1-0.2-1.1-0.7-0.1-0.4 0.2-0.9 0.6-1 14.3-3.8 23.7 5.5 24.1 5.9 0.3 0.4 0.3 0.9 0 1.3q-0.3 0.2-0.7 0.2z"/>
								</g>
								<g id="&lt;Group&gt;">
									<path id="&lt;Path&gt;" class="s16" d="m229.8 613.2q-0.2 0-0.4-0.1c-0.4-0.3-0.6-0.8-0.3-1.2 0-0.2 6.1-12.1 4.7-29.4 0-0.5 0.4-0.9 0.9-0.9 0.5-0.1 0.9 0.3 0.9 0.8 1.5 17.8-4.7 29.8-5 30.3-0.1 0.3-0.5 0.5-0.8 0.5z"/>
								</g>
							</g>
						</g>
					</g>
				</g>
			</g>
			<g id="&lt;Group&gt;">
				<g id="&lt;Group&gt;">
					<path id="&lt;Path&gt;" class="s17" d="m292.3 701.4c0 28.4-12.8 51.5-51.5 51.5-37 0-51.5-23.1-51.5-51.5 0-10.7 3.3-20.7 8.9-29h85.2c5.6 8.3 8.9 18.3 8.9 29z"/>
					<path id="&lt;Path&gt;" class="s23" d="m292.3 701.4c0 28.4-12.8 51.5-51.5 51.5-37 0-51.5-23.1-51.5-51.5 0-10.7 3.3-20.7 8.9-29h85.2c5.6 8.3 8.9 18.3 8.9 29z"/>
				</g>
			</g>
		</g>
	</g>
</svg>