<svg version="1.2" xmlns="http://www.w3.org/2000/svg" viewBox="0 0 600 496" width="600" height="496">
	<title>9793182_4204952-ai</title>
	<style>
		.s0 { fill: #ebebeb } 
		.s1 { fill: #e0e0e0 } 
		.s2 { fill: #f5f5f5 } 
		.s3 { fill: #e6e6e6 } 
		.s4 { fill: #084887 } 
		.s5 { opacity: .6;fill: #ffffff } 
		.s6 { opacity: .3;fill: #ffffff } 
		.s7 { fill: #e89f2b } 
	</style>
	<g id="Background Complete">
		<g id="&lt;Group&gt;">
			<path id="&lt;Path&gt;" class="s0" d="m-1069.9 1393.7h2450.4v1.2h-2450.4z"/>
			<path id="&lt;Path&gt;" class="s0" d="m972.7 1472.5h162.3v1.2h-162.3z"/>
			<path id="&lt;Path&gt;" class="s0" d="m510.7 1485.8h42.6v1.2h-42.6z"/>
			<path id="&lt;Path&gt;" class="s0" d="m873.7 1427h94v1.3h-94z"/>
			<path id="&lt;Path&gt;" class="s0" d="m-812.8 1435.3h211.7v1.2h-211.7z"/>
			<path id="&lt;Path&gt;" class="s0" d="m-557.5 1435.3h31.1v1.2h-31.1z"/>
			<path id="&lt;Path&gt;" class="s0" d="m-425.6 1456h459.1v1.2h-459.1z"/>
			<path id="&lt;Compound Path&gt;" fill-rule="evenodd" class="s0" d="m-882.6-182.7c0-14.9 12-27 27-27h948.2c14.9 0 27 12.1 27 27v1331c0 14.9-12.1 27-27 27h-948.2c-15 0-27-12.1-27-27zm1.2 1329.8c0 14.9 12.1 27 27 27h945.8c14.9 0 27-12.1 27-27v-1328.6c0-14.9-12.1-27-27-27h-945.8c-14.9 0-27 12.1-27 27z"/>
			<path id="&lt;Compound Path&gt;" fill-rule="evenodd" class="s0" d="m177.4-182.7c0-14.9 12.1-27 27-27h948.3c14.9 0 27 12.1 27 27v1331c0 14.9-12.1 27-27 27h-948.3c-14.9 0-27-12.1-27-27zm1.2 1329.8c0 14.9 12.1 27 27 27h945.8c14.9 0 27-12.1 27-27v-1328.6c0-14.9-12.1-27-27-27h-945.8c-14.9 0-27 12.1-27 27z"/>
		</g>
		<g id="&lt;Group&gt;">
			<g id="&lt;Group&gt;">
				<g id="&lt;Group&gt;">
					<path id="&lt;Path&gt;" class="s0" d="m981.5 1236.3c0.8-5 17.9-123.2-16.5-164.1-7.6-9-17.2-13.7-28.5-14-69.3-1.6-78.8 54-78.9 54.6l8.2 1.3c0.3-2 8.5-49.1 70.5-47.6 9 0.2 16.3 3.8 22.4 11 32 38.1 14.8 156.4 14.6 157.6z"/>
				</g>
				<g id="&lt;Group&gt;">
					<path id="&lt;Path&gt;" class="s0" d="m985.7 1230.9l8.3-0.2c-0.1-1.1-2.8-109 50.4-131.3 52.1-21.8 75.6 23.1 76.6 25l7.4-3.7c-0.3-0.6-27.8-53.8-87.2-28.9-58.4 24.5-55.6 134.5-55.5 139.1z"/>
				</g>
				<g id="&lt;Group&gt;">
					<path id="&lt;Path&gt;" class="s0" d="m985.5 1239.4c0-1.7 0.5-172.3 33.8-222.2 31.9-47.9 83.5-25.4 85.7-24.4l3.4-7.5c-0.6-0.3-60.1-26.5-96 27.3-34.7 52-35.2 219.7-35.2 226.8z"/>
				</g>
				<path id="&lt;Path&gt;" class="s1" d="m926.6 1062.3c0 0 30.3 11.1 21.3 37.5-9 26.3-104.8 69.7-104.8 69.7 0 0-40.1-36.8-3.3-96.5 36.9-59.7 86-29.6 86.8-10.7z"/>
				<path id="&lt;Path&gt;" class="s1" d="m1020.8 1008.2c0 0-21.5-2.3-19.8-15.4 1.7-13.1 83.6-46.8 131.9 7.7 0 0-31 53.1-75.7 53.8-44.7 0.7-36.4-46.1-36.4-46.1z"/>
				<path id="&lt;Path&gt;" class="s1" d="m1042.8 1095.6c0 0-14.8-12 1.2-17.8 16-5.8 94.6-4.2 95.4 73.6 0 0-91.5 15.2-102.8-14.4-11.4-29.7 6.2-41.4 6.2-41.4z"/>
				<path id="&lt;Path&gt;" class="s0" d="m910.3 1394.7h142l15.4-155.3h-172.7z"/>
				<path id="&lt;Path&gt;" class="s1" d="m887.4 1222.3h187.8v34.2h-187.8z"/>
			</g>
			<g id="&lt;Group&gt;">
				<path id="&lt;Path&gt;" class="s0" d="m-396.3 900.9c0 0-17.7-38.5 2.5-76.5 20.2-38 26.1-46.9 13.2-54.7-12.9-7.8-18.8 30.4-18.8 30.4 0 0-10.8-26.3-1.9-53.8 9-27.4 14.6-72.2 2.4-77-12.3-4.8-2.4 55.8-13 76.5 0 0-8.9-23-10.4-45.1-1.4-22 0.9-57.3-8.8-66.3-9.6-9-15.8-2.8-6.3 45.9 9.5 48.7 9.4 88.3 9.4 88.3 0 0-21-63.9-35.1-65.7-14-1.9-14 18.8-2 36.7 12.1 18 35.3 50.1 39.1 66.6 0 0-23-48-43.7-33.3-20.7 14.7 18 43.8 35.3 54.3 17.2 10.5 29.2 76.2 29.2 76.2z"/>
				<path id="&lt;Path&gt;" class="s2" d="m-410.2 916.7c0 0 17.2-38.8-3.5-76.5-20.6-37.6-26.6-46.5-13.8-54.5 12.8-7.9 19.1 30.1 19.1 30.1 0 0 10.6-26.4 1.3-53.7-9.3-27.4-15.5-72-3.3-77 12.2-5 3 55.8 13.9 76.3 0 0 8.6-23.1 9.8-45.2 1.2-22.1-1.5-57.3 8.1-66.5 9.5-9.2 15.8-3 6.9 45.8-8.9 48.9-8.4 88.4-8.4 88.4 0 0 20.2-64.2 34.2-66.2 14.1-2.1 14.3 18.6 2.5 36.7-11.8 18.1-34.7 50.6-38.3 67.2 0 0 22.5-48.4 43.3-34 20.9 14.4-17.5 44.1-34.6 54.8-17.1 10.7-28.3 76.7-28.3 76.7z"/>
				<g id="&lt;Group&gt;">
					<path id="&lt;Path&gt;" class="s1" d="m-330.9 889h-142.1l11.5 101.7h119.1z"/>
				</g>
			</g>
			<g id="&lt;Group&gt;">
				<path id="&lt;Path&gt;" class="s1" d="m-825 988.3v406.4h29.4v-347.6h465.6v347.6h34.3v-406.4z"/>
				<path id="&lt;Path&gt;" class="s0" d="m-555.4 988.3v406.4h29.4v-347.6h465.5v347.6h34.3v-406.4z"/>
			</g>
			<g id="&lt;Group&gt;">
				<g id="&lt;Group&gt;">
					<path id="&lt;Path&gt;" class="s1" d="m71.6 1234.3l-14.5-2.1c2.6-18.3 17.9-52.9 57.1-52.9 46.5 0 69.6 26.8 71.9 53.3l-14.7 1.3c-1.7-19.9-20-39.9-57.2-39.9-36.1 0-42.3 38.7-42.6 40.3z"/>
				</g>
				<path id="&lt;Path&gt;" class="s0" d="m-18.8 1245.4c0-13.3 10.7-24 24-24h238.1c13.3 0 24 10.7 24 24v122.7c0 13.3-10.7 24-24 24h-238.1c-13.3 0-24-10.7-24-24z"/>
				<g id="&lt;Group&gt;">
					<path id="&lt;Path&gt;" class="s1" d="m186.1 1394.7c-202.1 0-212.2-138.6-212.3-140l8.3-16c0.3 5.1 16.2 141.4 204 141.4 77.3 0 144 0 150.7-14.8 6-13-23-46.4-69.5-99.8v-20.4c59.2 68.1 92.8 104.7 82.9 126.3-10.2 22.5-55 23.3-164.1 23.3z"/>
				</g>
			</g>
			<g id="&lt;Group&gt;">
				<path id="&lt;Path&gt;" class="s2" d="m-814.5-122.6v144.7c0 8.1 6.6 13.5 14.7 13.5h489.2c0 0 56.5-26.3 52.5-63.1-3.2-29.4-6.5-53.4-9.2-71.6-3.4-22.2-22.4-38.3-44.8-38.3h-487.7c-8.1 0-14.7 6.6-14.7 14.8z"/>
				<path id="&lt;Path&gt;" class="s3" d="m-814.5-122.6v144.7c0 8.1 6.6 13.5 14.7 13.5h43.1c0 0 56.6-26.3 52.6-63.1-3.2-29.4-6.5-53.4-9.3-71.6-3.3-22.2-22.3-38.3-44.8-38.3h-41.6c-8.1 0-14.7 6.6-14.7 14.8z"/>
				<path id="&lt;Path&gt;" class="s1" d="m-269.3-15.9h-427.3c0 0-14.2 31.3-38.1 44.2h417.5c0 0 44.2-20.3 47.9-44.2z"/>
				<path id="&lt;Path&gt;" class="s0" d="m-298.8 13.6h-412.6l6.2 14.7h406.4z"/>
				<path id="&lt;Path&gt;" class="s0" d="m-284.1-4.8h-412.5l6.1 14.7h406.4z"/>
				<path id="&lt;Path&gt;" class="s1" d="m-681.9-26.9h10.4v4.3h-10.4z"/>
				<path id="&lt;Path&gt;" class="s1" d="m-667.2-26.9h10.5v4.3h-10.5z"/>
			</g>
		</g>
	</g>
	<g id="Images">
		<g id="&lt;Group&gt;">
			<g id="&lt;Group&gt;">
				<path id="&lt;Path&gt;" class="s4" d="m0.7 1.4h600.9v496.1h-600.9z"/>
				<path id="&lt;Compound Path&gt;" fill-rule="evenodd" class="s5" d="m0.7 1.4h600.9v496.1h-600.9zm19.6 476.6h561.7v-457h-561.7z"/>
				<path id="&lt;Path&gt;" class="s6" d="m20.3 342.5l172.2-125 128 125 128-73.1 133.5 82.2v126.3h-561.7z"/>
				<path id="&lt;Path&gt;" class="s7" d="m384.9 174.8c-22.7 0-41.1-18.4-41.1-41.1 0-22.8 18.4-41.1 41.1-41.1 22.8 0 41.2 18.3 41.2 41.1 0 22.7-18.4 41.1-41.2 41.1z"/>
			</g>
		</g>
	</g>
	<path id="???" class="s7" aria-label="???"  d="m290.7 243.7h-7.6v-2.5q0-4.3 1.5-7.2 1.6-2.8 5.5-5.9 4.6-3.7 6-5.7 1.3-2 1.3-4.8 0-3.3-2.2-5.1-2.1-1.7-6.2-1.7-3.8 0-6.9 1-3.2 1.1-6.2 2.6l-3.3-6.9q8-4.4 17-4.4 7.7 0 12.2 3.7 4.5 3.8 4.5 10.4 0 2.9-0.9 5.2-0.9 2.3-2.6 4.3-1.7 2.1-6 5.4-3.6 2.9-4.9 4.8-1.2 1.8-1.2 5zm-9.2 12.5q0-5.9 5.7-5.9 2.8 0 4.3 1.5 1.5 1.5 1.5 4.4 0 2.7-1.5 4.4-1.5 1.6-4.3 1.6-2.8 0-4.3-1.6-1.4-1.6-1.4-4.4zm45.5-12.5h-7.7v-2.5q0-4.3 1.6-7.1 1.5-2.9 5.4-5.9 4.7-3.7 6-5.8 1.4-2 1.4-4.8 0-3.3-2.2-5-2.2-1.8-6.3-1.8-3.7 0-6.9 1.1-3.1 1-6.1 2.5l-3.3-6.9q7.9-4.4 17-4.4 7.6 0 12.1 3.8 4.5 3.7 4.5 10.3 0 2.9-0.9 5.2-0.8 2.3-2.6 4.4-1.7 2.1-5.9 5.4-3.7 2.8-4.9 4.7-1.2 1.9-1.2 5zm-9.3 12.5q0-5.9 5.7-5.9 2.9 0 4.3 1.6 1.5 1.5 1.5 4.3 0 2.8-1.5 4.4-1.5 1.6-4.3 1.6-2.7 0-4.2-1.5-1.5-1.6-1.5-4.5zm45.5-12.5h-7.6v-2.5q0-4.3 1.5-7.1 1.6-2.9 5.5-5.9 4.6-3.7 6-5.7 1.3-2 1.3-4.9 0-3.2-2.2-5-2.1-1.7-6.2-1.7-3.8 0-6.9 1-3.2 1.1-6.2 2.5l-3.3-6.8q8-4.4 17-4.4 7.7 0 12.2 3.7 4.5 3.8 4.5 10.4 0 2.9-0.9 5.2-0.9 2.3-2.6 4.3-1.7 2.1-6 5.4-3.6 2.9-4.9 4.7-1.2 1.9-1.2 5.1zm-9.2 12.4q0-5.9 5.7-5.9 2.8 0 4.3 1.6 1.5 1.5 1.5 4.3 0 2.8-1.5 4.5-1.5 1.6-4.3 1.6-2.8 0-4.3-1.6-1.4-1.6-1.4-4.5z"/>
</svg>