<svg version="1.2" xmlns="http://www.w3.org/2000/svg" viewBox="0 0 371 307" width="371" height="307">
	<title>9793182_4204952-ai</title>
	<style>
		.s0 { fill: #ebebeb } 
		.s1 { fill: #e0e0e0 } 
		.s2 { fill: #f5f5f5 } 
		.s3 { fill: #e6e6e6 } 
		.s4 { fill: #084887 } 
		.s5 { opacity: .6;fill: #ffffff } 
		.s6 { opacity: .3;fill: #ffffff } 
		.s7 { fill: #e89f2b } 
	</style>
	<g id="Background Complete">
		<g id="&lt;Group&gt;">
			<path id="&lt;Path&gt;" class="s0" d="m-661.5 862.6h1515.1v0.8h-1515.1z"/>
			<path id="&lt;Path&gt;" class="s0" d="m601.4 911.4h100.4v0.8h-100.4z"/>
			<path id="&lt;Path&gt;" class="s0" d="m315.8 919.6h26.4v0.8h-26.4z"/>
			<path id="&lt;Path&gt;" class="s0" d="m540.2 883.3h58.2v0.7h-58.2z"/>
			<path id="&lt;Path&gt;" class="s0" d="m-502.6 888.4h130.9v0.7h-130.9z"/>
			<path id="&lt;Path&gt;" class="s0" d="m-344.7 888.4h19.2v0.7h-19.2z"/>
			<path id="&lt;Path&gt;" class="s0" d="m-263.1 901.2h283.8v0.7h-283.8z"/>
			<path id="&lt;Compound Path&gt;" fill-rule="evenodd" class="s0" d="m-545.8-112.8c0-9.4 7.6-17 17-17h585.8c9.4 0 17 7.6 17 17v823.3c0 9.4-7.6 17-17 17h-585.8c-9.4 0-17-7.6-17-17zm0.8 822.5c0 9.4 7.6 17 17 17h584.2c9.4 0 17-7.6 17-17v-821.8c0-9.4-7.6-17-17-17h-584.2c-9.4 0-17 7.6-17 17z"/>
			<path id="&lt;Compound Path&gt;" fill-rule="evenodd" class="s0" d="m109.7-112.8c0-9.4 7.6-17 17-17h585.7c9.4 0 17 7.6 17 17v823.3c0 9.4-7.6 17-17 17h-585.7c-9.4 0-17-7.6-17-17zm0.7 822.5c0 9.4 7.7 17 17 17h584.3c9.4 0 17-7.6 17-17v-821.8c0-9.4-7.6-17-17-17h-584.3c-9.3 0-17 7.6-17 17z"/>
		</g>
		<g id="&lt;Group&gt;">
			<g id="&lt;Group&gt;">
				<g id="&lt;Group&gt;">
					<path id="&lt;Path&gt;" class="s0" d="m606.9 765.2c0.5-3.1 11.1-76.3-10.2-101.5-4.7-5.6-10.6-8.6-17.6-8.7-42.9-1-48.8 33.4-48.8 33.8l5 0.7c0.2-1.2 5.3-30.3 43.7-29.4 5.5 0.1 10 2.4 13.8 6.9 19.8 23.5 9.1 96.7 9 97.5z"/>
				</g>
				<g id="&lt;Group&gt;">
					<path id="&lt;Path&gt;" class="s0" d="m609.5 761.9l5.1-0.2c0-0.7-1.7-67.4 31.2-81.2 32.2-13.5 46.7 14.3 47.3 15.4l4.6-2.3c-0.2-0.3-17.2-33.2-53.9-17.8-36.1 15.1-34.4 83.2-34.3 86.1z"/>
				</g>
				<g id="&lt;Group&gt;">
					<path id="&lt;Path&gt;" class="s0" d="m609.3 767.1c0-1 0.4-106.6 20.9-137.5 19.8-29.7 51.7-15.7 53-15.1l2.1-4.7c-0.3-0.1-37.1-16.4-59.3 17-21.5 32.1-21.8 135.9-21.8 140.3z"/>
				</g>
				<path id="&lt;Path&gt;" class="s1" d="m572.9 657.5c0 0 18.8 6.9 13.2 23.2-5.6 16.3-64.8 43.1-64.8 43.1 0 0-24.8-22.7-2-59.7 22.8-36.9 53.1-18.3 53.6-6.6z"/>
				<path id="&lt;Path&gt;" class="s1" d="m631.2 624c0 0-13.3-1.4-12.3-9.5 1.1-8.1 51.7-28.9 81.6 4.8 0 0-19.1 32.8-46.8 33.2-27.6 0.5-22.5-28.5-22.5-28.5z"/>
				<path id="&lt;Path&gt;" class="s1" d="m644.8 678.1c0 0-9.2-7.4 0.7-11 9.9-3.6 58.5-2.6 59 45.6 0 0-56.6 9.4-63.6-9-7-18.3 3.9-25.6 3.9-25.6z"/>
				<path id="&lt;Path&gt;" class="s0" d="m562.9 863.3h87.8l9.5-96.2h-106.8z"/>
				<path id="&lt;Path&gt;" class="s1" d="m548.7 756.5h116.2v21.2h-116.2z"/>
			</g>
			<g id="&lt;Group&gt;">
				<path id="&lt;Path&gt;" class="s0" d="m-245 557.6c0 0-11-23.8 1.5-47.3 12.5-23.5 16.1-29.1 8.2-33.9-8-4.8-11.6 18.8-11.6 18.8 0 0-6.8-16.2-1.2-33.2 5.5-17.1 9-44.7 1.4-47.7-7.5-3-1.4 34.5-8 47.3 0 0-5.5-14.2-6.4-27.9-0.9-13.6 0.5-35.4-5.5-41-5.9-5.6-9.8-1.8-3.9 28.4 5.9 30.1 5.8 54.6 5.8 54.6 0 0-12.9-39.5-21.6-40.7-8.7-1.1-8.7 11.7-1.3 22.8 7.5 11.1 21.8 31 24.2 41.2 0 0-14.2-29.7-27-20.6-12.8 9.1 11.1 27.1 21.8 33.6 10.7 6.5 18.1 47.2 18.1 47.2z"/>
				<path id="&lt;Path&gt;" class="s2" d="m-253.7 567.4c0 0 10.7-24-2.1-47.3-12.8-23.4-16.4-28.8-8.5-33.8 7.9-4.9 11.8 18.7 11.8 18.7 0 0 6.5-16.4 0.8-33.3-5.8-16.9-9.6-44.6-2.1-47.7 7.6-3 1.9 34.6 8.6 47.3 0 0 5.4-14.4 6.1-28 0.7-13.7-0.9-35.5 5-41.2 5.9-5.6 9.8-1.8 4.2 28.4-5.5 30.2-5.1 54.7-5.1 54.7 0 0 12.5-39.7 21.1-41 8.7-1.3 8.9 11.5 1.6 22.7-7.3 11.3-21.5 31.4-23.7 41.6 0 0 13.9-29.9 26.8-21 12.9 8.9-10.8 27.3-21.4 33.9-10.6 6.7-17.5 47.5-17.5 47.5z"/>
				<g id="&lt;Group&gt;">
					<path id="&lt;Path&gt;" class="s1" d="m-204.6 550.3h-87.9l7.1 62.9h73.7z"/>
				</g>
			</g>
			<g id="&lt;Group&gt;">
				<path id="&lt;Path&gt;" class="s1" d="m-510.1 611.7v251.6h18.2v-215.2h287.8v215.2h21.3v-251.6z"/>
				<path id="&lt;Path&gt;" class="s0" d="m-343.5 611.7v251.6h18.2v-215.2h287.9v215.2h21.2v-251.6z"/>
			</g>
			<g id="&lt;Group&gt;">
				<g id="&lt;Group&gt;">
					<path id="&lt;Path&gt;" class="s1" d="m44.3 764l-9-1.3c1.6-11.3 11.1-32.8 35.3-32.8 28.7 0 43 16.6 44.5 33l-9.1 0.8c-1.1-12.3-12.4-24.7-35.4-24.7-22.3 0-26.2 24-26.3 25z"/>
				</g>
				<path id="&lt;Path&gt;" class="s0" d="m-11.6 771c0-8.3 6.7-15 15-15h146.9c8.3 0 15 6.7 15 15v75.6c0 8.3-6.7 15-15 15h-146.9c-8.3 0-15-6.7-15-15z"/>
				<g id="&lt;Group&gt;">
					<path id="&lt;Path&gt;" class="s1" d="m115.1 863.3c-125 0-131.2-85.8-131.3-86.7l5.1-9.9c0.2 3.2 10.1 87.5 126.2 87.5 47.7 0 89 0 93.2-9.2 3.6-8-14.3-28.6-43-61.7v-12.7c36.6 42.2 57.3 64.8 51.2 78.2-6.3 13.9-33.9 14.5-101.4 14.5z"/>
				</g>
			</g>
			<g id="&lt;Group&gt;">
				<path id="&lt;Path&gt;" class="s2" d="m-503.6-75.9v89.6c0 5 4 8.4 9.1 8.4h302.4c0 0 35-16.3 32.5-39.1-2-18.2-4-33-5.7-44.3-2.1-13.8-13.8-23.7-27.7-23.7h-301.5c-5.1 0-9.1 4.1-9.1 9.1z"/>
				<path id="&lt;Path&gt;" class="s3" d="m-503.6-75.9v89.6c0 5 4 8.4 9.1 8.4h26.6c0 0 35-16.3 32.5-39.1-2-18.2-4-33-5.7-44.3-2.1-13.8-13.8-23.7-27.7-23.7h-25.7c-5.1 0-9.1 4.1-9.1 9.1z"/>
				<path id="&lt;Path&gt;" class="s1" d="m-166.5-9.8h-264.3c0 0-8.7 19.3-23.5 27.3h258.2c0 0 27.3-12.5 29.6-27.3z"/>
				<path id="&lt;Path&gt;" class="s0" d="m-184.8 8.4h-255.1l3.8 9.1h251.3z"/>
				<path id="&lt;Path&gt;" class="s0" d="m-175.6-3h-255.2l3.8 9.1h251.4z"/>
				<path id="&lt;Path&gt;" class="s1" d="m-421.6-16.7h6.4v2.7h-6.4z"/>
				<path id="&lt;Path&gt;" class="s1" d="m-412.5-16.7h6.4v2.7h-6.4z"/>
			</g>
		</g>
	</g>
	<g id="Images">
		<g id="&lt;Group&gt;">
			<g id="&lt;Group&gt;">
				<path id="&lt;Path&gt;" class="s4" d="m0.4 0.9h371.6v307h-371.6z"/>
				<path id="&lt;Compound Path&gt;" fill-rule="evenodd" class="s5" d="m0.4 0.9h371.6v307h-371.6zm12.1 295h347.4v-282.8h-347.4z"/>
				<path id="&lt;Path&gt;" class="s6" d="m12.5 212l106.6-77.4 79.1 77.4 79.1-45.3 82.6 50.9v78.2h-347.4z"/>
				<path id="&lt;Path&gt;" class="s7" d="m238 108.2c-14.1 0-25.4-11.4-25.4-25.5 0-14 11.3-25.4 25.4-25.4 14.1 0 25.5 11.4 25.5 25.4 0 14.1-11.4 25.5-25.5 25.5z"/>
			</g>
		</g>
	</g>
</svg>