<svg version="1.2" xmlns="http://www.w3.org/2000/svg" viewBox="0 0 1600 776" width="1200" height="582">
	<title>10579374_8886-ai</title>
	<style>
		.s0 { fill: #d0cedf } 
		.s1 { fill: #81e3a5 } 
	</style>
	<g id="&lt;Layer&gt;">
		<g id="&lt;Group&gt;">
			<g id="&lt;Group&gt;">
				<g id="&lt;Group&gt;">
					<path id="&lt;Path&gt;" class="s0" d="m199.4 772.4c0 0-117.5 27.9-175.3-98.3-75-163.7 30.3-319.3 211.9-330.5 262-16.1 116.8-434.4 530.2-320.9 116.2 31.9 369-132.8 517.8 146.3 25.3 47.5 101 45.1 201.8 126.1 177.8 142.8 113.8 478.9-36 480.4-149.8 1.5-1250.4-3.1-1250.4-3.1z"/>
				</g>
				<g id="&lt;Group&gt;">
					<path id="&lt;Path&gt;" class="s1" d="m1422.6 775.9c0 0-5.5-35.8-75.2-45.4-69.6-9.7-134.4-86.8-249.3-75.6-114.9 11.2-210.3 81.5-341.1 59.9-130.8-21.5-212.7 5.9-242 27.6-29.3 21.6-150.7-5.1-159.7 34.6z"/>
				</g>
				<g id="&lt;Group&gt;">
					<path id="&lt;Path&gt;" class="s1" d="m1274.9 727c0 0 54.3-139 92.4-116.9 38.1 22.1-92.4 116.9-92.4 116.9z"/>
				</g>
				<g id="&lt;Group&gt;">
					<path id="&lt;Path&gt;" class="s1" d="m1301.8 727c0 0 71.7-62 104.5-50.5 32.7 11.5-104.5 50.5-104.5 50.5z"/>
				</g>
				<g id="&lt;Group&gt;">
					<path id="&lt;Path&gt;" class="s1" d="m542.2 747c0 0-16.5-57.5-35.9-50.7-19.4 6.8 35.9 50.7 35.9 50.7z"/>
				</g>
				<g id="&lt;Group&gt;">
					<path id="&lt;Path&gt;" class="s1" d="m527.1 743.9c0 0-42.2-27.7-51.4-19.2-9.3 8.6 51.4 19.2 51.4 19.2z"/>
				</g>
				<g id="&lt;Group&gt;">
					<path id="&lt;Path&gt;" class="s1" d="m172.5 773.5h107.9c5.8-4.9-4-16-14.2-16.8-4.5-0.3-10.1 0.6-16.5 2-1.5-19.8-10-108.4-41.9-104.8-35.9 4 0 39 10.1 59.7 7.6 15.4 15.5 37.5 19.1 47.9q-4.4 0.9-9 1.8c-4.8-14.6-22.5-63.8-45-61-26.5 3.4-15.8 23.1 2.9 34.8 13.8 8.6 30.7 20.9 38.7 26.8-6.8 1.1-13.9 1.8-21.1 1.7-18.5-0.5-27.5 5-31 7.9z"/>
				</g>
			</g>
		</g>
	</g>
</svg>