<svg version="1.2" xmlns="http://www.w3.org/2000/svg" viewBox="0 0 1000 768" width="1000" height="768">
	<title>profilebg</title>
	<defs>
		<linearGradient id="g1" x2="1" gradientUnits="userSpaceOnUse" gradientTransform="matrix(0,-520.412,827.624,0,338.709,646.996)">
			<stop offset="0" stop-color="#f4e5f5"/>
			<stop offset=".57" stop-color="#e7c5ea"/>
			<stop offset="1" stop-color="#bfa2de"/>
		</linearGradient>
		<linearGradient id="g2" x2="1" gradientUnits="userSpaceOnUse" gradientTransform="matrix(0,-203.895,320.274,0,164.475,690.246)">
			<stop offset=".011" stop-color="#a9c5ff"/>
			<stop offset="1" stop-color="#aef5ff"/>
		</linearGradient>
		<linearGradient id="g3" x2="1" gradientUnits="userSpaceOnUse" gradientTransform="matrix(0,-236.764,358.965,0,399.833,514.221)">
			<stop offset=".135" stop-color="#4f4f4f"/>
			<stop offset="1" stop-color="#775b5b"/>
		</linearGradient>
		<linearGradient id="g4" x2="1" gradientUnits="userSpaceOnUse" gradientTransform="matrix(126.589,-426.472,540.526,160.444,328.003,617.432)">
			<stop offset="0" stop-color="#5789ad"/>
			<stop offset="1" stop-color="#57cce5"/>
		</linearGradient>
		<linearGradient id="g5" x2="1" gradientUnits="userSpaceOnUse" gradientTransform="matrix(0,-138.726,301.68,0,466.121,280.231)">
			<stop offset=".011" stop-color="#ffffff"/>
			<stop offset="1" stop-color="#aef5ff"/>
		</linearGradient>
		<linearGradient id="g6" x2="1" gradientUnits="userSpaceOnUse" gradientTransform="matrix(0,-154.827,92.417,0,413.185,368.652)">
			<stop offset=".215" stop-color="#77d445"/>
			<stop offset="1" stop-color="#e8ff70"/>
		</linearGradient>
		<linearGradient id="g7" x2="1" gradientUnits="userSpaceOnUse" gradientTransform="matrix(65.507,-154.999,151.743,64.131,395.453,561.854)">
			<stop offset=".253" stop-color="#fccc6f"/>
			<stop offset="1" stop-color="#fcea6f"/>
		</linearGradient>
	</defs>
	<style>
		.s0 { fill: url(#g1) } 
		.s1 { mix-blend-mode: multiply;fill: #f1e1ef } 
		.s2 { fill: #ffffff } 
		.s3 { fill: #e5e5e5 } 
		.s4 { fill: #6ade99 } 
		.s5 { fill: #99e5cd } 
		.s6 { fill: #d1efff } 
		.s7 { fill: #a4e1ff } 
		.s8 { fill: #49c5ee } 
		.s9 { fill: #a79cb9 } 
		.s10 { fill: url(#g2) } 
		.s11 { fill: #dbd8de } 
		.s12 { fill: #b8b4c8 } 
		.s13 { fill: url(#g3) } 
		.s14 { fill: url(#g4) } 
		.s15 { fill: url(#g5) } 
		.s16 { fill: #ff7e78 } 
		.s17 { fill: url(#g6) } 
		.s18 { fill: #579cbd } 
		.s19 { fill: #ececec } 
		.s20 { fill: #e0e0e0 } 
		.s21 { fill: #bfbfbf } 
		.s22 { fill: url(#g7) } 
		.s23 { fill: #f09f5a } 
		.s24 { fill: #cb842e } 
		.s25 { fill: #664f32 } 
	</style>
	<g id="BACKGROUND">
		<path id="&lt;Path&gt;" class="s0" d="m934.8 466.6c0 200.5-191.3 173.1-427.2 173.1-235.9 0-427.2 27.4-427.2-173.1 0-200.4 191.3-362.9 427.2-362.9 235.9 0 427.2 162.5 427.2 362.9z"/>
	</g>
	<g id="OBJECTS" style="opacity: .6">
		<path id="&lt;Path&gt;" class="s1" d="m389.9 712.1c0 2.8-33.7 5.1-75.2 5.1-41.5 0-75.2-2.3-75.2-5.1 0-2.9 33.7-5.2 75.2-5.2 41.5 0 75.2 2.3 75.2 5.2z"/>
		<path id="&lt;Path&gt;" class="s1" d="m736.1 712.1c0 2.8-33.6 5.1-75.2 5.1-41.5 0-75.1-2.3-75.1-5.1 0-2.9 33.6-5.2 75.1-5.2 41.6 0 75.2 2.3 75.2 5.2z"/>
		<g id="&lt;Group&gt;">
			<g id="&lt;Group&gt;">
				<g id="&lt;Group&gt;">
					<g id="Layer0 1 FILL">
						<path id="&lt;Path&gt;" class="s2" d="m306 199.6l-151.7 14.6 18 187.8 151.8-14.6z"/>
					</g>
				</g>
			</g>
			<g id="&lt;Group&gt;">
				<g id="&lt;Group&gt;">
					<g id="Layer0 2 FILL">
						<path id="&lt;Compound Path&gt;" class="s3" d="m178.7 319.9l29-2.8-0.3-3.1-29 2.8zm50.7-20.3l-0.3-3.1-52.2 5 0.4 3.1zm17.9 10.5l-14.7 1.4 0.3 3.2 14.7-1.5zm9.3-0.8l0.3 3.1 35.1-3.4-0.3-3.1zm9.4-13.1l-0.3-3.2-26.6 2.6 0.3 3.2zm12.2 62.7l-0.3-3.2-57.5 5.5 0.3 3.2zm4.4-3.6l0.3 3.2 18.3-1.8-0.3-3.2zm-75.2 10.5l-0.3-3.2-19.4 1.9 0.3 3.1zm-21.1-14.7l0.3 3.2 51.6-5-0.3-3.1zm113.7-7.8l-0.3-3.2-53.2 5.2 0.3 3.1zm-1.3-13.9l-0.3-3.2-79.3 7.6 0.3 3.2zm-121.5-73.8l0.3 3.2 113.4-11-0.3-3.1zm106.5 5.1l-9.1 0.9 0.3 3.1 9.1-0.9zm-17.1 1.7l-71.8 6.9 0.3 3.2 71.8-6.9zm-61.9-24.8l0.3 3.2 84.4-8.1-0.3-3.2z"/>
					</g>
				</g>
			</g>
		</g>
		<g id="&lt;Group&gt;">
			<g id="&lt;Group&gt;">
				<g id="&lt;Group&gt;">
					<g id="Layer0 4 FILL">
						<path id="&lt;Compound Path&gt;" fill-rule="evenodd" class="s2" d="m664.8 552.5l24.6-157.9 205.5 32-24.6 157.9zm34.5-144.3l-20.9 134.3 182 28.3 20.9-134.4z"/>
					</g>
				</g>
			</g>
			<g id="&lt;Group&gt;">
				<g id="&lt;Group&gt;">
					<g id="Layer0 4 MEMBER 0 FILL">
						<path id="&lt;Path&gt;" class="s4" d="m685.2 501.6l-2.9 18.7 181.9 28.3 2.1-13.4q-3.4-1.2-6.9-2.6-9-3.4-17.9-4.8-0.2 0-0.4 0-10.1-1.6-24.5-0.9-14.4 0.7-19.6-0.1-6.4-1-15.5-6-8.9-5.1-14.5-6-1.3-0.2-8.8 0.1-7.5 0.3-10.9-0.3-8.2-1.3-15.4-10-7.2-8.7-14.5-9.8-9.2-1.4-18.1 1.3-0.6 0.2-14.1 5.5z"/>
						<path id="&lt;Path&gt;" class="s5" d="m751.3 486q-11.9-21.9-19.5-23-6.5-1-17.6 2.7-11 3.7-11.7 3.5-3.2-0.4-6.4-2.2-1.7-0.8-5.1-2.9l-5.8 37.5q13.5-5.3 14.1-5.5 8.9-2.7 18.1-1.3 7.3 1.1 14.5 9.8 7.2 8.7 15.4 10 3.4 0.6 10.9 0.3 7.5-0.3 8.8-0.1 5.6 0.9 14.5 6 9.1 5 15.5 6 5.2 0.8 19.6 0.1 14.4-0.7 24.5 0.9 0.2 0 0.4 0-2-0.8-4.2-1.6-7.7-2.9-10.9-5.2-1.1-0.8-8.1-8.3-4.7-5-11.4-6-5.5-0.9-18.2 1.1-12.6 2-16.8 1.4-8.8-1.4-20.6-23.2z"/>
						<path id="&lt;Path&gt;" class="s6" d="m727.6 434.7q-12.5-1.9-22.6 0.7-6.3 1.7-10.2 4.5l-3.8 24.2q3.4 2.1 5.1 2.9 3.2 1.8 6.4 2.2 0.7 0.2 11.7-3.5 11.1-3.7 17.6-2.7 7.6 1.1 19.5 23 11.8 21.8 20.6 23.2 4.2 0.6 16.8-1.4 12.7-2 18.2-1.1 6.7 1 11.4 6 7 7.5 8.1 8.3 3.2 2.3 10.9 5.2 2.2 0.8 4.2 1.6 8.9 1.4 17.9 4.8 3.5 1.4 6.9 2.6l10.4-66.8q-0.9 0.3-1.9 0.7-8.8 2.9-14.5 2-7.9-1.2-15.8-7-7.8-5.9-14.1-6.9-16.7-2.6-28 7-7.4 6.2-7.9 6.6-4.6 2.8-9.6 2-8.4-1.3-15-6.9-3.3-2.7-10.8-11.7-14.1-16.7-31.5-19.5z"/>
						<path id="&lt;Path&gt;" class="s7" d="m705 435.4q10.1-2.6 22.6-0.7 17.4 2.8 31.5 19.5 7.5 9 10.8 11.7 6.6 5.6 15 6.9 5 0.8 9.6-2 0.5-0.4 7.9-6.6 11.3-9.6 28-7 6.3 1 14.1 6.9 7.9 5.8 15.8 7 5.7 0.9 14.5-2 1-0.4 1.9-0.7l5-32.2-182-28.3-4.9 32q3.9-2.8 10.2-4.5z"/>
						<path id="&lt;Path&gt;" class="s8" d="m682.3 520.3l-3.4 22 181.9 28.3 3.4-22z"/>
					</g>
				</g>
			</g>
		</g>
		<g id="&lt;Group&gt;">
			<g id="&lt;Group&gt;">
				<g id="&lt;Group&gt;">
					<g id="Layer0 5 MEMBER 0 FILL">
						<path id="&lt;Path&gt;" class="s9" d="m213.7 434.1q-8.8-7.1-17.5 0l-90.2 75.3v13l90.2 75.4q8.7 7.1 17.5 0l89.9-75.4v-13z"/>
					</g>
				</g>
			</g>
			<g id="&lt;Group&gt;">
				<g id="&lt;Group&gt;">
					<g id="Layer0 5 MEMBER 1 FILL">
						<path id="&lt;Path&gt;" class="s2" d="m287.5 453.2h-166v158.7h166z"/>
					</g>
				</g>
			</g>
			<g id="&lt;Group&gt;">
				<g id="&lt;Group&gt;">
					<g id="Layer0 5 MEMBER 2 FILL">
						<path id="&lt;Compound Path&gt;" class="s3" d="m142 567v3.5h31.7v-3.5zm124.1 3.5v-3.5h-64.6v3.5zm-26.9-16.7v-3.4h-97.2v3.4zm-32.5-16.6v-3.5h-26.3v3.5zm59.4 0v-3.5h-51.7v3.5zm-94.2 0v-3.5h-29.8v3.5zm66.4-16.7v-3.4h-96.2v3.4zm27.8 0v-3.4h-19.1v3.4zm0-33.3v-3.4h-92.3v3.4zm0 16.7v-3.5h-124.1v3.5z"/>
					</g>
				</g>
			</g>
			<g id="&lt;Group&gt;">
				<g id="&lt;Group&gt;">
					<g id="Layer0 5 MEMBER 3 FILL">
						<path id="&lt;Path&gt;" class="s10" d="m105.7 633.4q0 7.7 7.8 7.7h182.1q7.7 0 7.7-7.7v-118.1l-89.9 69.4q-8.8 6.6-17.5 0l-90.2-69.4z"/>
					</g>
				</g>
			</g>
		</g>
		<g id="&lt;Group&gt;">
			<g id="&lt;Group&gt;">
				<g id="Layer0 6 FILL">
					<path id="&lt;Path&gt;" class="s11" d="m746.5 652.9l-25-22h-444.8l-25.1 22z"/>
					<path id="&lt;Path&gt;" class="s12" d="m748.4 657.5q0-2.7-1.9-4.6h-494.9q-1.8 1.9-1.8 4.6v2.7q0 2.7 1.8 4.6 2 1.9 4.7 1.9h485.6q2.7 0 4.6-1.9 1.9-1.9 1.9-4.6z"/>
				</g>
			</g>
		</g>
		<g id="&lt;Group&gt;">
			<g id="&lt;Group&gt;">
				<g id="Layer0 7 FILL">
					<path id="&lt;Compound Path&gt;" fill-rule="evenodd" class="s13" d="m727.1 622.8q0 10.8-10.8 10.8h-434.5q-10.8 0-10.8-10.8v-279.3q0-10.8 10.8-10.8h434.5q10.8 0 10.8 10.8zm-445.3-279.2v279.2h434.5v-279.2z"/>
					<path id="&lt;Path&gt;" class="s14" d="m716.3 622.8v-279.3h-434.5v279.3z"/>
				</g>
			</g>
		</g>
		<g id="&lt;Group&gt;">
			<g id="&lt;Group&gt;">
				<g id="Layer0 9 FILL">
					<path id="&lt;Path&gt;" class="s15" d="m466.1 135.4q-23.3 0-39.9 18-16.4 18.4-16.4 44.2 0 5.2 0.7 10.1 0.1 0.4 0.1 0.8-2.9-1.5-6.1-2.6-6.5-2-13.8-2-19.6 0-33.5 15.2-13.9 15.4-13.9 37.2 0 1.6 0.1 3.1 1.7 18.4 17.4 19.2h266.2q17.1 0.3 24.8-18.3 2.9-9 2.9-19.3 0.1-24-15.3-40.9-15.1-16.7-36.6-16.7-14.7 0-26.5 7.8 0-0.6 0-1.2 0-18-11.5-30.8-11.4-12.5-27.6-12.5-15.8 0-27.1 11.9-2-2.6-4.3-5.2-16.4-18-39.7-18z"/>
				</g>
			</g>
		</g>
		<g id="&lt;Group&gt;">
			<g id="&lt;Group&gt;">
				<g id="&lt;Group&gt;">
					<g id="Layer0 10 FILL">
						<path id="&lt;Path&gt;" class="s16" d="m656.3 358l-40.3-57q-8.7-11.9-16.2 0l-40 56.8q-7.4 11.3 3.9 12.5 1.3 0.2 2.8 0.2h83q12.8-1.7 6.8-12.5z"/>
					</g>
				</g>
			</g>
			<g id="&lt;Group&gt;">
				<g id="&lt;Group&gt;">
					<g id="Layer0 10 MEMBER 0 FILL">
						<path id="&lt;Compound Path&gt;" class="s2" d="m610.9 365.1q1.4-1.4 1.4-3.3 0-2-1.4-3.3-1.2-1.4-3.2-1.4-2.2 0-3.5 1.4-1.3 1.3-1.4 3.3 0.1 1.9 1.4 3.3 1.3 1.3 3.5 1.4 2-0.1 3.2-1.4zm0.8-50h-8.2l1.3 34.9h5.5z"/>
					</g>
				</g>
			</g>
		</g>
		<g id="&lt;Group&gt;">
			<g id="&lt;Group&gt;">
				<g id="Layer0 11 FILL">
					<path id="&lt;Compound Path&gt;" class="s17" d="m491.6 359.5v3.2h15v-3.2zm0-8.4v6.1h15v-6.1zm15-12h-15v9.7h15zm-37.1-39.2q-1.4 2.2-0.9 4.8 0.9 2.6 3.3 4l1.7 1q2.3 1.4 4.7 0.6 2.7-0.7 4.1-3l9.2-16v45.2h15v-46.3q0-0.2 0-0.3l9.1 16q1.4 2.3 4.1 3 2.4 0.8 4.8-0.6l1.7-1q2.4-1.4 3.2-4 0.6-2.6-0.8-4.8l-17.9-31q-5.1-7.8-10.8-7.3-6.9-0.5-12 7.3z"/>
				</g>
			</g>
		</g>
		<g id="&lt;Group&gt;" style="opacity: .3;mix-blend-mode: multiply">
			<path id="&lt;Path&gt;" class="s18" d="m555.5 471.6q2.2 0.5 4.1 1 1-2 1.5-3.8z"/>
			<path id="&lt;Path&gt;" class="s18" d="m531 432q-0.7-0.8-2.6-2.3-1.7-1.2-2.9-1.8-0.4 1.4-1.8 5.7 1.5-0.2 3.6-0.6 2.1-0.5 3.7-1z"/>
			<path id="&lt;Path&gt;" class="s18" d="m522.7 452q0.1 0.1 0.1 0.2 6 1.4 10.7 5.9 4.6 4.6 5.4 13.5 2.5-0.7 6.5-1.8 0.2 0 0.5-0.1 2.4-0.7 4.5-1.3l3.6-5.2q-2.5-10.8-9.6-16.9-5.3-5-11.4-7.6-4.8 1.4-7.3 2-2 1.5-2.3 2.8-1 2.2-1.9 6.1 0 0.2 0.1 0.5 0 0.1 1.1 1.9z"/>
			<path id="&lt;Path&gt;" class="s18" d="m539.6 476q-1.2 2.3-2 3.8-0.4 0.6-0.6 1.1 2.5 2.5 5.6 4.3 2.9 1.6 6.4 2.6 1 0.2 2.3 0.6 0.2-0.4 0.4-0.7 1.9-3.4 3.1-6.7l-8-3.8z"/>
			<path id="&lt;Path&gt;" class="s18" d="m510.2 451.4q-4.6 2.8-6.3 3.9l7.8 3.6 4.7-4.7q-5.5-3.2-6.2-2.8z"/>
			<path id="&lt;Path&gt;" class="s18" d="m547.8 508.1l-12.3-1.7-55-7.5-1.3-32.6q1-7.1 6.1-12.7l0.1-0.1q6.7-7.2 16.6-7.6 1.1-0.1 2-0.2 1.2-0.2 2.8-0.7 4.2-1.3 7.1-2.2 0.2 0 0.2-0.2 1.9-1.2 2.2-4.4l-0.5-6.5q-6.7-2.3-14.5-2-16.5 0.7-27.8 12.8l-0.1 0.1q-8.9 9.9-10.3 22.7 0 0.5 0 1.2l1.1 30.2q-5.9-0.6-6.7 5.4l-9.9 72.6q-0.8 6.2 5.4 7l69.7 9.5 13.6 1.8q6.2 0.9 7-5.3l9.9-72.6q0.8-6.2-5.4-7z"/>
		</g>
		<g id="&lt;Group&gt;">
			<g id="&lt;Group&gt;">
				<g id="&lt;Group&gt;">
					<g id="Layer0 12 MEMBER 0 FILL">
						<path id="&lt;Compound Path&gt;" class="s19" d="m555.4 443.1q2.5 0.6 4.6 1.2 1-2.2 1.6-4.3zm-5.7-3.4l4.1-5.7q-2.8-11.9-10.6-18.7-5.8-5.5-12.6-8.3-5.2 1.6-8 2.1-2.2 1.7-2.5 3.1 9.2 2.5 16.3 9.4 6.6 6.7 7.9 19.6 0.2 0 0.5-0.1 2.7-0.7 4.9-1.4zm5 13.9q-4.2 0-10.6-1.3-0.5 0.3-1.6 2.2-0.4 0.8-1.5 3.4l0.2 0.2q3.2 1.8 7.1 2.9 1.1 0.2 2.5 0.7 0.2-0.5 0.4-0.8 2.1-3.8 3.5-7.3zm-51.1-46.4q2.3-2.2 8.1-7.9-7.4-2.5-15.9-2.2-18.2 0.7-30.7 14.1l-0.1 0.1q-9.7 10.9-11.3 25 0 0.5 0 1.2l1.9 50.1q0.2 3.6 2.8 6.1 2.7 2.4 6.4 2.3 1-0.1 1.9-0.2l-2.4-61q1.4-9.9 8.5-17.8l0.2-0.2q9.7-10.2 23.5-10.8 4-0.1 7.1 1.2zm24.9-7.6q-0.8-0.9-2.9-2.5-1.8-1.4-3.2-2-0.5 1.6-2 6.2 1.6-0.2 3.9-0.6 2.4-0.5 4.2-1.1z"/>
						<path id="&lt;Compound Path&gt;" class="s20" d="m518 419q0 0.2 0.2 0.5 0 0.2 1.1 2.1 0.1 0.1 0.1 0.2 6.7 1.5 11.8 6.6 5.1 5 6 14.7 2.7-0.7 7.1-1.9-1.3-13-7.9-19.6-7.1-6.9-16.3-9.4-1.1 2.4-2.1 6.8zm20 29q-1.4 2.6-2.3 4.2-0.4 0.7-0.6 1.2 2.8 2.8 6.1 4.7l-0.1-0.2q1-2.6 1.5-3.4 1-1.9 1.6-2.2zm-32.4-27.1q-5.1 3-6.9 4.3l8.6 3.9q-1.4-6.5-1.7-8.2zm-32.6-4.2l-0.2 0.3q-7.1 7.9-8.5 17.7l2.4 61q2.4-0.7 4.3-2.5 2.5-2.7 2.4-6.4l-2-49.6q1.2-7.8 6.8-13.9l0.1-0.2q7.3-7.9 18.2-8.3 1.2-0.1 2.3-0.2 1.2-0.2 3-0.7 0.9-5.3 1.8-6.8-3.1-1.3-7.1-1.1-13.8 0.5-23.5 10.7z"/>
						<path id="&lt;Compound Path&gt;" class="s21" d="m554.7 453.5l-8.8-4.2-7.9-1.3 6.2 4.3q6.4 1.2 10.5 1.2zm-47.4-24.3l5.1-5.2q-6.1-3.4-6.8-3.1 0.3 1.7 1.7 8.3zm2.4-17.7q0.2-0.1 0.2-0.2 2-1.3 2.4-4.9l-0.6-7.1q-5.8 5.7-8.1 7.9-0.8 1.4-1.8 6.7 4.6-1.4 7.9-2.4z"/>
					</g>
				</g>
			</g>
			<g id="&lt;Group&gt;">
				<g id="&lt;Group&gt;">
					<g id="Layer0 12 MEMBER 1 FILL">
						<path id="&lt;Path&gt;" class="s22" d="m533.4 481.4l-78.1-10.5q-6.8-1-7.7 5.8l-10.8 79.9q-1 6.8 5.8 7.7l76.7 10.4q7-0.5 7.8-5.8l10.8-79.9q0.7-5.3-4.5-7.6z"/>
						<path id="&lt;Path&gt;" class="s23" d="m552.9 491q0.9-6.8-5.9-7.7l-13.6-1.9q5.2 2.3 4.5 7.6l-10.8 79.9q-0.8 5.3-7.8 5.8l15 2.1q6.8 0.9 7.7-5.9z"/>
					</g>
				</g>
			</g>
			<g id="&lt;Group&gt;">
				<g id="&lt;Group&gt;">
					<g id="Layer0 12 MEMBER 1 MEMBER 0 FILL">
						<path id="&lt;Path&gt;" class="s24" d="m486.2 519.4q0.5-3.8 3.4-6 1.3-1 2.8-1.5-1.6-1-3.7-1.3-3.7-0.5-6.7 1.7-2.9 2.3-3.4 6-0.6 3.8 1.7 6.7 1.5 2 3.7 2.8l-3.4 10.5 9.1 1.1-0.5-11q0.5 0 0.9-0.2-1.2-0.8-2.2-2.1-2.3-3-1.7-6.7z"/>
						<path id="&lt;Path&gt;" class="s25" d="m494.7 514.1q-1-1.4-2.3-2.2-1.5 0.5-2.8 1.5-2.9 2.2-3.4 6-0.6 3.7 1.7 6.7 1 1.3 2.2 2.1 1.6-0.4 2.9-1.4 3-2.3 3.5-6 0.5-3.8-1.8-6.7z"/>
					</g>
				</g>
			</g>
		</g>
	</g>
</svg>