<svg version="1.2" xmlns="http://www.w3.org/2000/svg" viewBox="0 0 1000 1000" width="1000" height="1000">
	<title>8304875_3838741-ai</title>
	<defs>
		<clipPath clipPathUnits="userSpaceOnUse" id="cp1">
			<path d="m1000 1000h-1000v-1000h1000z"/>
		</clipPath>
	</defs>
	<style>
		.s0 { fill: #7c4810 } 
		.s1 { fill: #405296 } 
		.s2 { fill: #2f3a61 } 
		.s3 { fill: #000000 } 
		.s4 { fill: #643d13 } 
		.s5 { fill: #4d2f0e } 
	</style>
	<g id="BACKGROUND" style="opacity: 1">
		<g id="&lt;Group&gt;">
			<path id="&lt;Path&gt;" class="s0" d="m1000 1000h-1000v-1000h1000z"/>
		</g>
	</g>
	<g id="OBJECTS" style="opacity: .8">
		<g id="&lt;Group&gt;" style="opacity: .2">
			<path id="&lt;Path&gt;" class="s1" d="m893.4 500c0 217.3-176.1 393.4-393.4 393.4-217.3 0-393.4-176.1-393.4-393.4 0-217.3 176.1-393.4 393.4-393.4 217.3 0 393.4 176.1 393.4 393.4z"/>
		</g>
		<g id="&lt;Clip Group&gt;" clip-path="url(#cp1)">
			<g id="&lt;Group&gt;">
				<g id="&lt;Group&gt;" style="opacity: .3;mix-blend-mode: screen">
					<g id="&lt;Group&gt;">
						<path id="&lt;Path&gt;" class="s2" d="m21.7 998.2c-7.7 0-14-6.3-14-14 0-7.7 6.3-14 14-14 7.7 0 14 6.3 14 14 0 7.7-6.3 14-14 14z"/>
						<path id="&lt;Path&gt;" class="s2" d="m21.7 935.4c-7.3 0-13.2-5.9-13.2-13.2 0-7.3 5.9-13.2 13.2-13.2 7.3 0 13.2 5.9 13.2 13.2 0 7.3-5.9 13.2-13.2 13.2z"/>
						<path id="&lt;Path&gt;" class="s2" d="m21.7 872.5c-6.8 0-12.3-5.5-12.3-12.3 0-6.8 5.5-12.3 12.3-12.3 6.8 0 12.3 5.5 12.3 12.3 0 6.8-5.5 12.3-12.3 12.3z"/>
						<path id="&lt;Path&gt;" class="s2" d="m21.7 809.7c-6.3 0-11.5-5.2-11.5-11.5 0-6.4 5.2-11.5 11.5-11.5 6.4 0 11.5 5.1 11.5 11.5 0 6.3-5.1 11.5-11.5 11.5z"/>
						<path id="&lt;Path&gt;" class="s2" d="m21.7 746.9c-5.9 0-10.7-4.8-10.7-10.7 0-5.9 4.8-10.7 10.7-10.7 5.9 0 10.7 4.8 10.7 10.7 0 5.9-4.8 10.7-10.7 10.7z"/>
						<path id="&lt;Path&gt;" class="s2" d="m21.7 684c-5.4 0-9.8-4.4-9.8-9.8 0-5.4 4.4-9.8 9.8-9.8 5.4 0 9.8 4.4 9.8 9.8 0 5.4-4.4 9.8-9.8 9.8z"/>
						<path id="&lt;Path&gt;" class="s2" d="m21.7 621.2c-5 0-9-4-9-9 0-5 4-9 9-9 5 0 9 4 9 9 0 5-4 9-9 9z"/>
						<path id="&lt;Path&gt;" class="s2" d="m21.7 558.4c-4.5 0-8.1-3.7-8.1-8.2 0-4.5 3.6-8.2 8.1-8.2 4.5 0 8.2 3.7 8.2 8.2 0 4.5-3.7 8.2-8.2 8.2z"/>
						<path id="&lt;Path&gt;" class="s2" d="m21.7 495.5c-4 0-7.3-3.3-7.3-7.3 0-4.1 3.3-7.3 7.3-7.3 4.1 0 7.3 3.2 7.3 7.3 0 4-3.2 7.3-7.3 7.3z"/>
						<path id="&lt;Path&gt;" class="s2" d="m21.7 432.7c-3.6 0-6.5-2.9-6.5-6.5 0-3.6 2.9-6.5 6.5-6.5 3.6 0 6.5 2.9 6.5 6.5 0 3.6-2.9 6.5-6.5 6.5z"/>
						<path id="&lt;Path&gt;" class="s2" d="m21.7 369.9c-3.1 0-5.6-2.6-5.6-5.7 0-3.1 2.5-5.7 5.6-5.7 3.1 0 5.7 2.6 5.7 5.7 0 3.1-2.6 5.7-5.7 5.7z"/>
						<path id="&lt;Path&gt;" class="s2" d="m21.7 307c-2.7 0-4.8-2.1-4.8-4.8 0-2.7 2.1-4.8 4.8-4.8 2.7 0 4.8 2.1 4.8 4.8 0 2.7-2.1 4.8-4.8 4.8z"/>
						<path id="&lt;Path&gt;" class="s2" d="m21.7 244.2c-2.2 0-4-1.8-4-4 0-2.2 1.8-4 4-4 2.2 0 4 1.8 4 4 0 2.2-1.8 4-4 4z"/>
						<path id="&lt;Path&gt;" class="s2" d="m21.7 181.4c-1.7 0-3.1-1.5-3.1-3.2 0-1.8 1.4-3.2 3.1-3.2 1.8 0 3.2 1.4 3.2 3.2 0 1.7-1.4 3.2-3.2 3.2z"/>
						<path id="&lt;Path&gt;" class="s2" d="m21.7 118.5c-1.3 0-2.3-1-2.3-2.3 0-1.3 1-2.3 2.3-2.3 1.3 0 2.3 1 2.3 2.3 0 1.3-1 2.3-2.3 2.3z"/>
						<path id="&lt;Path&gt;" class="s2" d="m21.7 55.7c-0.8 0-1.5-0.7-1.5-1.5 0-0.8 0.7-1.5 1.5-1.5 0.8 0 1.5 0.7 1.5 1.5 0 0.8-0.7 1.5-1.5 1.5z"/>
						<path id="&lt;Path&gt;" class="s2" d="m21.7-7.1c-0.3 0-0.6-0.3-0.6-0.7 0-0.4 0.3-0.7 0.6-0.7 0.4 0 0.7 0.3 0.7 0.7 0 0.4-0.3 0.7-0.7 0.7z"/>
					</g>
				</g>
				<g id="&lt;Group&gt;" style="opacity: .3;mix-blend-mode: screen">
					<g id="&lt;Group&gt;">
						<path id="&lt;Path&gt;" class="s2" d="m81.7 998.2c-7.7 0-14-6.3-14-14 0-7.7 6.3-14 14-14 7.7 0 14 6.3 14 14 0 7.7-6.3 14-14 14z"/>
						<path id="&lt;Path&gt;" class="s2" d="m81.7 935.4c-7.3 0-13.2-5.9-13.2-13.2 0-7.3 5.9-13.2 13.2-13.2 7.3 0 13.2 5.9 13.2 13.2 0 7.3-5.9 13.2-13.2 13.2z"/>
						<path id="&lt;Path&gt;" class="s2" d="m81.7 872.5c-6.8 0-12.3-5.5-12.3-12.3 0-6.8 5.5-12.3 12.3-12.3 6.8 0 12.3 5.5 12.3 12.3 0 6.8-5.5 12.3-12.3 12.3z"/>
						<path id="&lt;Path&gt;" class="s2" d="m81.7 809.7c-6.3 0-11.5-5.2-11.5-11.5 0-6.4 5.2-11.5 11.5-11.5 6.4 0 11.5 5.1 11.5 11.5 0 6.3-5.1 11.5-11.5 11.5z"/>
						<path id="&lt;Path&gt;" class="s2" d="m81.7 746.9c-5.9 0-10.7-4.8-10.7-10.7 0-5.9 4.8-10.7 10.7-10.7 5.9 0 10.7 4.8 10.7 10.7 0 5.9-4.8 10.7-10.7 10.7z"/>
						<path id="&lt;Path&gt;" class="s2" d="m81.7 684c-5.4 0-9.8-4.4-9.8-9.8 0-5.4 4.4-9.8 9.8-9.8 5.4 0 9.8 4.4 9.8 9.8 0 5.4-4.4 9.8-9.8 9.8z"/>
						<path id="&lt;Path&gt;" class="s2" d="m81.7 621.2c-5 0-9-4-9-9 0-5 4-9 9-9 5 0 9 4 9 9 0 5-4 9-9 9z"/>
						<path id="&lt;Path&gt;" class="s2" d="m81.7 558.4c-4.5 0-8.1-3.7-8.1-8.2 0-4.5 3.6-8.2 8.1-8.2 4.5 0 8.2 3.7 8.2 8.2 0 4.5-3.7 8.2-8.2 8.2z"/>
						<path id="&lt;Path&gt;" class="s2" d="m81.7 495.5c-4 0-7.3-3.3-7.3-7.3 0-4.1 3.3-7.3 7.3-7.3 4.1 0 7.3 3.2 7.3 7.3 0 4-3.2 7.3-7.3 7.3z"/>
						<path id="&lt;Path&gt;" class="s2" d="m81.7 432.7c-3.6 0-6.5-2.9-6.5-6.5 0-3.6 2.9-6.5 6.5-6.5 3.6 0 6.5 2.9 6.5 6.5 0 3.6-2.9 6.5-6.5 6.5z"/>
						<path id="&lt;Path&gt;" class="s2" d="m81.7 369.9c-3.1 0-5.6-2.6-5.6-5.7 0-3.1 2.5-5.7 5.6-5.7 3.1 0 5.7 2.6 5.7 5.7 0 3.1-2.6 5.7-5.7 5.7z"/>
						<path id="&lt;Path&gt;" class="s2" d="m81.7 307c-2.7 0-4.8-2.1-4.8-4.8 0-2.7 2.1-4.8 4.8-4.8 2.7 0 4.8 2.1 4.8 4.8 0 2.7-2.1 4.8-4.8 4.8z"/>
						<path id="&lt;Path&gt;" class="s2" d="m81.7 244.2c-2.2 0-4-1.8-4-4 0-2.2 1.8-4 4-4 2.2 0 4 1.8 4 4 0 2.2-1.8 4-4 4z"/>
						<path id="&lt;Path&gt;" class="s2" d="m81.7 181.4c-1.7 0-3.1-1.5-3.1-3.2 0-1.8 1.4-3.2 3.1-3.2 1.8 0 3.2 1.4 3.2 3.2 0 1.7-1.4 3.2-3.2 3.2z"/>
						<path id="&lt;Path&gt;" class="s2" d="m81.7 118.5c-1.3 0-2.3-1-2.3-2.3 0-1.3 1-2.3 2.3-2.3 1.3 0 2.3 1 2.3 2.3 0 1.3-1 2.3-2.3 2.3z"/>
						<path id="&lt;Path&gt;" class="s2" d="m81.7 55.7c-0.8 0-1.5-0.7-1.5-1.5 0-0.8 0.7-1.5 1.5-1.5 0.8 0 1.5 0.7 1.5 1.5 0 0.8-0.7 1.5-1.5 1.5z"/>
						<path id="&lt;Path&gt;" class="s2" d="m81.7-7.1c-0.3 0-0.6-0.3-0.6-0.7 0-0.4 0.3-0.7 0.6-0.7 0.4 0 0.7 0.3 0.7 0.7 0 0.4-0.3 0.7-0.7 0.7z"/>
					</g>
				</g>
				<g id="&lt;Group&gt;" style="opacity: .3;mix-blend-mode: screen">
					<g id="&lt;Group&gt;">
						<path id="&lt;Path&gt;" class="s2" d="m141.7 998.2c-7.7 0-14-6.3-14-14 0-7.7 6.3-14 14-14 7.7 0 14 6.3 14 14 0 7.7-6.3 14-14 14z"/>
						<path id="&lt;Path&gt;" class="s2" d="m141.7 935.4c-7.3 0-13.2-5.9-13.2-13.2 0-7.3 5.9-13.2 13.2-13.2 7.3 0 13.2 5.9 13.2 13.2 0 7.3-5.9 13.2-13.2 13.2z"/>
						<path id="&lt;Path&gt;" class="s2" d="m141.7 872.5c-6.8 0-12.3-5.5-12.3-12.3 0-6.8 5.5-12.3 12.3-12.3 6.8 0 12.3 5.5 12.3 12.3 0 6.8-5.5 12.3-12.3 12.3z"/>
						<path id="&lt;Path&gt;" class="s2" d="m141.7 809.7c-6.3 0-11.5-5.2-11.5-11.5 0-6.4 5.2-11.5 11.5-11.5 6.4 0 11.5 5.1 11.5 11.5 0 6.3-5.1 11.5-11.5 11.5z"/>
						<path id="&lt;Path&gt;" class="s2" d="m141.7 746.9c-5.9 0-10.7-4.8-10.7-10.7 0-5.9 4.8-10.7 10.7-10.7 5.9 0 10.7 4.8 10.7 10.7 0 5.9-4.8 10.7-10.7 10.7z"/>
						<path id="&lt;Path&gt;" class="s2" d="m141.7 684c-5.4 0-9.8-4.4-9.8-9.8 0-5.4 4.4-9.8 9.8-9.8 5.4 0 9.8 4.4 9.8 9.8 0 5.4-4.4 9.8-9.8 9.8z"/>
						<path id="&lt;Path&gt;" class="s2" d="m141.7 621.2c-5 0-9-4-9-9 0-5 4-9 9-9 5 0 9 4 9 9 0 5-4 9-9 9z"/>
						<path id="&lt;Path&gt;" class="s2" d="m141.7 558.4c-4.5 0-8.1-3.7-8.1-8.2 0-4.5 3.6-8.2 8.1-8.2 4.5 0 8.2 3.7 8.2 8.2 0 4.5-3.7 8.2-8.2 8.2z"/>
						<path id="&lt;Path&gt;" class="s2" d="m141.7 495.5c-4 0-7.3-3.3-7.3-7.3 0-4.1 3.3-7.3 7.3-7.3 4.1 0 7.3 3.2 7.3 7.3 0 4-3.2 7.3-7.3 7.3z"/>
						<path id="&lt;Path&gt;" class="s2" d="m141.7 432.7c-3.6 0-6.5-2.9-6.5-6.5 0-3.6 2.9-6.5 6.5-6.5 3.6 0 6.5 2.9 6.5 6.5 0 3.6-2.9 6.5-6.5 6.5z"/>
						<path id="&lt;Path&gt;" class="s2" d="m141.7 369.9c-3.1 0-5.6-2.6-5.6-5.7 0-3.1 2.5-5.7 5.6-5.7 3.1 0 5.7 2.6 5.7 5.7 0 3.1-2.6 5.7-5.7 5.7z"/>
						<path id="&lt;Path&gt;" class="s2" d="m141.7 307c-2.7 0-4.8-2.1-4.8-4.8 0-2.7 2.1-4.8 4.8-4.8 2.7 0 4.8 2.1 4.8 4.8 0 2.7-2.1 4.8-4.8 4.8z"/>
						<path id="&lt;Path&gt;" class="s2" d="m141.7 244.2c-2.2 0-4-1.8-4-4 0-2.2 1.8-4 4-4 2.2 0 4 1.8 4 4 0 2.2-1.8 4-4 4z"/>
						<path id="&lt;Path&gt;" class="s2" d="m141.7 181.4c-1.7 0-3.1-1.5-3.1-3.2 0-1.8 1.4-3.2 3.1-3.2 1.8 0 3.2 1.4 3.2 3.2 0 1.7-1.4 3.2-3.2 3.2z"/>
						<path id="&lt;Path&gt;" class="s2" d="m141.7 118.5c-1.3 0-2.3-1-2.3-2.3 0-1.3 1-2.3 2.3-2.3 1.3 0 2.3 1 2.3 2.3 0 1.3-1 2.3-2.3 2.3z"/>
						<path id="&lt;Path&gt;" class="s2" d="m141.7 55.7c-0.8 0-1.5-0.7-1.5-1.5 0-0.8 0.7-1.5 1.5-1.5 0.8 0 1.5 0.7 1.5 1.5 0 0.8-0.7 1.5-1.5 1.5z"/>
						<path id="&lt;Path&gt;" class="s2" d="m141.7-7.1c-0.3 0-0.6-0.3-0.6-0.7 0-0.4 0.3-0.7 0.6-0.7 0.4 0 0.7 0.3 0.7 0.7 0 0.4-0.3 0.7-0.7 0.7z"/>
					</g>
				</g>
				<g id="&lt;Group&gt;" style="opacity: .3;mix-blend-mode: screen">
					<g id="&lt;Group&gt;">
						<path id="&lt;Path&gt;" class="s2" d="m201.7 998.2c-7.7 0-14-6.3-14-14 0-7.7 6.3-14 14-14 7.7 0 14 6.3 14 14 0 7.7-6.3 14-14 14z"/>
						<path id="&lt;Path&gt;" class="s2" d="m201.7 935.4c-7.3 0-13.2-5.9-13.2-13.2 0-7.3 5.9-13.2 13.2-13.2 7.3 0 13.2 5.9 13.2 13.2 0 7.3-5.9 13.2-13.2 13.2z"/>
						<path id="&lt;Path&gt;" class="s2" d="m201.7 872.5c-6.8 0-12.3-5.5-12.3-12.3 0-6.8 5.5-12.3 12.3-12.3 6.8 0 12.3 5.5 12.3 12.3 0 6.8-5.5 12.3-12.3 12.3z"/>
						<path id="&lt;Path&gt;" class="s2" d="m201.7 809.7c-6.3 0-11.5-5.2-11.5-11.5 0-6.4 5.2-11.5 11.5-11.5 6.4 0 11.5 5.1 11.5 11.5 0 6.3-5.1 11.5-11.5 11.5z"/>
						<path id="&lt;Path&gt;" class="s2" d="m201.7 746.9c-5.9 0-10.7-4.8-10.7-10.7 0-5.9 4.8-10.7 10.7-10.7 5.9 0 10.7 4.8 10.7 10.7 0 5.9-4.8 10.7-10.7 10.7z"/>
						<path id="&lt;Path&gt;" class="s2" d="m201.7 684c-5.4 0-9.8-4.4-9.8-9.8 0-5.4 4.4-9.8 9.8-9.8 5.4 0 9.8 4.4 9.8 9.8 0 5.4-4.4 9.8-9.8 9.8z"/>
						<path id="&lt;Path&gt;" class="s2" d="m201.7 621.2c-5 0-9-4-9-9 0-5 4-9 9-9 5 0 9 4 9 9 0 5-4 9-9 9z"/>
						<path id="&lt;Path&gt;" class="s2" d="m201.7 558.4c-4.5 0-8.1-3.7-8.1-8.2 0-4.5 3.6-8.2 8.1-8.2 4.5 0 8.2 3.7 8.2 8.2 0 4.5-3.7 8.2-8.2 8.2z"/>
						<path id="&lt;Path&gt;" class="s2" d="m201.7 495.5c-4 0-7.3-3.3-7.3-7.3 0-4.1 3.3-7.3 7.3-7.3 4.1 0 7.3 3.2 7.3 7.3 0 4-3.2 7.3-7.3 7.3z"/>
						<path id="&lt;Path&gt;" class="s2" d="m201.7 432.7c-3.6 0-6.5-2.9-6.5-6.5 0-3.6 2.9-6.5 6.5-6.5 3.6 0 6.5 2.9 6.5 6.5 0 3.6-2.9 6.5-6.5 6.5z"/>
						<path id="&lt;Path&gt;" class="s2" d="m201.7 369.9c-3.1 0-5.6-2.6-5.6-5.7 0-3.1 2.5-5.7 5.6-5.7 3.1 0 5.7 2.6 5.7 5.7 0 3.1-2.6 5.7-5.7 5.7z"/>
						<path id="&lt;Path&gt;" class="s2" d="m201.7 307c-2.7 0-4.8-2.1-4.8-4.8 0-2.7 2.1-4.8 4.8-4.8 2.7 0 4.8 2.1 4.8 4.8 0 2.7-2.1 4.8-4.8 4.8z"/>
						<path id="&lt;Path&gt;" class="s2" d="m201.7 244.2c-2.2 0-4-1.8-4-4 0-2.2 1.8-4 4-4 2.2 0 4 1.8 4 4 0 2.2-1.8 4-4 4z"/>
						<path id="&lt;Path&gt;" class="s2" d="m201.7 181.4c-1.7 0-3.1-1.5-3.1-3.2 0-1.8 1.4-3.2 3.1-3.2 1.8 0 3.2 1.4 3.2 3.2 0 1.7-1.4 3.2-3.2 3.2z"/>
						<path id="&lt;Path&gt;" class="s2" d="m201.7 118.5c-1.3 0-2.3-1-2.3-2.3 0-1.3 1-2.3 2.3-2.3 1.3 0 2.3 1 2.3 2.3 0 1.3-1 2.3-2.3 2.3z"/>
						<path id="&lt;Path&gt;" class="s2" d="m201.7 55.7c-0.8 0-1.5-0.7-1.5-1.5 0-0.8 0.7-1.5 1.5-1.5 0.8 0 1.5 0.7 1.5 1.5 0 0.8-0.7 1.5-1.5 1.5z"/>
						<path id="&lt;Path&gt;" class="s2" d="m201.7-7.1c-0.3 0-0.6-0.3-0.6-0.7 0-0.4 0.3-0.7 0.6-0.7 0.4 0 0.7 0.3 0.7 0.7 0 0.4-0.3 0.7-0.7 0.7z"/>
					</g>
				</g>
				<g id="&lt;Group&gt;" style="opacity: .3;mix-blend-mode: screen">
					<g id="&lt;Group&gt;">
						<path id="&lt;Path&gt;" class="s2" d="m261.7 998.2c-7.7 0-14-6.3-14-14 0-7.7 6.3-14 14-14 7.7 0 14 6.3 14 14 0 7.7-6.3 14-14 14z"/>
						<path id="&lt;Path&gt;" class="s2" d="m261.7 935.4c-7.3 0-13.2-5.9-13.2-13.2 0-7.3 5.9-13.2 13.2-13.2 7.3 0 13.2 5.9 13.2 13.2 0 7.3-5.9 13.2-13.2 13.2z"/>
						<path id="&lt;Path&gt;" class="s2" d="m261.7 872.5c-6.8 0-12.3-5.5-12.3-12.3 0-6.8 5.5-12.3 12.3-12.3 6.8 0 12.3 5.5 12.3 12.3 0 6.8-5.5 12.3-12.3 12.3z"/>
						<path id="&lt;Path&gt;" class="s2" d="m261.7 809.7c-6.3 0-11.5-5.2-11.5-11.5 0-6.4 5.2-11.5 11.5-11.5 6.4 0 11.5 5.1 11.5 11.5 0 6.3-5.1 11.5-11.5 11.5z"/>
						<path id="&lt;Path&gt;" class="s2" d="m261.7 746.9c-5.9 0-10.7-4.8-10.7-10.7 0-5.9 4.8-10.7 10.7-10.7 5.9 0 10.7 4.8 10.7 10.7 0 5.9-4.8 10.7-10.7 10.7z"/>
						<path id="&lt;Path&gt;" class="s2" d="m261.7 684c-5.4 0-9.8-4.4-9.8-9.8 0-5.4 4.4-9.8 9.8-9.8 5.4 0 9.8 4.4 9.8 9.8 0 5.4-4.4 9.8-9.8 9.8z"/>
						<path id="&lt;Path&gt;" class="s2" d="m261.7 621.2c-5 0-9-4-9-9 0-5 4-9 9-9 5 0 9 4 9 9 0 5-4 9-9 9z"/>
						<path id="&lt;Path&gt;" class="s2" d="m261.7 558.4c-4.5 0-8.1-3.7-8.1-8.2 0-4.5 3.6-8.2 8.1-8.2 4.5 0 8.2 3.7 8.2 8.2 0 4.5-3.7 8.2-8.2 8.2z"/>
						<path id="&lt;Path&gt;" class="s2" d="m261.7 495.5c-4 0-7.3-3.3-7.3-7.3 0-4.1 3.3-7.3 7.3-7.3 4.1 0 7.3 3.2 7.3 7.3 0 4-3.2 7.3-7.3 7.3z"/>
						<path id="&lt;Path&gt;" class="s2" d="m261.7 432.7c-3.6 0-6.5-2.9-6.5-6.5 0-3.6 2.9-6.5 6.5-6.5 3.6 0 6.5 2.9 6.5 6.5 0 3.6-2.9 6.5-6.5 6.5z"/>
						<path id="&lt;Path&gt;" class="s2" d="m261.7 369.9c-3.1 0-5.6-2.6-5.6-5.7 0-3.1 2.5-5.7 5.6-5.7 3.1 0 5.7 2.6 5.7 5.7 0 3.1-2.6 5.7-5.7 5.7z"/>
						<path id="&lt;Path&gt;" class="s2" d="m261.7 307c-2.7 0-4.8-2.1-4.8-4.8 0-2.7 2.1-4.8 4.8-4.8 2.7 0 4.8 2.1 4.8 4.8 0 2.7-2.1 4.8-4.8 4.8z"/>
						<path id="&lt;Path&gt;" class="s2" d="m261.7 244.2c-2.2 0-4-1.8-4-4 0-2.2 1.8-4 4-4 2.2 0 4 1.8 4 4 0 2.2-1.8 4-4 4z"/>
						<path id="&lt;Path&gt;" class="s2" d="m261.7 181.4c-1.7 0-3.1-1.5-3.1-3.2 0-1.8 1.4-3.2 3.1-3.2 1.8 0 3.2 1.4 3.2 3.2 0 1.7-1.4 3.2-3.2 3.2z"/>
						<path id="&lt;Path&gt;" class="s2" d="m261.7 118.5c-1.3 0-2.3-1-2.3-2.3 0-1.3 1-2.3 2.3-2.3 1.3 0 2.3 1 2.3 2.3 0 1.3-1 2.3-2.3 2.3z"/>
						<path id="&lt;Path&gt;" class="s2" d="m261.7 55.7c-0.8 0-1.5-0.7-1.5-1.5 0-0.8 0.7-1.5 1.5-1.5 0.8 0 1.5 0.7 1.5 1.5 0 0.8-0.7 1.5-1.5 1.5z"/>
						<path id="&lt;Path&gt;" class="s2" d="m261.7-7.1c-0.3 0-0.6-0.3-0.6-0.7 0-0.4 0.3-0.7 0.6-0.7 0.4 0 0.7 0.3 0.7 0.7 0 0.4-0.3 0.7-0.7 0.7z"/>
					</g>
				</g>
				<g id="&lt;Group&gt;" style="opacity: .3;mix-blend-mode: screen">
					<g id="&lt;Group&gt;">
						<path id="&lt;Path&gt;" class="s2" d="m321.7 998.2c-7.7 0-14-6.3-14-14 0-7.7 6.3-14 14-14 7.7 0 14 6.3 14 14 0 7.7-6.3 14-14 14z"/>
						<path id="&lt;Path&gt;" class="s2" d="m321.7 935.4c-7.3 0-13.2-5.9-13.2-13.2 0-7.3 5.9-13.2 13.2-13.2 7.3 0 13.2 5.9 13.2 13.2 0 7.3-5.9 13.2-13.2 13.2z"/>
						<path id="&lt;Path&gt;" class="s2" d="m321.7 872.5c-6.8 0-12.3-5.5-12.3-12.3 0-6.8 5.5-12.3 12.3-12.3 6.8 0 12.3 5.5 12.3 12.3 0 6.8-5.5 12.3-12.3 12.3z"/>
						<path id="&lt;Path&gt;" class="s2" d="m321.7 809.7c-6.3 0-11.5-5.2-11.5-11.5 0-6.4 5.2-11.5 11.5-11.5 6.4 0 11.5 5.1 11.5 11.5 0 6.3-5.1 11.5-11.5 11.5z"/>
						<path id="&lt;Path&gt;" class="s2" d="m321.7 746.9c-5.9 0-10.7-4.8-10.7-10.7 0-5.9 4.8-10.7 10.7-10.7 5.9 0 10.7 4.8 10.7 10.7 0 5.9-4.8 10.7-10.7 10.7z"/>
						<path id="&lt;Path&gt;" class="s2" d="m321.7 684c-5.4 0-9.8-4.4-9.8-9.8 0-5.4 4.4-9.8 9.8-9.8 5.4 0 9.8 4.4 9.8 9.8 0 5.4-4.4 9.8-9.8 9.8z"/>
						<path id="&lt;Path&gt;" class="s2" d="m321.7 621.2c-5 0-9-4-9-9 0-5 4-9 9-9 5 0 9 4 9 9 0 5-4 9-9 9z"/>
						<path id="&lt;Path&gt;" class="s2" d="m321.7 558.4c-4.5 0-8.1-3.7-8.1-8.2 0-4.5 3.6-8.2 8.1-8.2 4.5 0 8.2 3.7 8.2 8.2 0 4.5-3.7 8.2-8.2 8.2z"/>
						<path id="&lt;Path&gt;" class="s2" d="m321.7 495.5c-4 0-7.3-3.3-7.3-7.3 0-4.1 3.3-7.3 7.3-7.3 4.1 0 7.3 3.2 7.3 7.3 0 4-3.2 7.3-7.3 7.3z"/>
						<path id="&lt;Path&gt;" class="s2" d="m321.7 432.7c-3.6 0-6.5-2.9-6.5-6.5 0-3.6 2.9-6.5 6.5-6.5 3.6 0 6.5 2.9 6.5 6.5 0 3.6-2.9 6.5-6.5 6.5z"/>
						<path id="&lt;Path&gt;" class="s2" d="m321.7 369.9c-3.1 0-5.6-2.6-5.6-5.7 0-3.1 2.5-5.7 5.6-5.7 3.1 0 5.7 2.6 5.7 5.7 0 3.1-2.6 5.7-5.7 5.7z"/>
						<path id="&lt;Path&gt;" class="s2" d="m321.7 307c-2.7 0-4.8-2.1-4.8-4.8 0-2.7 2.1-4.8 4.8-4.8 2.7 0 4.8 2.1 4.8 4.8 0 2.7-2.1 4.8-4.8 4.8z"/>
						<path id="&lt;Path&gt;" class="s2" d="m321.7 244.2c-2.2 0-4-1.8-4-4 0-2.2 1.8-4 4-4 2.2 0 4 1.8 4 4 0 2.2-1.8 4-4 4z"/>
						<path id="&lt;Path&gt;" class="s2" d="m321.7 181.4c-1.7 0-3.1-1.5-3.1-3.2 0-1.8 1.4-3.2 3.1-3.2 1.8 0 3.2 1.4 3.2 3.2 0 1.7-1.4 3.2-3.2 3.2z"/>
						<path id="&lt;Path&gt;" class="s2" d="m321.7 118.5c-1.3 0-2.3-1-2.3-2.3 0-1.3 1-2.3 2.3-2.3 1.3 0 2.3 1 2.3 2.3 0 1.3-1 2.3-2.3 2.3z"/>
						<path id="&lt;Path&gt;" class="s2" d="m321.7 55.7c-0.8 0-1.5-0.7-1.5-1.5 0-0.8 0.7-1.5 1.5-1.5 0.8 0 1.5 0.7 1.5 1.5 0 0.8-0.7 1.5-1.5 1.5z"/>
						<path id="&lt;Path&gt;" class="s2" d="m321.7-7.1c-0.3 0-0.6-0.3-0.6-0.7 0-0.4 0.3-0.7 0.6-0.7 0.4 0 0.7 0.3 0.7 0.7 0 0.4-0.3 0.7-0.7 0.7z"/>
					</g>
				</g>
				<g id="&lt;Group&gt;" style="opacity: .3;mix-blend-mode: screen">
					<g id="&lt;Group&gt;">
						<path id="&lt;Path&gt;" class="s2" d="m381.7 998.2c-7.7 0-14-6.3-14-14 0-7.7 6.3-14 14-14 7.7 0 14 6.3 14 14 0 7.7-6.3 14-14 14z"/>
						<path id="&lt;Path&gt;" class="s2" d="m381.7 935.4c-7.3 0-13.2-5.9-13.2-13.2 0-7.3 5.9-13.2 13.2-13.2 7.3 0 13.2 5.9 13.2 13.2 0 7.3-5.9 13.2-13.2 13.2z"/>
						<path id="&lt;Path&gt;" class="s2" d="m381.7 872.5c-6.8 0-12.3-5.5-12.3-12.3 0-6.8 5.5-12.3 12.3-12.3 6.8 0 12.3 5.5 12.3 12.3 0 6.8-5.5 12.3-12.3 12.3z"/>
						<path id="&lt;Path&gt;" class="s2" d="m381.7 809.7c-6.3 0-11.5-5.2-11.5-11.5 0-6.4 5.2-11.5 11.5-11.5 6.4 0 11.5 5.1 11.5 11.5 0 6.3-5.1 11.5-11.5 11.5z"/>
						<path id="&lt;Path&gt;" class="s2" d="m381.7 746.9c-5.9 0-10.7-4.8-10.7-10.7 0-5.9 4.8-10.7 10.7-10.7 5.9 0 10.7 4.8 10.7 10.7 0 5.9-4.8 10.7-10.7 10.7z"/>
						<path id="&lt;Path&gt;" class="s2" d="m381.7 684c-5.4 0-9.8-4.4-9.8-9.8 0-5.4 4.4-9.8 9.8-9.8 5.4 0 9.8 4.4 9.8 9.8 0 5.4-4.4 9.8-9.8 9.8z"/>
						<path id="&lt;Path&gt;" class="s2" d="m381.7 621.2c-5 0-9-4-9-9 0-5 4-9 9-9 5 0 9 4 9 9 0 5-4 9-9 9z"/>
						<path id="&lt;Path&gt;" class="s2" d="m381.7 558.4c-4.5 0-8.1-3.7-8.1-8.2 0-4.5 3.6-8.2 8.1-8.2 4.5 0 8.2 3.7 8.2 8.2 0 4.5-3.7 8.2-8.2 8.2z"/>
						<path id="&lt;Path&gt;" class="s2" d="m381.7 495.5c-4 0-7.3-3.3-7.3-7.3 0-4.1 3.3-7.3 7.3-7.3 4.1 0 7.3 3.2 7.3 7.3 0 4-3.2 7.3-7.3 7.3z"/>
						<path id="&lt;Path&gt;" class="s2" d="m381.7 432.7c-3.6 0-6.5-2.9-6.5-6.5 0-3.6 2.9-6.5 6.5-6.5 3.6 0 6.5 2.9 6.5 6.5 0 3.6-2.9 6.5-6.5 6.5z"/>
						<path id="&lt;Path&gt;" class="s2" d="m381.7 369.9c-3.1 0-5.6-2.6-5.6-5.7 0-3.1 2.5-5.7 5.6-5.7 3.1 0 5.7 2.6 5.7 5.7 0 3.1-2.6 5.7-5.7 5.7z"/>
						<path id="&lt;Path&gt;" class="s2" d="m381.7 307c-2.7 0-4.8-2.1-4.8-4.8 0-2.7 2.1-4.8 4.8-4.8 2.7 0 4.8 2.1 4.8 4.8 0 2.7-2.1 4.8-4.8 4.8z"/>
						<path id="&lt;Path&gt;" class="s2" d="m381.7 244.2c-2.2 0-4-1.8-4-4 0-2.2 1.8-4 4-4 2.2 0 4 1.8 4 4 0 2.2-1.8 4-4 4z"/>
						<path id="&lt;Path&gt;" class="s2" d="m381.7 181.4c-1.7 0-3.1-1.5-3.1-3.2 0-1.8 1.4-3.2 3.1-3.2 1.8 0 3.2 1.4 3.2 3.2 0 1.7-1.4 3.2-3.2 3.2z"/>
						<path id="&lt;Path&gt;" class="s2" d="m381.7 118.5c-1.3 0-2.3-1-2.3-2.3 0-1.3 1-2.3 2.3-2.3 1.3 0 2.3 1 2.3 2.3 0 1.3-1 2.3-2.3 2.3z"/>
						<path id="&lt;Path&gt;" class="s2" d="m381.7 55.7c-0.8 0-1.5-0.7-1.5-1.5 0-0.8 0.7-1.5 1.5-1.5 0.8 0 1.5 0.7 1.5 1.5 0 0.8-0.7 1.5-1.5 1.5z"/>
						<path id="&lt;Path&gt;" class="s2" d="m381.7-7.1c-0.3 0-0.6-0.3-0.6-0.7 0-0.4 0.3-0.7 0.6-0.7 0.4 0 0.7 0.3 0.7 0.7 0 0.4-0.3 0.7-0.7 0.7z"/>
					</g>
				</g>
				<g id="&lt;Group&gt;" style="opacity: .3;mix-blend-mode: screen">
					<g id="&lt;Group&gt;">
						<path id="&lt;Path&gt;" class="s2" d="m441.7 998.2c-7.7 0-14-6.3-14-14 0-7.7 6.3-14 14-14 7.7 0 14 6.3 14 14 0 7.7-6.3 14-14 14z"/>
						<path id="&lt;Path&gt;" class="s2" d="m441.7 935.4c-7.3 0-13.2-5.9-13.2-13.2 0-7.3 5.9-13.2 13.2-13.2 7.3 0 13.2 5.9 13.2 13.2 0 7.3-5.9 13.2-13.2 13.2z"/>
						<path id="&lt;Path&gt;" class="s2" d="m441.7 872.5c-6.8 0-12.3-5.5-12.3-12.3 0-6.8 5.5-12.3 12.3-12.3 6.8 0 12.3 5.5 12.3 12.3 0 6.8-5.5 12.3-12.3 12.3z"/>
						<path id="&lt;Path&gt;" class="s2" d="m441.7 809.7c-6.3 0-11.5-5.2-11.5-11.5 0-6.4 5.2-11.5 11.5-11.5 6.4 0 11.5 5.1 11.5 11.5 0 6.3-5.1 11.5-11.5 11.5z"/>
						<path id="&lt;Path&gt;" class="s2" d="m441.7 746.9c-5.9 0-10.7-4.8-10.7-10.7 0-5.9 4.8-10.7 10.7-10.7 5.9 0 10.7 4.8 10.7 10.7 0 5.9-4.8 10.7-10.7 10.7z"/>
						<path id="&lt;Path&gt;" class="s2" d="m441.7 684c-5.4 0-9.8-4.4-9.8-9.8 0-5.4 4.4-9.8 9.8-9.8 5.4 0 9.8 4.4 9.8 9.8 0 5.4-4.4 9.8-9.8 9.8z"/>
						<path id="&lt;Path&gt;" class="s2" d="m441.7 621.2c-5 0-9-4-9-9 0-5 4-9 9-9 5 0 9 4 9 9 0 5-4 9-9 9z"/>
						<path id="&lt;Path&gt;" class="s2" d="m441.7 558.4c-4.5 0-8.1-3.7-8.1-8.2 0-4.5 3.6-8.2 8.1-8.2 4.5 0 8.2 3.7 8.2 8.2 0 4.5-3.7 8.2-8.2 8.2z"/>
						<path id="&lt;Path&gt;" class="s2" d="m441.7 495.5c-4 0-7.3-3.3-7.3-7.3 0-4.1 3.3-7.3 7.3-7.3 4.1 0 7.3 3.2 7.3 7.3 0 4-3.2 7.3-7.3 7.3z"/>
						<path id="&lt;Path&gt;" class="s2" d="m441.7 432.7c-3.6 0-6.5-2.9-6.5-6.5 0-3.6 2.9-6.5 6.5-6.5 3.6 0 6.5 2.9 6.5 6.5 0 3.6-2.9 6.5-6.5 6.5z"/>
						<path id="&lt;Path&gt;" class="s2" d="m441.7 369.9c-3.1 0-5.6-2.6-5.6-5.7 0-3.1 2.5-5.7 5.6-5.7 3.1 0 5.7 2.6 5.7 5.7 0 3.1-2.6 5.7-5.7 5.7z"/>
						<path id="&lt;Path&gt;" class="s2" d="m441.7 307c-2.7 0-4.8-2.1-4.8-4.8 0-2.7 2.1-4.8 4.8-4.8 2.7 0 4.8 2.1 4.8 4.8 0 2.7-2.1 4.8-4.8 4.8z"/>
						<path id="&lt;Path&gt;" class="s2" d="m441.7 244.2c-2.2 0-4-1.8-4-4 0-2.2 1.8-4 4-4 2.2 0 4 1.8 4 4 0 2.2-1.8 4-4 4z"/>
						<path id="&lt;Path&gt;" class="s2" d="m441.7 181.4c-1.7 0-3.1-1.5-3.1-3.2 0-1.8 1.4-3.2 3.1-3.2 1.8 0 3.2 1.4 3.2 3.2 0 1.7-1.4 3.2-3.2 3.2z"/>
						<path id="&lt;Path&gt;" class="s2" d="m441.7 118.5c-1.3 0-2.3-1-2.3-2.3 0-1.3 1-2.3 2.3-2.3 1.3 0 2.3 1 2.3 2.3 0 1.3-1 2.3-2.3 2.3z"/>
						<path id="&lt;Path&gt;" class="s2" d="m441.7 55.7c-0.8 0-1.5-0.7-1.5-1.5 0-0.8 0.7-1.5 1.5-1.5 0.8 0 1.5 0.7 1.5 1.5 0 0.8-0.7 1.5-1.5 1.5z"/>
						<path id="&lt;Path&gt;" class="s2" d="m441.7-7.1c-0.3 0-0.6-0.3-0.6-0.7 0-0.4 0.3-0.7 0.6-0.7 0.4 0 0.7 0.3 0.7 0.7 0 0.4-0.3 0.7-0.7 0.7z"/>
					</g>
				</g>
				<g id="&lt;Group&gt;" style="opacity: .3;mix-blend-mode: screen">
					<g id="&lt;Group&gt;">
						<path id="&lt;Path&gt;" class="s2" d="m501.7 998.2c-7.7 0-14-6.3-14-14 0-7.7 6.3-14 14-14 7.7 0 14 6.3 14 14 0 7.7-6.3 14-14 14z"/>
						<path id="&lt;Path&gt;" class="s2" d="m501.7 935.4c-7.3 0-13.2-5.9-13.2-13.2 0-7.3 5.9-13.2 13.2-13.2 7.3 0 13.2 5.9 13.2 13.2 0 7.3-5.9 13.2-13.2 13.2z"/>
						<path id="&lt;Path&gt;" class="s2" d="m501.7 872.5c-6.8 0-12.3-5.5-12.3-12.3 0-6.8 5.5-12.3 12.3-12.3 6.8 0 12.3 5.5 12.3 12.3 0 6.8-5.5 12.3-12.3 12.3z"/>
						<path id="&lt;Path&gt;" class="s2" d="m501.7 809.7c-6.3 0-11.5-5.2-11.5-11.5 0-6.4 5.2-11.5 11.5-11.5 6.4 0 11.5 5.1 11.5 11.5 0 6.3-5.1 11.5-11.5 11.5z"/>
						<path id="&lt;Path&gt;" class="s2" d="m501.7 746.9c-5.9 0-10.7-4.8-10.7-10.7 0-5.9 4.8-10.7 10.7-10.7 5.9 0 10.7 4.8 10.7 10.7 0 5.9-4.8 10.7-10.7 10.7z"/>
						<path id="&lt;Path&gt;" class="s2" d="m501.7 684c-5.4 0-9.8-4.4-9.8-9.8 0-5.4 4.4-9.8 9.8-9.8 5.4 0 9.8 4.4 9.8 9.8 0 5.4-4.4 9.8-9.8 9.8z"/>
						<path id="&lt;Path&gt;" class="s2" d="m501.7 621.2c-5 0-9-4-9-9 0-5 4-9 9-9 5 0 9 4 9 9 0 5-4 9-9 9z"/>
						<path id="&lt;Path&gt;" class="s2" d="m501.7 558.4c-4.5 0-8.1-3.7-8.1-8.2 0-4.5 3.6-8.2 8.1-8.2 4.5 0 8.2 3.7 8.2 8.2 0 4.5-3.7 8.2-8.2 8.2z"/>
						<path id="&lt;Path&gt;" class="s2" d="m501.7 495.5c-4 0-7.3-3.3-7.3-7.3 0-4.1 3.3-7.3 7.3-7.3 4.1 0 7.3 3.2 7.3 7.3 0 4-3.2 7.3-7.3 7.3z"/>
						<path id="&lt;Path&gt;" class="s2" d="m501.7 432.7c-3.6 0-6.5-2.9-6.5-6.5 0-3.6 2.9-6.5 6.5-6.5 3.6 0 6.5 2.9 6.5 6.5 0 3.6-2.9 6.5-6.5 6.5z"/>
						<path id="&lt;Path&gt;" class="s2" d="m501.7 369.9c-3.1 0-5.6-2.6-5.6-5.7 0-3.1 2.5-5.7 5.6-5.7 3.1 0 5.7 2.6 5.7 5.7 0 3.1-2.6 5.7-5.7 5.7z"/>
						<path id="&lt;Path&gt;" class="s2" d="m501.7 307c-2.7 0-4.8-2.1-4.8-4.8 0-2.7 2.1-4.8 4.8-4.8 2.7 0 4.8 2.1 4.8 4.8 0 2.7-2.1 4.8-4.8 4.8z"/>
						<path id="&lt;Path&gt;" class="s2" d="m501.7 244.2c-2.2 0-4-1.8-4-4 0-2.2 1.8-4 4-4 2.2 0 4 1.8 4 4 0 2.2-1.8 4-4 4z"/>
						<path id="&lt;Path&gt;" class="s2" d="m501.7 181.4c-1.7 0-3.1-1.5-3.1-3.2 0-1.8 1.4-3.2 3.1-3.2 1.8 0 3.2 1.4 3.2 3.2 0 1.7-1.4 3.2-3.2 3.2z"/>
						<path id="&lt;Path&gt;" class="s2" d="m501.7 118.5c-1.3 0-2.3-1-2.3-2.3 0-1.3 1-2.3 2.3-2.3 1.3 0 2.3 1 2.3 2.3 0 1.3-1 2.3-2.3 2.3z"/>
						<path id="&lt;Path&gt;" class="s2" d="m501.7 55.7c-0.8 0-1.5-0.7-1.5-1.5 0-0.8 0.7-1.5 1.5-1.5 0.8 0 1.5 0.7 1.5 1.5 0 0.8-0.7 1.5-1.5 1.5z"/>
						<path id="&lt;Path&gt;" class="s2" d="m501.7-7.1c-0.3 0-0.6-0.3-0.6-0.7 0-0.4 0.3-0.7 0.6-0.7 0.4 0 0.7 0.3 0.7 0.7 0 0.4-0.3 0.7-0.7 0.7z"/>
					</g>
				</g>
				<g id="&lt;Group&gt;" style="opacity: .3;mix-blend-mode: screen">
					<g id="&lt;Group&gt;">
						<path id="&lt;Path&gt;" class="s2" d="m561.7 998.2c-7.7 0-14-6.3-14-14 0-7.7 6.3-14 14-14 7.7 0 14 6.3 14 14 0 7.7-6.3 14-14 14z"/>
						<path id="&lt;Path&gt;" class="s2" d="m561.7 935.4c-7.3 0-13.2-5.9-13.2-13.2 0-7.3 5.9-13.2 13.2-13.2 7.3 0 13.2 5.9 13.2 13.2 0 7.3-5.9 13.2-13.2 13.2z"/>
						<path id="&lt;Path&gt;" class="s2" d="m561.7 872.5c-6.8 0-12.3-5.5-12.3-12.3 0-6.8 5.5-12.3 12.3-12.3 6.8 0 12.3 5.5 12.3 12.3 0 6.8-5.5 12.3-12.3 12.3z"/>
						<path id="&lt;Path&gt;" class="s2" d="m561.7 809.7c-6.3 0-11.5-5.2-11.5-11.5 0-6.4 5.2-11.5 11.5-11.5 6.4 0 11.5 5.1 11.5 11.5 0 6.3-5.1 11.5-11.5 11.5z"/>
						<path id="&lt;Path&gt;" class="s2" d="m561.7 746.9c-5.9 0-10.7-4.8-10.7-10.7 0-5.9 4.8-10.7 10.7-10.7 5.9 0 10.7 4.8 10.7 10.7 0 5.9-4.8 10.7-10.7 10.7z"/>
						<path id="&lt;Path&gt;" class="s2" d="m561.7 684c-5.4 0-9.8-4.4-9.8-9.8 0-5.4 4.4-9.8 9.8-9.8 5.4 0 9.8 4.4 9.8 9.8 0 5.4-4.4 9.8-9.8 9.8z"/>
						<path id="&lt;Path&gt;" class="s2" d="m561.7 621.2c-5 0-9-4-9-9 0-5 4-9 9-9 5 0 9 4 9 9 0 5-4 9-9 9z"/>
						<path id="&lt;Path&gt;" class="s2" d="m561.7 558.4c-4.5 0-8.1-3.7-8.1-8.2 0-4.5 3.6-8.2 8.1-8.2 4.5 0 8.2 3.7 8.2 8.2 0 4.5-3.7 8.2-8.2 8.2z"/>
						<path id="&lt;Path&gt;" class="s2" d="m561.7 495.5c-4 0-7.3-3.3-7.3-7.3 0-4.1 3.3-7.3 7.3-7.3 4.1 0 7.3 3.2 7.3 7.3 0 4-3.2 7.3-7.3 7.3z"/>
						<path id="&lt;Path&gt;" class="s2" d="m561.7 432.7c-3.6 0-6.5-2.9-6.5-6.5 0-3.6 2.9-6.5 6.5-6.5 3.6 0 6.5 2.9 6.5 6.5 0 3.6-2.9 6.5-6.5 6.5z"/>
						<path id="&lt;Path&gt;" class="s2" d="m561.7 369.9c-3.1 0-5.6-2.6-5.6-5.7 0-3.1 2.5-5.7 5.6-5.7 3.1 0 5.7 2.6 5.7 5.7 0 3.1-2.6 5.7-5.7 5.7z"/>
						<path id="&lt;Path&gt;" class="s2" d="m561.7 307c-2.7 0-4.8-2.1-4.8-4.8 0-2.7 2.1-4.8 4.8-4.8 2.7 0 4.8 2.1 4.8 4.8 0 2.7-2.1 4.8-4.8 4.8z"/>
						<path id="&lt;Path&gt;" class="s2" d="m561.7 244.2c-2.2 0-4-1.8-4-4 0-2.2 1.8-4 4-4 2.2 0 4 1.8 4 4 0 2.2-1.8 4-4 4z"/>
						<path id="&lt;Path&gt;" class="s2" d="m561.7 181.4c-1.7 0-3.1-1.5-3.1-3.2 0-1.8 1.4-3.2 3.1-3.2 1.8 0 3.2 1.4 3.2 3.2 0 1.7-1.4 3.2-3.2 3.2z"/>
						<path id="&lt;Path&gt;" class="s2" d="m561.7 118.5c-1.3 0-2.3-1-2.3-2.3 0-1.3 1-2.3 2.3-2.3 1.3 0 2.3 1 2.3 2.3 0 1.3-1 2.3-2.3 2.3z"/>
						<path id="&lt;Path&gt;" class="s2" d="m561.7 55.7c-0.8 0-1.5-0.7-1.5-1.5 0-0.8 0.7-1.5 1.5-1.5 0.8 0 1.5 0.7 1.5 1.5 0 0.8-0.7 1.5-1.5 1.5z"/>
						<path id="&lt;Path&gt;" class="s2" d="m561.7-7.1c-0.3 0-0.6-0.3-0.6-0.7 0-0.4 0.3-0.7 0.6-0.7 0.4 0 0.7 0.3 0.7 0.7 0 0.4-0.3 0.7-0.7 0.7z"/>
					</g>
				</g>
				<g id="&lt;Group&gt;" style="opacity: .3;mix-blend-mode: screen">
					<g id="&lt;Group&gt;">
						<path id="&lt;Path&gt;" class="s2" d="m621.7 998.2c-7.7 0-14-6.3-14-14 0-7.7 6.3-14 14-14 7.7 0 14 6.3 14 14 0 7.7-6.3 14-14 14z"/>
						<path id="&lt;Path&gt;" class="s2" d="m621.7 935.4c-7.3 0-13.2-5.9-13.2-13.2 0-7.3 5.9-13.2 13.2-13.2 7.3 0 13.2 5.9 13.2 13.2 0 7.3-5.9 13.2-13.2 13.2z"/>
						<path id="&lt;Path&gt;" class="s2" d="m621.7 872.5c-6.8 0-12.3-5.5-12.3-12.3 0-6.8 5.5-12.3 12.3-12.3 6.8 0 12.3 5.5 12.3 12.3 0 6.8-5.5 12.3-12.3 12.3z"/>
						<path id="&lt;Path&gt;" class="s2" d="m621.7 809.7c-6.3 0-11.5-5.2-11.5-11.5 0-6.4 5.2-11.5 11.5-11.5 6.4 0 11.5 5.1 11.5 11.5 0 6.3-5.1 11.5-11.5 11.5z"/>
						<path id="&lt;Path&gt;" class="s2" d="m621.7 746.9c-5.9 0-10.7-4.8-10.7-10.7 0-5.9 4.8-10.7 10.7-10.7 5.9 0 10.7 4.8 10.7 10.7 0 5.9-4.8 10.7-10.7 10.7z"/>
						<path id="&lt;Path&gt;" class="s2" d="m621.7 684c-5.4 0-9.8-4.4-9.8-9.8 0-5.4 4.4-9.8 9.8-9.8 5.4 0 9.8 4.4 9.8 9.8 0 5.4-4.4 9.8-9.8 9.8z"/>
						<path id="&lt;Path&gt;" class="s2" d="m621.7 621.2c-5 0-9-4-9-9 0-5 4-9 9-9 5 0 9 4 9 9 0 5-4 9-9 9z"/>
						<path id="&lt;Path&gt;" class="s2" d="m621.7 558.4c-4.5 0-8.1-3.7-8.1-8.2 0-4.5 3.6-8.2 8.1-8.2 4.5 0 8.2 3.7 8.2 8.2 0 4.5-3.7 8.2-8.2 8.2z"/>
						<path id="&lt;Path&gt;" class="s2" d="m621.7 495.5c-4 0-7.3-3.3-7.3-7.3 0-4.1 3.3-7.3 7.3-7.3 4.1 0 7.3 3.2 7.3 7.3 0 4-3.2 7.3-7.3 7.3z"/>
						<path id="&lt;Path&gt;" class="s2" d="m621.7 432.7c-3.6 0-6.5-2.9-6.5-6.5 0-3.6 2.9-6.5 6.5-6.5 3.6 0 6.5 2.9 6.5 6.5 0 3.6-2.9 6.5-6.5 6.5z"/>
						<path id="&lt;Path&gt;" class="s2" d="m621.7 369.9c-3.1 0-5.6-2.6-5.6-5.7 0-3.1 2.5-5.7 5.6-5.7 3.1 0 5.7 2.6 5.7 5.7 0 3.1-2.6 5.7-5.7 5.7z"/>
						<path id="&lt;Path&gt;" class="s2" d="m621.7 307c-2.7 0-4.8-2.1-4.8-4.8 0-2.7 2.1-4.8 4.8-4.8 2.7 0 4.8 2.1 4.8 4.8 0 2.7-2.1 4.8-4.8 4.8z"/>
						<path id="&lt;Path&gt;" class="s2" d="m621.7 244.2c-2.2 0-4-1.8-4-4 0-2.2 1.8-4 4-4 2.2 0 4 1.8 4 4 0 2.2-1.8 4-4 4z"/>
						<path id="&lt;Path&gt;" class="s2" d="m621.7 181.4c-1.7 0-3.1-1.5-3.1-3.2 0-1.8 1.4-3.2 3.1-3.2 1.8 0 3.2 1.4 3.2 3.2 0 1.7-1.4 3.2-3.2 3.2z"/>
						<path id="&lt;Path&gt;" class="s2" d="m621.7 118.5c-1.3 0-2.3-1-2.3-2.3 0-1.3 1-2.3 2.3-2.3 1.3 0 2.3 1 2.3 2.3 0 1.3-1 2.3-2.3 2.3z"/>
						<path id="&lt;Path&gt;" class="s2" d="m621.7 55.7c-0.8 0-1.5-0.7-1.5-1.5 0-0.8 0.7-1.5 1.5-1.5 0.8 0 1.5 0.7 1.5 1.5 0 0.8-0.7 1.5-1.5 1.5z"/>
						<path id="&lt;Path&gt;" class="s2" d="m621.7-7.1c-0.3 0-0.6-0.3-0.6-0.7 0-0.4 0.3-0.7 0.6-0.7 0.4 0 0.7 0.3 0.7 0.7 0 0.4-0.3 0.7-0.7 0.7z"/>
					</g>
				</g>
				<g id="&lt;Group&gt;" style="opacity: .3;mix-blend-mode: screen">
					<g id="&lt;Group&gt;">
						<path id="&lt;Path&gt;" class="s2" d="m681.7 998.2c-7.7 0-14-6.3-14-14 0-7.7 6.3-14 14-14 7.7 0 14 6.3 14 14 0 7.7-6.3 14-14 14z"/>
						<path id="&lt;Path&gt;" class="s2" d="m681.7 935.4c-7.3 0-13.2-5.9-13.2-13.2 0-7.3 5.9-13.2 13.2-13.2 7.3 0 13.2 5.9 13.2 13.2 0 7.3-5.9 13.2-13.2 13.2z"/>
						<path id="&lt;Path&gt;" class="s2" d="m681.7 872.5c-6.8 0-12.3-5.5-12.3-12.3 0-6.8 5.5-12.3 12.3-12.3 6.8 0 12.3 5.5 12.3 12.3 0 6.8-5.5 12.3-12.3 12.3z"/>
						<path id="&lt;Path&gt;" class="s2" d="m681.7 809.7c-6.3 0-11.5-5.2-11.5-11.5 0-6.4 5.2-11.5 11.5-11.5 6.4 0 11.5 5.1 11.5 11.5 0 6.3-5.1 11.5-11.5 11.5z"/>
						<path id="&lt;Path&gt;" class="s2" d="m681.7 746.9c-5.9 0-10.7-4.8-10.7-10.7 0-5.9 4.8-10.7 10.7-10.7 5.9 0 10.7 4.8 10.7 10.7 0 5.9-4.8 10.7-10.7 10.7z"/>
						<path id="&lt;Path&gt;" class="s2" d="m681.7 684c-5.4 0-9.8-4.4-9.8-9.8 0-5.4 4.4-9.8 9.8-9.8 5.4 0 9.8 4.4 9.8 9.8 0 5.4-4.4 9.8-9.8 9.8z"/>
						<path id="&lt;Path&gt;" class="s2" d="m681.7 621.2c-5 0-9-4-9-9 0-5 4-9 9-9 5 0 9 4 9 9 0 5-4 9-9 9z"/>
						<path id="&lt;Path&gt;" class="s2" d="m681.7 558.4c-4.5 0-8.1-3.7-8.1-8.2 0-4.5 3.6-8.2 8.1-8.2 4.5 0 8.2 3.7 8.2 8.2 0 4.5-3.7 8.2-8.2 8.2z"/>
						<path id="&lt;Path&gt;" class="s2" d="m681.7 495.5c-4 0-7.3-3.3-7.3-7.3 0-4.1 3.3-7.3 7.3-7.3 4.1 0 7.3 3.2 7.3 7.3 0 4-3.2 7.3-7.3 7.3z"/>
						<path id="&lt;Path&gt;" class="s2" d="m681.7 432.7c-3.6 0-6.5-2.9-6.5-6.5 0-3.6 2.9-6.5 6.5-6.5 3.6 0 6.5 2.9 6.5 6.5 0 3.6-2.9 6.5-6.5 6.5z"/>
						<path id="&lt;Path&gt;" class="s2" d="m681.7 369.9c-3.1 0-5.6-2.6-5.6-5.7 0-3.1 2.5-5.7 5.6-5.7 3.1 0 5.7 2.6 5.7 5.7 0 3.1-2.6 5.7-5.7 5.7z"/>
						<path id="&lt;Path&gt;" class="s2" d="m681.7 307c-2.7 0-4.8-2.1-4.8-4.8 0-2.7 2.1-4.8 4.8-4.8 2.7 0 4.8 2.1 4.8 4.8 0 2.7-2.1 4.8-4.8 4.8z"/>
						<path id="&lt;Path&gt;" class="s2" d="m681.7 244.2c-2.2 0-4-1.8-4-4 0-2.2 1.8-4 4-4 2.2 0 4 1.8 4 4 0 2.2-1.8 4-4 4z"/>
						<path id="&lt;Path&gt;" class="s2" d="m681.7 181.4c-1.7 0-3.1-1.5-3.1-3.2 0-1.8 1.4-3.2 3.1-3.2 1.8 0 3.2 1.4 3.2 3.2 0 1.7-1.4 3.2-3.2 3.2z"/>
						<path id="&lt;Path&gt;" class="s2" d="m681.7 118.5c-1.3 0-2.3-1-2.3-2.3 0-1.3 1-2.3 2.3-2.3 1.3 0 2.3 1 2.3 2.3 0 1.3-1 2.3-2.3 2.3z"/>
						<path id="&lt;Path&gt;" class="s2" d="m681.7 55.7c-0.8 0-1.5-0.7-1.5-1.5 0-0.8 0.7-1.5 1.5-1.5 0.8 0 1.5 0.7 1.5 1.5 0 0.8-0.7 1.5-1.5 1.5z"/>
						<path id="&lt;Path&gt;" class="s2" d="m681.7-7.1c-0.3 0-0.6-0.3-0.6-0.7 0-0.4 0.3-0.7 0.6-0.7 0.4 0 0.7 0.3 0.7 0.7 0 0.4-0.3 0.7-0.7 0.7z"/>
					</g>
				</g>
				<g id="&lt;Group&gt;" style="opacity: .3;mix-blend-mode: screen">
					<g id="&lt;Group&gt;">
						<path id="&lt;Path&gt;" class="s2" d="m741.7 998.2c-7.7 0-14-6.3-14-14 0-7.7 6.3-14 14-14 7.7 0 14 6.3 14 14 0 7.7-6.3 14-14 14z"/>
						<path id="&lt;Path&gt;" class="s2" d="m741.7 935.4c-7.3 0-13.2-5.9-13.2-13.2 0-7.3 5.9-13.2 13.2-13.2 7.3 0 13.2 5.9 13.2 13.2 0 7.3-5.9 13.2-13.2 13.2z"/>
						<path id="&lt;Path&gt;" class="s2" d="m741.7 872.5c-6.8 0-12.3-5.5-12.3-12.3 0-6.8 5.5-12.3 12.3-12.3 6.8 0 12.3 5.5 12.3 12.3 0 6.8-5.5 12.3-12.3 12.3z"/>
						<path id="&lt;Path&gt;" class="s2" d="m741.7 809.7c-6.3 0-11.5-5.2-11.5-11.5 0-6.4 5.2-11.5 11.5-11.5 6.4 0 11.5 5.1 11.5 11.5 0 6.3-5.1 11.5-11.5 11.5z"/>
						<path id="&lt;Path&gt;" class="s2" d="m741.7 746.9c-5.9 0-10.7-4.8-10.7-10.7 0-5.9 4.8-10.7 10.7-10.7 5.9 0 10.7 4.8 10.7 10.7 0 5.9-4.8 10.7-10.7 10.7z"/>
						<path id="&lt;Path&gt;" class="s2" d="m741.7 684c-5.4 0-9.8-4.4-9.8-9.8 0-5.4 4.4-9.8 9.8-9.8 5.4 0 9.8 4.4 9.8 9.8 0 5.4-4.4 9.8-9.8 9.8z"/>
						<path id="&lt;Path&gt;" class="s2" d="m741.7 621.2c-5 0-9-4-9-9 0-5 4-9 9-9 5 0 9 4 9 9 0 5-4 9-9 9z"/>
						<path id="&lt;Path&gt;" class="s2" d="m741.7 558.4c-4.5 0-8.1-3.7-8.1-8.2 0-4.5 3.6-8.2 8.1-8.2 4.5 0 8.2 3.7 8.2 8.2 0 4.5-3.7 8.2-8.2 8.2z"/>
						<path id="&lt;Path&gt;" class="s2" d="m741.7 495.5c-4 0-7.3-3.3-7.3-7.3 0-4.1 3.3-7.3 7.3-7.3 4.1 0 7.3 3.2 7.3 7.3 0 4-3.2 7.3-7.3 7.3z"/>
						<path id="&lt;Path&gt;" class="s2" d="m741.7 432.7c-3.6 0-6.5-2.9-6.5-6.5 0-3.6 2.9-6.5 6.5-6.5 3.6 0 6.5 2.9 6.5 6.5 0 3.6-2.9 6.5-6.5 6.5z"/>
						<path id="&lt;Path&gt;" class="s2" d="m741.7 369.9c-3.1 0-5.6-2.6-5.6-5.7 0-3.1 2.5-5.7 5.6-5.7 3.1 0 5.7 2.6 5.7 5.7 0 3.1-2.6 5.7-5.7 5.7z"/>
						<path id="&lt;Path&gt;" class="s2" d="m741.7 307c-2.7 0-4.8-2.1-4.8-4.8 0-2.7 2.1-4.8 4.8-4.8 2.7 0 4.8 2.1 4.8 4.8 0 2.7-2.1 4.8-4.8 4.8z"/>
						<path id="&lt;Path&gt;" class="s2" d="m741.7 244.2c-2.2 0-4-1.8-4-4 0-2.2 1.8-4 4-4 2.2 0 4 1.8 4 4 0 2.2-1.8 4-4 4z"/>
						<path id="&lt;Path&gt;" class="s2" d="m741.7 181.4c-1.7 0-3.1-1.5-3.1-3.2 0-1.8 1.4-3.2 3.1-3.2 1.8 0 3.2 1.4 3.2 3.2 0 1.7-1.4 3.2-3.2 3.2z"/>
						<path id="&lt;Path&gt;" class="s2" d="m741.7 118.5c-1.3 0-2.3-1-2.3-2.3 0-1.3 1-2.3 2.3-2.3 1.3 0 2.3 1 2.3 2.3 0 1.3-1 2.3-2.3 2.3z"/>
						<path id="&lt;Path&gt;" class="s2" d="m741.7 55.7c-0.8 0-1.5-0.7-1.5-1.5 0-0.8 0.7-1.5 1.5-1.5 0.8 0 1.5 0.7 1.5 1.5 0 0.8-0.7 1.5-1.5 1.5z"/>
						<path id="&lt;Path&gt;" class="s2" d="m741.7-7.1c-0.3 0-0.6-0.3-0.6-0.7 0-0.4 0.3-0.7 0.6-0.7 0.4 0 0.7 0.3 0.7 0.7 0 0.4-0.3 0.7-0.7 0.7z"/>
					</g>
				</g>
				<g id="&lt;Group&gt;" style="opacity: .3;mix-blend-mode: screen">
					<g id="&lt;Group&gt;">
						<path id="&lt;Path&gt;" class="s2" d="m801.7 998.2c-7.7 0-14-6.3-14-14 0-7.7 6.3-14 14-14 7.7 0 14 6.3 14 14 0 7.7-6.3 14-14 14z"/>
						<path id="&lt;Path&gt;" class="s2" d="m801.7 935.4c-7.3 0-13.2-5.9-13.2-13.2 0-7.3 5.9-13.2 13.2-13.2 7.3 0 13.2 5.9 13.2 13.2 0 7.3-5.9 13.2-13.2 13.2z"/>
						<path id="&lt;Path&gt;" class="s2" d="m801.7 872.5c-6.8 0-12.3-5.5-12.3-12.3 0-6.8 5.5-12.3 12.3-12.3 6.8 0 12.3 5.5 12.3 12.3 0 6.8-5.5 12.3-12.3 12.3z"/>
						<path id="&lt;Path&gt;" class="s2" d="m801.7 809.7c-6.3 0-11.5-5.2-11.5-11.5 0-6.4 5.2-11.5 11.5-11.5 6.4 0 11.5 5.1 11.5 11.5 0 6.3-5.1 11.5-11.5 11.5z"/>
						<path id="&lt;Path&gt;" class="s2" d="m801.7 746.9c-5.9 0-10.7-4.8-10.7-10.7 0-5.9 4.8-10.7 10.7-10.7 5.9 0 10.7 4.8 10.7 10.7 0 5.9-4.8 10.7-10.7 10.7z"/>
						<path id="&lt;Path&gt;" class="s2" d="m801.7 684c-5.4 0-9.8-4.4-9.8-9.8 0-5.4 4.4-9.8 9.8-9.8 5.4 0 9.8 4.4 9.8 9.8 0 5.4-4.4 9.8-9.8 9.8z"/>
						<path id="&lt;Path&gt;" class="s2" d="m801.7 621.2c-5 0-9-4-9-9 0-5 4-9 9-9 5 0 9 4 9 9 0 5-4 9-9 9z"/>
						<path id="&lt;Path&gt;" class="s2" d="m801.7 558.4c-4.5 0-8.1-3.7-8.1-8.2 0-4.5 3.6-8.2 8.1-8.2 4.5 0 8.2 3.7 8.2 8.2 0 4.5-3.7 8.2-8.2 8.2z"/>
						<path id="&lt;Path&gt;" class="s2" d="m801.7 495.5c-4 0-7.3-3.3-7.3-7.3 0-4.1 3.3-7.3 7.3-7.3 4.1 0 7.3 3.2 7.3 7.3 0 4-3.2 7.3-7.3 7.3z"/>
						<path id="&lt;Path&gt;" class="s2" d="m801.7 432.7c-3.6 0-6.5-2.9-6.5-6.5 0-3.6 2.9-6.5 6.5-6.5 3.6 0 6.5 2.9 6.5 6.5 0 3.6-2.9 6.5-6.5 6.5z"/>
						<path id="&lt;Path&gt;" class="s2" d="m801.7 369.9c-3.1 0-5.6-2.6-5.6-5.7 0-3.1 2.5-5.7 5.6-5.7 3.1 0 5.7 2.6 5.7 5.7 0 3.1-2.6 5.7-5.7 5.7z"/>
						<path id="&lt;Path&gt;" class="s2" d="m801.7 307c-2.7 0-4.8-2.1-4.8-4.8 0-2.7 2.1-4.8 4.8-4.8 2.7 0 4.8 2.1 4.8 4.8 0 2.7-2.1 4.8-4.8 4.8z"/>
						<path id="&lt;Path&gt;" class="s2" d="m801.7 244.2c-2.2 0-4-1.8-4-4 0-2.2 1.8-4 4-4 2.2 0 4 1.8 4 4 0 2.2-1.8 4-4 4z"/>
						<path id="&lt;Path&gt;" class="s2" d="m801.7 181.4c-1.7 0-3.1-1.5-3.1-3.2 0-1.8 1.4-3.2 3.1-3.2 1.8 0 3.2 1.4 3.2 3.2 0 1.7-1.4 3.2-3.2 3.2z"/>
						<path id="&lt;Path&gt;" class="s2" d="m801.7 118.5c-1.3 0-2.3-1-2.3-2.3 0-1.3 1-2.3 2.3-2.3 1.3 0 2.3 1 2.3 2.3 0 1.3-1 2.3-2.3 2.3z"/>
						<path id="&lt;Path&gt;" class="s2" d="m801.7 55.7c-0.8 0-1.5-0.7-1.5-1.5 0-0.8 0.7-1.5 1.5-1.5 0.8 0 1.5 0.7 1.5 1.5 0 0.8-0.7 1.5-1.5 1.5z"/>
						<path id="&lt;Path&gt;" class="s2" d="m801.7-7.1c-0.3 0-0.6-0.3-0.6-0.7 0-0.4 0.3-0.7 0.6-0.7 0.4 0 0.7 0.3 0.7 0.7 0 0.4-0.3 0.7-0.7 0.7z"/>
					</g>
				</g>
				<g id="&lt;Group&gt;" style="opacity: .3;mix-blend-mode: screen">
					<g id="&lt;Group&gt;">
						<path id="&lt;Path&gt;" class="s2" d="m861.7 998.2c-7.7 0-14-6.3-14-14 0-7.7 6.3-14 14-14 7.7 0 14 6.3 14 14 0 7.7-6.3 14-14 14z"/>
						<path id="&lt;Path&gt;" class="s2" d="m861.7 935.4c-7.3 0-13.2-5.9-13.2-13.2 0-7.3 5.9-13.2 13.2-13.2 7.3 0 13.2 5.9 13.2 13.2 0 7.3-5.9 13.2-13.2 13.2z"/>
						<path id="&lt;Path&gt;" class="s2" d="m861.7 872.5c-6.8 0-12.3-5.5-12.3-12.3 0-6.8 5.5-12.3 12.3-12.3 6.8 0 12.3 5.5 12.3 12.3 0 6.8-5.5 12.3-12.3 12.3z"/>
						<path id="&lt;Path&gt;" class="s2" d="m861.7 809.7c-6.3 0-11.5-5.2-11.5-11.5 0-6.4 5.2-11.5 11.5-11.5 6.4 0 11.5 5.1 11.5 11.5 0 6.3-5.1 11.5-11.5 11.5z"/>
						<path id="&lt;Path&gt;" class="s2" d="m861.7 746.9c-5.9 0-10.7-4.8-10.7-10.7 0-5.9 4.8-10.7 10.7-10.7 5.9 0 10.7 4.8 10.7 10.7 0 5.9-4.8 10.7-10.7 10.7z"/>
						<path id="&lt;Path&gt;" class="s2" d="m861.7 684c-5.4 0-9.8-4.4-9.8-9.8 0-5.4 4.4-9.8 9.8-9.8 5.4 0 9.8 4.4 9.8 9.8 0 5.4-4.4 9.8-9.8 9.8z"/>
						<path id="&lt;Path&gt;" class="s2" d="m861.7 621.2c-5 0-9-4-9-9 0-5 4-9 9-9 5 0 9 4 9 9 0 5-4 9-9 9z"/>
						<path id="&lt;Path&gt;" class="s2" d="m861.7 558.4c-4.5 0-8.1-3.7-8.1-8.2 0-4.5 3.6-8.2 8.1-8.2 4.5 0 8.2 3.7 8.2 8.2 0 4.5-3.7 8.2-8.2 8.2z"/>
						<path id="&lt;Path&gt;" class="s2" d="m861.7 495.5c-4 0-7.3-3.3-7.3-7.3 0-4.1 3.3-7.3 7.3-7.3 4.1 0 7.3 3.2 7.3 7.3 0 4-3.2 7.3-7.3 7.3z"/>
						<path id="&lt;Path&gt;" class="s2" d="m861.7 432.7c-3.6 0-6.5-2.9-6.5-6.5 0-3.6 2.9-6.5 6.5-6.5 3.6 0 6.5 2.9 6.5 6.5 0 3.6-2.9 6.5-6.5 6.5z"/>
						<path id="&lt;Path&gt;" class="s2" d="m861.7 369.9c-3.1 0-5.6-2.6-5.6-5.7 0-3.1 2.5-5.7 5.6-5.7 3.1 0 5.7 2.6 5.7 5.7 0 3.1-2.6 5.7-5.7 5.7z"/>
						<path id="&lt;Path&gt;" class="s2" d="m861.7 307c-2.7 0-4.8-2.1-4.8-4.8 0-2.7 2.1-4.8 4.8-4.8 2.7 0 4.8 2.1 4.8 4.8 0 2.7-2.1 4.8-4.8 4.8z"/>
						<path id="&lt;Path&gt;" class="s2" d="m861.7 244.2c-2.2 0-4-1.8-4-4 0-2.2 1.8-4 4-4 2.2 0 4 1.8 4 4 0 2.2-1.8 4-4 4z"/>
						<path id="&lt;Path&gt;" class="s2" d="m861.7 181.4c-1.7 0-3.1-1.5-3.1-3.2 0-1.8 1.4-3.2 3.1-3.2 1.8 0 3.2 1.4 3.2 3.2 0 1.7-1.4 3.2-3.2 3.2z"/>
						<path id="&lt;Path&gt;" class="s2" d="m861.7 118.5c-1.3 0-2.3-1-2.3-2.3 0-1.3 1-2.3 2.3-2.3 1.3 0 2.3 1 2.3 2.3 0 1.3-1 2.3-2.3 2.3z"/>
						<path id="&lt;Path&gt;" class="s2" d="m861.7 55.7c-0.8 0-1.5-0.7-1.5-1.5 0-0.8 0.7-1.5 1.5-1.5 0.8 0 1.5 0.7 1.5 1.5 0 0.8-0.7 1.5-1.5 1.5z"/>
						<path id="&lt;Path&gt;" class="s2" d="m861.7-7.1c-0.3 0-0.6-0.3-0.6-0.7 0-0.4 0.3-0.7 0.6-0.7 0.4 0 0.7 0.3 0.7 0.7 0 0.4-0.3 0.7-0.7 0.7z"/>
					</g>
				</g>
				<g id="&lt;Group&gt;" style="opacity: .3;mix-blend-mode: screen">
					<g id="&lt;Group&gt;">
						<path id="&lt;Path&gt;" class="s2" d="m921.7 998.2c-7.7 0-14-6.3-14-14 0-7.7 6.3-14 14-14 7.7 0 14 6.3 14 14 0 7.7-6.3 14-14 14z"/>
						<path id="&lt;Path&gt;" class="s2" d="m921.7 935.4c-7.3 0-13.2-5.9-13.2-13.2 0-7.3 5.9-13.2 13.2-13.2 7.3 0 13.2 5.9 13.2 13.2 0 7.3-5.9 13.2-13.2 13.2z"/>
						<path id="&lt;Path&gt;" class="s2" d="m921.7 872.5c-6.8 0-12.3-5.5-12.3-12.3 0-6.8 5.5-12.3 12.3-12.3 6.8 0 12.3 5.5 12.3 12.3 0 6.8-5.5 12.3-12.3 12.3z"/>
						<path id="&lt;Path&gt;" class="s2" d="m921.7 809.7c-6.3 0-11.5-5.2-11.5-11.5 0-6.4 5.2-11.5 11.5-11.5 6.4 0 11.5 5.1 11.5 11.5 0 6.3-5.1 11.5-11.5 11.5z"/>
						<path id="&lt;Path&gt;" class="s2" d="m921.7 746.9c-5.9 0-10.7-4.8-10.7-10.7 0-5.9 4.8-10.7 10.7-10.7 5.9 0 10.7 4.8 10.7 10.7 0 5.9-4.8 10.7-10.7 10.7z"/>
						<path id="&lt;Path&gt;" class="s2" d="m921.7 684c-5.4 0-9.8-4.4-9.8-9.8 0-5.4 4.4-9.8 9.8-9.8 5.4 0 9.8 4.4 9.8 9.8 0 5.4-4.4 9.8-9.8 9.8z"/>
						<path id="&lt;Path&gt;" class="s2" d="m921.7 621.2c-5 0-9-4-9-9 0-5 4-9 9-9 5 0 9 4 9 9 0 5-4 9-9 9z"/>
						<path id="&lt;Path&gt;" class="s2" d="m921.7 558.4c-4.5 0-8.1-3.7-8.1-8.2 0-4.5 3.6-8.2 8.1-8.2 4.5 0 8.2 3.7 8.2 8.2 0 4.5-3.7 8.2-8.2 8.2z"/>
						<path id="&lt;Path&gt;" class="s2" d="m921.7 495.5c-4 0-7.3-3.3-7.3-7.3 0-4.1 3.3-7.3 7.3-7.3 4.1 0 7.3 3.2 7.3 7.3 0 4-3.2 7.3-7.3 7.3z"/>
						<path id="&lt;Path&gt;" class="s2" d="m921.7 432.7c-3.6 0-6.5-2.9-6.5-6.5 0-3.6 2.9-6.5 6.5-6.5 3.6 0 6.5 2.9 6.5 6.5 0 3.6-2.9 6.5-6.5 6.5z"/>
						<path id="&lt;Path&gt;" class="s2" d="m921.7 369.9c-3.1 0-5.6-2.6-5.6-5.7 0-3.1 2.5-5.7 5.6-5.7 3.1 0 5.7 2.6 5.7 5.7 0 3.1-2.6 5.7-5.7 5.7z"/>
						<path id="&lt;Path&gt;" class="s2" d="m921.7 307c-2.7 0-4.8-2.1-4.8-4.8 0-2.7 2.1-4.8 4.8-4.8 2.7 0 4.8 2.1 4.8 4.8 0 2.7-2.1 4.8-4.8 4.8z"/>
						<path id="&lt;Path&gt;" class="s2" d="m921.7 244.2c-2.2 0-4-1.8-4-4 0-2.2 1.8-4 4-4 2.2 0 4 1.8 4 4 0 2.2-1.8 4-4 4z"/>
						<path id="&lt;Path&gt;" class="s2" d="m921.7 181.4c-1.7 0-3.1-1.5-3.1-3.2 0-1.8 1.4-3.2 3.1-3.2 1.8 0 3.2 1.4 3.2 3.2 0 1.7-1.4 3.2-3.2 3.2z"/>
						<path id="&lt;Path&gt;" class="s2" d="m921.7 118.5c-1.3 0-2.3-1-2.3-2.3 0-1.3 1-2.3 2.3-2.3 1.3 0 2.3 1 2.3 2.3 0 1.3-1 2.3-2.3 2.3z"/>
						<path id="&lt;Path&gt;" class="s2" d="m921.7 55.7c-0.8 0-1.5-0.7-1.5-1.5 0-0.8 0.7-1.5 1.5-1.5 0.8 0 1.5 0.7 1.5 1.5 0 0.8-0.7 1.5-1.5 1.5z"/>
						<path id="&lt;Path&gt;" class="s2" d="m921.7-7.1c-0.3 0-0.6-0.3-0.6-0.7 0-0.4 0.3-0.7 0.6-0.7 0.4 0 0.7 0.3 0.7 0.7 0 0.4-0.3 0.7-0.7 0.7z"/>
					</g>
				</g>
				<g id="&lt;Group&gt;" style="opacity: .3;mix-blend-mode: screen">
					<g id="&lt;Group&gt;">
						<path id="&lt;Path&gt;" class="s2" d="m981.7 998.2c-7.7 0-14-6.3-14-14 0-7.7 6.3-14 14-14 7.7 0 14 6.3 14 14 0 7.7-6.3 14-14 14z"/>
						<path id="&lt;Path&gt;" class="s2" d="m981.7 935.4c-7.3 0-13.2-5.9-13.2-13.2 0-7.3 5.9-13.2 13.2-13.2 7.3 0 13.2 5.9 13.2 13.2 0 7.3-5.9 13.2-13.2 13.2z"/>
						<path id="&lt;Path&gt;" class="s2" d="m981.7 872.5c-6.8 0-12.3-5.5-12.3-12.3 0-6.8 5.5-12.3 12.3-12.3 6.8 0 12.3 5.5 12.3 12.3 0 6.8-5.5 12.3-12.3 12.3z"/>
						<path id="&lt;Path&gt;" class="s2" d="m981.7 809.7c-6.3 0-11.5-5.2-11.5-11.5 0-6.4 5.2-11.5 11.5-11.5 6.4 0 11.5 5.1 11.5 11.5 0 6.3-5.1 11.5-11.5 11.5z"/>
						<path id="&lt;Path&gt;" class="s2" d="m981.7 746.9c-5.9 0-10.7-4.8-10.7-10.7 0-5.9 4.8-10.7 10.7-10.7 5.9 0 10.7 4.8 10.7 10.7 0 5.9-4.8 10.7-10.7 10.7z"/>
						<path id="&lt;Path&gt;" class="s2" d="m981.7 684c-5.4 0-9.8-4.4-9.8-9.8 0-5.4 4.4-9.8 9.8-9.8 5.4 0 9.8 4.4 9.8 9.8 0 5.4-4.4 9.8-9.8 9.8z"/>
						<path id="&lt;Path&gt;" class="s2" d="m981.7 621.2c-5 0-9-4-9-9 0-5 4-9 9-9 5 0 9 4 9 9 0 5-4 9-9 9z"/>
						<path id="&lt;Path&gt;" class="s2" d="m981.7 558.4c-4.5 0-8.1-3.7-8.1-8.2 0-4.5 3.6-8.2 8.1-8.2 4.5 0 8.2 3.7 8.2 8.2 0 4.5-3.7 8.2-8.2 8.2z"/>
						<path id="&lt;Path&gt;" class="s2" d="m981.7 495.5c-4 0-7.3-3.3-7.3-7.3 0-4.1 3.3-7.3 7.3-7.3 4.1 0 7.3 3.2 7.3 7.3 0 4-3.2 7.3-7.3 7.3z"/>
						<path id="&lt;Path&gt;" class="s2" d="m981.7 432.7c-3.6 0-6.5-2.9-6.5-6.5 0-3.6 2.9-6.5 6.5-6.5 3.6 0 6.5 2.9 6.5 6.5 0 3.6-2.9 6.5-6.5 6.5z"/>
						<path id="&lt;Path&gt;" class="s2" d="m981.7 369.9c-3.1 0-5.6-2.6-5.6-5.7 0-3.1 2.5-5.7 5.6-5.7 3.1 0 5.7 2.6 5.7 5.7 0 3.1-2.6 5.7-5.7 5.7z"/>
						<path id="&lt;Path&gt;" class="s2" d="m981.7 307c-2.7 0-4.8-2.1-4.8-4.8 0-2.7 2.1-4.8 4.8-4.8 2.7 0 4.8 2.1 4.8 4.8 0 2.7-2.1 4.8-4.8 4.8z"/>
						<path id="&lt;Path&gt;" class="s2" d="m981.7 244.2c-2.2 0-4-1.8-4-4 0-2.2 1.8-4 4-4 2.2 0 4 1.8 4 4 0 2.2-1.8 4-4 4z"/>
						<path id="&lt;Path&gt;" class="s2" d="m981.7 181.4c-1.7 0-3.1-1.5-3.1-3.2 0-1.8 1.4-3.2 3.1-3.2 1.8 0 3.2 1.4 3.2 3.2 0 1.7-1.4 3.2-3.2 3.2z"/>
						<path id="&lt;Path&gt;" class="s2" d="m981.7 118.5c-1.3 0-2.3-1-2.3-2.3 0-1.3 1-2.3 2.3-2.3 1.3 0 2.3 1 2.3 2.3 0 1.3-1 2.3-2.3 2.3z"/>
						<path id="&lt;Path&gt;" class="s2" d="m981.7 55.7c-0.8 0-1.5-0.7-1.5-1.5 0-0.8 0.7-1.5 1.5-1.5 0.8 0 1.5 0.7 1.5 1.5 0 0.8-0.7 1.5-1.5 1.5z"/>
						<path id="&lt;Path&gt;" class="s2" d="m981.7-7.1c-0.3 0-0.6-0.3-0.6-0.7 0-0.4 0.3-0.7 0.6-0.7 0.4 0 0.7 0.3 0.7 0.7 0 0.4-0.3 0.7-0.7 0.7z"/>
					</g>
				</g>
			</g>
			<g id="&lt;Group&gt;">
				<g id="&lt;Group&gt;">
					<g id="&lt;Group&gt;" style="opacity: .2;mix-blend-mode: multiply">
						<path id="&lt;Path&gt;" class="s3" d="m172.4 865.2v-350.7h0.2v-53.7h116.5c14.3 0 25.9 11.7 25.9 26v27.7h520.6v350.7z"/>
						<path id="&lt;Compound Path&gt;" fill-rule="evenodd" class="s3" d="m318 486.8v24.7h520.6v356.7h-669.2v-356.7h0.2v-53.7h119.5c16 0 28.9 13 28.9 29zm-142.4-23v53.7h-0.2v344.7h657.2v-344.7h-520.6v-30.7c0-12.7-10.3-23-22.9-23z"/>
					</g>
					<g id="&lt;Group&gt;">
						<path id="&lt;Path&gt;" class="s4" d="m168.4 865.2v-350.7h0.2v-53.7h116.5c14.3 0 25.9 11.7 25.9 26v27.7h520.6v350.7z"/>
						<g id="&lt;Group&gt;">
							<path id="&lt;Compound Path&gt;" fill-rule="evenodd" class="s5" d="m314 486.8v24.7h520.6v356.7h-669.2v-356.7h0.2v-53.7h119.5c16 0 28.9 13 28.9 29zm-142.4-23v53.7h-0.2v344.7h657.2v-344.7h-520.6v-30.7c0-12.7-10.3-23-22.9-23z"/>
						</g>
					</g>
				</g>
			</g>
		</g>
	</g>
</svg>