<svg version="1.2" xmlns="http://www.w3.org/2000/svg" viewBox="0 0 1311 1050" width="1311" height="1050">
	<title>Woman standing at mammography machine-ai</title>
	<style>
		.s0 { fill: #d0cedf } 
		.s1 { fill: #51418d } 
		.s2 { fill: #c6c1dd } 
		.s3 { fill: #aea3df } 
	</style>
	<g id="221353356351_1">
		<g id="&lt;Group&gt;">
			<g id="&lt;Group&gt;">
				<path id="&lt;Path&gt;" class="s0" d="m71.4 1049.6c99 0 1359.5 0.1 1359.5 0 0.5-1.3 282.6-131.1-35.4-503.2-107.4-125.7 34.2-221.1-73.1-327.6-123.2-122.4-187.4-21.3-324.4-76.8-24.2-9.8-48.5-25.6-72.8-49.8-56.8-56.4-134.6-82-213.7-87.8-153.2-11.1-325.5 51.3-414.4 142.4-17.9 18.3-99.3 113.3-35.2 243.7 40.6 82.4-129.2 161.1-189.5 255.2-153.4 239.2-2.4 400.8-1 403.9z"/>
			</g>
			<g id="&lt;Group&gt;" style="opacity: .5">
				<g id="&lt;Group&gt;" style="opacity: .5">
					<path id="&lt;Path&gt;" class="s1" d="m994.9 365c0 0 13.2-104.9 67.3-167.1 7.2-8.3 20.8-2.9 20.5 8q0 0.3 0 0.6c-0.8 18.7-61.4 97.3-87.8 158.5z"/>
				</g>
				<g id="&lt;Group&gt;" style="opacity: .5">
					<path id="&lt;Path&gt;" class="s1" d="m988.2 395c0 0 54.4-130.8 146.2-188.3 5.6-3.5 13.2-2.2 16.9 3.3 2.4 3.6 3.4 9.1 0.7 17.7-7.5 23.1-110 100.1-163.8 167.3z"/>
				</g>
			</g>
			<g id="&lt;Group&gt;" style="opacity: .3">
				<path id="&lt;Path&gt;" class="s1" d="m1194.3 607.9c0 0-83.7 55.3-72.5 70.3 11.3 14.9 88.9-68.5 88.9-68.5 0 0 95.5 35.1 118.1 63.4 0 0-108.8 26.2-94.2 38 14.6 11.7 129-10.4 129-10.4 0 0 78 55.3 48.6 104.9-29.5 49.6-66.5 51.6-78.7 44-12.2-7.6-73.6-72.5-80.3-62.8-6.7 9.8 22 66 52.9 82.9 0 0-91.6 37.2-122.2-1-30.7-38.2-19.5-70-38.9-93.3-19.3-23.3-40.5-33.4-35.8-17 4.6 16.5 44.1 49.4 46.2 81.3 2.2 31.9 6.4 55.4-31.5 28.9-103.7-72.3-63.2-160.1-63.2-160.1 0 0-25.7-96.4 50.1-113.4 0 0 51.7-5 83.5 12.8z"/>
			</g>
			<g id="&lt;Group&gt;" style="opacity: .3">
				<path id="&lt;Path&gt;" class="s1" d="m1107.6 394.9c0 0-27.2 51.2-17.4 55.7 9.9 4.5 26.3-59.2 26.3-59.2 0 0 58.2-8.6 77.4-0.4 0 0-48 43.3-37.3 45.2 10.6 1.9 62.6-40.8 62.6-40.8 0 0 54.9 6.6 53.6 39.9-1.3 33.3-19.5 44.5-27.8 44-8.3-0.5-57.4-16.5-58.1-9.7-0.7 6.8 29.4 27.5 49.7 27.5 0 0-36.3 44.2-62.3 33.2-26.1-11-29.3-30.2-45.5-36.7-16.3-6.5-29.8-5.8-22.9 1.3 6.9 7.1 36 12.9 45.9 28.5 9.9 15.6 18.5 26.4-8 23.4-72.6-8.2-76.3-63.9-76.3-63.9 0 0-39.6-41.9-5.8-71.4 0 0 24.9-16.8 45.9-16.6z"/>
			</g>
			<g id="&lt;Group&gt;" style="opacity: .3">
				<path id="&lt;Path&gt;" class="s1" d="m878.9 295c0 0 0.6 101.1-18.2 100.1-18.8-1.1 7.5-112.7 7.5-112.7 0 0-82.9-60.3-119.2-63.3 0 0 39 105.7 21 100-18-5.6-63.7-113.7-63.7-113.7 0 0-90-34.2-115 18.3-25 52.4-5.8 84.4 7.3 90.4 13.2 6 102 20.9 97.6 32-4.4 11.1-67.6 18.6-99 2.2 0 0 20.2 97.5 69.4 101.7 49.1 4.2 69.5-23 99.8-19.8 30.3 3.1 50.7 15.1 34.3 20.5-16.4 5.3-66-9.3-93.9 6.8-27.9 16.2-49.9 25.7-6.6 42.6 118.7 46.2 169.5-36.9 169.5-36.9 0 0 95-32.6 66.7-105.4 0 0-24.9-46.2-57.5-62.8z"/>
			</g>
			<g id="&lt;Group&gt;">
				<g id="&lt;Group&gt;">
					<g id="&lt;Group&gt;">
						<path id="&lt;Path&gt;" class="s1" d="m177 938.3c0 0 17.8-20.7 1.1-33.9 0 0-12.2-7.3-22.1-6.7 0 0 14.1 23.5 9.5 25.9-4.5 2.3-13.8-27.4-13.8-27.4 0 0-27.7-2.7-36.6 1.6 0 0 23.7 19.4 18.7 20.5-5 1.2-30.5-17.9-30.5-17.9 0 0-25.8 4.4-24.4 20.2 1.3 15.7 10.2 20.5 14.1 20.1 3.9-0.4 26.8-9.1 27.3-5.9 0.5 3.2-13.3 13.6-22.9 14.1 0 0 18.2 20.1 30.2 14.3 12.1-5.8 13.1-15 20.7-18.4 7.5-3.5 13.9-3.4 10.8 0.1-3.1 3.5-16.7 6.9-21 14.5-4.3 7.6-8.2 12.7 4.3 10.9 12.5-1.9 32.8-11.1 33.7-21.5 0.9-10.5 0.9-10.5 0.9-10.5z"/>
					</g>
					<g id="&lt;Group&gt;">
						<g id="&lt;Group&gt;">
							<path id="&lt;Path&gt;" class="s1" d="m91.5 921c0 0 70-2.7 85.5 17.3 0 0 3.4 10.2 13.9 19.6l1.7 4.4c0 0-12.1-12.8-16.5-13.5 0 0 6.8-24.8-84.6-27.8z"/>
						</g>
						<g id="&lt;Group&gt;">
							<path id="&lt;Path&gt;" class="s1" d="m190.9 957.9c0 0 15.1 11.1 16.1 30.9l-2.7 0.3c0 0-4.8-20.5-13.5-28.6-8.7-8 0.1-2.6 0.1-2.6z"/>
						</g>
					</g>
				</g>
				<g id="&lt;Group&gt;">
					<g id="&lt;Group&gt;">
						<path id="&lt;Path&gt;" class="s1" d="m239.1 912.3c0 0-28.3-15.9-15.1-37.3 0 0 10.6-13.2 21.9-16.6 0 0-6.1 32 0 32.8 6 0.7 4.1-36.2 4.1-36.2 0 0 29.8-14.3 41.4-13.2 0 0-18.4 31.3-12.4 30.5 6-0.7 26.8-32.4 26.8-32.4 0 0 30.5-5.6 35.4 12.5 4.8 18-3.1 27.1-7.6 28.2-4.5 1.1-33.5 0.8-32.7 4.5 0.7 3.8 20.3 9.8 31.2 6.4 0 0-12 29.8-27.9 28.3-15.8-1.5-20.7-11.3-30.5-12.1-9.8-0.7-16.9 1.9-12 4.6 4.9 2.6 21.5 0.8 29.4 7.5 7.9 6.8 14.3 10.9-0.4 13.9-14.7 3-41.1 1.1-46.3-10.2-5.3-11.2-5.3-11.2-5.3-11.2z"/>
					</g>
					<g id="&lt;Group&gt;">
						<g id="&lt;Group&gt;">
							<path id="&lt;Path&gt;" class="s2" d="m327.2 858c0 0-79.1 25.6-88.1 54.3 0 0 0.4 12.8-7.5 27.4v5.7c0 0 8.2-19.2 12.8-21.9 0 0-17.7-24.8 82.8-65.5z"/>
						</g>
						<g id="&lt;Group&gt;">
							<path id="&lt;Path&gt;" class="s2" d="m231.6 939.7c0 0-12.2 18.6-5.3 41.1l3.2-0.8c0 0-3.1-24.9 3.3-37.4 6.4-12.4-1.2-2.9-1.2-2.9z"/>
						</g>
					</g>
				</g>
				<g id="&lt;Group&gt;">
					<g id="&lt;Group&gt;">
						<path id="&lt;Path&gt;" class="s3" d="m194.2 890.4c0 0 37.2-20.8 19.8-49.1 0 0-13.9-17.4-28.8-21.9 0 0 8 42.2 0 43.2-7.9 1-5.4-47.6-5.4-47.6 0 0-39.3-18.9-54.7-17.4 0 0 24.4 41.2 16.4 40.2-7.9-1-35.2-42.7-35.2-42.7 0 0-40.2-7.4-46.7 16.4-6.4 23.8 4 35.7 9.9 37.2 6 1.5 44.2 1 43.2 6-1 5-26.8 12.9-41.2 8.4 0 0 15.9 39.3 36.8 37.3 20.8-2 27.3-14.9 40.2-15.9 12.9-1 22.3 2.5 15.9 5.9-6.5 3.5-28.3 1.2-38.8 10-10.4 8.9-18.8 14.4 0.5 18.3 19.4 4 54.1 1.5 61.1-13.4 7-14.9 7-14.9 7-14.9z"/>
					</g>
					<g id="&lt;Group&gt;">
						<g id="&lt;Group&gt;">
							<path id="&lt;Path&gt;" class="s1" d="m78 818.9c0 0 104.2 33.8 116.2 71.5 0 0-0.5 16.9 9.9 36.3v7.4c0 0-10.9-25.3-16.9-28.8 0 0 23.3-32.7-109.2-86.4z"/>
						</g>
						<g id="&lt;Group&gt;">
							<path id="&lt;Path&gt;" class="s1" d="m204.1 926.7c0 0 16.1 24.4 6.9 54.1l-4.1-1.1c0 0 4-32.7-4.4-49.2-8.5-16.5 1.6-3.8 1.6-3.8z"/>
						</g>
					</g>
				</g>
				<g id="&lt;Group&gt;">
					<path id="&lt;Path&gt;" class="s1" d="m195.4 1045.3c-40.3 0-72.9-32.7-72.9-73h145.8c0 40.3-32.6 73-72.9 73z"/>
				</g>
				<g id="&lt;Group&gt;">
					<path id="&lt;Path&gt;" class="s1" d="m121.5 1049h147.8c0-5-4-9-9-9h-129.8c-5 0-9 4-9 9z"/>
				</g>
				<g id="&lt;Group&gt;">
					<path id="&lt;Path&gt;" class="s2" d="m120.8 972.3h149.9v2.3h-149.9z"/>
				</g>
			</g>
		</g>
	</g>
</svg>