<svg version="1.2" xmlns="http://www.w3.org/2000/svg" viewBox="0 0 429 283" width="429" height="283">
	<title>5481033_2849108-ai</title>
	<style>
		.s0 { fill: #d0cedf } 
		.s1 { fill: #8fb9ab } 
		.s2 { fill: #79a897 } 
		.s3 { fill: #5e9680 } 
		.s4 { fill: #b2b2b2 } 
		.s5 { fill: #9cdbd9 } 
		.s6 { fill: #fffaf5 } 
		.s7 { fill: none;stroke: #81c6c2;stroke-miterlimit:10;stroke-width: 4 } 
		.s8 { fill: #9b9b9b } 
		.s9 { mix-blend-mode: multiply;fill: #cccccc } 
		.s10 { fill: #f4d096 } 
		.s11 { fill: #314d63 } 
		.s12 { fill: #e2bb81 } 
		.s13 { fill: #ee8a73 } 
		.s14 { opacity: .5;fill: #b2b2b2 } 
		.s15 { fill: #eaa292 } 
		.s16 { fill: #f7b39f } 
		.s17 { fill: none;stroke: #d16254;stroke-miterlimit:10;stroke-width: 2.7 } 
	</style>
	<g id="OBJECTS">
		<g id="&lt;Group&gt;">
			<g id="&lt;Group&gt;">
				<path id="&lt;Path&gt;" class="s0" d="m425.4 265.7c5.9-19.9 3.4-42.1-6.8-60.1-10.1-18.1-27.7-31.8-47.7-37.1 25.5-20.3 34.3-58.3 22.3-88.6-12.1-30.3-43.1-51.5-75.6-53.9-32.5-2.5-65.4 12.8-86.2 38-18.6-33-53.9-57.6-91.8-58.2-38-0.6-76.1 26.1-83.7 63.3-3.8 18.4-0.3 37.5 3.2 56.1-19.2-2.2-38.4 9.5-48.1 26.2-9.6 16.8-10.5 37.6-5.6 56.3 4.9 18.7 15.2 42.6 26.9 58z"/>
			</g>
			<g id="&lt;Group&gt;">
				<path id="&lt;Path&gt;" class="s1" d="m116.4 149.6q-0.1 1-0.3 1.9c0 0-0.6-0.1-1.9-0.3-13.4-2.7-92.9-22.6-87.5-120.5q0.1-1 0.1-2c0 0 0.7 0 1.9 0.3 14 2.5 101.3 22.4 87.7 120.6z"/>
				<path id="&lt;Path&gt;" class="s2" d="m116.1 151.5l-89.3-122.8c0 0 105.6 14.4 89.3 122.8z"/>
				<g id="&lt;Group&gt;">
					<path id="&lt;Path&gt;" class="s3" d="m116.9 152.6q-0.3 0.3-0.8 0.3c-0.4 0-0.8-0.2-1-0.6l-0.9-1.1-18.4-25.4-2.2-3-17.2-23.7-2-2.8-17.9-24.6-2.3-3.1-27.5-37.9q0.1-1 0.1-2c0 0 0.7 0 1.9 0.3l29.3 40.4 0.8 1 6.7 9.1 2 2.9 16.8 23.1 2.3 3.1 13.9 19.1 2.1 3 13.8 18.9 0.8 1.2c0.4 0.5 0.3 1.4-0.3 1.8z"/>
				</g>
				<g id="&lt;Group&gt;">
					<path id="&lt;Path&gt;" class="s3" d="m57.5 71.9q-0.1 0-0.3 0l-23.6-4.4c-0.7-0.2-1.2-0.9-1-1.6 0.1-0.7 0.8-1.2 1.5-1.1l23.6 4.4c0.8 0.2 1.2 0.9 1.1 1.6-0.1 0.6-0.7 1.1-1.3 1.1z"/>
				</g>
				<g id="&lt;Group&gt;">
					<path id="&lt;Path&gt;" class="s3" d="m75.7 99.3q-0.1 0-0.2-0.1l-23.7-4.3c-0.7-0.2-1.2-0.9-1-1.6 0.1-0.7 0.8-1.2 1.5-1.1l23.6 4.4c0.8 0.2 1.2 0.9 1.1 1.6-0.1 0.6-0.7 1.1-1.3 1.1z"/>
				</g>
				<g id="&lt;Group&gt;">
					<path id="&lt;Path&gt;" class="s3" d="m95.5 125.9q-0.1 0-0.2-0.1l-23.6-4.4c-0.8-0.1-1.2-0.8-1.1-1.5 0.1-0.7 0.8-1.2 1.5-1.1l23.7 4.4c0.7 0.2 1.2 0.9 1 1.6-0.1 0.6-0.7 1.1-1.3 1.1z"/>
				</g>
				<g id="&lt;Group&gt;">
					<path id="&lt;Path&gt;" class="s3" d="m66.5 82.9q-0.1 0-0.2 0c-0.7-0.1-1.2-0.8-1.1-1.5l3.4-23.8c0.1-0.7 0.8-1.2 1.5-1.1 0.8 0.1 1.3 0.8 1.2 1.5l-3.5 23.8c-0.1 0.6-0.6 1.1-1.3 1.1z"/>
				</g>
				<g id="&lt;Group&gt;">
					<path id="&lt;Path&gt;" class="s3" d="m85.2 109.9q-0.1 0-0.2 0c-0.7-0.1-1.2-0.8-1.1-1.5l3.4-23.8c0.1-0.7 0.8-1.2 1.5-1.1 0.8 0.1 1.3 0.8 1.2 1.5l-3.4 23.8c-0.1 0.6-0.7 1.1-1.4 1.1z"/>
				</g>
				<g id="&lt;Group&gt;">
					<path id="&lt;Path&gt;" class="s3" d="m101.5 131.4q-0.1 0-0.2 0c-0.7-0.1-1.2-0.8-1.1-1.5l3.4-23.8c0.1-0.7 0.8-1.2 1.5-1.1 0.7 0.1 1.2 0.8 1.1 1.5l-3.4 23.8c-0.1 0.6-0.7 1.1-1.3 1.1z"/>
				</g>
			</g>
			<path id="&lt;Path&gt;" class="s4" d="m2 112.2c44.2 77 116.1 43.1 116.1 43.1-37.9-80.9-116.1-43.1-116.1-43.1z"/>
			<g id="&lt;Group&gt;">
				<path id="&lt;Path&gt;" class="s1" d="m118.1 160.9c0 0-0.7 0.3-1.8 0.8-11.2 4.5-73.1 25.6-113.2-42.1q-0.6-0.9-1.1-1.8c0 0 0.6-0.3 1.7-0.8 11.7-4.9 78.7-29.4 113.5 42.2q0.4 0.8 0.9 1.7z"/>
				<path id="&lt;Path&gt;" class="s2" d="m118.1 160.9l-116.1-43.1c0 0 78.2-37.8 116.1 43.1z"/>
				<path id="&lt;Path&gt;" class="s3" d="m119.3 161.4c-0.2 0.5-0.7 0.8-1.2 0.8q-0.3 0-0.5-0.1l-1.3-0.4-53.1-19.7q-0.2 0.4-0.6 0.6l-21 9q-0.2 0.1-0.5 0.1c-0.5 0-1-0.3-1.2-0.8-0.3-0.6 0-1.4 0.7-1.7l19.4-8.4-26-9.7-13.5 5.3q-0.2 0.1-0.5 0.1c-0.5 0-1-0.3-1.2-0.9-0.3-0.6 0.1-1.4 0.8-1.7l10.7-4.2-27.2-10.1q-0.6-0.9-1.1-1.8c0 0 0.6-0.3 1.7-0.8l30.3 11.3c0.6-0.2 1.2 0 1.5 0.5l9.4 3.5-8.1-18.7c-0.3-0.7 0.1-1.4 0.7-1.7 0.7-0.3 1.5 0 1.8 0.7l9 21q0 0 0 0l27.9 10.3-8.3-19.1c-0.3-0.7 0.1-1.5 0.7-1.8 0.7-0.3 1.5 0 1.8 0.7l9 21q0.1 0.2 0.1 0.5l37.7 14 1.3 0.4c0.7 0.3 1.1 1.1 0.8 1.8z"/>
			</g>
			<g id="&lt;Group&gt;">
				<path id="&lt;Path&gt;" class="s5" d="m357.9 75.4v158.5c0 4.1-2.5 7.7-6.1 9.2-1.2 0.5-2.5 0.7-3.8 0.7h-262.3c-2.2 0-4.3-0.7-5.9-2-2.4-1.8-4-4.6-4-7.9v-158.5c0-5.1 3.7-9.2 8.6-9.8q0.6-0.1 1.3-0.1h262.3c2.3 0 4.5 0.8 6.2 2.2 2.2 1.8 3.7 4.5 3.7 7.7z"/>
				<path id="&lt;Path&gt;" class="s6" d="m97.9 88.4h237.9v132.4h-237.9z"/>
				<path id="&lt;Path&gt;" class="s7" d="m97.9 88.4h237.9v132.4h-237.9z"/>
				<path id="&lt;Path&gt;" class="s5" d="m166 241h101.7v17.7h-101.7z"/>
				<path id="&lt;Path&gt;" class="s5" d="m322.7 266.8h-211.7c-2.7 0-4.9-2.3-4.9-5 0-2.7 2.2-4.9 4.9-4.9h211.7c2.7 0 4.9 2.2 4.9 4.9 0 2.7-2.2 5-4.9 5z"/>
				<path id="&lt;Path&gt;" class="s8" d="m165.8 243.7h101.5l-101.5 13.1z"/>
				<path id="&lt;Path&gt;" class="s4" d="m354.2 67.7l-274.4 174.1c-2.4-1.8-4-4.6-4-7.9v-158.5c0-5.1 3.7-9.2 8.6-9.8q0.6-0.1 1.3-0.1h262.3c2.3 0 4.5 0.8 6.2 2.2z"/>
			</g>
			<g id="&lt;Group&gt;">
				<path id="&lt;Path&gt;" class="s9" d="m153.3 111.1c0-4.4 3.5-8 8-8h90.6c4.4 0 8 3.6 8 8v74.5c0 4.4-3.6 8-8 8h-90.6c-4.5 0-8-3.6-8-8z"/>
				<g id="&lt;Group&gt;">
					<path id="&lt;Path&gt;" class="s6" d="m158.4 111.2c0-3.3 2.7-6 6-6h89.1c3.4 0 6 2.7 6 6v73c0 3.3-2.6 6-6 6h-89.1c-3.3 0-6-2.7-6-6z"/>
					<path id="&lt;Path&gt;" class="s1" d="m158.8 161.3c0 0 13.1-19.7 36.5-15.1 23.4 4.6 30.3 13.3 42.4 11.5 12.2-1.8 19.6-8.4 19.6-8.4v34.7c0 3.1-2.9 5.7-6.6 5.7h-85.1c-3.6 0-6.5-2.5-6.6-5.6z"/>
					<path id="&lt;Path&gt;" class="s10" d="m181.9 136c-5.4 0-9.7-4.4-9.7-9.8 0-5.4 4.3-9.7 9.7-9.7 5.4 0 9.8 4.3 9.8 9.7 0 5.4-4.4 9.8-9.8 9.8z"/>
					<path id="&lt;Path&gt;" class="s5" d="m249.8 124.2c-2.7-2.6-6.9-3.1-10.2-1.5-1.7-4.8-4.9-9.6-10.7-9.1-5.8 0.4-8.4 5.6-9.7 10.6-2.8-1.7-6.3-2.1-9.2-0.1-2 1.4-3.2 3.9-3.2 6.3-0.5 3.5 2 7.2 5.2 8.8 3.7 2 7.8 1.5 11.3-0.3 2.1 2.6 3.2 4.1 8.1 4.1 2.3 0.1 4.4-1 5.6-2.9q0 0 0.1 0c0.4-0.6 0.7-1.3 0.7-1.3 0 0 6.2 4.3 12.3-1.2 3.7-3.3 3.3-9.8-0.3-13.4z"/>
					<path id="&lt;Compound Path&gt;" fill-rule="evenodd" class="s11" d="m155.7 110.5c0-4.5 3.6-8 8-8h90.6c4.4 0 8 3.5 8 8v74.5c0 4.4-3.6 8-8 8h-90.6c-4.4 0-8-3.6-8-8zm5.5 74c0 1.7 1.3 3 3 3h89.6c1.7 0 3-1.3 3-3v-73.5c0-1.7-1.3-3-3-3h-89.6c-1.7 0-3 1.3-3 3z"/>
				</g>
				<path id="&lt;Path&gt;" class="s9" d="m167.1 122.1c0-4.5 3.6-8 8-8h90.6c4.5 0 8 3.5 8 8v74.5c0 4.4-3.5 8-8 8h-90.6c-4.4 0-8-3.6-8-8z"/>
				<g id="&lt;Group&gt;">
					<path id="&lt;Path&gt;" class="s6" d="m172.9 122.5c0-3.3 2.7-6 6-6h89.2c3.3 0 6 2.7 6 6v73c0 3.3-2.7 6-6 6h-89.2c-3.3 0-6-2.7-6-6z"/>
					<path id="&lt;Path&gt;" class="s1" d="m173.3 172.6c0 0 13.1-19.7 36.5-15.1 23.5 4.6 30.3 13.3 42.4 11.5 12.2-1.8 19.6-8.5 19.6-8.5v34.8c0 3.1-2.9 5.6-6.5 5.6h-85.2c-3.6 0-6.5-2.5-6.5-5.6z"/>
					<path id="&lt;Path&gt;" class="s10" d="m196.4 147.2c-5.4 0-9.7-4.3-9.7-9.7 0-5.4 4.3-9.8 9.7-9.8 5.4 0 9.8 4.4 9.8 9.8 0 5.4-4.4 9.7-9.8 9.7z"/>
					<path id="&lt;Path&gt;" class="s5" d="m264.3 135.5c-2.7-2.6-6.9-3.1-10.1-1.5-1.8-4.9-5-9.6-10.8-9.1-5.8 0.4-8.4 5.6-9.7 10.6-2.8-1.7-6.3-2.1-9.1-0.2-2.1 1.5-3.3 4-3.2 6.4-0.6 3.5 2 7.1 5.1 8.8 3.7 2 7.8 1.5 11.4-0.3 2 2.6 3.2 4.1 8.1 4.1 2.2 0 4.3-1 5.5-2.9q0.1 0 0.1 0c0.4-0.6 0.8-1.4 0.8-1.4 0 0 6.1 4.3 12.2-1.1 3.7-3.3 3.4-9.9-0.3-13.4z"/>
					<path id="&lt;Compound Path&gt;" fill-rule="evenodd" class="s11" d="m170.2 121.7c0-4.4 3.6-8 8-8h90.6c4.4 0 8 3.6 8 8v74.6c0 4.4-3.6 8-8 8h-90.6c-4.4 0-8-3.6-8-8zm5.5 74c0 1.6 1.3 3 3 3h89.6c1.7 0 3-1.4 3-3v-73.5c0-1.7-1.3-3-3-3h-89.6c-1.7 0-3 1.3-3 3z"/>
				</g>
			</g>
			<path id="&lt;Path&gt;" class="s4" d="m381.5 51.7q-0.8-0.1-1.6-0.1c-2.7 0-5.4 0.4-7.9 1.2-2-12.7-13-22.5-26.3-22.5-13.3 0-24.4 9.9-26.3 22.7-2.7-0.9-5.5-1.4-8.4-1.4-14.7 0-26.7 11.9-26.7 26.6 0 14.7 12 26.6 26.7 26.6h1.6 67.3c14.7 0 26.7-11.9 26.7-26.6 0-14.1-11.1-25.7-25.1-26.5z"/>
			<path id="&lt;Compound Path&gt;" fill-rule="evenodd" class="s4" d="m173.3 223.4h-9.1c0.6 5.1 0.4 17.2-14.8 20.1v2c0 3.2-2.6 5.8-5.8 5.8h-91.1q-1.3 0-2.5-0.6-0.2-0.1-0.5-0.2c-2.2-0.9-3.9-2.7-4.5-5l-13.9-51.6c-1.2-4.6 2.5-9 7.5-9h8.4l0.2-7.9c0-2.6 2.1-4.7 4.7-4.7h14.9c3.9 0 7.1 3.2 7.1 7.1v1.7h69.7q0.3 0 0.7 0.1c2.9 0.3 5.1 2.8 5.1 5.7v20.4l5.6-7.1c0.7-0.9 2.1-0.9 2.8-0.1l16.9 20.4c0.9 1.1 0.1 2.9-1.4 2.9zm-23.4 0h-0.5v6.4c0.4-1.9 0.7-4 0.5-6.4z"/>
			<g id="&lt;Group&gt;">
				<path id="&lt;Path&gt;" class="s12" d="m132.1 251h-85q-1.3 0-2.4-0.3-0.3-0.1-0.6-0.2c-2.2-0.9-3.9-2.7-4.5-5l-13.9-51.6c-1.2-4.6 2.5-9 7.5-9h85.1c3.5 0 6.6 2.2 7.5 5.5l0.1 0.4 13.7 51.2c1.3 4.6-2.4 9-7.5 9z"/>
				<path id="&lt;Path&gt;" class="s10" d="m144 186.9v58.6c0 3.2-2.6 5.8-5.8 5.8h-91.1q-1.3 0-2.5-0.6-0.3-0.1-0.5-0.2c-1.7-1-2.8-2.9-2.8-5v-58.6q0-0.9 0.3-1.7v-0.3l0.2-7.9c0-2.6 2.1-4.7 4.7-4.7h14.9c3.9 0 7.1 3.2 7.1 7.1v1.7h69.7q0.3 0 0.7 0.1c2.9 0.3 5.1 2.8 5.1 5.7z"/>
				<path id="&lt;Path&gt;" class="s13" d="m169.3 220.5l-16.9-20.4c-0.7-0.8-2.1-0.8-2.8 0.1l-16 20.3c-0.9 1.2-0.1 2.9 1.4 2.9h9.5c1 19.2-18.5 19.8-18.5 19.8 32.9 5.2 33.6-13.1 32.8-19.8h9.1c1.5 0 2.3-1.8 1.4-2.9z"/>
				<path id="&lt;Path&gt;" class="s14" d="m138.9 181.2l-13 9.6-81.2 59.9h-0.1q-0.3-0.1-0.5-0.2c-2.2-0.9-3.9-2.7-4.5-5l-13.9-51.6c-1.2-4.6 2.5-9 7.5-9h8.4l0.2-7.9c0-2.6 2.1-4.7 4.7-4.7h14.9c3.9 0 7.1 3.2 7.1 7.1v1.7h69.7q0.3 0 0.7 0.1z"/>
			</g>
			<path id="&lt;Compound Path&gt;" fill-rule="evenodd" class="s4" d="m407.4 254.9c-0.6 0.9-1.6 1.5-2.3 2.1q-0.3 0.2-0.5 0.5c-0.7 0.7-2.4 3.3-3.5 4.8-1.1 1.5-3.3 0.7-2.6-0.5 0.7-1.3 2.3-8 2.3-8q0 0 0.1 0l-2.3-2.2c-2.5-1.3-24-13.6-25.3-18.2-0.6-2.1-1.7-9.9-2.8-18-2.1 5.2-3.7 10.1-3.7 12.9 0.2 7.9-3.3 31.4-3.3 31.4h-1.2l-0.3 3.8c0 0 1 0.4 1.4 1.6 0.3 1.1-0.5 2.3-1.6 3.1-1.2 0.8-0.2 5-1.4 5.5-1.3 0.5-5.5 0.7-5.4-0.7 0.1-1.4 1.9 0.5 2.6-2.2 0.7-2.7 0.6-7.4 0.6-7.4l-0.2-3.7h-1.3c0.2-1.5-0.7-28.9-0.3-32.6 0.3-3.7 2.7-25.8 2.7-25.8l1.4-5.6-2.4 0.1c0 0 1.8-13.5 2.9-24.1q0.1-1.6 0.4-3c-7.8-0.1-17.8-0.9-19.8-2.6-2.2-1.8-6.1-14.2-8.5-21.8l-2.8 0.9c-1.4 0.4-2.8-0.4-3.2-1.8l-6.5-22c-0.5-1.4 0.4-2.9 1.8-3.3l26.8-7.9c1.4-0.4 2.8 0.4 3.3 1.8l6.4 22c0.5 1.4-0.3 2.9-1.7 3.3l-8.1 2.3c2.8 4.7 7 11.6 7 11.6 0 0 6 2.8 11.1 5.2 0.5-0.4 0.9-0.6 1.1-0.6q0 0.1 0.1 0.1c0-1.1-0.1-3.6-0.2-4.7-3.1-1-4.4-4.9-3.9-8.4 0.5-2.9 2.6-6.3 5.3-8.1q0.1-0.4 0.3-0.6 0.3-0.6 0.7-0.9c0.4-0.5 1.1-0.8 1.8-0.9 0.9-0.4 2.2-0.3 3.2 0.1 4.8 0.9 8.7 9.1 9.5 12.9 0.4 1.6 0.5 3.3 0.4 5-0.2 1.8-0.6 3.5-0.8 5.3-0.2 1.5-0.2 3 0.7 4.3 0.9 1.3 2.2 2.4 3.1 3.7 3.5 5.3-0.4 11.9-5.9 13.6 0.3 8.5 0.5 18.4 0.5 18.4h-0.8c0.8 2.6 1.6 7.3 0.7 13.3-0.9 5.5-1.2 13.7-1.3 19.6 0 1.4 13 3.1 19.8 20.1l2 2.5q0-0.1 0-0.1c0 0 4.6 2.6 3.9 3.9zm-49.5-95.4c-4.1-3.1-7.6-6.1-8.2-7.6-1-2.3-3.8-6.9-6.1-10.6l-4.8 1.4c1.7 5.6 4.7 15.2 6.9 16.8 1.6 1.1 7 0.7 12.2 0z"/>
			<g id="&lt;Group&gt;">
				<path id="&lt;Path&gt;" class="s15" d="m376.5 169.5c0 0-21.1-13.7-22.7-17.6-1.6-3.9-8.6-14.3-9.3-16.3-0.7-2.1 0.2-4 2.5-3.5 2.3 0.4 3.2 1.3 4.1 3.5 0.8 2.2 9.2 15.6 9.2 15.6 0 0 17.5 8.1 18 8.6 0.6 0.4 5.2 6.1-1.8 9.7z"/>
				<g id="&lt;Group&gt;">
					<path id="&lt;Path&gt;" class="s6" d="m361.1 136.5l-26.9 7.8c-0.9 0.3-1.9-0.2-2.2-1.2l-6.5-22c-0.3-0.9 0.3-1.9 1.2-2.2l26.9-7.9c0.9-0.3 1.9 0.3 2.2 1.2l6.5 22c0.3 1-0.3 2-1.2 2.3z"/>
					<path id="&lt;Path&gt;" class="s1" d="m330.1 136.2c0 0 2.2-7.1 9.6-7.8 7.4-0.7 10.2 1.3 13.7-0.3 3.5-1.6 5.1-4.2 5.1-4.2l3.1 10.4c0.2 0.9-0.4 1.9-1.5 2.3l-25.5 7.5c-1 0.3-2.1-0.2-2.4-1.2z"/>
					<path id="&lt;Path&gt;" class="s10" d="m336.8 122.8c0.5 1.6-0.4 3.3-2 3.7-1.6 0.5-3.3-0.4-3.8-2-0.5-1.6 0.4-3.3 2-3.8 1.7-0.5 3.3 0.5 3.8 2.1z"/>
					<path id="&lt;Path&gt;" class="s5" d="m354 117.1c-1-0.6-2.3-0.4-3.1 0.4-1-1.3-2.4-2.4-4.1-1.8-1.6 0.7-2 2.4-1.9 4-1-0.2-2.1 0-2.8 0.8-0.5 0.6-0.6 1.5-0.4 2.2 0.2 1.1 1.3 2 2.4 2.2 1.2 0.2 2.4-0.3 3.3-1.1 0.9 0.6 1.3 0.9 2.8 0.5 0.7-0.2 1.2-0.7 1.4-1.4q0 0 0 0c0.1-0.2 0.1-0.4 0.1-0.4 0 0 2.3 0.7 3.6-1.5 0.8-1.3 0.1-3.2-1.3-3.9z"/>
					<path id="&lt;Compound Path&gt;" fill-rule="evenodd" class="s11" d="m361.3 137.3l-26.8 7.9c-1.4 0.4-2.9-0.4-3.3-1.8l-6.5-22c-0.4-1.4 0.4-2.9 1.8-3.3l26.8-7.9c1.4-0.4 2.9 0.4 3.3 1.8l6.5 22c0.4 1.4-0.4 2.9-1.8 3.3zm-34.3-17.6c-0.5 0.2-0.8 0.7-0.6 1.2l6.4 22c0.2 0.5 0.7 0.8 1.2 0.6l26.8-7.9c0.5-0.1 0.8-0.6 0.6-1.1l-6.4-22c-0.2-0.5-0.7-0.8-1.2-0.7z"/>
				</g>
				<path id="&lt;Path&gt;" class="s16" d="m362.1 259.1l0.2 4.3 3.8 0.1 0.4-4.6z"/>
				<path id="&lt;Path&gt;" class="s16" d="m408.2 251.7l-2.4 2.2-0.4 0.3-0.4-0.4-2.3-2.2-0.6-0.5 0.3-0.3 2.8-2.8 0.5 0.6 2 2.5z"/>
				<path id="&lt;Path&gt;" class="s2" d="m405.8 249l-2.6 2.5-0.3 0.2q0 0-0.2-0.1c-2.4-1.3-24-13.6-25.3-18.2-0.6-2.1-1.7-9.9-2.8-18-1.1-8.3-2.1-16.9-2.5-19.7q-0.1-1-0.1-1l6.4-0.6 7-0.7h0.3c0 0 0.4 0.8 0.8 2.2 0.7 2.6 1.6 7.3 0.6 13.3-0.8 5.5-1.2 13.7-1.2 19.6 0 1.4 13 3.1 19.8 20.1q0.1 0.2 0.1 0.4z"/>
				<path id="&lt;Path&gt;" class="s1" d="m360.5 227.1c0.4-3.7 2.7-25.8 2.7-25.8l1.5-5.9 0.3-1.3 0.8-3.6 19.1 1c3.9 12.9-5.1 17.3-8 18.5-3.1 7-6 14.6-5.9 18.3 0.2 7.9-3.4 31.4-3.4 31.4h-6.7c0.1-1.5-0.7-28.9-0.4-32.6z"/>
				<path id="&lt;Path&gt;" class="s15" d="m372.3 150.5c0 0 0.4 4.7 0.2 5.7l3.8 0.1 0.7-6.5z"/>
				<path id="&lt;Path&gt;" class="s13" d="m387.2 195.6h-0.7-0.8l-7.2 0.1h-6.4-7.5l-2.4 0.1c0 0 1.9-13.5 2.9-24.1 1.1-10.7 6.4-16.2 7.3-15.9 0.6 0.2 1.6 0.2 2.4 0.2 0.6 0 1 0 1 0 0 0 4.3 0 5.3 0.3 0.3 0.1 0.7 0.4 1.2 0.9 1.5 1.6 3.6 5.2 4 10.7 0.2 2.2 0.4 5.6 0.5 9.3 0.3 8.5 0.4 18.4 0.4 18.4z"/>
				<path id="&lt;Path&gt;" class="s16" d="m368.5 142.8c0.6-3.9 4-8.4 8-9.4 5.7-1.4 7.1 6.5 6.2 10.5-0.8 3.6-4.2 6.9-7.9 7.4-5 0.7-7-4.2-6.3-8.5z"/>
				<path id="&lt;Path&gt;" class="s16" d="m377.8 164.5c0.7-3.4-2.1-6.6-5.6-6.4q0 0-0.1 0c-2.9 0.1-19.3 3.5-22.2 1.4-2.9-2.1-6.9-17-8.1-20.3-1.3-3.2-0.5-5.9-2.3-6.5-1.8-0.6-2.7-1.2-4.2 0.2-1.4 1.3-1.1 3.7 0 5.7 1.2 2.1 7.4 25 10.4 27.5 3.1 2.6 24.4 3 28.7 2.4 2-0.3 3-2 3.4-4z"/>
				<path id="&lt;Path&gt;" class="s5" d="m411.5 254.9c-0.5 0.9-1.5 1.5-2.3 2.1q-0.3 0.2-0.5 0.5c-0.7 0.7-2.4 3.3-3.5 4.8-1 1.5-3.3 0.7-2.6-0.5 0.8-1.3 2.4-8 2.4-8q0 0 0 0 0.2-0.1 0.4-0.2c1.6-0.9 2.2-2.3 2.3-2.5q0-0.1 0-0.1c0 0 4.6 2.6 3.8 3.9z"/>
				<path id="&lt;Path&gt;" class="s11" d="m386.8 177.2q-0.4 0.2-0.9 0.3c-2.4 0.5-5 0.3-7.1-0.8q-1-0.6-1.9-1.4c-2.4-2.2-3.4-5.6-2.8-8.8 0.3-1.9 1.6-3.5 2-5.4 0.4-1.8-0.5-3.5-1.3-5.1q-0.1-0.2-0.2-0.5c-1.4-3-2.2-6.8 1.2-8.9q0.1-0.1 0.3-0.2 0.1 0 0.2 0c0.3 0.5 0.9 0.9 1.4 0.9q0.3 0 0.6-0.2c0.5-0.2 0.7-0.8 0.6-1.3-0.1-1.1-1-1.9-1.9-1.6-1.4-0.9-2.3-2.2-2.9-3.8-0.6-1.7-1-4.6-0.1-6.3q0.3-0.6 0.7-0.9c0.5-0.5 1.1-0.8 1.8-0.9 1-0.4 2.3-0.3 3.2 0.1 4.8 0.9 8.8 9.1 9.6 12.9 0.3 1.6 0.5 3.3 0.3 5-0.1 1.8-0.6 3.5-0.8 5.3-0.2 1.5-0.2 3 0.8 4.3 0.9 1.3 2.2 2.4 3.1 3.7 3.4 5.3-0.4 11.9-5.9 13.6z"/>
				<path id="&lt;Path&gt;" class="s5" d="m362.3 263.4c0 0 0.1 4.7-0.6 7.4-0.7 2.7-2.5 0.8-2.6 2.2-0.1 1.4 4.1 1.2 5.4 0.7 1.3-0.5 0.2-4.7 1.4-5.5 1.2-0.8 2-2 1.6-3.1-0.3-1.2-1.4-1.6-1.4-1.6z"/>
				<path id="&lt;Path&gt;" class="s14" d="m411.5 254.9c-0.5 0.9-1.5 1.5-2.3 2.1-0.9-0.9-2.1-1.9-3.4-3.1q-0.2-0.2-0.4-0.3-1.1-1-2.2-2.1-0.4-0.3-0.8-0.7c-7.9-7-18.2-16.3-20.6-18.2-2.1-1.8-2.7-12.8-3-23.6-0.1-4.7-0.2-9.5-0.3-13.3q0-0.9-0.1-1.6 0-1.7-0.1-3-0.2-1.5-0.3-2.6c-0.4-2.6 0-6.9 0.8-11.8 1-6.2 2.5-13.3 3.5-19.5 0.7-4 1.2-7.5 1.2-10.1 0-6-4.9-11-8.8-13.9 0.5-0.5 1.1-0.8 1.8-0.9 1-0.4 2.3-0.3 3.2 0.1 4.8 0.9 8.8 9.1 9.6 12.9 0.3 1.6 0.5 3.3 0.3 5-0.1 1.8-0.6 3.5-0.8 5.3-0.2 1.5-0.2 3 0.8 4.3 0.9 1.3 2.2 2.4 3.1 3.7 3.4 5.3-0.4 11.9-5.9 13.6 0.3 8.5 0.4 18.4 0.4 18.4h-0.7c0.7 2.6 1.6 7.3 0.6 13.3-0.8 5.5-1.2 13.7-1.2 19.6 0 1.4 13 3.1 19.8 20.1l2 2.5q0-0.1 0-0.1c0 0 4.6 2.6 3.8 3.9z"/>
			</g>
			<g id="&lt;Group&gt;">
				<path id="&lt;Path&gt;" class="s13" d="m411.9 78.2c0 14.7-11.9 26.6-26.6 26.6h-69c-14.7 0-26.6-11.9-26.6-26.6 0-14.7 11.9-26.6 26.6-26.6 3 0 5.8 0.5 8.5 1.4 1.9-12.8 12.9-22.7 26.3-22.7 13.3 0 24.3 9.8 26.3 22.5 2.5-0.8 5.2-1.2 7.9-1.2q0.8 0 1.6 0.1c14 0.8 25 12.4 25 26.5z"/>
				<path id="&lt;Path&gt;" class="s6" d="m371.1 70.5l-21.2-24.5-21 24.5c-1.1 1.2-0.9 3.1 0.3 4.2 0.6 0.5 1.3 0.7 2 0.7 0.8 0 1.6-0.3 2.2-1l13.3-15.4v33.7c0 1.7 1.3 3 3 3 1.6 0 3-1.3 3-3v-34.3l13.8 16c1.1 1.3 3 1.4 4.2 0.3 1.3-1.1 1.4-3 0.4-4.2z"/>
				<path id="&lt;Path&gt;" class="s17" d="m411.9 78.2c0 14.7-11.9 26.6-26.6 26.6h-69c-14.7 0-26.6-11.9-26.6-26.6 0-14.7 11.9-26.6 26.6-26.6 3 0 5.8 0.5 8.5 1.4 1.9-12.8 12.9-22.7 26.3-22.7 13.3 0 24.3 9.8 26.3 22.5 2.5-0.8 5.2-1.2 7.9-1.2q0.8 0 1.6 0.1c14 0.8 25 12.4 25 26.5z"/>
			</g>
		</g>
	</g>
</svg>