<svg version="1.2" xmlns="http://www.w3.org/2000/svg" viewBox="0 0 900 565" width="900" height="565"><style>.a{fill:#dadada}.b{fill:#b3b1be}.c{fill:#d0cedf}.d{fill:#ff9064}.e{opacity:.5;fill:#b25834}.f{opacity:.3;fill:#fff}.g{fill:#102048}.h{fill:#86a7ff}.i{fill:#d3dfff}.j{fill:#adc3ff}.k{opacity:.3;fill:#86a7ff}.l{fill:#7d69ed}.m{fill:#5b4dad}.n{opacity:.4;fill:#5b4dad}.o{fill:#eb5d60}.p{fill:#fff}.q{fill:#1f3c88}.r{fill:#3a6bea}.s{opacity:.6;fill:#1f3c88}.t{fill:#f9b384}.u{opacity:.4;fill:#eb5d60}.v{fill:#fbc343}.w{fill:#e49b31}.x{fill:#e28b6d}.y{opacity:.4;fill:#1f3c88}.z{fill:#fbb81d}.A{fill:#51418d}</style><path class="a" d="m440.5 86.4l-1.2-1.4c0.3-0.4 34-28.4 82.7-42.6 45-13.1 112.4-16.9 177.8 40l-1.2 1.5c-64.8-56.4-131.5-52.7-176-39.7-48.3 14.1-81.7 41.9-82.1 42.2z"/><path class="b" d="m960.1 449.7c-6.9-74.9-36-131.6-111.2-173.3-22.2-12.3-49.9-18.3-63.2-39.9-13.2-21.4-8.4-48.7-11-73.8-6.6-64.3-68-113.9-132.3-120.7-64.2-6.7-128.1 22.3-177 64.7-36.5 31.6-68.6 72.2-114.7 87.1-76.1 24.5-158.8-30.2-236.9-13.1-42 9.3-77.3 38.7-103 73.1-43.1 57.6-53.8 130.5-40.6 201.3 7.2 38.6 24.8 77.9 50.1 108l905.1-1.8c26.4-26.6 37.7-79.4 34.7-111.6z"/><path class="c" d="m311.6 161.3c-38.6 0-69.9-31.3-69.9-70 0-38.6 31.3-69.9 69.9-69.9 38.7 0 70 31.3 70 69.9 0 38.7-31.3 70-70 70z"/><path class="c" d="m428.2 57.9c-16 0-28.9-12.9-28.9-28.9 0-16 12.9-29 28.9-29 16 0 29 13 29 29 0 16-13 28.9-29 28.9z"/><path class="c" d="m871.8 260.1c-16.1 0-29-13-29-28.9 0-16 12.9-29 29-29 16 0 29 13 29 29 0 15.9-13 28.9-29 28.9z"/><path class="a" d="m955.8 562.3l-1.6-0.9c34-64.1 37.6-133 9.8-188.9-29.2-59-88.6-98.6-167.5-111.6l0.4-1.8c79.4 13.1 139.4 53.1 168.8 112.5 28 56.6 24.5 126.1-9.9 190.7z"/><path class="a" d="m25.5 565c-41-44.1-68-97.2-78.1-153.5-9.5-52.5-3.4-104.6 17.2-146.7 31.8-65 93.3-98.4 168.9-92l-0.2 1.9c-74.7-6.5-135.6 26.7-167 91-20.4 41.6-26.4 93.3-17 145.4 10.1 56.1 37 108.8 77.6 152.7z"/><path class="d" d="m50.2 426.2h243.1v136.8h-243.1z"/><path class="e" d="m50.2 426.2h87.1v136.8h-87.1z"/><path class="f" d="m183.4 426.2h22.7v33.3h-22.7z"/><path class="g" d="m245.4 277h401.7v286h-401.7z"/><path class="h" d="m686.2 176h-74.4v-68c0-13.5 11.1-24.6 24.8-24.6 6.9 0 13.1 2.7 17.6 7.2 4.4 4.4 7.2 10.5 7.2 17.3v0.1 43.2q0 0.2 0 0.6v1.4l0.2-0.2c1 12.9 11.6 23 24.6 23z"/><path class="i" d="m711 136.2v15c0 6.8-2.8 13-7.3 17.4-4.5 4.6-10.6 7.4-17.5 7.4-13 0-23.6-10.1-24.6-23z"/><path class="i" d="m636.6 83.4q-0.7 0-1.5 0c-0.3 0-0.6 0.1-0.9 0.1q-0.5 0-1.2 0.1-0.2 0-0.6 0.1-0.4 0-0.7 0.2c-0.4 0-0.8 0.1-1.2 0.2q-0.7 0.1-1.5 0.5-0.5 0-0.8 0.3-0.4 0.1-0.8 0.2-0.5 0.3-1 0.5-0.5 0.1-0.8 0.4-0.2 0-0.3 0.1-0.5 0.3-0.9 0.4-1.5 1-3 2.1-0.3 0.2-0.7 0.6c-0.3 0.1-0.6 0.5-0.9 0.8q-0.4 0.3-0.7 0.7c-0.8 0.8-1.5 1.6-2.1 2.4-0.3 0.4-0.7 0.7-0.9 1.1q-1.3 2-2.1 4-0.2 0.6-0.4 1.1-0.6 1.6-1 3.3-0.1 0.6-0.3 1.2-0.2 1.1-0.3 2.4v347.4h-331.3v-331.6c0-21.4 17.2-38.6 38.7-38.6z"/><path class="j" d="m319.9 118.8h251.3v13.2h-251.3z"/><path class="j" d="m319.9 157.5h231.9v13.2h-231.9z"/><path class="j" d="m319.9 196.3h219.7v13.2h-219.7z"/><path class="j" d="m319.9 234.9h251.3v13.2h-251.3z"/><path class="j" d="m416.9 274.2h136.4v13.2h-136.4z"/><path class="g" d="m444.5 348.4c-1.6 0-3-0.5-3.9-1.8-1.1-1.7-1.1-3.8-1.1-5.3l1.4-34.1h1.8l-1.2 34.1c-0.1 1.6-0.1 3.3 0.6 4.1 1.6 2.3 5.5 0.4 6.3-0.1 3.7-2 6.6-5.9 9.2-9.5 2.8-4.2 6-8.4 10.6-10.4 2.6-1.3 4.7 0.6 6.3 2 0.9 0.7 1.8 1.5 2.6 1.7 2.4 0.8 4.9 0.1 7.4-0.5 2.2-0.6 4.6-1.2 6.8-0.9 2.3 0.4 4 1.3 5.8 2 2.5 1.3 4.6 2.4 7.7 1.6 4.4-0.9 8.5-3.4 12.3-5.8q1.7-1.1 3.4-2.1c4.4-2.5 11-5.8 17.4-4.3l-0.3 1.9c-5.9-1.4-12.1 1.6-16.1 4q-1.7 1-3.4 2.1c-4 2.4-8.2 5-12.8 6.1-3.7 0.9-6.5-0.5-9.1-1.7-1.5-0.8-3.2-1.6-5.1-1.9-2-0.2-4 0.3-6.1 0.8-2.8 0.7-5.5 1.4-8.4 0.6-1.3-0.4-2.3-1.4-3.3-2.3-1.8-1.3-2.9-2.2-4.4-1.6-4.1 1.9-7 5.6-9.8 9.7-2.8 4-5.6 8-9.9 10.3-1.5 0.7-3.2 1.3-4.7 1.3z"/><path class="k" d="m612 289v164.6h-331.3v-179l103.5 86.2c5.7 4.7 13.2 6.6 20.5 5.4 2.2-0.2 4.4-0.3 6.5-0.3l70.5 2q3.8 0.1 7.4 0.8c7.2 1.7 15 0.2 20.9-4.3z"/><path class="l" d="m396.4 395.5l-2.8 3.1-124.7 138.2-23.5 26.2v-286z"/><path class="l" d="m647.1 277l-151 118.5 151 167.5z"/><path class="m" d="m393.6 398.6l-124.7 138.2-23.5 5.3v-50.9c62.3-44.6 132.2-96.4 148.1-97.5z"/><path class="m" d="m498.8 398.6l124.6 138.2 23.7 5.3v-50.9c-62.3-44.6-132.2-96.4-148.3-97.5z"/><path class="l" d="m647.1 563h-401.7l0.1-37.6 138.3-125.6c7.4-6.6 16.8-10.3 26.5-10.3h70.7c9.6 0 18.9 3.5 26.2 10l140.3 124.5z"/><path class="n" d="m620.4 563c-38.2 0-69-30.8-69-69 0-38.1 30.8-68.9 69-68.9 38.1 0 69 30.8 69 68.9 0 38.2-30.9 69-69 69z"/><path class="o" d="m641.2 563c-38.2 0-69-30.8-69-69 0-38.1 30.8-68.9 69-68.9 38.1 0 69 30.8 69 68.9 0 38.2-30.9 69-69 69z"/><path class="p" d="m639.8 531.4c-3.3 0-6.5-1.4-8.8-3.9l-24.4-26.9c-2-2.4-1.9-5.9 0.4-8 2.4-2.1 6-2 8.1 0.4l24.4 26.9c0 0.1 0.1 0.1 0.3 0.1 0.2 0 0.2-0.1 0.3-0.2l26.3-59.7c1.1-3 4.5-4.3 7.4-3 2.8 1.2 4.2 4.6 3 7.5l-26.3 59.8c-1.6 3.6-5 6.2-8.9 6.8q-1 0.2-1.8 0.2z"/><path class="g" d="m162.4 388l2.2 38.1h58.6l-26.6-21.7-1.5-16.4-10.4-10z"/><path class="g" d="m92.1 371l-9.5 34 48.2 21.1-14.2-32.1 3.5-14.6-11.9-15.7z"/><path class="q" d="m110.6 202.2c0 0-5.6 23.6-3.7 75.6 0 0-16.7 58.2-14.8 93.2l28 8.4c14.7-32.6 26.8-63.9 33.2-92.7 3.2-10.1 3.1-21-0.2-31.1l-13.4-41.1z"/><path class="r" d="m199.5 278.9l-4.4 109.1h-32.7c-8.6-35.6-11.8-65.9-12.9-86.2-0.8-17.2-0.3-27.2-0.3-27.2-21.1-24.9-33.7-42.8-40.9-56-10.9-19.7-10.1-29.3-9-35.9 1.6-9 7.5-20.5 11.3-27.6 2.3-3.8 3.9-6.4 3.9-6.4l54.7 17.5-6.5 23.7-0.1 0.4c-1 3.6-0.5 7.5 1.4 10.6l28.8 50.1c4.8 8.4 7.2 18 6.7 27.9z"/><path class="q" d="m182.5 388.7q-0.1 0-0.1 0c-0.3 0-0.6-0.4-0.6-0.8 0.1-1.1 6.9-109.6-1.2-126.8-1.4-3-3.8-7-6.5-11.5-11.6-18.7-31.1-50.1-26.9-95.3 0-0.4 0.3-0.8 0.7-0.7 0.4 0 0.8 0.4 0.6 0.8-4 44.7 15.2 75.9 26.7 94.5 2.9 4.6 5.2 8.4 6.7 11.5 8.1 17.6 1.6 123.2 1.3 127.6 0 0.4-0.3 0.7-0.7 0.7z"/><path class="s" d="m169.2 166.2l-6.5 23.7c-25.3-10.3-43.3-26.2-52.1-34.8 2.3-3.8 3.9-6.4 3.9-6.4z"/><path class="p" d="m178.6 405.9l-0.7-9.5 18.1-0.3c0.5 0 0.8 0.3 0.8 0.7 0 0.3-0.4 0.7-0.8 0.7l-16.6 0.4 0.4 6.5 16.8-0.8c0.4 0 0.8 0.4 0.8 0.8 0 0.3-0.3 0.6-0.6 0.7z"/><path class="p" d="m116.6 394.7q-0.1 0-0.2 0l-15.5-5 3.9-9 13.7 4.9c0.4 0.1 0.5 0.6 0.4 1-0.2 0.3-0.5 0.5-0.9 0.3l-12.5-4.5-2.7 6.4 14.1 4.5c0.4 0.1 0.6 0.5 0.5 0.9-0.1 0.3-0.4 0.5-0.8 0.5z"/><path class="t" d="m188.7 61.7l-1 3.8-4.2 15.5-2.7 10.3-24.5-8.8 11.8-24.2 5.7-8.3z"/><path class="g" d="m187.7 65.5l-4.2 15.5c-7.2-7.9-5.7-17.7-5.7-17.7z"/><path class="t" d="m207.1 40c0 0-1.6 34.9-19.2 31.9-17.7-3-17.3-33-17.3-33l22.9-7.4z"/><path class="g" d="m182.5 45.2c0 0 10.3-10.3 24.6-5.2 0 0 6.4 2.6 8.8-2.5 0 0-20.3-26.9-36.2-13.9 0 0-28.7 6.2-11.7 34.7z"/><path class="t" d="m188.3 45.2c0.5 3.4-1.5 6.5-4.4 7-3 0.5-5.8-1.9-6.3-5.2-0.7-3.5 1.3-6.6 4.3-7.1 2.9-0.4 5.8 1.8 6.4 5.3z"/><path class="t" d="m204.5 60.8c-1.7 0-3.1-1.4-3.1-3.2 0-1.7 1.4-3.1 3.1-3.1 1.8 0 3.2 1.4 3.2 3.1 0 1.8-1.4 3.2-3.2 3.2z"/><path class="u" d="m192.3 59.8c-3 0-5.4-2.4-5.4-5.4 0-3 2.4-5.4 5.4-5.4 3 0 5.5 2.4 5.5 5.4 0 3-2.5 5.4-5.5 5.4z"/><path class="t" d="m294.3 110.9c0 0 3.3 4.5-3.3 9 0 0 5.2 3.6-13 9.6-2 0.6-4.2 1.2-7 2l-7.2-26.5c0 0 32.4-10.9 33.3-7.4 0.7 3.5-5.9 8.2-5.9 8.2 0 0 11.7-2.9 3.1 5.1z"/><path class="v" d="m263.8 105l-38.5 4.9c0 0-55.2-39.4-66.6-35.6-11.3 3.8-49.7 65.3-49.7 65.3 0 0-10.3 3.2-9.8 7.4 0.5 4.3 67.5 39.2 76.5 30.3 5.7-5.6 12.2-49.7 12.2-49.7l24.4 10.1c7.3 3 15.2 3.7 23 2l35.7-8.2z"/><g style="opacity:.8"><path class="p" d="m261.3 128.6c-1.2-5.1-2.6-10.1-3.7-15q-0.5-1.9-1-4.1-0.4-1.7-0.8-3.5l-1.3 0.2q0.3 1.8 0.7 3.6 0.5 2.1 1 4.2c1.1 4.8 2.5 9.9 3.7 15q0.7 2.3 1.3 4.7l1.4-0.2q-0.7-2.4-1.3-4.9z"/><path class="p" d="m195.5 90.2q-0.9 0.3-1.7 0.4c-10.6 2.2-22.1 4-33.2 2.1-5.6-0.9-10.8-2.9-15.3-5.6q-0.4 0.6-0.9 1.1c4.6 2.9 10.1 4.9 16 6 11.3 1.9 22.9 0 33.7-2.2q1.7-0.3 3.2-0.7-0.8-0.5-1.8-1.1z"/><path class="p" d="m180.8 158.3c-3.1 0.3-6.5 0.6-9.7 0.2-9.4-0.9-17.8-6.7-23.3-11q-2.9-2.3-5.8-4.8c-4.8-4-9.8-8.2-15.4-11.4-3.2-1.7-6.5-3.1-9.7-3.8-0.4 0.4-0.6 0.7-0.9 1.2 3.2 0.8 6.6 2 9.9 3.9 5.6 3 10.4 7.2 15.3 11.2 1.8 1.6 3.7 3.2 5.7 4.7 5.6 4.5 14.2 10.5 24.1 11.5 3.3 0.3 6.7 0 9.9-0.2 0.4 0 0.7 0 1-0.2q0.2-0.6 0.4-1.3-0.7 0-1.5 0z"/></g><path class="w" d="m187.9 127.6l-10-4.4c0 0 2.5 15.7 7.3 18z"/><path class="x" d="m278 129.5c-2 0.6-4.2 1.2-7 2l-7.2-26.5z"/><path class="x" d="m715.4 289.2l23.2 10.5 17.2-56.8-22.6-6c-6 13.4-12.1 30.5-17.8 52.3z"/><path class="g" d="m733.2 236.9l22.6 6 19.3-53c0 0-23.3-3.1-41.9 47z"/><path class="g" d="m705.8 269.5l-16.7 46 62.3 23.9 12.6-47.8z"/><path class="x" d="m726.2 330.9c-0.3 1.2-4.1 2.8-6.4 0.7-4.8-0.9-7.9-1.5-10.8-4.6-2.6-1-3.8-3.9-2.6-6.2 2.3-4.7 5.9-11.1 7.5-10.9 2.1 0.3 0.6 6.9 0.6 6.9 0 0 3.5-8.4 6.9-7.3 1.5 0.5-2.1 8.4-2.5 9.3 0.6-0.8 5.1-6.8 6.8-5.5 1.7 1.2-2.5 8.3-2.9 9.1 0.4-0.5 4.4-5.4 6.3-3.8 0.9 0.7-0.5 5.5-2.9 12.3z"/><path class="g" d="m843.5 489.1c0 0 30.2-3.4 43-31.1l-33.7 1.8z"/><path class="x" d="m876.8 458.2l-28.9 18 13 19.1 28-19z"/><path class="g" d="m906.8 503.3l-17.9-27-28 19 4.8 7-2.9 37.3z"/><path class="p" d="m865.7 503.3l-0.1-1.9 14.2-0.7 0.1 1.9z"/><path class="x" d="m794.3 509.3l-31.8-1.9v25.7l34.3-2.1z"/><path class="g" d="m762.5 533.1v6.1l-23.9 23.9h61.7l-3.5-32.1z"/><path class="p" d="m774.8 548.3l-13.5-7.8 1-1.7 13.5 7.9z"/><path class="r" d="m792.7 344.8c-0.5 11.7-0.5 24.1-0.4 36.5 0.2 10.9 0.6 21.7 1.1 32.4 2.7 52.9 9.1 99.6 9.1 99.6l-49.1 6.3c-23.4-162.5-8.2-231.1-8.2-231.1l21.4-4.4 19-3.8 21.3-4.4q-0.4 0.6-0.8 1.2c-3.2 5.3-5.8 12.4-7.8 20.9-3 12.9-4.9 29.1-5.6 46.8z"/><path class="q" d="m793.5 413.7c-20.7-43.8-12.9-78.6-12.9-78.6l12.1 9.7c-0.5 11.7-0.5 24.1-0.4 36.5 0.2 10.9 0.6 21.7 1.2 32.4z"/><path class="r" d="m886.5 458c-23.7 8.9-43 31.1-43 31.1-20.4-36-37.9-72.3-51.2-107.8-11.1-29.5-19.3-58.7-24.1-86.7q-1-5.4-1.6-10.5-0.1-0.5-0.1-1l19.1-2.8 20.5-3.2 10.5-1.6c1 6.6 2.5 13.6 4.3 20.7 17.9 71.2 65.6 161.8 65.6 161.8z"/><g style="opacity:.8"><path class="p" d="m844.9 367.4q-0.5-1.2-0.9-2.3c-3.9-2.5-7.6-5.2-10.8-8.5-8.9-9.2-13.4-22.6-11.8-35.3 0.5-3.9 1.7-7.8 3.3-11.4q-0.4-1-0.6-2c-2 4.1-3.4 8.6-4 13.2-1.8 13 2.8 27.1 12.1 36.5 3.7 3.8 8.2 6.9 12.7 9.8z"/><path class="p" d="m869.7 423.7q-0.4-0.5-0.7-1.3c-5.2 2.2-11.4 2.5-17.9 2.9-6.6 0.4-13.3 0.8-19.3 3.1-6 2.4-10.7 6.5-14.1 11.7q0.4 0.8 0.8 1.5c3.2-5.2 7.8-9.6 13.8-11.8 5.7-2.2 12.4-2.6 18.8-3 6.5-0.4 13-0.7 18.6-3.1z"/><path class="p" d="m756.4 418.3c15.7 8 28.4 21.5 39.7 33.9q-0.1-1.1-0.2-2.2c-11-12.2-23.6-25.1-38.9-32.9-4.8-2.5-9.9-4.4-14.9-5.5q0 0.7 0 1.5 7.2 1.7 14.3 5.2z"/><path class="p" d="m799.9 491.2c-4 1-8.2 0.8-11.9-0.1-3.6-0.9-7.3-2.2-10.8-3.6-3.7-1.5-7.6-3-11.6-4-5.6-1.1-11.3-1-16.9 0.4q0 0.6 0.1 1.3c5.5-1.3 11.1-1.4 16.6-0.2 3.8 0.7 7.7 2.2 11.3 3.7 3.6 1.5 7.2 2.9 11.1 3.8 3.6 0.8 8.1 1.1 12.2 0.2 0-0.5-0.1-1-0.1-1.5z"/><path class="p" d="m752.2 358.3c0.5 9.8-4 19.5-11.5 26q0.1 0.9 0.1 1.8c8.2-6.7 13.4-17.2 12.7-28-0.5-9.4-5.3-18.4-12.7-24.4q-0.1 0.9-0.1 1.9c6.6 5.6 11 13.8 11.5 22.7z"/></g><path class="y" d="m820.9 296.2c-7.6 1.4-15.2 1.9-22.5 1.8-11.1-0.3-21.6-1.8-30.2-3.4-13.7-2.8-23-6.1-23-6.1l21.4-4.4q-0.1-0.5-0.1-1l19.1-2.8 21.4-4.4q-0.5 0.6-0.9 1.2l10.5-1.6c1 6.6 2.5 13.6 4.3 20.7z"/><path class="q" d="m792.3 382.3c-0.4 0-0.8-0.2-0.9-0.6l-13.6-38.4-16.4-10c-0.5-0.2-0.6-0.8-0.4-1.2 0.3-0.5 0.9-0.6 1.4-0.4l16.9 10.2 13.9 39.2c0.2 0.3 0 1-0.5 1.1q-0.2 0.1-0.4 0.1z"/><path class="q" d="m824.6 282.9c-31.7 12.1-86 5.2-86 5.2 2.1-22.9 2.3-91 37.7-99.4l15.9 1.6c8.3 3.2 14.8 15.7 19.7 30.4 2.8 8.7 5.2 18.3 7.1 27.4 3.8 18.7 5.6 34.8 5.6 34.8z"/><path class="g" d="m819 248.1c-15-8.7-18.1-28.3-18.1-28.3l11 0.9c2.8 8.7 5.2 18.3 7.1 27.4z"/><path class="q" d="m792.2 190.3l-2.2 30.5 32.6 17.3 6.6-31.5c-28.7-16.9-37-16.3-37-16.3z"/><path class="x" d="m854.1 232.2q-1.1 1.7-2.6 3.2c-1.8 1.9-3.9 3.4-6.1 4.5-3.5 1.7-7.4 2.5-11.1 2.2-3.1-0.2-6.2-1.1-9-2.6l-2.7-1.4 6.6-31.5c1.7 1 3.6 2.1 5.5 3.3 0 0 25.7-36.3 27.6-35.7 1.8 0.6-1.1 6.2-1.7 7.4 1.1-1.7 9.4-13.9 11.7-13 1.7 0.6-0.5 6.1-0.8 6.7 0.5-0.7 5-7.3 7.8-5.7 1.2 0.7-3.6 7.9-4.1 8.6 0.6-0.5 5.9-5.7 7.3-4.2 1.3 1.6-3.9 7.8-4.5 8.4 0.5-0.5 5.1-4.5 6.6-2.5 1.9 2.5-21.5 38.7-30.5 52.3z"/><path class="u" d="m851.5 235.4c-1.8 1.9-3.9 3.4-6.1 4.5-3.5 1.7-7.4 2.5-11.1 2.2q-0.3-1-0.3-2.1c0-5.1 4.3-9.3 9.4-9.3 3.5 0 6.6 2 8.1 4.7z"/><path class="h" d="m772.6 281.8c-14 0-26.5-0.9-32.7-1.4q-0.6-0.1-0.7-0.1c-0.4 0-0.6-0.3-0.6-0.8 0-0.4 0.2-0.6 0.6-0.6 0.1 0 0.4 0 0.9 0 14.1 1.2 61.3 4.3 82.7-5.6 0.4-0.3 0.8 0 1 0.4 0.1 0.2 0 0.7-0.4 0.8-12.2 5.8-32.7 7.3-50.8 7.3z"/><path class="h" d="m779.9 210.1c-7.4 0-10.7-5-10.8-5-0.1-0.4-0.1-0.7 0.3-1 0.3-0.2 0.7-0.1 1 0.3 0.2 0.3 6.1 9.1 21 1 0.4-0.3 0.9-0.2 1 0.2 0.3 0.4 0 0.8-0.2 1-4.9 2.6-8.9 3.5-12.3 3.5z"/><path class="z" d="m804.9 131.1c4-2.2 9.3-2.5 12.9 0.4 1.8 1.5 2.9 3.7 4.6 5.3 3.8 3.6 9.4 4.5 12.9 8.1 2.7 2.9 3.7 7.1 3.3 11-0.2 4-1.6 7.7-2.9 11.3-2.2 5.3-4.7 10.5-8.8 14.2-1.6 1.5-3.5 2.8-5.6 3.2-2.1 0.5-4.3 0.2-6.1-1.2-1.7-1.3-2.6-3.6-2.9-5.8-0.1-2.4 0.4-4.6 0.9-6.8 1.1 0.7 2.6 0.7 3.8-0.1 1.1-0.6 1.8-2 1.6-3.3-0.3-2.3-2.4-3.8-4.5-4.8q-4.9-2.7-9.9-5.5c-1.8-1-3.8-2.1-5.3-3.7-2.5-2.9-4.4-8.8-2.8-12.5 1.8-3.8 5-7.7 8.8-9.8z"/><path class="v" d="m765.7 149.4c0 0-0.2-22.4 27.6-16.4 4.7 1 8.8 3.5 11.8 7.2 4.6 5.6 7.5 29.2-5.5 35.6-16.2 8.3-33.9-26.4-33.9-26.4z"/><path class="x" d="m794.5 168.4l-0.6 22.4c-0.1 5.7-4.7 10.3-10.5 10.7q-0.2 0-0.5 0c-6.3 0-11.4-5.5-10.9-12l0.1-0.3 1.4-17.1 1.8-0.4z"/><path class="g" d="m785.1 176.3c0 0-3.5 8.8-13 12.9l1.4-17.1 1.8-0.4z"/><path class="x" d="m765.7 149.4c0 0-7.1 29.5 7.8 30.9 14.9 1.5 21-11.9 21-11.9l1.9-16.9-9.2-13.2-14.6 4.5z"/><path class="v" d="m765.7 149.4c0 0 13.8-7.6 18.7 2.6 3.5 7.1 8.8 11.1 14 8.8 5.1-2.4 0.9-19.4 0.9-19.4l-19.4-4.9-11.5 6.6z"/><path class="x" d="m799 164.1c-1.9 3.1-5.3 4.4-7.8 2.9-2.7-1.4-3.3-5.1-1.4-8.2 1.7-3.2 5.2-4.4 7.8-3 2.5 1.5 3.2 5.2 1.4 8.3z"/><path class="g" d="m792.9 164c-0.2 0-0.5-0.3-0.5-0.5 0.1-1.6 1.1-4.9 4.4-4.9 0.2 0 0.5 0.3 0.5 0.5 0 0.3-0.3 0.5-0.5 0.5-3.1 0-3.4 3.8-3.4 3.9 0 0.4-0.2 0.5-0.5 0.5z"/><path class="g" d="m766.7 161.3c-0.6 0-1.2-0.5-1.2-1.3 0-0.6 0.6-1.1 1.2-1.1 0.8 0 1.3 0.5 1.3 1.1 0 0.8-0.5 1.3-1.3 1.3z"/><path class="g" d="m776 161.3c-0.7 0-1.3-0.6-1.3-1.4 0-0.7 0.6-1.3 1.3-1.3 0.7 0 1.3 0.6 1.3 1.3 0 0.8-0.6 1.4-1.3 1.4z"/><path class="g" d="m770.5 167.4q-1.6 0-2.1-0.9c-0.9-1.8 1.2-5 1.7-5.6 0.1-0.3 0.4-0.3 0.6-0.1 0.3 0.1 0.3 0.5 0.2 0.6-1.2 1.7-2.2 3.7-1.7 4.6q0.3 0.5 1.5 0.5c0.3 0 0.5 0.1 0.5 0.4 0 0.2-0.2 0.5-0.5 0.5q-0.1 0-0.2 0z"/><path class="u" d="m782.7 169.6c-2.4 0-4.2-1.9-4.2-4.2 0-2.4 1.8-4.3 4.2-4.3 2.3 0 4.2 1.9 4.2 4.3 0 2.3-1.9 4.2-4.2 4.2z"/><path class="g" d="m771.1 171.5c-1.2 0-2.2-0.5-2.2-0.5-0.3-0.2-0.4-0.4-0.3-0.7 0.1-0.2 0.5-0.2 0.6-0.1 0.2 0 2.8 1.3 5.4-1.1 0.1-0.2 0.5-0.2 0.6 0 0.3 0.1 0.3 0.5 0 0.6-1.5 1.4-3 1.8-4.1 1.8z"/><path class="g" d="m769.5 157.4c-1-0.1-1.8-0.5-2.5-0.5-0.4 0-0.8 0.1-1.1 0.1-0.4 0.1-0.8 0.3-1.2 0.5h-0.1c-0.1 0.1-0.2 0-0.2-0.1q-0.2-0.1 0-0.3c0.1-0.5 0.5-1 1-1.2 0.5-0.3 1.1-0.4 1.6-0.4 1.1 0.1 2.1 0.6 2.7 1.4 0.2 0.1 0.2 0.4 0 0.4q-0.1 0.1-0.2 0.1z"/><path class="g" d="m773 157c0.6-1.2 1.8-2 3.2-2.1 0.8 0 1.4 0.1 2 0.5 0.6 0.2 1.1 0.7 1.4 1.4q0.2 0.2 0 0.3-0.1 0-0.3 0h-0.1c-0.5-0.2-1-0.5-1.5-0.6q-0.7-0.2-1.4-0.2c-1 0-2 0.5-3 1.1-0.1 0-0.3 0-0.3-0.1q-0.2-0.2 0-0.3z"/><path class="A" d="m-50.6 562.1h1049v1.9h-1049z"/></svg>